<svg xmlns="http://www.w3.org/2000/svg" xmlns:xlink="http://www.w3.org/1999/xlink" id="Layer_1" x="0px" y="0px" viewBox="0 0 300 300" style="enable-background:new 0 0 300 300;" xml:space="preserve"><style type="text/css">	.st0{fill-rule:evenodd;clip-rule:evenodd;fill:#FFBD1B;}	.st1{fill-rule:evenodd;clip-rule:evenodd;fill:#CCE6FF;}	.st2{fill-rule:evenodd;clip-rule:evenodd;fill:#AEDAFF;}	.st3{fill-rule:evenodd;clip-rule:evenodd;fill:#E7896E;}	.st4{fill-rule:evenodd;clip-rule:evenodd;fill:#3A7AD6;}	.st5{fill-rule:evenodd;clip-rule:evenodd;fill:#FFD16C;}	.st6{fill-rule:evenodd;clip-rule:evenodd;fill:#FFFFFF;}	.st7{fill-rule:evenodd;clip-rule:evenodd;fill:#BA8715;}	.st8{fill-rule:evenodd;clip-rule:evenodd;fill:#99C7FF;}	.st9{fill:#3A7AD6;}	.st10{fill:#FFD16C;}	.st11{fill:#BA8715;}	.st12{fill:#2E5972;}	.st13{fill:#B0475D;}	.st14{fill:#FFBD1B;}	.st15{fill-rule:evenodd;clip-rule:evenodd;fill:#EDEFF1;}	.st16{fill:#99C7FF;}	.st17{fill:#CCE6FF;}	.st18{clip-path:url(#SVGID_00000062899084918252793470000012444807005683618479_);}	.st19{fill:#FEF2E2;}	.st20{fill:#FFE1BA;}	.st21{fill:#0E3D6B;}	.st22{fill:#AEDAFF;}	.st23{fill:#FFFFFF;}	.st24{fill-rule:evenodd;clip-rule:evenodd;fill:#F6B4A8;}	.st25{fill-rule:evenodd;clip-rule:evenodd;fill:#F9C9C0;}	.st26{fill-rule:evenodd;clip-rule:evenodd;fill:#FFC738;}	.st27{fill:#86A0AF;}	.st28{fill:#738B95;}	.st29{fill:none;stroke:#000000;stroke-width:15;stroke-miterlimit:10;}	.st30{fill-rule:evenodd;clip-rule:evenodd;fill:#EB5463;}	.st31{fill-rule:evenodd;clip-rule:evenodd;}	.st32{fill:#FFF6BB;}	.st33{fill:#FFC472;}	.st34{fill:#FDB614;}	.st35{fill:#474747;}	.st36{opacity:0.1;enable-background:new    ;}	.st37{fill:#EBD8AE;}	.st38{fill-rule:evenodd;clip-rule:evenodd;fill:#DACFE6;}	.st39{fill-rule:evenodd;clip-rule:evenodd;fill:#9E4623;}	.st40{opacity:0.7;fill-rule:evenodd;clip-rule:evenodd;fill:#FFFFFF;}	.st41{fill-rule:evenodd;clip-rule:evenodd;fill:#E2F0FA;}	.st42{fill-rule:evenodd;clip-rule:evenodd;fill:#D0E4F2;}	.st43{fill-rule:evenodd;clip-rule:evenodd;fill:#FFC943;}	.st44{fill-rule:evenodd;clip-rule:evenodd;fill:#6BA4E8;}	.st45{fill-rule:evenodd;clip-rule:evenodd;fill:#FFAA16;}	.st46{fill-rule:evenodd;clip-rule:evenodd;fill:#2567B7;}	.st47{fill-rule:evenodd;clip-rule:evenodd;fill:#EBCDCD;}	.st48{fill-rule:evenodd;clip-rule:evenodd;fill:#D1E7FF;}	.st49{fill-rule:evenodd;clip-rule:evenodd;fill:#222124;}	.st50{fill-rule:evenodd;clip-rule:evenodd;fill:#FAD1A2;}	.st51{fill-rule:evenodd;clip-rule:evenodd;fill:#E6E6E6;}	.st52{fill:url(#SVGID_00000020363315329896036410000008264065374192599974_);}	.st53{fill:none;stroke:#211E1F;stroke-width:0.25;stroke-miterlimit:10;}	.st54{fill:url(#SVGID_00000085931319992225042480000004527770372700222628_);}	.st55{fill:url(#SVGID_00000052799517383201929730000006607232654770283454_);}	.st56{fill:url(#SVGID_00000127019936332031774730000005834733821452809124_);}	.st57{fill:url(#SVGID_00000168084313691354503350000002511204909951409593_);}	.st58{fill:#112A4D;}	.st59{fill:url(#SVGID_00000146479015908329357350000005677149698725120131_);}	.st60{fill:url(#SVGID_00000033361880206229981210000013159941710531962787_);}	.st61{fill:url(#SVGID_00000168828998228818704090000006346136298785278117_);}	.st62{fill:url(#SVGID_00000025438657054312128060000016829451525397620157_);}	.st63{fill:url(#SVGID_00000165949978221760539810000013439602972181447318_);}	.st64{fill:url(#SVGID_00000014595622393183492080000009605555450463994806_);}	.st65{fill:url(#SVGID_00000166652697659366172080000006884361927462954929_);}	.st66{fill:url(#SVGID_00000013889526155719317480000000111842282914278322_);}	.st67{fill:url(#SVGID_00000128446522935809348550000013441116667400416407_);}	.st68{fill:url(#SVGID_00000152266068692381587950000004745213680231730604_);}	.st69{fill:url(#SVGID_00000127019665389441447970000005462701085386740155_);}	.st70{fill:url(#SVGID_00000163075294148649433210000013608541873949240765_);}	.st71{fill:url(#SVGID_00000064342577274678193730000016793481729560912059_);}	.st72{fill:url(#SVGID_00000065793939250066174590000012672662572091175596_);}	.st73{fill:url(#SVGID_00000121244871820788032300000011658089191883588794_);}	.st74{fill:url(#SVGID_00000086659474478036762130000004194847483591917462_);}	.st75{fill:url(#SVGID_00000062164301013564144480000012657895928610188416_);}	.st76{fill:url(#SVGID_00000073698965497016937310000005063894681945461651_);}	.st77{fill:url(#SVGID_00000151539195518892986880000007874493778657387925_);}	.st78{fill:url(#SVGID_00000103983114323939134900000014076896054121544869_);}	.st79{fill:url(#SVGID_00000119079706897689152650000012822050335849034173_);}	.st80{fill:url(#SVGID_00000000925992668968553860000007777971175735513993_);}	.st81{fill:url(#SVGID_00000116917837545850306030000018181561415861949077_);}	.st82{fill:url(#SVGID_00000139999829343543447270000004360379821169668235_);}	.st83{fill:url(#SVGID_00000056404443926685331840000010581719620137450927_);}	.st84{fill:#082649;}	.st85{fill:#EFEFEF;}	.st86{fill:#DDDDDD;}	.st87{fill:#629FDD;}	.st88{fill:#FFC943;}	.st89{fill-rule:evenodd;clip-rule:evenodd;fill:#837683;}	.st90{fill-rule:evenodd;clip-rule:evenodd;fill:#685E68;}	.st91{fill-rule:evenodd;clip-rule:evenodd;fill:#E3A76F;}	.st92{fill-rule:evenodd;clip-rule:evenodd;fill:#FFD064;}	.st93{fill-rule:evenodd;clip-rule:evenodd;fill:#ECEFF1;}	.st94{fill-rule:evenodd;clip-rule:evenodd;fill:#D1D1D6;}	.st95{fill-rule:evenodd;clip-rule:evenodd;fill:#F6DCCD;}	.st96{fill-rule:evenodd;clip-rule:evenodd;fill:#F1CBBC;}	.st97{fill-rule:evenodd;clip-rule:evenodd;fill:#B1B1B5;}	.st98{fill-rule:evenodd;clip-rule:evenodd;fill:#242222;}	.st99{fill:#CCD1D9;}	.st100{fill:#DFF6FD;}	.st101{fill:#D5E3F4;}	.st102{fill:#FFEEE6;}	.st103{fill:#FFDFCF;}</style><g>	<g>		<path class="st4" d="M17.07,5.54h167.69c6.89,0,12.53,5.64,12.53,12.53v27.8H52.49c-6.89,0-12.51,5.64-12.51,12.53v187.31H17.07   c-6.89,0-12.53-5.64-12.53-12.51V18.07C4.54,11.18,10.18,5.54,17.07,5.54L17.07,5.54z"></path>		<path class="st2" d="M16.32,5.54h167.69c6.89,0,12.53,5.64,12.53,12.53v116.5c-14.15,1.3-26.94,7.31-36.76,16.46   c-7.94-0.07-16.15-0.72-24.58-1.94C73.68,139.98,20.6,101.36,3.79,57.17v-39.1C3.79,11.18,9.43,5.54,16.32,5.54z"></path>		<path class="st7" d="M52.49,40.65h167.71c6.87,0,12.51,5.62,12.51,12.51v116.5c-31.81,2.94-56.72,29.69-56.72,62.27   c0,19.79,9.18,37.42,23.52,48.87H52.49c-6.89,0-12.51-5.62-12.51-12.51V53.16C39.98,46.27,45.6,40.65,52.49,40.65L52.49,40.65z"></path>		<path class="st0" d="M52.49,40.65h167.71c6.87,0,12.51,5.62,12.51,12.51v116.5c-14.15,1.3-26.92,7.33-36.74,16.46   c-7.94-0.07-16.15-0.7-24.58-1.94c-61.51-9.11-114.61-47.73-131.4-91.92v-39.1C39.98,46.27,45.6,40.65,52.49,40.65L52.49,40.65z"></path>		<path class="st4" d="M92.2,64h88.3c5.64,0,10.23,4.6,10.23,10.23v10.23c0,5.64-4.6,10.23-10.23,10.23H92.2   c-5.64,0-10.23-4.6-10.23-10.23V74.23C81.97,68.59,86.56,64,92.2,64z"></path>		<path class="st4" d="M232.94,169.41c34.52,0,62.52,27.98,62.52,62.52s-28,62.54-62.52,62.54c-34.54,0-62.54-28-62.54-62.54   C170.39,197.39,198.39,169.41,232.94,169.41z"></path>		<path class="st8" d="M232.94,169.41c34.52,0,62.52,27.98,62.52,62.52c0,16.77-6.6,32.03-17.36,43.25   c-8.69,4.58-18.58,7.17-29.08,7.17c-34.54,0-62.54-28-62.54-62.52c0-16.79,6.61-32.03,17.36-43.25   C212.52,172,222.43,169.41,232.94,169.41z"></path>		<path class="st0" d="M232.94,210.99l29.41,35.29h-18.74v34.87h-21.36v-34.87H203.5L232.94,210.99z"></path>	</g>	<path d="M236.45,208.16l29.38,35.24c1.6,1.93,1.34,4.78-0.57,6.36c-0.84,0.72-1.87,1.05-2.9,1.05v0.02h-14.22v30.33  c0,2.48-2.02,4.52-4.52,4.52v0.02h-21.37c-2.5,0-4.54-2.04-4.54-4.54c0-0.15,0.02-0.28,0.02-0.4v-29.93h-14.22  c-2.51,0-4.54-2.02-4.54-4.54c0-1.25,0.51-2.39,1.32-3.21l29.17-34.96c1.58-1.91,4.43-2.18,6.36-0.59  C236.06,207.72,236.27,207.94,236.45,208.16L236.45,208.16z M252.69,241.74l-19.75-23.7l-19.77,23.7h9.07v0.02  c2.5,0,4.52,2.02,4.52,4.52v30.33h12.33v-29.93c-0.02-0.13-0.02-0.26-0.02-0.4c0-2.5,2.04-4.54,4.54-4.54H252.69z M201.93,204.72  c-2.5,0-4.54-2.04-4.54-4.54c0-2.51,2.04-4.54,4.54-4.54h62.01c2.5,0,4.54,2.02,4.54,4.54c0,2.5-2.04,4.54-4.54,4.54H201.93z   M237.26,165c16.79,1.06,31.92,8.32,43.1,19.51c12.15,12.15,19.64,28.9,19.64,47.42s-7.5,35.29-19.64,47.44  c-12.15,12.13-28.9,19.64-47.42,19.64c-15.25,0-29.3-5.09-40.59-13.67H52.49c-4.69,0-8.94-1.91-12.06-5c-3.09-3.09-5-7.35-5-12.06  v-18.04H17.07c-4.71,0-8.96-1.91-12.06-5.02C1.93,242.13,0,237.87,0,233.18V18.07c0-4.71,1.93-8.96,5.02-12.06S12.37,1,17.07,1  h167.69c4.71,0,8.96,1.93,12.06,5.02c3.09,3.09,5.02,7.35,5.02,12.06v18.04h18.38c4.69,0,8.94,1.91,12.06,5  c3.09,3.09,5,7.37,5,12.06L237.26,165L237.26,165z M182.6,276.26c-10.42-11.82-16.74-27.34-16.74-44.33  c0-18.52,7.51-35.28,19.64-47.42c11.1-11.1,26.06-18.32,42.68-19.48V53.16c0-2.18-0.9-4.19-2.35-5.62  c-1.43-1.45-3.44-2.35-5.62-2.35H197.3H52.5c-2.18,0-4.19,0.9-5.62,2.35c-1.45,1.43-2.35,3.44-2.35,5.62v5.24v187.31v22.58  c0,2.18,0.9,4.19,2.35,5.64c1.43,1.45,3.44,2.33,5.62,2.33H182.6z M273.94,190.92c-10.49-10.49-25.01-16.98-41.01-16.98  c-16.02,0-30.52,6.49-41.03,16.98c-10.49,10.49-16.98,25.01-16.98,41.01c0,16.02,6.49,30.52,16.98,41.01  c10.51,10.51,25.01,16.99,41.03,16.99c16,0,30.52-6.49,41.01-16.99c10.49-10.49,16.98-24.99,16.98-41.01  C290.93,215.93,284.44,201.42,273.94,190.92z M71.66,229.29c-2.5,0-4.54-2.02-4.54-4.54c0-2.5,2.04-4.54,4.54-4.54h54.42  c2.5,0,4.52,2.04,4.52,4.54c0,2.51-2.02,4.54-4.52,4.54H71.66z M71.66,197.68c-2.5,0-4.54-2.04-4.54-4.54  c0-2.51,2.04-4.54,4.54-4.54h70.28c2.5,0,4.54,2.02,4.54,4.54c0,2.5-2.04,4.54-4.54,4.54H71.66z M71.66,166.06  c-2.5,0-4.54-2.04-4.54-4.54c0-2.5,2.04-4.54,4.54-4.54h115.9c2.51,0,4.54,2.04,4.54,4.54c0,2.5-2.02,4.54-4.54,4.54H71.66z   M71.66,134.44c-2.5,0-4.54-2.02-4.54-4.52c0-2.51,2.04-4.54,4.54-4.54h115.9c2.51,0,4.54,2.02,4.54,4.54  c0,2.5-2.02,4.52-4.54,4.52H71.66z M92.2,59.46h88.3c4.08,0,7.77,1.65,10.44,4.34c2.68,2.66,4.34,6.36,4.34,10.44v10.23  c0,4.08-1.65,7.77-4.34,10.44c-2.66,2.68-6.36,4.34-10.44,4.34H92.2c-4.08,0-7.77-1.65-10.44-4.34c-2.68-2.66-4.34-6.36-4.34-10.44  V74.23c0-4.08,1.65-7.77,4.34-10.44C84.43,61.11,88.12,59.46,92.2,59.46L92.2,59.46z M180.5,68.54H92.2  c-1.56,0-2.99,0.64-4.03,1.67c-1.03,1.03-1.67,2.46-1.67,4.03v10.23c0,1.56,0.64,2.99,1.67,4.03c1.03,1.03,2.46,1.67,4.03,1.67  h88.3c1.56,0,2.99-0.64,4.03-1.67c1.03-1.03,1.67-2.46,1.67-4.03V74.24c0-1.56-0.64-2.99-1.67-4.03  C183.49,69.18,182.06,68.54,180.5,68.54z M35.45,58.4v-5.24c0-4.69,1.91-8.96,5-12.06c3.1-3.09,7.37-5,12.06-5h140.26V18.07  c0-2.18-0.9-4.19-2.35-5.64s-3.45-2.35-5.64-2.35H17.07c-2.18,0-4.19,0.9-5.64,2.35s-2.35,3.45-2.35,5.64V233.2  c0,2.18,0.9,4.17,2.35,5.62s3.45,2.35,5.64,2.35h18.38L35.45,58.4z"></path></g></svg>