<svg xmlns="http://www.w3.org/2000/svg" xmlns:xlink="http://www.w3.org/1999/xlink" id="Layer_1" x="0px" y="0px" viewBox="0 0 300 300" style="enable-background:new 0 0 300 300;" xml:space="preserve"><style type="text/css">	.st0{fill-rule:evenodd;clip-rule:evenodd;fill:#FFBD1B;}	.st1{fill-rule:evenodd;clip-rule:evenodd;fill:#CCE6FF;}	.st2{fill-rule:evenodd;clip-rule:evenodd;fill:#AEDAFF;}	.st3{fill-rule:evenodd;clip-rule:evenodd;fill:#E7896E;}	.st4{fill-rule:evenodd;clip-rule:evenodd;fill:#3A7AD6;}	.st5{fill-rule:evenodd;clip-rule:evenodd;fill:#FFD16C;}	.st6{fill-rule:evenodd;clip-rule:evenodd;fill:#FFFFFF;}	.st7{fill-rule:evenodd;clip-rule:evenodd;fill:#BA8715;}	.st8{fill-rule:evenodd;clip-rule:evenodd;fill:#99C7FF;}	.st9{fill:#3A7AD6;}	.st10{fill:#FFD16C;}	.st11{fill:#BA8715;}	.st12{fill:#2E5972;}	.st13{fill:#B0475D;}	.st14{fill:#FFBD1B;}	.st15{fill-rule:evenodd;clip-rule:evenodd;fill:#EDEFF1;}	.st16{fill:#99C7FF;}	.st17{fill:#CCE6FF;}	.st18{clip-path:url(#SVGID_00000001656410278991787330000004491659624197045685_);}	.st19{fill:#FEF2E2;}	.st20{fill:#FFE1BA;}	.st21{fill:#0E3D6B;}	.st22{fill:#AEDAFF;}	.st23{fill:#FFFFFF;}	.st24{fill-rule:evenodd;clip-rule:evenodd;fill:#F6B4A8;}	.st25{fill-rule:evenodd;clip-rule:evenodd;fill:#F9C9C0;}	.st26{fill-rule:evenodd;clip-rule:evenodd;fill:#FFC738;}	.st27{fill:#86A0AF;}	.st28{fill:#738B95;}	.st29{fill:none;stroke:#000000;stroke-width:15;stroke-miterlimit:10;}	.st30{fill-rule:evenodd;clip-rule:evenodd;fill:#EB5463;}	.st31{fill-rule:evenodd;clip-rule:evenodd;}	.st32{fill:#FFF6BB;}	.st33{fill:#FFC472;}	.st34{fill:#FDB614;}	.st35{fill:#474747;}	.st36{opacity:0.1;enable-background:new    ;}	.st37{fill:#EBD8AE;}	.st38{fill-rule:evenodd;clip-rule:evenodd;fill:#DACFE6;}	.st39{fill-rule:evenodd;clip-rule:evenodd;fill:#9E4623;}	.st40{opacity:0.7;fill-rule:evenodd;clip-rule:evenodd;fill:#FFFFFF;}	.st41{fill-rule:evenodd;clip-rule:evenodd;fill:#E2F0FA;}	.st42{fill-rule:evenodd;clip-rule:evenodd;fill:#D0E4F2;}	.st43{fill-rule:evenodd;clip-rule:evenodd;fill:#FFC943;}	.st44{fill-rule:evenodd;clip-rule:evenodd;fill:#6BA4E8;}	.st45{fill-rule:evenodd;clip-rule:evenodd;fill:#FFAA16;}	.st46{fill-rule:evenodd;clip-rule:evenodd;fill:#2567B7;}	.st47{fill-rule:evenodd;clip-rule:evenodd;fill:#EBCDCD;}	.st48{fill-rule:evenodd;clip-rule:evenodd;fill:#D1E7FF;}	.st49{fill-rule:evenodd;clip-rule:evenodd;fill:#222124;}	.st50{fill-rule:evenodd;clip-rule:evenodd;fill:#FAD1A2;}	.st51{fill-rule:evenodd;clip-rule:evenodd;fill:#E6E6E6;}	.st52{fill:url(#SVGID_00000108987827158062605050000001813715572417512584_);}	.st53{fill:none;stroke:#211E1F;stroke-width:0.25;stroke-miterlimit:10;}	.st54{fill:url(#SVGID_00000128453421675457189010000009560011264482619311_);}	.st55{fill:url(#SVGID_00000036226519302266576880000014210347164207707034_);}	.st56{fill:url(#SVGID_00000031902530972623052810000000475460996949436812_);}	.st57{fill:url(#SVGID_00000156546048483119179490000018094647235850579845_);}	.st58{fill:#112A4D;}	.st59{fill:url(#SVGID_00000065780367963399260210000013354212239462125466_);}	.st60{fill:url(#SVGID_00000060739319063364974560000017436963315092899717_);}	.st61{fill:url(#SVGID_00000086687592784935285450000000050547745550753949_);}	.st62{fill:url(#SVGID_00000153678935848027060700000014981251606659539099_);}	.st63{fill:url(#SVGID_00000044886150789426778020000006968302462207736253_);}	.st64{fill:url(#SVGID_00000036951226163457339180000009146147161183077545_);}	.st65{fill:url(#SVGID_00000116204087510975705080000018386720342627342985_);}	.st66{fill:url(#SVGID_00000131366477867456973050000001823672460298918026_);}	.st67{fill:url(#SVGID_00000003820655693402398840000011796452344120193180_);}	.st68{fill:url(#SVGID_00000080910605777285170740000018230388293881357234_);}	.st69{fill:url(#SVGID_00000039815513249674457260000004468434907483411896_);}	.st70{fill:url(#SVGID_00000134961093500783658550000012337254258430142871_);}	.st71{fill:url(#SVGID_00000073682327425237353100000006212904073744700344_);}	.st72{fill:url(#SVGID_00000015348411346762414820000007109300591533899667_);}	.st73{fill:url(#SVGID_00000117669709435428654740000004445061222825548963_);}	.st74{fill:url(#SVGID_00000104702285634215511050000017074967797474312348_);}	.st75{fill:url(#SVGID_00000127744086582211988430000016899113925742785160_);}	.st76{fill:url(#SVGID_00000044856027558309991560000015884688905546040767_);}	.st77{fill:url(#SVGID_00000116916899742940611250000015248408542542374801_);}	.st78{fill:url(#SVGID_00000010306567112246228260000016370654938043765947_);}	.st79{fill:url(#SVGID_00000065054229983966360370000009473273040682280327_);}	.st80{fill:url(#SVGID_00000070077327493199161530000012136270886173927554_);}	.st81{fill:url(#SVGID_00000041987256619803258630000003631878257282311841_);}	.st82{fill:url(#SVGID_00000167382084417556343610000001286039739648035228_);}	.st83{fill:url(#SVGID_00000037652861463205475750000017261967633766924462_);}	.st84{fill:#082649;}	.st85{fill:#EFEFEF;}	.st86{fill:#DDDDDD;}	.st87{fill:#629FDD;}	.st88{fill:#FFC943;}	.st89{fill-rule:evenodd;clip-rule:evenodd;fill:#837683;}	.st90{fill-rule:evenodd;clip-rule:evenodd;fill:#685E68;}	.st91{fill-rule:evenodd;clip-rule:evenodd;fill:#E3A76F;}	.st92{fill-rule:evenodd;clip-rule:evenodd;fill:#FFD064;}	.st93{fill-rule:evenodd;clip-rule:evenodd;fill:#ECEFF1;}	.st94{fill-rule:evenodd;clip-rule:evenodd;fill:#D1D1D6;}	.st95{fill-rule:evenodd;clip-rule:evenodd;fill:#F6DCCD;}	.st96{fill-rule:evenodd;clip-rule:evenodd;fill:#F1CBBC;}	.st97{fill-rule:evenodd;clip-rule:evenodd;fill:#B1B1B5;}	.st98{fill-rule:evenodd;clip-rule:evenodd;fill:#242222;}	.st99{fill:#CCD1D9;}	.st100{fill:#DFF6FD;}	.st101{fill:#D5E3F4;}	.st102{fill:#FFEEE6;}	.st103{fill:#FFDFCF;}</style><g>	<g>		<path class="st0" d="M42.25,52.66v214.79c0,9.11,7.44,16.55,16.55,16.55h172.65c9.11,0,16.55-7.44,16.55-16.55V52.66   c0-9.11-7.44-16.55-16.55-16.55H58.81C49.7,36.11,42.25,43.55,42.25,52.66z"></path>		<path class="st1" d="M95.55,262.29l-30.61-31.87V57.81h160.38v204.49H95.55z"></path>		<path class="st2" d="M225.32,233.91V57.81H77.86c-0.84,13.73,0.51,28.48,4.31,43.83C99.71,172.55,162.95,230.43,225.32,233.91z"></path>		<path class="st3" d="M95.55,262.29v-32.2H64.94L95.55,262.29z"></path>		<path class="st4" d="M107.07,30.9h15.37c-0.17-1.12-0.26-2.29-0.26-3.47c0-12.67,10.26-22.93,22.93-22.93   c12.68,0,22.95,10.26,22.95,22.93c0,1.17-0.09,2.35-0.26,3.47h15.37c4,0,7.26,3.26,7.26,7.26v16.9c0,4-3.26,7.26-7.26,7.26h-76.1   c-4,0-7.26-3.26-7.26-7.26V38.16C99.82,34.17,103.08,30.9,107.07,30.9z M145.12,18.26c5.08,0,9.2,4.11,9.2,9.18s-4.12,9.2-9.2,9.2   s-9.18-4.12-9.18-9.2S140.05,18.26,145.12,18.26L145.12,18.26z"></path>		<path class="st4" d="M87.69,86.56h68.4v39.04h-68.4L87.69,86.56z"></path>		<path class="st0" d="M65.86,180.17c31.83,0,57.64,25.8,57.64,57.64s-25.8,57.64-57.64,57.64s-57.64-25.8-57.64-57.64   S34.02,180.17,65.86,180.17z"></path>		<path class="st5" d="M108.03,198.52c9.59,10.3,15.46,24.1,15.46,39.29c0,31.83-25.8,57.64-57.64,57.64   c-4.62,0-9.11-0.55-13.4-1.58C42.88,283.57,37,269.77,37,254.59c0-31.83,25.8-57.64,57.64-57.64   C99.25,196.96,103.72,197.51,108.03,198.52L108.03,198.52z"></path>		<path class="st4" d="M236.28,64.65c30.66,0,55.51,24.87,55.51,55.53c0,30.65-24.85,55.51-55.51,55.51s-55.51-24.87-55.51-55.51   C180.77,89.51,205.62,64.65,236.28,64.65L236.28,64.65z"></path>		<path class="st6" d="M236.28,84.95c19.45,0,35.22,15.76,35.22,35.22c0,19.45-15.78,35.22-35.22,35.22   c-19.46,0-35.22-15.78-35.22-35.22C201.05,100.71,216.82,84.95,236.28,84.95z"></path>		<path class="st6" d="M291.19,112c0.4,2.66,0.61,5.39,0.61,8.17c0,2.94-0.24,5.81-0.68,8.61H181.43c-0.44-2.81-0.66-5.68-0.66-8.61   c0-2.79,0.2-5.51,0.59-8.17L291.19,112z"></path>		<path class="st6" d="M236.28,64.65c2.84,0,5.64,0.22,8.39,0.64v109.76c-2.75,0.42-5.55,0.64-8.39,0.64   c-2.86,0-5.66-0.22-8.39-0.64V65.29C230.62,64.87,233.42,64.65,236.28,64.65z"></path>		<path class="st0" d="M236.28,102.29c9.86,0,17.87,8.01,17.87,17.89c0,9.86-8.01,17.87-17.87,17.87c-9.88,0-17.89-8.01-17.89-17.87   C218.39,110.3,226.4,102.29,236.28,102.29L236.28,102.29z"></path>	</g>	<path d="M236.28,97.79c1.32,0,2.61,0.11,3.87,0.33V69.35c-2.59-0.2-5.17-0.2-7.73,0v28.77C233.66,97.9,234.96,97.79,236.28,97.79  L236.28,97.79z M249.2,101.89c2.15,1.54,4.03,3.43,5.53,5.61h9.51c-3.05-6.69-8.39-12.08-15.04-15.17V101.89z M258.38,116.54  c0.42,2.57,0.39,5.19-0.09,7.73h28.81c0.2-2.57,0.22-5.15,0.04-7.73H258.38z M254.4,133.33c-1.45,2-3.21,3.74-5.2,5.15v9.59  c6.48-3.03,11.77-8.25,14.82-14.73L254.4,133.33L254.4,133.33z M240.15,142.25c-2.55,0.44-5.19,0.44-7.73,0v28.77  c2.57,0.2,5.15,0.2,7.73,0V142.25z M223.36,138.48c-2.02-1.41-3.78-3.16-5.22-5.15h-9.62c3.06,6.48,8.34,11.71,14.84,14.73V138.48z   M214.25,124.27c-0.48-2.55-0.5-5.17-0.07-7.73h-28.77c-0.17,2.59-0.17,5.17,0.04,7.73H214.25z M217.8,107.49  c1.5-2.18,3.39-4.07,5.55-5.61v-9.57c-6.65,3.1-12.03,8.48-15.04,15.17H217.8z M245.72,110.76c-8.43-8.41-22.8-2.39-22.8,9.44  s14.39,17.83,22.8,9.44C250.92,124.4,250.9,115.96,245.72,110.76L245.72,110.76z M223.36,82.6V70.85  c-17.87,4.65-31.91,18.75-36.49,36.63h11.73C202.52,95.85,211.72,86.6,223.36,82.6z M249.2,70.85V82.6  c11.64,4,20.82,13.25,24.74,24.88h11.73C281.09,89.6,267.05,75.51,249.2,70.85z M249.2,157.78v11.75  c17.68-4.62,31.65-18.51,36.34-36.19h-11.75C269.76,144.78,260.67,153.82,249.2,157.78L249.2,157.78z M223.36,169.53v-11.75  c-11.49-3.96-20.58-13-24.59-24.45H187C191.71,151.02,205.66,164.91,223.36,169.53L223.36,169.53z M296.3,119.46  c0.35,27.42-17.9,51.28-43.76,58.54v89.47c0,11.62-9.46,21.08-21.08,21.08H101.82C91.67,295.75,79.26,300,65.86,300  C31.53,300,3.7,272.16,3.7,237.84c0-23.88,13.53-45.03,34.03-55.44V52.69c0-11.62,9.46-21.1,21.08-21.1h38.51  c2.15-3.17,5.75-5.2,9.77-5.2h10.61C118.26,11.7,130.36,0,145.12,0c14.79,0,26.88,11.69,27.45,26.39h10.61  c4.01,0,7.62,2.04,9.77,5.2h38.51c11.62,0,21.08,9.48,21.08,21.1v9.68C277.88,69.5,295.9,92.45,296.3,119.46L296.3,119.46z   M176.24,121.48c-0.61-27.64,17.74-51.83,43.83-59.12h-27.64c-2.18,2.77-5.53,4.51-9.25,4.51h-76.11c-3.72,0-7.07-1.74-9.26-4.51  H69.47v113.43c40.96,2.35,68.42,43.25,55.27,82.01h96.05v-79.57C195.28,171.43,176.81,148.45,176.24,121.48L176.24,121.48z   M236.28,60.15l7.2,0.42v-7.88c0-6.63-5.4-12.04-12.03-12.04h-36.49V53.3h30.35c2.51,0,4.53,2.04,4.53,4.53v2.66L236.28,60.15z   M243.48,179.79c-4.51,0.55-9.11,0.59-13.64,0.09v82.43c0,2.51-2.02,4.53-4.53,4.53H120.84c-2.42,4.58-5.4,8.83-8.85,12.65h119.47  c6.61,0,12.03-5.4,12.03-12.03L243.48,179.79L243.48,179.79z M143.42,243.93c-2.51,0-4.53-2.02-4.53-4.53  c0-2.5,2.02-4.53,4.53-4.53h56.83c2.51,0,4.53,2.04,4.53,4.53c0,2.51-2.02,4.53-4.53,4.53H143.42z M38.99,246.74  c-1.76-1.76-1.76-4.64,0-6.39c1.76-1.78,4.64-1.78,6.39,0l14.75,14.75l25.47-44.13c1.23-2.15,4-2.9,6.14-1.65  c2.16,1.23,2.92,4,1.67,6.14l-28.21,48.88c-1.63,3.14-5.26,3.37-7.31,1.32L38.99,246.74z M46.78,178.65  c4.34-1.41,8.91-2.35,13.64-2.75V57.83c0-2.5,2.02-4.53,4.53-4.53h30.35V40.65H58.8c-6.61,0-12.03,5.4-12.03,12.04L46.78,178.65  L46.78,178.65z M103.41,200.28c-20.75-20.75-54.37-20.75-75.1,0c-20.75,20.73-20.75,54.36,0,75.1c20.8,20.82,54.43,20.67,75.1,0  C124.16,254.63,124.16,221.01,103.41,200.28z M143.42,214.48c-2.51,0-4.53-2.04-4.53-4.53s2.02-4.53,4.53-4.53h56.83  c2.51,0,4.53,2.04,4.53,4.53c0,2.5-2.02,4.53-4.53,4.53H143.42z M122.45,185.03c-2.51,0-4.53-2.04-4.53-4.53  c0-2.51,2.02-4.53,4.53-4.53h54.74c2.51,0,4.53,2.02,4.53,4.53c0,2.5-2.02,4.53-4.53,4.53H122.45z M93.17,155.56  c-2.51,0-4.53-2.02-4.53-4.53c0-2.49,2.02-4.53,4.53-4.53h64.4c2.5,0,4.53,2.04,4.53,4.53c0,2.51-2.04,4.53-4.53,4.53H93.17z   M87.69,82.07h68.4c2.5,0,4.53,2.02,4.53,4.53v39.04c0,2.49-2.04,4.53-4.53,4.53h-68.4c-2.5,0-4.53-2.04-4.53-4.53V86.6  C83.16,84.09,85.2,82.07,87.69,82.07L87.69,82.07z M151.56,91.13H92.21v29.98h59.34V91.13z M122.45,35.45h-15.37  c-1.5,0-2.73,1.25-2.73,2.75v16.88c0,1.49,1.21,2.73,2.73,2.73h76.11c1.52,0,2.73-1.25,2.73-2.73c0-2.15,0.15-16.79-0.09-17.63  c-0.35-1.16-1.41-2-2.64-2h-15.37c-2.73,0-4.89-2.48-4.47-5.19c1.69-11.16-6.91-21.21-18.22-21.21c-10.72,0-19.15,9.13-18.36,19.81  l0.22,2.05C126.98,33.43,124.94,35.45,122.45,35.45L122.45,35.45z M145.12,13.75c12.19,0,18.33,14.79,9.71,23.42  c-8.63,8.61-23.42,2.48-23.42-9.71C131.42,19.89,137.55,13.75,145.12,13.75z M148.44,24.16c-2.94-2.92-7.97-0.84-7.97,3.3  c0,4.16,5.04,6.23,7.97,3.32C150.26,28.94,150.26,25.99,148.44,24.16z"></path></g></svg>