<svg xmlns="http://www.w3.org/2000/svg" xmlns:xlink="http://www.w3.org/1999/xlink" id="Layer_1" x="0px" y="0px" viewBox="0 0 300 300" style="enable-background:new 0 0 300 300;" xml:space="preserve"><style type="text/css">	.st0{fill-rule:evenodd;clip-rule:evenodd;fill:#FFBD1B;}	.st1{fill-rule:evenodd;clip-rule:evenodd;fill:#CCE6FF;}	.st2{fill-rule:evenodd;clip-rule:evenodd;fill:#AEDAFF;}	.st3{fill-rule:evenodd;clip-rule:evenodd;fill:#E7896E;}	.st4{fill-rule:evenodd;clip-rule:evenodd;fill:#3A7AD6;}	.st5{fill-rule:evenodd;clip-rule:evenodd;fill:#FFD16C;}	.st6{fill-rule:evenodd;clip-rule:evenodd;fill:#FFFFFF;}	.st7{fill-rule:evenodd;clip-rule:evenodd;fill:#BA8715;}	.st8{fill-rule:evenodd;clip-rule:evenodd;fill:#99C7FF;}	.st9{fill:#3A7AD6;}	.st10{fill:#FFD16C;}	.st11{fill:#BA8715;}	.st12{fill:#2E5972;}	.st13{fill:#B0475D;}	.st14{fill:#FFBD1B;}	.st15{fill-rule:evenodd;clip-rule:evenodd;fill:#EDEFF1;}	.st16{fill:#99C7FF;}	.st17{fill:#CCE6FF;}	.st18{clip-path:url(#SVGID_00000041297270903361143400000017802843195354436501_);}	.st19{fill:#FEF2E2;}	.st20{fill:#FFE1BA;}	.st21{fill:#0E3D6B;}	.st22{fill:#AEDAFF;}	.st23{fill:#FFFFFF;}	.st24{fill-rule:evenodd;clip-rule:evenodd;fill:#F6B4A8;}	.st25{fill-rule:evenodd;clip-rule:evenodd;fill:#F9C9C0;}	.st26{fill-rule:evenodd;clip-rule:evenodd;fill:#FFC738;}	.st27{fill:#86A0AF;}	.st28{fill:#738B95;}	.st29{fill:none;stroke:#000000;stroke-width:15;stroke-miterlimit:10;}	.st30{fill-rule:evenodd;clip-rule:evenodd;fill:#EB5463;}	.st31{fill-rule:evenodd;clip-rule:evenodd;}	.st32{fill:#FFF6BB;}	.st33{fill:#FFC472;}	.st34{fill:#FDB614;}	.st35{fill:#474747;}	.st36{opacity:0.1;enable-background:new    ;}	.st37{fill:#EBD8AE;}	.st38{fill-rule:evenodd;clip-rule:evenodd;fill:#DACFE6;}	.st39{fill-rule:evenodd;clip-rule:evenodd;fill:#9E4623;}	.st40{opacity:0.7;fill-rule:evenodd;clip-rule:evenodd;fill:#FFFFFF;}	.st41{fill-rule:evenodd;clip-rule:evenodd;fill:#E2F0FA;}	.st42{fill-rule:evenodd;clip-rule:evenodd;fill:#D0E4F2;}	.st43{fill-rule:evenodd;clip-rule:evenodd;fill:#FFC943;}	.st44{fill-rule:evenodd;clip-rule:evenodd;fill:#6BA4E8;}	.st45{fill-rule:evenodd;clip-rule:evenodd;fill:#FFAA16;}	.st46{fill-rule:evenodd;clip-rule:evenodd;fill:#2567B7;}	.st47{fill-rule:evenodd;clip-rule:evenodd;fill:#EBCDCD;}	.st48{fill-rule:evenodd;clip-rule:evenodd;fill:#D1E7FF;}	.st49{fill-rule:evenodd;clip-rule:evenodd;fill:#222124;}	.st50{fill-rule:evenodd;clip-rule:evenodd;fill:#FAD1A2;}	.st51{fill-rule:evenodd;clip-rule:evenodd;fill:#E6E6E6;}	.st52{fill:url(#SVGID_00000114035027371703766600000012451523480425657534_);}	.st53{fill:none;stroke:#211E1F;stroke-width:0.25;stroke-miterlimit:10;}	.st54{fill:url(#SVGID_00000181779200299230285630000017665211395914865320_);}	.st55{fill:url(#SVGID_00000015345987929250733400000004668732074961663671_);}	.st56{fill:url(#SVGID_00000041981171557836756740000017711351745480755888_);}	.st57{fill:url(#SVGID_00000014596342322565521340000017147253822577479297_);}	.st58{fill:#112A4D;}	.st59{fill:url(#SVGID_00000058553308315447882670000010037937243761224615_);}	.st60{fill:url(#SVGID_00000070819387515073250590000012636478064231535267_);}	.st61{fill:url(#SVGID_00000103259938283236308860000013051545100906268042_);}	.st62{fill:url(#SVGID_00000081643368933433436620000003632337212148121771_);}	.st63{fill:url(#SVGID_00000181765481701060340870000001352343438326401950_);}	.st64{fill:url(#SVGID_00000182512651753195573640000002363403489842975901_);}	.st65{fill:url(#SVGID_00000027574067521336843150000015611291569005063298_);}	.st66{fill:url(#SVGID_00000071517742226806174390000017151633823195989905_);}	.st67{fill:url(#SVGID_00000160900316949998461770000017807594259566652602_);}	.st68{fill:url(#SVGID_00000095338475759645292380000001110629955749228676_);}	.st69{fill:url(#SVGID_00000012469993877487585380000003138894818735019198_);}	.st70{fill:url(#SVGID_00000145770698104745479140000000790535586717485493_);}	.st71{fill:url(#SVGID_00000183944762054663317150000018041258318139733147_);}	.st72{fill:url(#SVGID_00000042703477250015351040000009158818774930356610_);}	.st73{fill:url(#SVGID_00000093146094172893831130000017640337499188301471_);}	.st74{fill:url(#SVGID_00000072996133215809518450000000043249788288782008_);}	.st75{fill:url(#SVGID_00000064337140180733931290000010849607999331770040_);}	.st76{fill:url(#SVGID_00000030469252479815442130000006944493151863618448_);}	.st77{fill:url(#SVGID_00000028285438848609552850000000930145906753234073_);}	.st78{fill:url(#SVGID_00000053512331338247098110000005254557674453669285_);}	.st79{fill:url(#SVGID_00000159434957268389710950000009534595328267733121_);}	.st80{fill:url(#SVGID_00000052814909832698867090000002933340473587436678_);}	.st81{fill:url(#SVGID_00000044878091159086366920000000672914773332925348_);}	.st82{fill:url(#SVGID_00000047756965410520984530000009208258970764170378_);}	.st83{fill:url(#SVGID_00000181766579169791182340000017402236375313615533_);}	.st84{fill:#082649;}	.st85{fill:#EFEFEF;}	.st86{fill:#DDDDDD;}	.st87{fill:#629FDD;}	.st88{fill:#FFC943;}	.st89{fill-rule:evenodd;clip-rule:evenodd;fill:#837683;}	.st90{fill-rule:evenodd;clip-rule:evenodd;fill:#685E68;}	.st91{fill-rule:evenodd;clip-rule:evenodd;fill:#E3A76F;}	.st92{fill-rule:evenodd;clip-rule:evenodd;fill:#FFD064;}	.st93{fill-rule:evenodd;clip-rule:evenodd;fill:#ECEFF1;}	.st94{fill-rule:evenodd;clip-rule:evenodd;fill:#D1D1D6;}	.st95{fill-rule:evenodd;clip-rule:evenodd;fill:#F6DCCD;}	.st96{fill-rule:evenodd;clip-rule:evenodd;fill:#F1CBBC;}	.st97{fill-rule:evenodd;clip-rule:evenodd;fill:#B1B1B5;}	.st98{fill-rule:evenodd;clip-rule:evenodd;fill:#242222;}	.st99{fill:#CCD1D9;}	.st100{fill:#DFF6FD;}	.st101{fill:#D5E3F4;}	.st102{fill:#FFEEE6;}	.st103{fill:#FFDFCF;}</style><g>	<g>		<g>			<path class="st14" d="M240.72,248.54l32.94,46.71h-34.1l-24.05-31.72C224.58,259.6,233.04,254.55,240.72,248.54z"></path>		</g>		<g>			<path class="st11" d="M240.72,248.54c-2.51,1.97-5.12,3.82-7.79,5.58l29,41.12h11.73L240.72,248.54z"></path>		</g>		<g>			<path class="st14" d="M124.2,263.19l-24.63,32.05H64.61l34.5-47.21C106.74,254.1,115.16,259.21,124.2,263.19z"></path>		</g>		<g>			<path class="st11" d="M115.02,258.64l-27.18,36.61h11.73l24.63-32.05C121.06,261.81,118,260.28,115.02,258.64z"></path>		</g>		<g>			<circle class="st9" cx="170.23" cy="158.49" r="114.35"></circle>		</g>		<g>			<path class="st16" d="M170.23,44.15c-1.97,0-3.92,0.05-5.86,0.15c60.43,3.05,108.48,53.01,108.48,114.2    s-48.06,111.15-108.48,114.2c1.94,0.1,3.9,0.15,5.86,0.15c63.15,0,114.35-51.2,114.35-114.35S233.38,44.15,170.23,44.15z"></path>		</g>		<g>			<circle class="st10" cx="170.23" cy="158.49" r="85.03"></circle>		</g>		<g>			<path class="st11" d="M170.23,73.47c-1.97,0-3.93,0.07-5.86,0.21c44.16,3.02,79.16,39.91,79.16,84.82s-35,81.8-79.16,84.82    c1.94,0.13,3.89,0.21,5.86,0.21c46.88,0,85.03-38.14,85.03-85.03S217.11,73.47,170.23,73.47z"></path>		</g>		<g>			<circle class="st32" cx="170.23" cy="158.49" r="55.71"></circle>		</g>		<g>			<path class="st33" d="M170.23,102.79c-1.98,0-3.94,0.11-5.86,0.31c27.97,2.94,49.84,26.66,49.84,55.4    c0,28.74-21.87,52.46-49.84,55.4c1.93,0.2,3.88,0.31,5.86,0.31c30.72,0,55.71-24.99,55.71-55.71    C225.94,127.78,200.95,102.79,170.23,102.79z"></path>		</g>		<g>			<circle class="st16" cx="170.23" cy="158.49" r="26.39"></circle>		</g>		<g>			<path class="st9" d="M170.23,132.11c-2.02,0-3.98,0.23-5.86,0.66c11.74,2.67,20.52,13.19,20.52,25.72    c0,12.53-8.79,23.05-20.52,25.72c1.89,0.43,3.85,0.66,5.86,0.66c14.55,0,26.39-11.84,26.39-26.39    C196.62,143.94,184.78,132.11,170.23,132.11z"></path>		</g>		<g>			<path class="st14" d="M4.4,162.81c-0.09,12.93,9.78,23.47,29.26,23.6s41.21-10.21,41.3-23.13c0.09-12.93-21.51-23.55-40.99-23.68    S4.48,149.89,4.4,162.81z"></path>		</g>		<g>			<path class="st11" d="M33.97,139.6c-2.12-0.01-4.12,0.1-6.02,0.33c17.76,1.89,35.36,11.68,35.28,23.35    c-0.08,11.53-17.37,20.99-34.93,22.81c1.7,0.2,3.48,0.31,5.36,0.32c19.48,0.13,41.21-10.21,41.3-23.13    C75.05,150.35,53.46,139.73,33.97,139.6z"></path>		</g>		<g>			<path class="st14" d="M36.39,54.77C28.94,65.32,31,79.61,46.92,90.86s39.65,15.18,47.11,4.62c7.46-10.56-4.19-31.62-20.1-42.86    S43.85,44.21,36.39,54.77z"></path>		</g>		<g>			<path class="st11" d="M73.93,52.62c-9.44-6.67-18.26-8.38-25.43-6.48c4.32,1.01,8.93,3.11,13.7,6.48    c15.92,11.24,27.56,32.3,20.1,42.86c-2.15,3.05-5.66,4.88-9.95,5.69c9.38,1.4,17.77-0.15,21.68-5.69    C101.49,84.92,89.84,63.86,73.93,52.62z"></path>		</g>		<g>			<circle class="st14" cx="242.83" cy="57.53" r="52.78"></circle>		</g>		<g>			<path class="st11" d="M242.83,4.76c-1.98,0-3.94,0.11-5.86,0.33c26.39,2.92,46.91,25.29,46.91,52.45s-20.52,49.53-46.91,52.45    c1.93,0.21,3.88,0.33,5.86,0.33c29.15,0,52.78-23.63,52.78-52.78S271.97,4.76,242.83,4.76z"></path>		</g>	</g>	<g>		<g>			<g>				<polygon points="282.14,299.64 237.38,299.64 212.01,266.17 219.02,260.86 241.75,290.84 265.17,290.84 237.12,251.07      244.31,246     "></polygon>			</g>			<g>				<rect x="82.41" y="252.11" transform="matrix(0.5899 -0.8075 0.8075 0.5899 -169.0176 180.2124)" width="21" height="8.8"></rect>			</g>			<g>				<polygon points="101.73,299.64 55.95,299.64 77.84,269.68 84.94,274.87 73.27,290.84 97.4,290.84 120.72,260.51 127.69,265.87          "></polygon>			</g>		</g>		<g>			<path d="M170.23,277.24c-27.55,0-54.4-9.65-75.6-27.17c-20.92-17.29-35.4-41.37-40.77-67.81l8.62-1.75    c10.35,50.95,55.67,87.93,107.75,87.93c60.63,0,109.95-49.32,109.95-109.95c0-18.78-4.82-37.32-13.93-53.61l7.68-4.29    c9.85,17.6,15.05,37.62,15.05,57.9C288.98,223.97,235.71,277.24,170.23,277.24z"></path>		</g>		<g>			<path d="M61.12,144.78l-8.73-1.08c1.96-15.77,6.98-30.74,14.93-44.5l7.62,4.4C67.59,116.33,62.94,130.19,61.12,144.78z"></path>		</g>		<g>			<path d="M95.75,77.61l-5.96-6.47c21.97-20.24,50.54-31.39,80.44-31.39c7.35,0,14.71,0.68,21.88,2.01l-1.61,8.65    c-6.64-1.24-13.46-1.86-20.27-1.86C142.55,48.54,116.1,58.86,95.75,77.61z"></path>		</g>		<g>			<path d="M170.23,247.92c-49.31,0-89.43-40.12-89.43-89.43s40.12-89.43,89.43-89.43c8.37,0,16.66,1.16,24.64,3.45l-2.43,8.45    c-7.19-2.06-14.67-3.11-22.22-3.11c-44.46,0-80.63,36.17-80.63,80.63s36.17,80.63,80.63,80.63s80.63-36.17,80.63-80.63    c0-16.52-4.98-32.4-14.41-45.94l7.22-5.03c10.45,15.02,15.98,32.65,15.98,50.97C259.65,207.8,219.54,247.92,170.23,247.92z"></path>		</g>		<g>			<path d="M170.23,218.6c-33.14,0-60.11-26.96-60.11-60.11s26.96-60.11,60.11-60.11c25.63,0,48.47,16.3,56.84,40.55l-8.32,2.87    c-7.14-20.71-26.64-34.62-48.52-34.62c-28.29,0-51.31,23.02-51.31,51.31s23.02,51.31,51.31,51.31s51.31-23.02,51.31-51.31    c0-2.89-0.24-5.79-0.72-8.63l8.67-1.47c0.56,3.32,0.85,6.72,0.85,10.1C230.33,191.64,203.37,218.6,170.23,218.6z"></path>		</g>		<g>			<path d="M170.23,189.28c-16.98,0-30.79-13.81-30.79-30.79s13.81-30.79,30.79-30.79s30.79,13.81,30.79,30.79    S187.2,189.28,170.23,189.28z M170.23,136.5c-12.13,0-21.99,9.86-21.99,21.99c0,12.12,9.86,21.99,21.99,21.99    c12.12,0,21.99-9.86,21.99-21.99C192.22,146.37,182.35,136.5,170.23,136.5z"></path>		</g>		<g>			<g>				<rect x="82.92" y="80.41" transform="matrix(6.138400e-03 -1 1 6.138400e-03 -76.5427 249.6329)" width="8.8" height="165.83"></rect>			</g>			<g>				<path d="M34.03,190.81c-0.13,0-0.26,0-0.4,0c-10.26-0.07-18.85-2.86-24.83-8.09c-5.73-5-8.85-12.08-8.8-19.94     s3.27-14.9,9.06-19.82c5.98-5.08,14.46-7.76,24.56-7.76c0.13,0,0.25,0,0.38,0c10.35,0.07,21.25,2.83,29.92,7.58     c10.01,5.49,15.49,12.77,15.44,20.52c-0.05,7.75-5.63,14.97-15.71,20.32C55.03,188.2,44.26,190.81,34.03,190.81z M33.62,144     c-7.98,0-14.49,1.96-18.86,5.66c-3.86,3.28-5.93,7.84-5.96,13.18l0,0c-0.04,5.34,1.97,9.92,5.79,13.26     c4.37,3.82,10.98,5.86,19.11,5.92c18.21,0.11,36.81-9.35,36.87-18.77c0.06-9.42-18.42-19.13-36.62-19.25     C33.83,144,33.72,144,33.62,144z"></path>			</g>		</g>		<g>			<g>				<rect x="99.9" y="19.58" transform="matrix(0.5766 -0.817 0.817 0.5766 -39.7338 128.6937)" width="8.8" height="166.21"></rect>			</g>			<g>				<path d="M78.62,106.05c-1.75,0-3.59-0.11-5.5-0.35c-9.81-1.19-20.28-5.29-28.74-11.26C36,88.53,30.55,81.32,28.62,73.62     c-1.84-7.37-0.36-14.97,4.18-21.39c4.54-6.42,11.2-10.36,18.77-11.09c7.9-0.76,16.51,1.97,24.9,7.89     C84.92,55,92.29,63.5,96.68,72.35c5.08,10.22,5.41,19.34,0.94,25.67C93.9,103.28,87.26,106.05,78.62,106.05z M54.17,49.82     c-5.71,0-10.66,2.5-14.18,7.49c-6.77,9.58-3.14,21.06,9.47,29.96c14.87,10.5,35.55,13.37,40.98,5.68     c5.43-7.69-4.18-26.23-19.05-36.73C65.34,51.94,59.43,49.82,54.17,49.82z"></path>			</g>		</g>		<g>			<rect x="43.74" y="290.84" width="248.83" height="8.8"></rect>		</g>		<g>			<polygon points="234.12,76.53 216.99,59.4 223.21,53.18 234.12,64.09 260.33,37.88 266.55,44.1    "></polygon>		</g>		<g>			<path d="M242.83,114.71c-31.53,0-57.17-25.65-57.17-57.17S211.3,0.36,242.83,0.36c16.06,0,31.48,6.82,42.29,18.7l-6.5,5.92    c-9.15-10.06-22.2-15.83-35.79-15.83c-26.68,0-48.38,21.7-48.38,48.38s21.7,48.38,48.38,48.38s48.38-21.7,48.38-48.38    c0-9.31-2.65-18.35-7.66-26.14l7.4-4.76c5.93,9.21,9.06,19.9,9.06,30.9C300,89.06,274.35,114.71,242.83,114.71z"></path>		</g>	</g></g></svg>