<svg xmlns="http://www.w3.org/2000/svg" xmlns:xlink="http://www.w3.org/1999/xlink" id="Layer_1" x="0px" y="0px" viewBox="0 0 300 300" style="enable-background:new 0 0 300 300;" xml:space="preserve"><style type="text/css">	.st0{fill-rule:evenodd;clip-rule:evenodd;fill:#FFBD1B;}	.st1{fill-rule:evenodd;clip-rule:evenodd;fill:#CCE6FF;}	.st2{fill-rule:evenodd;clip-rule:evenodd;fill:#AEDAFF;}	.st3{fill-rule:evenodd;clip-rule:evenodd;fill:#E7896E;}	.st4{fill-rule:evenodd;clip-rule:evenodd;fill:#3A7AD6;}	.st5{fill-rule:evenodd;clip-rule:evenodd;fill:#FFD16C;}	.st6{fill-rule:evenodd;clip-rule:evenodd;fill:#FFFFFF;}	.st7{fill-rule:evenodd;clip-rule:evenodd;fill:#BA8715;}	.st8{fill-rule:evenodd;clip-rule:evenodd;fill:#99C7FF;}	.st9{fill:#3A7AD6;}	.st10{fill:#FFD16C;}	.st11{fill:#BA8715;}	.st12{fill:#2E5972;}	.st13{fill:#B0475D;}	.st14{fill:#FFBD1B;}	.st15{fill-rule:evenodd;clip-rule:evenodd;fill:#EDEFF1;}	.st16{fill:#99C7FF;}	.st17{fill:#CCE6FF;}	.st18{clip-path:url(#SVGID_00000059310447944598941960000002030338366802972333_);}	.st19{fill:#FEF2E2;}	.st20{fill:#FFE1BA;}	.st21{fill:#0E3D6B;}	.st22{fill:#AEDAFF;}	.st23{fill:#FFFFFF;}	.st24{fill-rule:evenodd;clip-rule:evenodd;fill:#F6B4A8;}	.st25{fill-rule:evenodd;clip-rule:evenodd;fill:#F9C9C0;}	.st26{fill-rule:evenodd;clip-rule:evenodd;fill:#FFC738;}	.st27{fill:#86A0AF;}	.st28{fill:#738B95;}	.st29{fill:none;stroke:#000000;stroke-width:15;stroke-miterlimit:10;}	.st30{fill-rule:evenodd;clip-rule:evenodd;fill:#EB5463;}	.st31{fill-rule:evenodd;clip-rule:evenodd;}	.st32{fill:#FFF6BB;}	.st33{fill:#FFC472;}	.st34{fill:#FDB614;}	.st35{fill:#474747;}	.st36{opacity:0.1;enable-background:new    ;}	.st37{fill:#EBD8AE;}	.st38{fill-rule:evenodd;clip-rule:evenodd;fill:#DACFE6;}	.st39{fill-rule:evenodd;clip-rule:evenodd;fill:#9E4623;}	.st40{opacity:0.7;fill-rule:evenodd;clip-rule:evenodd;fill:#FFFFFF;}	.st41{fill-rule:evenodd;clip-rule:evenodd;fill:#E2F0FA;}	.st42{fill-rule:evenodd;clip-rule:evenodd;fill:#D0E4F2;}	.st43{fill-rule:evenodd;clip-rule:evenodd;fill:#FFC943;}	.st44{fill-rule:evenodd;clip-rule:evenodd;fill:#6BA4E8;}	.st45{fill-rule:evenodd;clip-rule:evenodd;fill:#FFAA16;}	.st46{fill-rule:evenodd;clip-rule:evenodd;fill:#2567B7;}	.st47{fill-rule:evenodd;clip-rule:evenodd;fill:#EBCDCD;}	.st48{fill-rule:evenodd;clip-rule:evenodd;fill:#D1E7FF;}	.st49{fill-rule:evenodd;clip-rule:evenodd;fill:#222124;}	.st50{fill-rule:evenodd;clip-rule:evenodd;fill:#FAD1A2;}	.st51{fill-rule:evenodd;clip-rule:evenodd;fill:#E6E6E6;}	.st52{fill:url(#SVGID_00000008868431104118702890000017119499829204828315_);}	.st53{fill:none;stroke:#211E1F;stroke-width:0.25;stroke-miterlimit:10;}	.st54{fill:url(#SVGID_00000126290200091427032130000005834429052401423018_);}	.st55{fill:url(#SVGID_00000174568906634748318230000004980722713143851919_);}	.st56{fill:url(#SVGID_00000044869284048288105030000002295621177359512484_);}	.st57{fill:url(#SVGID_00000018215284364785551390000018215875290152005510_);}	.st58{fill:#112A4D;}	.st59{fill:url(#SVGID_00000078024858864790096590000001303642773932793739_);}	.st60{fill:url(#SVGID_00000049207410915612622890000012813121622537924242_);}	.st61{fill:url(#SVGID_00000159453038171692661120000011558617292490681013_);}	.st62{fill:url(#SVGID_00000132801261079242382540000016352345193717208974_);}	.st63{fill:url(#SVGID_00000031928657378407099220000012161705673012584079_);}	.st64{fill:url(#SVGID_00000007421314470678339530000009744208770529693875_);}	.st65{fill:url(#SVGID_00000126318088247832129040000002161802358939463045_);}	.st66{fill:url(#SVGID_00000161609153641965802890000000077076335330760584_);}	.st67{fill:url(#SVGID_00000022549388494300275990000005557160865338706361_);}	.st68{fill:url(#SVGID_00000039840574912610846530000004488326087265741453_);}	.st69{fill:url(#SVGID_00000096039105745281748280000010939799208240519062_);}	.st70{fill:url(#SVGID_00000009576187798880884780000010546905685233503668_);}	.st71{fill:url(#SVGID_00000000222586880849565350000008327164727959964079_);}	.st72{fill:url(#SVGID_00000001631208336059351360000005096362348531366063_);}	.st73{fill:url(#SVGID_00000109710269937584506440000011657939966955925934_);}	.st74{fill:url(#SVGID_00000018210862811850738850000006053372080995699852_);}	.st75{fill:url(#SVGID_00000093879173024080903570000018165833366251741568_);}	.st76{fill:url(#SVGID_00000048498464736680039150000004510693647667712438_);}	.st77{fill:url(#SVGID_00000060726869142374554250000016958025074089388985_);}	.st78{fill:url(#SVGID_00000137842498070871638480000001052890527313211009_);}	.st79{fill:url(#SVGID_00000054983765241408861110000007478882903971064474_);}	.st80{fill:url(#SVGID_00000111156478260719063260000012587120243007204023_);}	.st81{fill:url(#SVGID_00000108305900198958789970000013809392801139282109_);}	.st82{fill:url(#SVGID_00000085970516562076903740000010004250335193755582_);}	.st83{fill:url(#SVGID_00000172405087867172575340000004428516454342488511_);}	.st84{fill:#082649;}	.st85{fill:#EFEFEF;}	.st86{fill:#DDDDDD;}	.st87{fill:#629FDD;}	.st88{fill:#FFC943;}	.st89{fill-rule:evenodd;clip-rule:evenodd;fill:#837683;}	.st90{fill-rule:evenodd;clip-rule:evenodd;fill:#685E68;}	.st91{fill-rule:evenodd;clip-rule:evenodd;fill:#E3A76F;}	.st92{fill-rule:evenodd;clip-rule:evenodd;fill:#FFD064;}	.st93{fill-rule:evenodd;clip-rule:evenodd;fill:#ECEFF1;}	.st94{fill-rule:evenodd;clip-rule:evenodd;fill:#D1D1D6;}	.st95{fill-rule:evenodd;clip-rule:evenodd;fill:#F6DCCD;}	.st96{fill-rule:evenodd;clip-rule:evenodd;fill:#F1CBBC;}	.st97{fill-rule:evenodd;clip-rule:evenodd;fill:#B1B1B5;}	.st98{fill-rule:evenodd;clip-rule:evenodd;fill:#242222;}	.st99{fill:#CCD1D9;}	.st100{fill:#DFF6FD;}	.st101{fill:#D5E3F4;}	.st102{fill:#FFEEE6;}	.st103{fill:#FFDFCF;}</style><g>	<g>		<path class="st0" d="M270.78,5.03H87.98c-9.42,0-17.16,7.74-17.16,17.16v208.6c0,9.42,7.74,17.16,17.16,17.16h182.8   c9.42,0,17.16-7.74,17.16-17.16V22.19C287.94,12.77,280.2,5.03,270.78,5.03L270.78,5.03z"></path>		<path class="st8" d="M103.14,226.53h117.07l49.22-49.28V35.73c0-7.68-6.26-13.93-13.93-13.93H103.14   c-7.68,0-13.93,6.26-13.93,13.93V212.6C89.21,220.28,95.53,226.53,103.14,226.53L103.14,226.53z"></path>		<path class="st4" d="M169.06,226.53h51.21l49.22-49.28v-60.57h-45.22c-30.38,0-55.28,24.83-55.28,55.21v54.63L169.06,226.53z"></path>		<path class="st4" d="M269.49,177.32h-35.28c-7.68,0-13.93,6.26-13.93,13.93v35.35L269.49,177.32z"></path>		<path class="st6" d="M206.47,16.13c-6.64,0-8.97-2.71-8.97-15.16c0,11.48-1.16,15.16-8.97,15.16c7.8,0,8.97,4,8.97,12.71   C197.44,21.03,198.67,16.13,206.47,16.13z"></path>		<path class="st4" d="M114.04,36.64h10.32c4,0,7.29,3.29,7.29,7.29v18.51c0,4-3.29,7.29-7.29,7.29h-10.32c-4,0-7.29-3.29-7.29-7.29   V43.93C106.75,39.93,109.98,36.64,114.04,36.64z"></path>		<path class="st38" d="M111.4,93.46h15.67c2.52,0,4.64-2.06,4.64-4.64v-6.58c0-2.52-2.06-4.64-4.64-4.64H111.4   c-2.58,0-4.64,2.06-4.64,4.64v6.58C106.75,91.4,108.82,93.46,111.4,93.46z"></path>		<path class="st8" d="M100.37,60.76c-35.02,4.77-59.54,37.02-54.76,72.11c4.13,29.93,28.25,52.18,57.08,55.08v30.7h12.71v-30.7   c0.77-0.06,1.55-0.13,2.32-0.26c35.02-4.77,59.54-37.09,54.76-72.11C167.71,80.5,135.39,55.99,100.37,60.76L100.37,60.76z"></path>		<path class="st0" d="M101.98,198.73h14.13c3.1,0,5.61,2.52,5.61,5.61v42.44c0,3.1-2.52,5.61-5.61,5.61h-14.13   c-3.1,0-5.61-2.52-5.61-5.61v-42.44C96.3,201.25,98.88,198.73,101.98,198.73z"></path>		<path class="st7" d="M101.98,198.73h7.1v53.73h-7.1c-3.1,0-5.61-2.52-5.61-5.61v-42.44C96.3,201.25,98.88,198.73,101.98,198.73z"></path>		<path class="st39" d="M102.95,79.53c-24.7,3.35-41.99,26.12-38.64,50.83c3.42,24.7,26.12,41.99,50.83,38.64   s41.99-26.12,38.64-50.83C150.35,93.4,127.65,76.11,102.95,79.53L102.95,79.53z"></path>		<path class="st0" d="M102.95,79.53c-8.32,1.16-15.87,4.52-22,9.35c-9.16,9.61-14.06,23.16-12.13,37.28   c3.35,24.7,26.12,41.99,50.83,38.64c8.39-1.16,15.87-4.52,22-9.35c9.16-9.61,14.06-23.16,12.13-37.35   C150.35,93.4,127.65,76.11,102.95,79.53z"></path>		<path class="st6" d="M114.43,88.82c-3.74-3.74-9.8-3.74-13.48,0c-3.74,3.74-3.74,9.8,0,13.48c3.74,3.74,9.8,3.74,13.48,0   C118.17,98.62,118.17,92.56,114.43,88.82z"></path>		<path class="st6" d="M91.92,99.14c-2.26-2.26-5.93-2.26-8.19,0c-2.26,2.26-2.26,5.93,0,8.19c2.26,2.26,5.93,2.26,8.19,0   C94.17,105.07,94.17,101.4,91.92,99.14z"></path>		<path class="st24" d="M128.17,275.3c9.74-0.9,13.35,15.74-3.29,15.74c-13.8,0-46.7,2.64-56.89-1.74   c-6.13-2.64-12.64-4.39-19.29-5.29v-57.21h1.16c23.99,0,17.35-16,46.51-16c0,16.77,23.61,12.13,35.61,12.13   c9.09,0,8.26,17.48-0.77,17.48c9.09,0,8.19,17.48-0.84,17.48C139.2,257.82,139.65,275.3,128.17,275.3z"></path>		<path class="st25" d="M58.5,225.82c14.06-3.42,12.84-15.03,37.8-15.03c0,16.77,23.61,12.13,35.61,12.13   c9.09,0,8.26,17.48-0.77,17.48c9.09,0,8.19,17.48-0.84,17.48c2.97,0,4.97,1.87,5.93,4.45c-6.39,1.74-13.29,2.71-20.51,2.71   C85.14,265.04,60.18,247.69,58.5,225.82L58.5,225.82z"></path>		<path class="st7" d="M21.29,215.24h18.25c5.03,0,9.16,4.13,9.16,9.16v61.54c0,5.03-4.13,9.16-9.16,9.16H21.29   c-5.03,0-9.16-4.13-9.16-9.16V224.4C12.13,219.37,16.25,215.24,21.29,215.24z"></path>		<path class="st0" d="M21.29,215.24h18.25c5.03,0,9.16,4.13,9.16,9.16v30.06c-1.23,0.13-2.45,0.13-3.68,0.13   c-14.06,0-26.32-7.16-32.9-17.87V224.4C12.13,219.37,16.25,215.24,21.29,215.24z"></path>		<path class="st40" d="M27.41,227.89h7.16c1.48,0,2.71,1.23,2.71,2.71v13.35c0,1.48-1.23,2.71-2.71,2.71h-7.16   c-1.48,0-2.71-1.23-2.71-2.71V230.6C24.7,229.11,25.93,227.89,27.41,227.89z"></path>		<path class="st40" d="M27.03,251.82h7.93c1.29,0,2.32,1.03,2.32,2.32v6.13c0,1.29-1.03,2.32-2.32,2.32h-7.93   c-1.29,0-2.32-1.03-2.32-2.32v-6.13C24.7,252.91,25.74,251.82,27.03,251.82z"></path>	</g>	<path d="M89.59,124.36c-1.68-2.19-1.16-5.35,1.03-6.97c2.19-1.68,5.35-1.23,6.97,1.03l6.19,8.26l21.8-21.16  c2-1.94,5.16-1.87,7.03,0.13c1.94,2,1.87,5.1-0.13,7.03l-26.38,25.48c-2.19,1.68-5.35,1.23-7.03-1.03L89.59,124.36z M21.29,210.28  h18.25c6.77,0,12.58,4.84,13.87,11.35c6.13-0.58,9.42-2.64,12.38-4.97v-38.57c-34.44-27.61-34.38-79.98,0-107.65V22.19  C65.79,10,75.79,0,87.92,0h182.8c12.19,0,22.12,10,22.12,22.19v208.6c0,12.19-9.93,22.19-22.12,22.19H141.9  c-0.45,1.81-1.23,3.48-2.26,4.97c3.29,5.16,2.97,12.45-0.77,17.29c5.87,8,1.61,20.83-14,20.83c-16.96,0-47.54,2.71-58.89-2.19  c-4.26-1.81-8.39-3.1-12.84-4.06C51.41,295.74,45.93,300,39.54,300H21.29c-7.8,0-14.13-6.32-14.13-14.13v-61.54  C7.16,216.6,13.48,210.28,21.29,210.28L21.29,210.28z M53.67,231.63v48.12c5.48,1.1,11.16,2.77,16.25,4.97  c9.03,3.87,40.06,1.35,54.96,1.35c9.35,0,6.64-5.74,4.32-5.81L118.23,280c-2.77-0.06-4.97-2.32-4.9-5.03  c0.06-2.77,2.32-4.97,5.03-4.9l10.58,0.19c1.35-0.26,2.19-1.1,2.58-2.19c0.77-2.06,0.19-5.22-1.29-5.22l-10.58,0.39  c-2.77,0.13-5.1-2.06-5.16-4.84c-0.13-2.77,2.06-5.1,4.84-5.16l10.77-0.39h0.19c2.64,0,2.9-7.55,0.84-7.42l-10.38,0.97  c-2.71,0.26-5.16-1.74-5.42-4.52c-0.26-2.77,1.74-5.16,4.52-5.42l11.22-1.03c2.58,0,2.9-7.42,0.77-7.42l-9.55,0.39l-6.13,0.19  c-11.09,0-21.74-2.06-24.32-12.58C71.28,217.44,74.31,230.21,53.67,231.63L53.67,231.63z M39.54,220.28H21.29  c-2.26,0-4.13,1.87-4.13,4.13v61.54c0,2.26,1.87,4.13,4.13,4.13h18.25c2.26,0,4.13-1.87,4.13-4.13V224.4  C43.67,222.15,41.8,220.28,39.54,220.28z M75.85,209.63c2.32-1.16,5.03-2.13,8.39-2.77v-18.19c-2.9-1.1-5.74-2.45-8.39-3.87V209.63  z M101.27,211.12c0.26,6.26,7.42,7.35,14.9,7.35v0.06h0.58v-14.13c0-0.77-0.97-0.65-1.35-0.65h-13.42c-0.32,0-0.65,0.32-0.65,0.65  L101.27,211.12z M126.75,218.08c5.35-0.26,9.74-0.77,13.35,3.42h75.15v-30.32c0-10.45,8.51-18.9,18.9-18.9h30.32V35.73  c0-4.9-4-8.9-8.9-8.9H103.14c-4.9,0-8.9,4-8.9,8.9v21.09c39.41-8.64,77.73,18.19,83.14,58.12c5.03,37.02-20.32,71.27-57.02,77.4  v2.32c3.81,1.68,6.32,5.42,6.32,9.74v13.67L126.75,218.08z M143.26,231.56c-0.06,3.16-1.03,6.45-2.9,8.97  c0.45,0.77,0.84,1.55,1.16,2.45h129.2c6.64,0,12.13-5.48,12.13-12.19V22.19c0-6.64-5.48-12.13-12.13-12.13H87.98  c-6.64,0-12.13,5.48-12.13,12.13v41.47c2.71-1.48,5.48-2.77,8.39-3.87V35.73c0-10.38,8.51-18.9,18.9-18.9h152.42  c10.45,0,18.9,8.51,18.9,18.9v141.52c0,1.35-0.52,2.64-1.48,3.55c-16.45,16.32-32.77,32.96-49.22,49.22  c-0.97,0.97-2.19,1.48-3.48,1.48h-77.02L143.26,231.56z M103.85,84.43c-0.13,0.06-0.32,0.06-0.45,0.06  c-10.9,1.55-20.12,7.35-26.32,15.48c-13.42,17.61-10,42.83,7.68,56.25c17.67,13.42,42.83,10,56.25-7.68s10-42.83-7.68-56.25  C125.2,86.11,114.75,83.01,103.85,84.43L103.85,84.43z M69.15,93.92c16.77-22.06,48.18-26.32,70.24-9.61  c22.06,16.77,26.38,48.18,9.61,70.24s-48.18,26.32-70.24,9.55C56.63,147.39,52.38,115.98,69.15,93.92z M94.24,197.05  c0.97-1.03,2.13-1.87,3.42-2.39v-2.32c-1.16-0.19-2.26-0.39-3.42-0.65V197.05z M107.65,193.7h2.71v-5.81c0-2.71,2.13-4.9,4.84-5.03  l1.81-0.19c32.32-4.39,54.89-34.12,50.51-66.5c-4.39-32.32-34.12-54.89-66.5-50.51c-3.42,0.45-6.71,1.23-9.87,2.19  c-0.26,0.13-0.45,0.19-0.71,0.26c-5.93,2-11.42,4.84-16.25,8.39c-0.19,0.19-0.45,0.39-0.71,0.52c-4.32,3.29-8.19,7.16-11.42,11.42  c-18.06,23.8-15.55,57.41,6,78.18c2.45,2.39,3.61,3.16,6.06,5.1c4.97,3.61,10.45,6.51,16.38,8.45c0.26,0.06,0.45,0.13,0.71,0.26  c3.87,1.23,7.87,2.06,12,2.45c2.58,0.26,4.52,2.45,4.52,4.97v5.87H107.65z M244.14,65.86c2.77,0,5.03,2.26,5.03,5.03  s-2.26,5.03-5.03,5.03h-60.12c-2.77,0-5.03-2.26-5.03-5.03s2.26-5.03,5.03-5.03H244.14z M244.14,151.77c2.77,0,5.03,2.26,5.03,5.03  s-2.26,5.03-5.03,5.03h-53.67c-2.77,0-5.03-2.26-5.03-5.03s2.26-5.03,5.03-5.03H244.14z M244.14,130.29c2.77,0,5.03,2.26,5.03,5.03  c0,2.77-2.26,5.03-5.03,5.03h-48.05c-2.77,0-5.03-2.26-5.03-5.03c0-2.77,2.26-5.03,5.03-5.03H244.14z M244.14,108.82  c2.77,0,5.03,2.26,5.03,5.03s-2.26,5.03-5.03,5.03h-48.05c-2.77,0-5.03-2.26-5.03-5.03s2.26-5.03,5.03-5.03H244.14z M244.14,87.34  c2.77,0,5.03,2.26,5.03,5.03s-2.26,5.03-5.03,5.03H191.7c-2.77,0-5.03-2.26-5.03-5.03s2.26-5.03,5.03-5.03H244.14z M244.14,44.31  c2.77,0,5.03,2.26,5.03,5.03s-2.26,5.03-5.03,5.03H164.8c-2.77,0-5.03-2.26-5.03-5.03s2.26-5.03,5.03-5.03H244.14z M257.43,182.28  h-23.22c-4.9,0-8.9,4-8.9,8.9v23.22L257.43,182.28z"></path></g></svg>