<svg xmlns="http://www.w3.org/2000/svg" xmlns:xlink="http://www.w3.org/1999/xlink" id="Layer_1" x="0px" y="0px" viewBox="0 0 300 300" style="enable-background:new 0 0 300 300;" xml:space="preserve"><style type="text/css">	.st0{fill-rule:evenodd;clip-rule:evenodd;fill:#FFBD1B;}	.st1{fill-rule:evenodd;clip-rule:evenodd;fill:#CCE6FF;}	.st2{fill-rule:evenodd;clip-rule:evenodd;fill:#AEDAFF;}	.st3{fill-rule:evenodd;clip-rule:evenodd;fill:#E7896E;}	.st4{fill-rule:evenodd;clip-rule:evenodd;fill:#3A7AD6;}	.st5{fill-rule:evenodd;clip-rule:evenodd;fill:#FFD16C;}	.st6{fill-rule:evenodd;clip-rule:evenodd;fill:#FFFFFF;}	.st7{fill-rule:evenodd;clip-rule:evenodd;fill:#BA8715;}	.st8{fill-rule:evenodd;clip-rule:evenodd;fill:#99C7FF;}	.st9{fill:#3A7AD6;}	.st10{fill:#FFD16C;}	.st11{fill:#BA8715;}	.st12{fill:#2E5972;}	.st13{fill:#B0475D;}	.st14{fill:#FFBD1B;}	.st15{fill-rule:evenodd;clip-rule:evenodd;fill:#EDEFF1;}	.st16{fill:#99C7FF;}	.st17{fill:#CCE6FF;}	.st18{clip-path:url(#SVGID_00000072265106402568901350000011505700795573215384_);}	.st19{fill:#FEF2E2;}	.st20{fill:#FFE1BA;}	.st21{fill:#0E3D6B;}	.st22{fill:#AEDAFF;}	.st23{fill:#FFFFFF;}	.st24{fill-rule:evenodd;clip-rule:evenodd;fill:#F6B4A8;}	.st25{fill-rule:evenodd;clip-rule:evenodd;fill:#F9C9C0;}	.st26{fill-rule:evenodd;clip-rule:evenodd;fill:#FFC738;}	.st27{fill:#86A0AF;}	.st28{fill:#738B95;}	.st29{fill:none;stroke:#000000;stroke-width:15;stroke-miterlimit:10;}	.st30{fill-rule:evenodd;clip-rule:evenodd;fill:#EB5463;}	.st31{fill-rule:evenodd;clip-rule:evenodd;}	.st32{fill:#FFF6BB;}	.st33{fill:#FFC472;}	.st34{fill:#FDB614;}	.st35{fill:#474747;}	.st36{opacity:0.1;enable-background:new    ;}	.st37{fill:#EBD8AE;}	.st38{fill-rule:evenodd;clip-rule:evenodd;fill:#DACFE6;}	.st39{fill-rule:evenodd;clip-rule:evenodd;fill:#9E4623;}	.st40{opacity:0.7;fill-rule:evenodd;clip-rule:evenodd;fill:#FFFFFF;}	.st41{fill-rule:evenodd;clip-rule:evenodd;fill:#E2F0FA;}	.st42{fill-rule:evenodd;clip-rule:evenodd;fill:#D0E4F2;}	.st43{fill-rule:evenodd;clip-rule:evenodd;fill:#FFC943;}	.st44{fill-rule:evenodd;clip-rule:evenodd;fill:#6BA4E8;}	.st45{fill-rule:evenodd;clip-rule:evenodd;fill:#FFAA16;}	.st46{fill-rule:evenodd;clip-rule:evenodd;fill:#2567B7;}	.st47{fill-rule:evenodd;clip-rule:evenodd;fill:#EBCDCD;}	.st48{fill-rule:evenodd;clip-rule:evenodd;fill:#D1E7FF;}	.st49{fill-rule:evenodd;clip-rule:evenodd;fill:#222124;}	.st50{fill-rule:evenodd;clip-rule:evenodd;fill:#FAD1A2;}	.st51{fill-rule:evenodd;clip-rule:evenodd;fill:#E6E6E6;}	.st52{fill:url(#SVGID_00000155845362464604190640000010557564026277687183_);}	.st53{fill:none;stroke:#211E1F;stroke-width:0.25;stroke-miterlimit:10;}	.st54{fill:url(#SVGID_00000043443691423399685630000014616503165971461548_);}	.st55{fill:url(#SVGID_00000131326406348772468240000013813683066129093514_);}	.st56{fill:url(#SVGID_00000179638606027095463950000000858479031932743848_);}	.st57{fill:url(#SVGID_00000139275035732954271720000001549891356358807433_);}	.st58{fill:#112A4D;}	.st59{fill:url(#SVGID_00000062183567097055144300000009423614630225820852_);}	.st60{fill:url(#SVGID_00000031182663860339758720000010947929734754110377_);}	.st61{fill:url(#SVGID_00000057839872673390679750000008250100666811943353_);}	.st62{fill:url(#SVGID_00000079479209254332193900000012953660328775002497_);}	.st63{fill:url(#SVGID_00000177480514716187177680000006599496281004182438_);}	.st64{fill:url(#SVGID_00000134950950812247647110000016434278713570552493_);}	.st65{fill:url(#SVGID_00000116937504577764123340000010270130618115775636_);}	.st66{fill:url(#SVGID_00000001630011010596214170000012916683515427033507_);}	.st67{fill:url(#SVGID_00000089540034055814626250000017961871328091939720_);}	.st68{fill:url(#SVGID_00000136398430693982278350000015897196291332743572_);}	.st69{fill:url(#SVGID_00000043433614296517736740000007546518011295071645_);}	.st70{fill:url(#SVGID_00000117667529398835448790000017232792264660835976_);}	.st71{fill:url(#SVGID_00000148633348602491128240000007143915282713351081_);}	.st72{fill:url(#SVGID_00000075158531003633764820000013765230524046649988_);}	.st73{fill:url(#SVGID_00000039826791615758930600000003051946923258980533_);}	.st74{fill:url(#SVGID_00000150085005860492859650000008621240896743964607_);}	.st75{fill:url(#SVGID_00000176734388545110319120000012914726983499441075_);}	.st76{fill:url(#SVGID_00000005978010469656902410000012613610768292325504_);}	.st77{fill:url(#SVGID_00000092447826315778603100000006858530642274288043_);}	.st78{fill:url(#SVGID_00000129207969545283245230000015130393686575425152_);}	.st79{fill:url(#SVGID_00000071540136027234787770000013379523111601590947_);}	.st80{fill:url(#SVGID_00000052797134283402004000000007355616701905139882_);}	.st81{fill:url(#SVGID_00000178204579139091936070000003577517096808780969_);}	.st82{fill:url(#SVGID_00000132805135494828623070000014262200507033671565_);}	.st83{fill:url(#SVGID_00000100350199253800650640000010940393322675595938_);}	.st84{fill:#082649;}	.st85{fill:#EFEFEF;}	.st86{fill:#DDDDDD;}	.st87{fill:#629FDD;}	.st88{fill:#FFC943;}	.st89{fill-rule:evenodd;clip-rule:evenodd;fill:#837683;}	.st90{fill-rule:evenodd;clip-rule:evenodd;fill:#685E68;}	.st91{fill-rule:evenodd;clip-rule:evenodd;fill:#E3A76F;}	.st92{fill-rule:evenodd;clip-rule:evenodd;fill:#FFD064;}	.st93{fill-rule:evenodd;clip-rule:evenodd;fill:#ECEFF1;}	.st94{fill-rule:evenodd;clip-rule:evenodd;fill:#D1D1D6;}	.st95{fill-rule:evenodd;clip-rule:evenodd;fill:#F6DCCD;}	.st96{fill-rule:evenodd;clip-rule:evenodd;fill:#F1CBBC;}	.st97{fill-rule:evenodd;clip-rule:evenodd;fill:#B1B1B5;}	.st98{fill-rule:evenodd;clip-rule:evenodd;fill:#242222;}	.st99{fill:#CCD1D9;}	.st100{fill:#DFF6FD;}	.st101{fill:#D5E3F4;}	.st102{fill:#FFEEE6;}	.st103{fill:#FFDFCF;}</style><g>	<g>		<path class="st8" d="M280.27,166.16v14.78c0,4.67-3.02,8.62-7.54,9.84l-18.54,4.98c-2.26,7.98-5.47,15.76-9.58,23.17l9.58,16.62   c2.35,4.05,1.69,8.99-1.6,12.28l-10.46,10.46l-10.44,10.44c-3.31,3.31-8.25,3.95-12.28,1.62l-16.64-9.6   c-7.39,4.13-15.17,7.32-23.17,9.58l-4.98,18.56c-1.2,4.51-5.15,7.54-9.82,7.54h-29.56c-4.67,0-8.62-3.04-9.84-7.54l-4.96-18.56   c-8-2.26-15.78-5.45-23.18-9.58l-16.62,9.6c-4.05,2.33-8.98,1.69-12.28-1.62l-10.46-10.44l-10.44-10.46   c-3.31-3.31-3.95-8.23-1.62-12.28l9.6-16.62c-4.13-7.41-7.32-15.19-9.58-23.17l-18.56-4.98c-4.5-1.21-7.54-5.16-7.54-9.84v-14.78   h64.12c0,36.55,29.61,66.16,66.16,66.16s66.16-29.61,66.16-66.16L280.27,166.16L280.27,166.16z"></path>		<path class="st4" d="M280.27,166.16v14.78c0,4.67-3.02,8.62-7.54,9.84l-18.54,4.98c-2.26,7.98-5.47,15.76-9.58,23.17l9.58,16.62   c2.35,4.05,1.69,8.99-1.6,12.28l-10.46,10.46l-10.44,10.44c-3.31,3.31-8.25,3.95-12.28,1.62l-16.64-9.6   c-7.39,4.13-15.17,7.32-23.17,9.58l-4.98,18.56c-1.2,4.51-5.15,7.54-9.82,7.54h-29.56c-4.67,0-8.62-3.04-9.84-7.54l-4.96-18.56   c37.95,1.13,73.5-18.49,92.8-51.18c9.65-16.35,14.48-34.67,14.48-53L280.27,166.16L280.27,166.16z"></path>		<path class="st7" d="M19.73,147.98h90.88V125.1c0-40.7-90.88-40.7-90.88,0V147.98z"></path>		<path class="st0" d="M19.73,147.98h74.27V125.1c0-17.85-17.5-27.87-37.14-30.07c-19.64,2.19-37.14,12.22-37.14,30.07L19.73,147.98   L19.73,147.98z"></path>		<path class="st24" d="M65.17,98.09c14,0,25.43-11.42,25.43-25.43S79.18,47.24,65.17,47.24S39.74,58.66,39.74,72.66   S51.17,98.09,65.17,98.09z"></path>		<path class="st25" d="M57.31,96.86c-10.19-3.32-17.56-12.89-17.56-24.2s7.37-20.87,17.56-24.2c10.21,3.32,17.58,12.89,17.58,24.2   S67.52,93.53,57.31,96.86z"></path>		<path class="st7" d="M189.39,147.98h90.88V125.1c0-40.7-90.88-40.7-90.88,0V147.98z"></path>		<path class="st0" d="M189.39,147.98h74.27V125.1c0-17.85-17.5-27.87-37.14-30.07c-19.64,2.19-37.14,12.22-37.14,30.07   L189.39,147.98L189.39,147.98z"></path>		<path class="st24" d="M234.83,98.09c14,0,25.43-11.42,25.43-25.43s-11.42-25.43-25.43-25.43c-14,0-25.43,11.42-25.43,25.43   S220.82,98.09,234.83,98.09z"></path>		<path class="st26" d="M150.01,3.57l7.26,15.89l17.36,2.01l-12.87,11.81l3.48,17.13l-15.22-8.59l-15.22,8.59l3.46-17.13   l-12.87-11.81l17.36-2.01L150.01,3.57z"></path>		<path class="st7" d="M104.57,164.43h90.88v-22.88c0-40.7-90.88-40.7-90.88,0L104.57,164.43z"></path>		<path class="st0" d="M104.57,164.43h74.27v-22.88c0-17.85-17.5-27.87-37.14-30.07c-19.64,2.19-37.14,12.22-37.14,30.07   L104.57,164.43L104.57,164.43z"></path>		<path class="st24" d="M150.01,114.54c14,0,25.43-11.42,25.43-25.43s-11.42-25.43-25.43-25.43c-14,0-25.43,11.42-25.43,25.43   S136,114.54,150.01,114.54z"></path>		<path class="st25" d="M142.15,113.29c-10.19-3.31-17.56-12.87-17.56-24.18s7.37-20.89,17.56-24.2   c10.21,3.31,17.56,12.89,17.56,24.2S152.35,109.99,142.15,113.29z"></path>		<path class="st25" d="M226.98,48.47c10.19,3.32,17.56,12.89,17.56,24.2s-7.37,20.87-17.56,24.2   c-10.21-3.32-17.58-12.89-17.58-24.2S216.77,51.79,226.98,48.47z"></path>	</g>	<path d="M276.71,180.93c0,3.04-1.97,5.6-4.89,6.39l-18.56,4.96c-1.21,0.32-2.18,1.27-2.51,2.48c-2.21,7.81-5.31,15.35-9.26,22.41  c-0.61,1.1-0.61,2.43,0.02,3.53l9.62,16.62c1.54,2.67,1.11,5.8-1.06,7.98l-20.91,20.91c-2.18,2.18-5.31,2.58-7.98,1.05l-16.62-9.6  c-1.08-0.62-2.41-0.64-3.51-0.02c-7.07,3.93-14.61,7.05-22.42,9.26c-1.21,0.34-2.14,1.28-2.48,2.51l-4.96,18.54  c-0.79,2.94-3.36,4.91-6.38,4.91h-29.56c-3.04,0-5.6-1.97-6.39-4.89l-4.96-18.56c-0.32-1.21-1.27-2.18-2.48-2.51  c-7.81-2.21-15.35-5.33-22.41-9.26c-0.54-0.3-1.15-0.46-1.74-0.46c-0.62,0-1.25,0.15-1.79,0.47l-16.62,9.6  c-2.67,1.54-5.8,1.13-7.98-1.05L49.97,245.3c-2.18-2.19-2.6-5.31-1.06-7.98l9.6-16.62c0.62-1.1,0.64-2.43,0.03-3.53  c-3.95-7.05-7.07-14.6-9.28-22.41c-0.34-1.21-1.3-2.16-2.51-2.48l-18.54-4.96c-2.94-0.79-4.91-3.36-4.91-6.39v-11.2h57.06  c1.87,36.8,32.4,66.16,69.65,66.16s67.76-29.36,69.63-66.16h57.06L276.71,180.93L276.71,180.93z M280.28,162.59h-64.12  c-1.97,0-3.58,1.59-3.58,3.56c0,34.52-28.08,62.6-62.58,62.6s-62.6-28.08-62.6-62.6c0-1.97-1.59-3.56-3.56-3.56H19.73  c-1.97,0-3.58,1.59-3.58,3.56v14.78c0,6.31,4.1,11.64,10.19,13.3l16.62,4.44c2.13,7,4.93,13.79,8.35,20.2l-8.61,14.9  c-3.12,5.45-2.26,12.11,2.19,16.59l20.91,20.91c4.45,4.45,11.12,5.33,16.59,2.18l14.9-8.59c6.41,3.42,13.21,6.24,20.2,8.35  l4.45,16.62c1.64,6.09,6.97,10.19,13.28,10.19h29.56c6.29,0,11.64-4.1,13.28-10.19l4.44-16.62c7-2.11,13.79-4.93,20.21-8.35  l14.88,8.61c5.47,3.14,12.13,2.26,16.59-2.19l20.91-20.91c4.45-4.45,5.33-11.12,2.19-16.59l-8.61-14.9  c3.44-6.41,6.24-13.19,8.35-20.2l16.64-4.44c6.09-1.65,10.17-6.99,10.17-13.3v-14.78C283.84,164.17,282.26,162.59,280.28,162.59  L280.28,162.59z M143.16,23.01c1.25-0.15,2.31-0.94,2.83-2.08l4.02-8.79l4.02,8.79c0.52,1.13,1.6,1.92,2.83,2.08l9.6,1.1l-7.1,6.53  c-0.93,0.86-1.33,2.13-1.08,3.34l1.91,9.48l-8.42-4.76c-0.54-0.3-1.15-0.46-1.75-0.46s-1.21,0.15-1.75,0.46l-8.42,4.76l1.91-9.48  c0.25-1.21-0.17-2.48-1.08-3.34l-7.12-6.53L143.16,23.01L143.16,23.01z M134.35,34.54l-3.07,15.15c-0.27,1.37,0.27,2.78,1.4,3.59  c1.13,0.83,2.65,0.91,3.86,0.24l13.46-7.61l13.46,7.61c0.54,0.3,1.15,0.46,1.75,0.46c0.73,0,1.47-0.24,2.09-0.69  c1.13-0.81,1.67-2.23,1.4-3.59l-3.05-15.15l11.37-10.44c1.03-0.94,1.42-2.41,0.98-3.73c-0.44-1.33-1.6-2.28-2.99-2.45l-15.34-1.77  l-6.45-14.07C152.67,0.81,151.41,0,150.01,0s-2.68,0.81-3.26,2.07l-6.41,14.07l-15.35,1.77c-1.4,0.17-2.56,1.11-3,2.45  c-0.42,1.32-0.03,2.78,1,3.73L134.35,34.54L134.35,34.54z M276.71,144.41h-77.7v-2.87c0-6.51-2.11-12.4-6.01-17.38  c0.61-14.78,15.61-22.56,30.03-25.04c3.61,1.62,7.61,2.53,11.81,2.53c4.2,0,8.2-0.91,11.79-2.53c14.73,2.53,30.07,10.6,30.07,25.97  L276.71,144.41L276.71,144.41z M191.87,160.87h-83.74v-19.32c0-15.37,15.34-23.44,30.07-25.97c3.61,1.62,7.61,2.53,11.81,2.53  c4.2,0,8.18-0.91,11.79-2.53c14.73,2.53,30.07,10.6,30.07,25.97V160.87z M23.29,144.41v-19.32c0-15.37,15.35-23.44,30.07-25.97  c3.61,1.62,7.61,2.53,11.81,2.53c4.2,0,8.18-0.91,11.79-2.53c14.43,2.48,29.43,10.26,30.03,25.04c-3.9,4.98-6.01,10.87-6.01,17.38  v2.87L23.29,144.41L23.29,144.41z M43.3,72.65c0-12.05,9.8-21.85,21.87-21.85s21.85,9.8,21.85,21.85s-9.8,21.87-21.85,21.87  S43.3,84.72,43.3,72.65z M128.14,89.1c0-12.05,9.8-21.85,21.87-21.85c12.06,0,21.85,9.8,21.85,21.85s-9.8,21.87-21.85,21.87  S128.14,101.15,128.14,89.1L128.14,89.1z M212.98,72.65c0-12.05,9.8-21.85,21.87-21.85s21.85,9.8,21.85,21.85  s-9.8,21.87-21.85,21.87S212.98,84.72,212.98,72.65z M254.82,93.64c5.55-5.28,9.01-12.74,9.01-20.99  c0-15.98-13.01-28.99-28.99-28.99s-29,13.01-29,28.99c0,8.25,3.48,15.71,9.01,20.99c-15.12,4.18-25.21,12.97-28.14,24.4  c-4.51-3.41-10.12-6.12-16.72-7.95c5.55-5.28,9.01-12.74,9.01-20.99c0-15.98-13.01-28.99-28.99-28.99s-29,13.01-29,28.99  c0,8.25,3.48,15.71,9.03,20.99c-6.6,1.82-12.23,4.54-16.74,7.95c-2.94-11.42-13.03-20.21-28.14-24.4  c5.55-5.28,9.01-12.74,9.01-20.99c0-15.98-13.01-28.99-28.99-28.99s-29,13.01-29,28.99c0,8.25,3.48,15.71,9.01,20.99  c-18.1,5.03-29.02,16.62-29.02,31.45v22.88c0,1.97,1.6,3.58,3.58,3.58h81.26v12.87c0,1.97,1.6,3.58,3.58,3.58h90.88  c1.96,0,3.56-1.6,3.56-3.58v-12.87h81.28c1.97,0,3.56-1.6,3.56-3.58v-22.88C283.84,110.26,272.93,98.67,254.82,93.64L254.82,93.64z  "></path></g></svg>