<svg xmlns="http://www.w3.org/2000/svg" xmlns:xlink="http://www.w3.org/1999/xlink" id="Layer_1" x="0px" y="0px" viewBox="0 0 300 300" style="enable-background:new 0 0 300 300;" xml:space="preserve"><style type="text/css">	.st0{fill-rule:evenodd;clip-rule:evenodd;fill:#FFBD1B;}	.st1{fill-rule:evenodd;clip-rule:evenodd;fill:#CCE6FF;}	.st2{fill-rule:evenodd;clip-rule:evenodd;fill:#AEDAFF;}	.st3{fill-rule:evenodd;clip-rule:evenodd;fill:#E7896E;}	.st4{fill-rule:evenodd;clip-rule:evenodd;fill:#3A7AD6;}	.st5{fill-rule:evenodd;clip-rule:evenodd;fill:#FFD16C;}	.st6{fill-rule:evenodd;clip-rule:evenodd;fill:#FFFFFF;}	.st7{fill-rule:evenodd;clip-rule:evenodd;fill:#BA8715;}	.st8{fill-rule:evenodd;clip-rule:evenodd;fill:#99C7FF;}	.st9{fill:#3A7AD6;}	.st10{fill:#FFD16C;}	.st11{fill:#BA8715;}	.st12{fill:#2E5972;}	.st13{fill:#B0475D;}	.st14{fill:#FFBD1B;}	.st15{fill-rule:evenodd;clip-rule:evenodd;fill:#EDEFF1;}	.st16{fill:#99C7FF;}	.st17{fill:#CCE6FF;}	.st18{clip-path:url(#SVGID_00000009579135887977016500000009697085018126316427_);}	.st19{fill:#FEF2E2;}	.st20{fill:#FFE1BA;}	.st21{fill:#0E3D6B;}	.st22{fill:#AEDAFF;}	.st23{fill:#FFFFFF;}	.st24{fill-rule:evenodd;clip-rule:evenodd;fill:#F6B4A8;}	.st25{fill-rule:evenodd;clip-rule:evenodd;fill:#F9C9C0;}	.st26{fill-rule:evenodd;clip-rule:evenodd;fill:#FFC738;}	.st27{fill:#86A0AF;}	.st28{fill:#738B95;}	.st29{fill:none;stroke:#000000;stroke-width:15;stroke-miterlimit:10;}	.st30{fill-rule:evenodd;clip-rule:evenodd;fill:#EB5463;}	.st31{fill-rule:evenodd;clip-rule:evenodd;}	.st32{fill:#FFF6BB;}	.st33{fill:#FFC472;}	.st34{fill:#FDB614;}	.st35{fill:#474747;}	.st36{opacity:0.1;enable-background:new    ;}	.st37{fill:#EBD8AE;}	.st38{fill-rule:evenodd;clip-rule:evenodd;fill:#DACFE6;}	.st39{fill-rule:evenodd;clip-rule:evenodd;fill:#9E4623;}	.st40{opacity:0.7;fill-rule:evenodd;clip-rule:evenodd;fill:#FFFFFF;}	.st41{fill-rule:evenodd;clip-rule:evenodd;fill:#E2F0FA;}	.st42{fill-rule:evenodd;clip-rule:evenodd;fill:#D0E4F2;}	.st43{fill-rule:evenodd;clip-rule:evenodd;fill:#FFC943;}	.st44{fill-rule:evenodd;clip-rule:evenodd;fill:#6BA4E8;}	.st45{fill-rule:evenodd;clip-rule:evenodd;fill:#FFAA16;}	.st46{fill-rule:evenodd;clip-rule:evenodd;fill:#2567B7;}	.st47{fill-rule:evenodd;clip-rule:evenodd;fill:#EBCDCD;}	.st48{fill-rule:evenodd;clip-rule:evenodd;fill:#D1E7FF;}	.st49{fill-rule:evenodd;clip-rule:evenodd;fill:#222124;}	.st50{fill-rule:evenodd;clip-rule:evenodd;fill:#FAD1A2;}	.st51{fill-rule:evenodd;clip-rule:evenodd;fill:#E6E6E6;}	.st52{fill:url(#SVGID_00000162331029401746701460000008697738519132447923_);}	.st53{fill:none;stroke:#211E1F;stroke-width:0.25;stroke-miterlimit:10;}	.st54{fill:url(#SVGID_00000158010416396629334780000007071300924922230150_);}	.st55{fill:url(#SVGID_00000025439651133948030170000012446656495413239718_);}	.st56{fill:url(#SVGID_00000055704038193660641200000007459091385873632661_);}	.st57{fill:url(#SVGID_00000029745689821208730130000015366694909837951151_);}	.st58{fill:#112A4D;}	.st59{fill:url(#SVGID_00000146466642532392624870000002245598295435362949_);}	.st60{fill:url(#SVGID_00000032626069648743441610000015562563228159319965_);}	.st61{fill:url(#SVGID_00000174582416895433470860000009739991535106039194_);}	.st62{fill:url(#SVGID_00000027605081480194937590000002074281197335075482_);}	.st63{fill:url(#SVGID_00000151508079965525057630000001520357230909155518_);}	.st64{fill:url(#SVGID_00000164498442125510179020000009371588232587690647_);}	.st65{fill:url(#SVGID_00000077282038151250713400000012640822419159974559_);}	.st66{fill:url(#SVGID_00000114058037577435469500000010014409233400760979_);}	.st67{fill:url(#SVGID_00000095330881576596483410000001240336775392890499_);}	.st68{fill:url(#SVGID_00000005236961085756504790000016840037002940505790_);}	.st69{fill:url(#SVGID_00000008831342182607088250000004706496008047472301_);}	.st70{fill:url(#SVGID_00000096781664806174411230000004344486985369462948_);}	.st71{fill:url(#SVGID_00000173146736581296260910000013393322901968532912_);}	.st72{fill:url(#SVGID_00000172418848575971702100000006448334781162499221_);}	.st73{fill:url(#SVGID_00000160174175439616629680000017320560467207416752_);}	.st74{fill:url(#SVGID_00000049912731866894086250000018053941810401457316_);}	.st75{fill:url(#SVGID_00000040559638051869898640000009780868123942390689_);}	.st76{fill:url(#SVGID_00000167356069666082365560000005987721158925841547_);}	.st77{fill:url(#SVGID_00000045584764385885633180000012762452992847034259_);}	.st78{fill:url(#SVGID_00000128486549038210784700000003080292137224760479_);}	.st79{fill:url(#SVGID_00000040540066282106313820000010809294309172554379_);}	.st80{fill:url(#SVGID_00000147220428496552350080000018393802857053018522_);}	.st81{fill:url(#SVGID_00000059272139177149316170000011821306449002840986_);}	.st82{fill:url(#SVGID_00000171707667386931280390000008669376345715167926_);}	.st83{fill:url(#SVGID_00000090991568405306764700000012049273158281753774_);}	.st84{fill:#082649;}	.st85{fill:#EFEFEF;}	.st86{fill:#DDDDDD;}	.st87{fill:#629FDD;}	.st88{fill:#FFC943;}	.st89{fill-rule:evenodd;clip-rule:evenodd;fill:#837683;}	.st90{fill-rule:evenodd;clip-rule:evenodd;fill:#685E68;}	.st91{fill-rule:evenodd;clip-rule:evenodd;fill:#E3A76F;}	.st92{fill-rule:evenodd;clip-rule:evenodd;fill:#FFD064;}	.st93{fill-rule:evenodd;clip-rule:evenodd;fill:#ECEFF1;}	.st94{fill-rule:evenodd;clip-rule:evenodd;fill:#D1D1D6;}	.st95{fill-rule:evenodd;clip-rule:evenodd;fill:#F6DCCD;}	.st96{fill-rule:evenodd;clip-rule:evenodd;fill:#F1CBBC;}	.st97{fill-rule:evenodd;clip-rule:evenodd;fill:#B1B1B5;}	.st98{fill-rule:evenodd;clip-rule:evenodd;fill:#242222;}	.st99{fill:#CCD1D9;}	.st100{fill:#DFF6FD;}	.st101{fill:#D5E3F4;}	.st102{fill:#FFEEE6;}	.st103{fill:#FFDFCF;}</style><g>	<path class="st10" d="M115.5,251c-0.5,4.25-2.74,8.68-6.15,11.08l-4.74,3.34c27.5,0,63.4,0,90.8,0l-4.74-3.34  c-3.41-2.4-5.65-6.83-6.15-11.08l-2.65-23.33h-63.73L115.5,251z"></path>	<path class="st11" d="M130.54,251l2.65-23.33h-15.04L115.5,251c-0.5,4.25-2.74,8.68-6.15,11.08l-4.74,3.34c4.79,0,9.83,0,15.04,0  l4.74-3.34C127.8,259.68,130.04,255.25,130.54,251z"></path>	<path class="st85" d="M279.23,228.55H21.11c-9.11,0-16.56-7.45-16.56-16.56V34.74c0-9.11,7.45-16.56,16.56-16.56h258.12  c9.11,0,16.56,7.45,16.56,16.56v177.25C295.78,221.1,288.33,228.55,279.23,228.55z"></path>	<path class="st86" d="M36.78,211.99V34.74c0-9.11,7.45-16.56,16.56-16.56H21.11c-9.11,0-16.56,7.45-16.56,16.56v177.25  c0,9.11,7.45,16.56,16.56,16.56h32.23C44.23,228.55,36.78,221.1,36.78,211.99z"></path>	<path class="st16" d="M204.21,264.88H95.82c-4.6,0-8.36,3.76-8.36,8.36v0.28c0,4.6,3.76,8.36,8.36,8.36h108.39  c4.6,0,8.36-3.76,8.36-8.36v-0.28C212.57,268.64,208.8,264.88,204.21,264.88z"></path>	<path class="st9" d="M112.46,273.51v-0.28c0-4.6,3.76-8.36,8.36-8.36h-25c-4.6,0-8.36,3.76-8.36,8.36v0.28  c0,4.6,3.76,8.36,8.36,8.36h25C116.22,281.87,112.46,278.11,112.46,273.51z"></path>	<path class="st9" d="M279.22,18.18H21.12c-9.11,0-16.56,7.45-16.56,16.56v160.4c10.07,0,276.66,0,284.18,0h7.05V34.75  C295.78,25.64,288.33,18.18,279.22,18.18z"></path>	<path class="st9" d="M36.78,34.74c0-9.11,7.45-16.56,16.56-16.56H21.11c-9.11,0-16.56,7.45-16.56,16.56v160.4h32.23L36.78,34.74  L36.78,34.74z"></path>	<path class="st16" d="M275.96,35.18H23.79c-1.56,0-2.83,1.27-2.83,2.83v137.91c0,1.56,1.27,2.83,2.83,2.83h230.25  c13.41,0,14.07,0,21.92,0c1.56,0,2.83-1.27,2.83-2.83V38C278.79,36.44,277.52,35.18,275.96,35.18z"></path>	<path class="st87" d="M36.78,35.18H23.79c-1.56,0-2.83,1.27-2.83,2.83v137.91c0,1.56,1.27,2.83,2.83,2.83h12.99L36.78,35.18  L36.78,35.18z"></path>	<path class="st85" d="M275.96,34.59H23.79c-1.56,0-2.83,1.27-2.83,2.83v28.82h257.83V37.42C278.79,35.86,277.52,34.59,275.96,34.59  z"></path>	<path class="st86" d="M36.78,34.74c0-0.05,0-0.1,0-0.15h-13c-1.56,0-2.83,1.27-2.83,2.83v28.82h15.82  C36.78,66.23,36.78,34.74,36.78,34.74z"></path>	<circle class="st88" cx="78.68" cy="122.68" r="36.04"></circle>	<path class="st11" d="M61.17,132.79c-8.59-14.88-5.36-33.34,6.78-44.51c-2.49,0.78-4.94,1.83-7.29,3.19  c-17.24,9.95-23.14,31.99-13.19,49.23s31.99,23.14,49.23,13.19c2.35-1.36,4.49-2.95,6.41-4.72  C87.36,154.1,69.76,147.67,61.17,132.79z"></path>	<path class="st88" d="M187.5,170.37l-8.23,107.9c-0.14,1.89,1.35,3.5,3.25,3.5h106.3c1.9,0,3.39-1.61,3.25-3.51l-8.2-107.53  c-0.27-3.48-3.16-6.16-6.65-6.16h-83.46C190.47,164.58,187.75,167.11,187.5,170.37z"></path>	<path class="st11" d="M204.37,278.17l8.23-107.9c0.25-3.27,2.97-5.79,6.25-5.79h-25c-3.28,0-6,2.53-6.25,5.79l-8.23,107.9  c-0.14,1.89,1.35,3.5,3.25,3.5h25C205.72,281.68,204.22,280.06,204.37,278.17z"></path>	<path d="M42.66,55.51c2.46,0,4.39-2,4.39-4.39c0-2.03-1.38-3.87-3.53-4.31c-2.66-0.53-5.26,1.49-5.26,4.31  C38.26,53.5,40.2,55.51,42.66,55.51z"></path>	<path d="M58.82,55.51c2.39,0,4.39-1.93,4.39-4.39c0-2.84-2.64-4.85-5.26-4.31c-2.14,0.45-3.53,2.27-3.53,4.31  C54.43,53.56,56.41,55.51,58.82,55.51z"></path>	<path d="M75,55.51c2.43,0,4.39-1.97,4.39-4.39c0-2.83-2.62-4.86-5.25-4.31c-2.08,0.43-3.54,2.21-3.54,4.31  C70.6,53.54,72.58,55.51,75,55.51z"></path>	<path d="M94.48,55.51h162.37c2.43,0,4.39-1.97,4.39-4.39s-1.97-4.39-4.39-4.39H94.48c-2.43,0-4.39,1.97-4.39,4.39  C90.08,53.54,92.05,55.51,94.48,55.51z"></path>	<path d="M150,216.36c2.43,0,4.39-1.98,4.39-4.39c0-2.02-1.38-3.87-3.54-4.31c-2.69-0.53-5.25,1.52-5.25,4.31  C145.61,214.37,147.55,216.36,150,216.36z"></path>	<path d="M133.23,91.11h122.52c2.43,0,4.39-1.97,4.39-4.39s-1.97-4.39-4.39-4.39H133.23c-2.43,0-4.39,1.97-4.39,4.39  C128.83,89.14,130.8,91.11,133.23,91.11z"></path>	<path d="M133.23,109.4h122.52c2.43,0,4.39-1.97,4.39-4.39s-1.97-4.39-4.39-4.39H133.23c-2.43,0-4.39,1.97-4.39,4.39  S130.8,109.4,133.23,109.4z"></path>	<path d="M133.23,127.68h60.18c2.43,0,4.39-1.97,4.39-4.39c0-2.43-1.97-4.39-4.39-4.39h-60.18c-2.43,0-4.39,1.97-4.39,4.39  C128.83,125.71,130.8,127.68,133.23,127.68z"></path>	<path d="M133.23,145.97h60.18c2.43,0,4.39-1.97,4.39-4.39s-1.97-4.39-4.39-4.39h-60.18c-2.43,0-4.39,1.97-4.39,4.39  C128.83,144,130.8,145.97,133.23,145.97z"></path>	<path d="M133.23,164.26h40.16c2.43,0,4.39-1.97,4.39-4.39s-1.97-4.39-4.39-4.39h-40.16c-2.43,0-4.39,1.97-4.39,4.39  C128.83,162.29,130.8,164.26,133.23,164.26z"></path>	<path d="M69.95,134.62c-2.43,0-4.39,1.97-4.39,4.39s1.97,4.39,4.39,4.39h3.73c0.14,2.3,2.04,4.12,4.38,4.12  c2.35,0,4.26-1.84,4.38-4.16c6.48-0.4,11.63-5.78,11.63-12.35c0-6.57-5.15-11.95-11.62-12.35v-7.24h3.28  c2.43,0,4.39-1.97,4.39-4.39s-1.97-4.39-4.39-4.39h-3.28v-0.36c0-2.43-1.97-4.39-4.39-4.39s-4.39,1.97-4.39,4.39v0.4  c-6.47,0.4-11.62,5.78-11.62,12.35c0,6.57,5.15,11.95,11.62,12.35v7.24L69.95,134.62L69.95,134.62z M82.45,127.5  c1.61,0.36,2.83,1.8,2.83,3.52c0,1.72-1.21,3.16-2.83,3.52V127.5z M70.84,115.02c0-1.72,1.21-3.16,2.83-3.52v7.03  C72.05,118.18,70.84,116.74,70.84,115.02z"></path>	<path d="M224.71,177.35c-2.43,0-4.39,1.97-4.39,4.39s1.97,4.39,4.39,4.39h22.34c2.43,0,4.39-1.97,4.39-4.39s-1.97-4.39-4.39-4.39  H224.71z"></path>	<path d="M281.83,14.12L281.83,14.12c-0.81-0.12-1.97-0.19-2.79-0.19h-33.13c-2.43,0-4.39,1.97-4.39,4.39  c0,2.43,1.97,4.39,4.39,4.39h33.13c7.59,0,10.56,6.23,10.65,6.32c1.04,1.87,1.52,4.05,1.52,5.85v156.13h-1.37l0,0l-1.58-20.76  c-0.05-0.66-0.17-1.31-0.33-1.93c-0.01-0.05-0.02-0.1-0.03-0.15c-0.04-0.16-0.1-0.31-0.15-0.47c-0.79-2.43-2.39-4.49-4.48-5.86  c0-6.04,0-118.09,0-124.08v0c0-3.98-3.24-7.22-7.22-7.22H23.96c-3.98,0-7.22,3.24-7.22,7.22v0c0,5.89,0,132.16,0,138.09  c0,3.98,3.24,7.22,7.22,7.22h158.12l-0.6,7.93H8.79V34.89c0-0.75,0.07-1.45,0.2-2.15c0.08-0.16,0.69-6.05,7.17-9.02h0l0,0  c1.84-0.8,3.56-0.93,3.35-0.91c0.56-0.07,0.89-0.08,1.45-0.09h204.45c2.43,0,4.39-1.97,4.39-4.39c0-2.43-1.97-4.39-4.39-4.39H20.95  c-7.89,0-15.39,4.56-18.93,12.02h0C0.74,28.63,0,31.79,0,34.89c0,8.98,0,170.15,0,177.41c0,11.56,9.4,20.96,20.96,20.96h92.44  l-2.05,17.38c-0.37,3.02-2.06,6.03-4.21,7.49l-3.59,2.43h-7.74c-7.03,0-12.75,5.72-12.75,12.75c0,7.03,5.72,12.75,12.75,12.75  c8.62,0,184.77,0,193.02,0c2.12,0,4.17-0.89,5.61-2.45c1.44-1.56,2.18-3.67,2.02-5.78l-1.11-14.62c-0.18-2.42-2.29-4.22-4.72-4.05  c-2.42,0.19-4.23,2.3-4.05,4.72l1.02,13.39H183.72l8.14-106.71l0,0c0.07-0.97,0.9-1.74,1.87-1.74h10.44v7.96  c0,2.43,1.97,4.39,4.39,4.39s4.39-1.97,4.39-4.39v-7.96h45.84v7.96c0,2.43,1.97,4.39,4.39,4.39s4.39-1.97,4.39-4.39v-7.96h9.64  c0.12,0,0.23,0.02,0.35,0.03c0.06,0.01,0.12,0.02,0.18,0.04c0.94,0.23,1.67,1.04,1.75,2.03l5.53,72.44  c0.19,2.42,2.31,4.24,4.72,4.05c2.42-0.19,4.23-2.3,4.05-4.72l-1.11-14.52c4.63-3.97,7.32-9.73,7.32-15.89c0-8,0-168.48,0-177.41  C300,24.58,292.42,15.6,281.83,14.12z M174.9,277.28H95.81c-2.19,0-3.96-1.78-3.96-3.96c0-2.19,1.78-3.96,3.96-3.96l0,0h79.7  L174.9,277.28z M176.18,260.56h-59.39c1.73-2.6,2.9-5.68,3.29-8.88l2.18-18.43h56.01C177.56,242.41,176.76,252.89,176.18,260.56z   M178.93,224.47c-7.63,0-150.48,0-157.97,0c-6.71,0-12.17-5.46-12.17-12.17v-12.49h172.02L178.93,224.47z M258.8,160.04h-45.84  v-5.19c0-12.64,10.28-22.92,22.92-22.92c12.64,0,22.92,10.28,22.92,22.92L258.8,160.04L258.8,160.04z M274.47,160.04h-6.88v-5.19v0  c0-17.48-14.22-31.71-31.71-31.71s-31.71,14.22-31.71,31.71v0v5.19h-10.44c-5.54,0-10.22,4.33-10.64,9.86l-0.34,4.41H25.53V70.74  h248.94L274.47,160.04L274.47,160.04z M274.47,61.95H25.53V39.35h248.94L274.47,61.95L274.47,61.95z M291.21,208.98l-0.7-9.17h0.7  V208.98z"></path>	<path d="M78.51,163.15c22.3,0,40.45-18.14,40.45-40.45c0-5.92-1.26-11.64-3.74-17c-1.02-2.2-3.63-3.16-5.84-2.14  c-2.2,1.02-3.16,3.63-2.14,5.84c1.94,4.19,2.93,8.66,2.93,13.3c0,17.46-14.2,31.66-31.66,31.66s-31.66-14.2-31.66-31.66  s14.2-31.66,31.66-31.66c5.95,0,11.76,1.67,16.79,4.82c2.06,1.29,4.77,0.67,6.06-1.39c1.29-2.06,0.67-4.77-1.39-6.06  c-6.43-4.03-13.85-6.17-21.46-6.17c-22.3,0-40.45,18.14-40.45,40.45C38.07,145,56.21,163.15,78.51,163.15z"></path></g></svg>