<svg xmlns="http://www.w3.org/2000/svg" xmlns:xlink="http://www.w3.org/1999/xlink" id="Layer_1" x="0px" y="0px" viewBox="0 0 300 300" style="enable-background:new 0 0 300 300;" xml:space="preserve"><style type="text/css">	.st0{fill-rule:evenodd;clip-rule:evenodd;fill:#FFBD1B;}	.st1{fill-rule:evenodd;clip-rule:evenodd;fill:#CCE6FF;}	.st2{fill-rule:evenodd;clip-rule:evenodd;fill:#AEDAFF;}	.st3{fill-rule:evenodd;clip-rule:evenodd;fill:#E7896E;}	.st4{fill-rule:evenodd;clip-rule:evenodd;fill:#3A7AD6;}	.st5{fill-rule:evenodd;clip-rule:evenodd;fill:#FFD16C;}	.st6{fill-rule:evenodd;clip-rule:evenodd;fill:#FFFFFF;}	.st7{fill-rule:evenodd;clip-rule:evenodd;fill:#BA8715;}	.st8{fill-rule:evenodd;clip-rule:evenodd;fill:#99C7FF;}	.st9{fill:#3A7AD6;}	.st10{fill:#FFD16C;}	.st11{fill:#BA8715;}	.st12{fill:#2E5972;}	.st13{fill:#B0475D;}	.st14{fill:#FFBD1B;}	.st15{fill-rule:evenodd;clip-rule:evenodd;fill:#EDEFF1;}	.st16{fill:#99C7FF;}	.st17{fill:#CCE6FF;}	.st18{clip-path:url(#SVGID_00000018220176731220130120000009364035943605903234_);}	.st19{fill:#FEF2E2;}	.st20{fill:#FFE1BA;}	.st21{fill:#0E3D6B;}	.st22{fill:#AEDAFF;}	.st23{fill:#FFFFFF;}	.st24{fill-rule:evenodd;clip-rule:evenodd;fill:#F6B4A8;}	.st25{fill-rule:evenodd;clip-rule:evenodd;fill:#F9C9C0;}	.st26{fill-rule:evenodd;clip-rule:evenodd;fill:#FFC738;}	.st27{fill:#86A0AF;}	.st28{fill:#738B95;}	.st29{fill:none;stroke:#000000;stroke-width:15;stroke-miterlimit:10;}	.st30{fill-rule:evenodd;clip-rule:evenodd;fill:#EB5463;}	.st31{fill-rule:evenodd;clip-rule:evenodd;}	.st32{fill:#FFF6BB;}	.st33{fill:#FFC472;}	.st34{fill:#FDB614;}	.st35{fill:#474747;}	.st36{opacity:0.1;enable-background:new    ;}	.st37{fill:#EBD8AE;}	.st38{fill-rule:evenodd;clip-rule:evenodd;fill:#DACFE6;}	.st39{fill-rule:evenodd;clip-rule:evenodd;fill:#9E4623;}	.st40{opacity:0.7;fill-rule:evenodd;clip-rule:evenodd;fill:#FFFFFF;}	.st41{fill-rule:evenodd;clip-rule:evenodd;fill:#E2F0FA;}	.st42{fill-rule:evenodd;clip-rule:evenodd;fill:#D0E4F2;}	.st43{fill-rule:evenodd;clip-rule:evenodd;fill:#FFC943;}	.st44{fill-rule:evenodd;clip-rule:evenodd;fill:#6BA4E8;}	.st45{fill-rule:evenodd;clip-rule:evenodd;fill:#FFAA16;}	.st46{fill-rule:evenodd;clip-rule:evenodd;fill:#2567B7;}	.st47{fill-rule:evenodd;clip-rule:evenodd;fill:#EBCDCD;}	.st48{fill-rule:evenodd;clip-rule:evenodd;fill:#D1E7FF;}	.st49{fill-rule:evenodd;clip-rule:evenodd;fill:#222124;}	.st50{fill-rule:evenodd;clip-rule:evenodd;fill:#FAD1A2;}	.st51{fill-rule:evenodd;clip-rule:evenodd;fill:#E6E6E6;}	.st52{fill:url(#SVGID_00000181087009956768630850000006914685600692940940_);}	.st53{fill:none;stroke:#211E1F;stroke-width:0.25;stroke-miterlimit:10;}	.st54{fill:url(#SVGID_00000085946545595529914950000014661335484456189880_);}	.st55{fill:url(#SVGID_00000029003970519690887590000017007119093112777914_);}	.st56{fill:url(#SVGID_00000166645870273916880550000016479631973208612498_);}	.st57{fill:url(#SVGID_00000068675566379047985740000005224356225001368221_);}	.st58{fill:#112A4D;}	.st59{fill:url(#SVGID_00000012452626284503400350000003677318192303854525_);}	.st60{fill:url(#SVGID_00000009573070042504127000000010076333732281705633_);}	.st61{fill:url(#SVGID_00000087408919608456240600000011781575080866624417_);}	.st62{fill:url(#SVGID_00000136381168519636074570000012814490628275939766_);}	.st63{fill:url(#SVGID_00000165948120816793900450000012184117551900662454_);}	.st64{fill:url(#SVGID_00000011714475983267697910000007392168745038049180_);}	.st65{fill:url(#SVGID_00000150792588025956375780000005877647374437956739_);}	.st66{fill:url(#SVGID_00000138541098107032997920000014503518148107067285_);}	.st67{fill:url(#SVGID_00000115472542005898413920000011372466586536226952_);}	.st68{fill:url(#SVGID_00000093874543372983925430000010270340872954093191_);}	.st69{fill:url(#SVGID_00000150784687749420950600000005154600670516064920_);}	.st70{fill:url(#SVGID_00000007415003633593751870000015481085351092040093_);}	.st71{fill:url(#SVGID_00000011020365637639559450000016965471940322414996_);}	.st72{fill:url(#SVGID_00000016067926588329579890000014020800677003560112_);}	.st73{fill:url(#SVGID_00000176754402609652790660000011052910739998884283_);}	.st74{fill:url(#SVGID_00000091734630539497218410000001581799519205014661_);}	.st75{fill:url(#SVGID_00000147220774183652947750000000999015796605436553_);}	.st76{fill:url(#SVGID_00000013174770994886766100000002662856533137219726_);}	.st77{fill:url(#SVGID_00000032607949762838510370000001995914335105002371_);}	.st78{fill:url(#SVGID_00000060738723787046344220000012660791900820521892_);}	.st79{fill:url(#SVGID_00000108283416762797223160000005962101281190463874_);}	.st80{fill:url(#SVGID_00000120532862985415274860000012556578411035373442_);}	.st81{fill:url(#SVGID_00000119115680696181330470000015094112156408540841_);}	.st82{fill:url(#SVGID_00000147180086850168522060000002730061938674179473_);}	.st83{fill:url(#SVGID_00000105404605646183150410000011676072743334273692_);}	.st84{fill:#082649;}	.st85{fill:#EFEFEF;}	.st86{fill:#DDDDDD;}	.st87{fill:#629FDD;}	.st88{fill:#FFC943;}	.st89{fill-rule:evenodd;clip-rule:evenodd;fill:#837683;}	.st90{fill-rule:evenodd;clip-rule:evenodd;fill:#685E68;}	.st91{fill-rule:evenodd;clip-rule:evenodd;fill:#E3A76F;}	.st92{fill-rule:evenodd;clip-rule:evenodd;fill:#FFD064;}	.st93{fill-rule:evenodd;clip-rule:evenodd;fill:#ECEFF1;}	.st94{fill-rule:evenodd;clip-rule:evenodd;fill:#D1D1D6;}	.st95{fill-rule:evenodd;clip-rule:evenodd;fill:#F6DCCD;}	.st96{fill-rule:evenodd;clip-rule:evenodd;fill:#F1CBBC;}	.st97{fill-rule:evenodd;clip-rule:evenodd;fill:#B1B1B5;}	.st98{fill-rule:evenodd;clip-rule:evenodd;fill:#242222;}	.st99{fill:#CCD1D9;}	.st100{fill:#DFF6FD;}	.st101{fill:#D5E3F4;}	.st102{fill:#FFEEE6;}	.st103{fill:#FFDFCF;}</style><g>	<g>		<g>			<path class="st8" d="M50.12,3.51h32.8h118.74c12.17,0,22.13,12.99,22.13,28.85V277.4l-5.5,7.04l-9.42,12.06l-9.42-12.06    l-9.41-12.06l-9.42,12.06l-9.42,12.06l-9.42-12.06l-9.42-12.06l-9.42,12.06l-9.41,12.06l-9.42-12.06l-9.42-12.06l-9.42,12.06    l-9.42,12.06l-9.42-12.06l-9.41-12.06l-9.42,12.06l-6.39,8.17c-6.6-5-11.07-14.34-11.07-24.97V60.84H29.09V3.51L50.12,3.51z"></path>		</g>		<g>			<path class="st4" d="M31.83,3.51c-10.07,0-18.31,8.24-18.31,18.31v39.02h36.61V21.82C50.12,11.75,41.89,3.51,31.83,3.51z"></path>		</g>		<g>			<path class="st0" d="M177.01,152.43c23.03-25.83,62.66-28.12,88.49-5.09c25.85,23.01,28.13,62.64,5.1,88.49    c-23.01,25.85-62.64,28.13-88.49,5.1S153.97,178.28,177.01,152.43L177.01,152.43z"></path>		</g>	</g>	<path d="M118.08,49.2c0-2.27,1.84-4.1,4.1-4.1h43.59l-7.5-7.5c-1.6-1.6-1.6-4.2,0-5.8c1.6-1.6,4.2-1.6,5.8,0l14.52,14.5  c0.77,0.77,1.2,1.81,1.2,2.9s-0.43,2.13-1.2,2.9l-14.52,14.52c-0.8,0.8-1.85,1.2-2.9,1.2c-1.05,0-2.1-0.4-2.9-1.2  c-1.6-1.6-1.6-4.2,0-5.8l7.51-7.51h-43.59C119.92,53.3,118.08,51.46,118.08,49.2z M109.96,95.63c0.8,0.8,1.85,1.2,2.9,1.2  s2.1-0.4,2.9-1.2c1.6-1.6,1.6-4.2,0-5.8l-7.5-7.5h43.59c2.27,0,4.1-1.84,4.1-4.1c0-2.27-1.84-4.1-4.1-4.1h-43.6l7.51-7.51  c1.6-1.6,1.6-4.2,0-5.8c-1.6-1.6-4.2-1.6-5.8,0l-14.5,14.52c-1.6,1.6-1.6,4.2,0,5.8L109.96,95.63z M105.91,211.92h-1.31h-7.03  h-1.31c-2.63,0-2.91-2.11-2.91-3.02s0.28-3.02,2.91-3.02h16.68c2.27,0,4.1-1.84,4.1-4.1s-1.84-4.1-4.1-4.1h-7.74v-3.9  c0-2.27-1.84-4.1-4.1-4.1c-2.27,0-4.1,1.84-4.1,4.1v3.9h-0.73c-7.22,0-11.12,5.79-11.12,11.23c0,5.44,3.9,11.23,11.12,11.23h1.31  h7.03h1.31c2.64,0,2.92,2.11,2.92,3.02c0,0.91-0.28,3.02-2.92,3.02H89.25c-2.27,0-4.1,1.84-4.1,4.1c0,2.27,1.84,4.1,4.1,4.1h7.74  v3.9c0,2.27,1.84,4.1,4.1,4.1c2.27,0,4.1-1.84,4.1-4.1v-3.9h0.71c7.23,0,11.13-5.79,11.13-11.23  C117.03,217.7,113.13,211.92,105.91,211.92L105.91,211.92z M77.15,121.62h123.18c2.27,0,4.1-1.84,4.1-4.1c0-2.27-1.84-4.1-4.1-4.1  H77.15c-2.27,0-4.1,1.84-4.1,4.1C73.05,119.78,74.89,121.62,77.15,121.62L77.15,121.62z M273.17,238.22  c-11.75,13.2-27.93,21.06-45.57,22.15v16.52c0,0.92-0.31,1.81-0.87,2.53l-14.87,19.02c-0.78,1-1.97,1.58-3.23,1.58c0,0,0,0,0,0  c-1.26,0-2.46-0.58-3.23-1.58l-15.52-19.88l-15.53,19.88c-0.78,0.99-1.97,1.58-3.23,1.58c-1.26,0-2.46-0.58-3.23-1.58l-15.53-19.88  l-15.52,19.88c-0.78,1-1.97,1.58-3.23,1.58c-1.26,0-2.46-0.58-3.23-1.58l-15.54-19.88l-15.54,19.88c-0.78,0.99-1.97,1.58-3.23,1.58  h0c-1.26,0-2.46-0.58-3.23-1.58L77.3,278.54l-12.51,16.01c-1.38,1.77-3.92,2.1-5.71,0.74c-7.81-5.91-12.65-16.69-12.65-28.13V65.31  H14.07c-2.27,0-4.1-1.84-4.1-4.1V22.34C9.97,10.02,19.99,0,32.31,0h169.15c14.42,0,26.14,14.73,26.14,32.84v94.75  c14.39,0.87,28.59,6.4,40.15,16.71c13.27,11.81,21.14,28.09,22.16,45.83C290.94,207.87,284.99,224.95,273.17,238.22L273.17,238.22z   M18.17,57.1h28.25V22.34c0-7.79-6.33-14.13-14.12-14.13c-7.79,0-14.13,6.34-14.13,14.13V57.1z M219.4,275.47v-15.1  c-14.85-0.89-28.87-6.69-40.15-16.74c-20.88-18.6-27.25-47.51-18.29-72.34h-83.8c-2.27,0-4.1-1.84-4.1-4.1s1.84-4.1,4.1-4.1h87.41  c2.48-4.73,5.56-9.23,9.27-13.39c0,0,0,0,0,0c1-1.13,2.04-2.21,3.1-3.25H77.15c-2.27,0-4.1-1.84-4.1-4.1c0-2.27,1.84-4.1,4.1-4.1  h109.99c9.78-6.37,20.93-9.95,32.25-10.65V32.84c0-13.35-8.21-24.63-17.94-24.63H49.58c3.15,3.85,5.05,8.78,5.05,14.13v38.87  v205.96c0,7.29,2.41,14.15,6.45,18.81l12.99-16.62c0.78-0.99,1.97-1.58,3.23-1.58h0c1.26,0,2.46,0.58,3.23,1.58l15.52,19.88  l15.53-19.88c0.78-0.99,1.97-1.58,3.23-1.58c1.26,0,2.46,0.58,3.23,1.58l15.53,19.88l15.52-19.88c0.78-1,1.97-1.58,3.23-1.58  c1.26,0,2.46,0.58,3.23,1.58l15.54,19.88l15.54-19.88c0.78-0.99,1.97-1.58,3.23-1.58h0c1.26,0,2.46,0.58,3.23,1.58l15.52,19.88  L219.4,275.47z M281.73,190.6c-0.9-15.55-7.8-29.82-19.43-40.18c-24-21.4-60.94-19.27-82.34,4.73l0,0  c-21.4,24.01-19.27,60.96,4.75,82.35c10.77,9.6,24.41,14.77,38.71,14.78c0.03,0,0.05,0,0.08,0c0.03,0,0.06,0,0.09,0  c1.09,0,2.18-0.03,3.27-0.1c15.55-0.9,29.82-7.8,40.18-19.43C277.41,221.13,282.62,206.16,281.73,190.6L281.73,190.6z   M214.56,152.91c-7.64,1.55-14.63,5.19-20.25,10.45l-0.07-6.87c-0.02-2.25-1.86-4.06-4.1-4.06c-0.01,0-0.03,0-0.04,0  c-2.27,0.02-4.08,1.88-4.06,4.14l0.18,17.46c0.01,1.09,0.45,2.13,1.23,2.89c0.77,0.75,1.8,1.17,2.87,1.17c0.01,0,0.03,0,0.04,0  l17.46-0.18c2.27-0.02,4.08-1.88,4.06-4.14c-0.02-2.25-1.86-4.06-4.1-4.06c-0.01,0-0.03,0-0.04,0l-8.28,0.09  c4.6-4.46,10.39-7.55,16.74-8.84c18.18-3.68,35.96,8.12,39.65,26.29c1.78,8.81,0.03,17.78-4.94,25.27  c-4.97,7.49-12.55,12.59-21.36,14.38c-18.18,3.68-35.97-8.11-39.65-26.29c-0.45-2.22-2.61-3.66-4.83-3.21  c-2.22,0.45-3.66,2.61-3.21,4.84c4.01,19.82,21.51,33.54,41,33.54c2.74,0,5.53-0.27,8.32-0.84c10.95-2.22,20.39-8.57,26.57-17.88  c6.18-9.31,8.36-20.48,6.14-31.43C259.3,163,237.18,148.33,214.56,152.91L214.56,152.91z M223.5,170.5c-2.27,0-4.1,1.84-4.1,4.1  v19.37c0,0.02,0,0.03,0,0.05c0,0.09,0.01,0.17,0.01,0.26c0,0.05,0.01,0.1,0.01,0.15c0.01,0.08,0.02,0.16,0.04,0.24  c0.01,0.05,0.02,0.11,0.03,0.16c0.02,0.07,0.04,0.14,0.05,0.21c0.02,0.06,0.03,0.12,0.05,0.18c0.02,0.06,0.04,0.12,0.07,0.18  c0.03,0.07,0.05,0.14,0.08,0.2c0.02,0.05,0.05,0.1,0.07,0.15c0.03,0.07,0.07,0.14,0.11,0.21c0.03,0.05,0.05,0.09,0.08,0.13  c0.04,0.07,0.09,0.14,0.14,0.21c0.01,0.01,0.02,0.03,0.03,0.04l7.99,11.18c0.8,1.12,2.06,1.72,3.34,1.72  c0.83,0,1.66-0.25,2.38-0.76c1.84-1.32,2.27-3.88,0.95-5.72l-7.22-10.11V174.6C227.6,172.33,225.77,170.5,223.5,170.5L223.5,170.5z  "></path></g></svg>