<svg xmlns="http://www.w3.org/2000/svg" xmlns:xlink="http://www.w3.org/1999/xlink" id="Layer_1" x="0px" y="0px" viewBox="0 0 300 300" style="enable-background:new 0 0 300 300;" xml:space="preserve"><style type="text/css">	.st0{fill-rule:evenodd;clip-rule:evenodd;fill:#FFBD1B;}	.st1{fill-rule:evenodd;clip-rule:evenodd;fill:#CCE6FF;}	.st2{fill-rule:evenodd;clip-rule:evenodd;fill:#AEDAFF;}	.st3{fill-rule:evenodd;clip-rule:evenodd;fill:#E7896E;}	.st4{fill-rule:evenodd;clip-rule:evenodd;fill:#3A7AD6;}	.st5{fill-rule:evenodd;clip-rule:evenodd;fill:#FFD16C;}	.st6{fill-rule:evenodd;clip-rule:evenodd;fill:#FFFFFF;}	.st7{fill-rule:evenodd;clip-rule:evenodd;fill:#BA8715;}	.st8{fill-rule:evenodd;clip-rule:evenodd;fill:#99C7FF;}	.st9{fill:#3A7AD6;}	.st10{fill:#FFD16C;}	.st11{fill:#BA8715;}	.st12{fill:#2E5972;}	.st13{fill:#B0475D;}	.st14{fill:#FFBD1B;}	.st15{fill-rule:evenodd;clip-rule:evenodd;fill:#EDEFF1;}	.st16{fill:#99C7FF;}	.st17{fill:#CCE6FF;}	.st18{clip-path:url(#SVGID_00000077317621130084478470000017431317647819119234_);}	.st19{fill:#FEF2E2;}	.st20{fill:#FFE1BA;}	.st21{fill:#0E3D6B;}	.st22{fill:#AEDAFF;}	.st23{fill:#FFFFFF;}	.st24{fill-rule:evenodd;clip-rule:evenodd;fill:#F6B4A8;}	.st25{fill-rule:evenodd;clip-rule:evenodd;fill:#F9C9C0;}	.st26{fill-rule:evenodd;clip-rule:evenodd;fill:#FFC738;}	.st27{fill:#86A0AF;}	.st28{fill:#738B95;}	.st29{fill:none;stroke:#000000;stroke-width:15;stroke-miterlimit:10;}	.st30{fill-rule:evenodd;clip-rule:evenodd;fill:#EB5463;}	.st31{fill-rule:evenodd;clip-rule:evenodd;}	.st32{fill:#FFF6BB;}	.st33{fill:#FFC472;}	.st34{fill:#FDB614;}	.st35{fill:#474747;}	.st36{opacity:0.1;enable-background:new    ;}	.st37{fill:#EBD8AE;}	.st38{fill-rule:evenodd;clip-rule:evenodd;fill:#DACFE6;}	.st39{fill-rule:evenodd;clip-rule:evenodd;fill:#9E4623;}	.st40{opacity:0.7;fill-rule:evenodd;clip-rule:evenodd;fill:#FFFFFF;}	.st41{fill-rule:evenodd;clip-rule:evenodd;fill:#E2F0FA;}	.st42{fill-rule:evenodd;clip-rule:evenodd;fill:#D0E4F2;}	.st43{fill-rule:evenodd;clip-rule:evenodd;fill:#FFC943;}	.st44{fill-rule:evenodd;clip-rule:evenodd;fill:#6BA4E8;}	.st45{fill-rule:evenodd;clip-rule:evenodd;fill:#FFAA16;}	.st46{fill-rule:evenodd;clip-rule:evenodd;fill:#2567B7;}	.st47{fill-rule:evenodd;clip-rule:evenodd;fill:#EBCDCD;}	.st48{fill-rule:evenodd;clip-rule:evenodd;fill:#D1E7FF;}	.st49{fill-rule:evenodd;clip-rule:evenodd;fill:#222124;}	.st50{fill-rule:evenodd;clip-rule:evenodd;fill:#FAD1A2;}	.st51{fill-rule:evenodd;clip-rule:evenodd;fill:#E6E6E6;}	.st52{fill:url(#SVGID_00000098203690396825058480000014504409649604294847_);}	.st53{fill:none;stroke:#211E1F;stroke-width:0.25;stroke-miterlimit:10;}	.st54{fill:url(#SVGID_00000099622910119949576380000002431330094267021465_);}	.st55{fill:url(#SVGID_00000094589471987309158280000011608081271000498309_);}	.st56{fill:url(#SVGID_00000003790046984013703300000011444756947860573096_);}	.st57{fill:url(#SVGID_00000027594983215985190240000013748012897758569402_);}	.st58{fill:#112A4D;}	.st59{fill:url(#SVGID_00000044173498108794717160000003790990500291214490_);}	.st60{fill:url(#SVGID_00000144313316897229896260000017000453540993325712_);}	.st61{fill:url(#SVGID_00000116235155240257759020000011522614061185281171_);}	.st62{fill:url(#SVGID_00000061430841966974898660000011101430884542315650_);}	.st63{fill:url(#SVGID_00000111182663424395536460000014591128914350978718_);}	.st64{fill:url(#SVGID_00000051360358443758655550000005886063406155925429_);}	.st65{fill:url(#SVGID_00000100373018298733418570000004867134865114656687_);}	.st66{fill:url(#SVGID_00000016793943811913244550000002660633863256375480_);}	.st67{fill:url(#SVGID_00000093881722558750385370000005225350456971878538_);}	.st68{fill:url(#SVGID_00000022528740655789048560000000417974927460597181_);}	.st69{fill:url(#SVGID_00000001650407162456658960000002911120902941728640_);}	.st70{fill:url(#SVGID_00000057149681694299644470000004878214922675629202_);}	.st71{fill:url(#SVGID_00000098901487502846081980000012351173490237167247_);}	.st72{fill:url(#SVGID_00000160909589771667257890000004251260118992536249_);}	.st73{fill:url(#SVGID_00000002360166116360899180000018331521659681560199_);}	.st74{fill:url(#SVGID_00000099650018121541180180000005105552750759663526_);}	.st75{fill:url(#SVGID_00000127743504505214703630000000824445034691245449_);}	.st76{fill:url(#SVGID_00000004547043607604664220000008698689032098783398_);}	.st77{fill:url(#SVGID_00000085950667806594261180000014076915906715532730_);}	.st78{fill:url(#SVGID_00000088813565464792152110000002643286135952214954_);}	.st79{fill:url(#SVGID_00000047763058338206830850000005195257217723231629_);}	.st80{fill:url(#SVGID_00000063596531780241119220000014018434101032311219_);}	.st81{fill:url(#SVGID_00000095317839990822994730000014145587543209240747_);}	.st82{fill:url(#SVGID_00000000926794597299561920000013950455898503462304_);}	.st83{fill:url(#SVGID_00000020369635295617964620000001021681232234082955_);}	.st84{fill:#082649;}	.st85{fill:#EFEFEF;}	.st86{fill:#DDDDDD;}	.st87{fill:#629FDD;}	.st88{fill:#FFC943;}	.st89{fill-rule:evenodd;clip-rule:evenodd;fill:#837683;}	.st90{fill-rule:evenodd;clip-rule:evenodd;fill:#685E68;}	.st91{fill-rule:evenodd;clip-rule:evenodd;fill:#E3A76F;}	.st92{fill-rule:evenodd;clip-rule:evenodd;fill:#FFD064;}	.st93{fill-rule:evenodd;clip-rule:evenodd;fill:#ECEFF1;}	.st94{fill-rule:evenodd;clip-rule:evenodd;fill:#D1D1D6;}	.st95{fill-rule:evenodd;clip-rule:evenodd;fill:#F6DCCD;}	.st96{fill-rule:evenodd;clip-rule:evenodd;fill:#F1CBBC;}	.st97{fill-rule:evenodd;clip-rule:evenodd;fill:#B1B1B5;}	.st98{fill-rule:evenodd;clip-rule:evenodd;fill:#242222;}	.st99{fill:#CCD1D9;}	.st100{fill:#DFF6FD;}	.st101{fill:#D5E3F4;}	.st102{fill:#FFEEE6;}	.st103{fill:#FFDFCF;}</style><g>	<g>		<g>			<path class="st41" d="M37.58,41.61h43.36v88.57H37.58L37.58,41.61z"></path>		</g>		<g>			<path class="st42" d="M37.58,41.61h43.36v88.57H67.11V52.61H37.58V41.61z"></path>		</g>		<g>			<path class="st43" d="M30.11,41.61h58.3c2.24,0,4.1-1.84,4.1-4.08V15.84c0-2.26-1.86-4.1-4.1-4.1h-58.3c-2.26,0-4.1,1.84-4.1,4.1    v21.68C26.01,39.77,27.85,41.61,30.11,41.61z"></path>		</g>		<g>			<path class="st4" d="M25.69,297.07h248.62c8.3,0,15.08-6.8,15.08-15.1c0-8.3-6.78-15.09-15.08-15.09H25.69    c-8.3,0-15.1,6.78-15.1,15.09C10.59,290.27,17.39,297.07,25.69,297.07z"></path>		</g>		<g>			<path class="st4" d="M29.57,166.06L150,45.63l120.43,120.43c5.88,5.88,15.49,5.88,21.35,0c5.88-5.86,5.88-15.47,0-21.35    L171.35,24.28L150,2.94l-21.35,21.35L8.21,144.71c-5.86,5.88-5.86,15.49,0,21.35C14.09,171.93,23.7,171.93,29.57,166.06    L29.57,166.06z"></path>		</g>		<g>			<path class="st8" d="M150,45.63L37.58,158.05v108.83h224.85V158.05L150,45.63z"></path>		</g>		<g>			<path class="st0" d="M99.59,147.09c13.86-13.88,36.55-13.88,50.41,0c13.86-13.88,36.55-13.88,50.41,0    c13.86,13.86,13.86,36.55,0,50.41L150,247.91L99.59,197.5C85.71,183.64,85.71,160.95,99.59,147.09L99.59,147.09z"></path>		</g>		<g>			<path class="st44" d="M150,45.63l-10.63,10.63l103.57,103.57v107.05h19.49V158.05L150,45.63z"></path>		</g>		<g>			<path class="st45" d="M80.94,41.61h7.47c2.24,0,4.1-1.84,4.1-4.08V15.84c0-2.26-1.86-4.1-4.1-4.1h-58.3c-2.26,0-4.1,1.84-4.1,4.1    v8.51h52.55c1.31,0,2.38,1.07,2.38,2.38L80.94,41.61L80.94,41.61z"></path>		</g>		<g>			<path class="st46" d="M287.61,169c1.51-0.72,2.93-1.69,4.17-2.95c5.88-5.86,5.88-15.47,0-21.35L171.35,24.28L150,2.94    l-10.15,10.15l9.36,9.36l133.55,133.55C286.32,159.54,287.93,164.33,287.61,169L287.61,169z"></path>		</g>		<g>			<path class="st46" d="M150,45.63l-11.99-11.97L6.99,164.68c4.05,5.19,11.1,7.18,17.36,4.77c2.03-0.89,3.85-2.04,5.19-3.37    l0.03-0.03L150,45.63z"></path>		</g>		<g>			<path class="st43" d="M239.09,14.64c-28.23,0-51.1,22.89-51.1,51.1c0,6.55,1.22,12.81,3.47,18.57l-11,30.37l31.53-5.61    c7.85,4.92,17.14,7.79,27.11,7.79c28.23,0,51.1-22.89,51.1-51.11C290.19,37.52,267.32,14.64,239.09,14.64z"></path>		</g>		<g>			<path class="st4" d="M229.55,92.44h19.09V75.28h17.14V56.19h-17.14V39.05h-19.09v17.14H212.4v19.09h17.14V92.44z"></path>		</g>		<g>			<path class="st45" d="M239.09,14.64c-1.86,0-3.68,0.1-5.49,0.3c25.63,2.73,45.61,24.44,45.61,50.8    c0,26.37-19.97,48.08-45.62,50.81c1.81,0.2,3.65,0.3,5.51,0.3c28.23,0,51.1-22.89,51.1-51.11    C290.19,37.52,267.32,14.64,239.09,14.64L239.09,14.64z"></path>		</g>		<g>			<path class="st7" d="M182.3,137.39c6.65,1.32,12.99,4.55,18.12,9.69c13.86,13.86,13.86,36.55,0,50.41L150,247.91l-8.15-8.15    l46.88-46.86c13.86-13.86,13.86-36.57,0-50.43C186.74,140.49,184.59,138.8,182.3,137.39L182.3,137.39z"></path>		</g>	</g>	<path d="M266.58,168.83c3.59,3.59,8.39,5.57,13.5,5.57h0.01c5.11,0,9.89-1.98,13.47-5.57c3.59-3.58,5.57-8.37,5.58-13.47  c0-5.11-1.98-9.91-5.57-13.51l-27.91-27.91c16.44-9.47,27.53-27.23,27.53-47.54c0-30.21-24.58-54.79-54.79-54.79  c-20.3,0-38.06,11.1-47.53,27.54L152.91,1.2c-1.6-1.6-4.2-1.6-5.8,0l-21.18,21.18L85.6,62.71V46.57h3.31c4.5,0,8.15-3.66,8.15-8.16  V16.91c0-4.51-3.66-8.17-8.15-8.17H31.07c-4.51,0-8.17,3.67-8.17,8.17v21.51c0,4.5,3.67,8.16,8.17,8.16h3.31v67.35L6.44,141.85  c-7.42,7.45-7.42,19.55,0,26.98c3.59,3.59,8.39,5.57,13.5,5.57h0.01c5.11,0,9.89-1.98,13.47-5.57l0.95-0.95v93.97h-7.69  c-10.52,0-19.08,8.55-19.08,19.07c0,10.52,8.56,19.08,19.08,19.08h246.65c10.51,0,19.07-8.56,19.07-19.08  c0-10.51-8.55-19.07-19.07-19.07h-7.69v-93.95L266.58,168.83z M287.76,147.65c2.05,2.05,3.17,4.78,3.17,7.7  c0,2.91-1.13,5.64-3.17,7.68c-2.03,2.04-4.76,3.16-7.67,3.17c0,0-0.01,0-0.01,0c-2.92,0-5.65-1.13-7.69-3.17l-42.48-42.48  c2.79,0.44,5.63,0.67,8.48,0.67c6.82,0,13.36-1.26,19.39-3.55L287.76,147.65z M238.39,19.82c25.69,0,46.59,20.9,46.59,46.59  c0,25.7-20.9,46.61-46.59,46.61c-8.76,0-17.3-2.45-24.71-7.1c-0.66-0.41-1.41-0.63-2.18-0.63c-0.24,0-0.48,0.02-0.72,0.06  l-24.28,4.32l8.49-23.45c0.34-0.94,0.33-1.96-0.03-2.89c-2.1-5.38-3.16-11.08-3.16-16.93C191.8,40.71,212.7,19.82,238.39,19.82  L238.39,19.82z M31.07,16.94h57.78v21.43h-7.36H38.47H31.1L31.07,16.94z M42.58,46.57h34.81v24.34l-34.81,34.81V46.57z   M27.61,163.03c-2.03,2.04-4.76,3.16-7.67,3.17c0,0-0.01,0-0.01,0c-2.92,0-5.65-1.13-7.69-3.17c-4.23-4.23-4.23-11.13,0-15.38  L150.01,9.9l37.13,37.13c-2.29,6.03-3.54,12.56-3.54,19.37c0,2.87,0.23,5.7,0.66,8.5l-31.35-31.35c-1.6-1.6-4.2-1.6-5.8,0  L27.61,163.03z M284.2,280.92c0,6-4.87,10.88-10.86,10.88H26.68c-6,0-10.88-4.88-10.88-10.88c0-5.99,4.88-10.86,10.88-10.86h11.79  h223.07h11.79C279.32,270.05,284.2,274.93,284.2,280.92L284.2,280.92z M257.44,261.85H42.58V159.67L150.01,52.26l35.65,35.65  l-9.29,25.65c-0.5,1.38-0.23,2.92,0.72,4.04c0.94,1.12,2.41,1.65,3.86,1.4l29.75-5.29c0.57,0.33,1.15,0.66,1.73,0.97l45.02,45.02  V261.85z M175.01,132.68C175.01,132.68,175.01,132.68,175.01,132.68c-9.25,0-17.99,3.13-25.01,8.9c-7.02-5.76-15.76-8.9-25.01-8.9  c-10.57,0-20.49,4.09-27.92,11.53c-15.39,15.39-15.39,40.43,0,55.81l50.03,50.01c0.8,0.8,1.85,1.2,2.9,1.2c1.05,0,2.1-0.4,2.9-1.2  l50.01-50.01c15.39-15.39,15.39-40.43,0-55.81C195.5,136.78,185.58,132.68,175.01,132.68L175.01,132.68z M197.12,194.22  l-47.11,47.11l-47.13-47.11c-12.19-12.19-12.19-32.02,0-44.21c5.88-5.88,13.74-9.13,22.12-9.13c8.38,0,16.23,3.24,22.1,9.12  c0.77,0.77,1.81,1.2,2.9,1.2c1.09,0,2.13-0.43,2.9-1.2c5.88-5.88,13.73-9.12,22.1-9.12c8.38,0,16.23,3.24,22.1,9.13  C209.31,162.2,209.31,182.03,197.12,194.22L197.12,194.22z M188.77,186.19c0,2.27-1.84,4.1-4.1,4.1h-15.22l-6.59,16.33  c-0.63,1.55-2.13,2.57-3.8,2.57c-0.01,0-0.02,0-0.03,0c-1.68-0.01-3.19-1.05-3.8-2.63l-12.87-33.37l-6.39,14.63  c-0.65,1.5-2.13,2.46-3.76,2.46h-18.14c-2.27,0-4.1-1.84-4.1-4.1s1.84-4.1,4.1-4.1h15.45l9.31-21.32c0.67-1.52,2.18-2.5,3.85-2.46  c1.66,0.04,3.14,1.07,3.74,2.63l12.72,32.98l3.73-9.26c0.63-1.55,2.13-2.57,3.8-2.57h17.99  C186.94,182.09,188.77,183.93,188.77,186.19z M211.89,79.97h12.92V92.9c0,2.27,1.84,4.1,4.1,4.1h18.93c2.27,0,4.1-1.84,4.1-4.1  V79.97h12.91c2.27,0,4.1-1.84,4.1-4.1V56.94c0-2.27-1.84-4.1-4.1-4.1h-12.91V39.93c0-2.27-1.84-4.1-4.1-4.1h-18.93  c-2.27,0-4.1,1.84-4.1,4.1v12.91h-12.92c-2.27,0-4.1,1.84-4.1,4.1v18.93C207.79,78.14,209.63,79.97,211.89,79.97L211.89,79.97z   M216,61.04h12.92c2.27,0,4.1-1.84,4.1-4.1V44.03h10.73v12.91c0,2.27,1.84,4.1,4.1,4.1h12.91v10.73h-12.91  c-2.27,0-4.1,1.84-4.1,4.1v12.92h-10.73V75.87c0-2.27-1.84-4.1-4.1-4.1H216V61.04z"></path></g></svg>