<svg xmlns="http://www.w3.org/2000/svg" xmlns:xlink="http://www.w3.org/1999/xlink" id="Layer_1" x="0px" y="0px" viewBox="0 0 300 300" style="enable-background:new 0 0 300 300;" xml:space="preserve"><style type="text/css">	.st0{fill-rule:evenodd;clip-rule:evenodd;fill:#FFBD1B;}	.st1{fill-rule:evenodd;clip-rule:evenodd;fill:#CCE6FF;}	.st2{fill-rule:evenodd;clip-rule:evenodd;fill:#AEDAFF;}	.st3{fill-rule:evenodd;clip-rule:evenodd;fill:#E7896E;}	.st4{fill-rule:evenodd;clip-rule:evenodd;fill:#3A7AD6;}	.st5{fill-rule:evenodd;clip-rule:evenodd;fill:#FFD16C;}	.st6{fill-rule:evenodd;clip-rule:evenodd;fill:#FFFFFF;}	.st7{fill-rule:evenodd;clip-rule:evenodd;fill:#BA8715;}	.st8{fill-rule:evenodd;clip-rule:evenodd;fill:#99C7FF;}	.st9{fill:#3A7AD6;}	.st10{fill:#FFD16C;}	.st11{fill:#BA8715;}	.st12{fill:#2E5972;}	.st13{fill:#B0475D;}	.st14{fill:#FFBD1B;}	.st15{fill-rule:evenodd;clip-rule:evenodd;fill:#EDEFF1;}	.st16{fill:#99C7FF;}	.st17{fill:#CCE6FF;}	.st18{clip-path:url(#SVGID_00000144307825719186630840000001717127530128319390_);}	.st19{fill:#FEF2E2;}	.st20{fill:#FFE1BA;}	.st21{fill:#0E3D6B;}	.st22{fill:#AEDAFF;}	.st23{fill:#FFFFFF;}	.st24{fill-rule:evenodd;clip-rule:evenodd;fill:#F6B4A8;}	.st25{fill-rule:evenodd;clip-rule:evenodd;fill:#F9C9C0;}	.st26{fill-rule:evenodd;clip-rule:evenodd;fill:#FFC738;}	.st27{fill:#86A0AF;}	.st28{fill:#738B95;}	.st29{fill:none;stroke:#000000;stroke-width:15;stroke-miterlimit:10;}	.st30{fill-rule:evenodd;clip-rule:evenodd;fill:#EB5463;}	.st31{fill-rule:evenodd;clip-rule:evenodd;}	.st32{fill:#FFF6BB;}	.st33{fill:#FFC472;}	.st34{fill:#FDB614;}	.st35{fill:#474747;}	.st36{opacity:0.1;enable-background:new    ;}	.st37{fill:#EBD8AE;}	.st38{fill-rule:evenodd;clip-rule:evenodd;fill:#DACFE6;}	.st39{fill-rule:evenodd;clip-rule:evenodd;fill:#9E4623;}	.st40{opacity:0.7;fill-rule:evenodd;clip-rule:evenodd;fill:#FFFFFF;}	.st41{fill-rule:evenodd;clip-rule:evenodd;fill:#E2F0FA;}	.st42{fill-rule:evenodd;clip-rule:evenodd;fill:#D0E4F2;}	.st43{fill-rule:evenodd;clip-rule:evenodd;fill:#FFC943;}	.st44{fill-rule:evenodd;clip-rule:evenodd;fill:#6BA4E8;}	.st45{fill-rule:evenodd;clip-rule:evenodd;fill:#FFAA16;}	.st46{fill-rule:evenodd;clip-rule:evenodd;fill:#2567B7;}	.st47{fill-rule:evenodd;clip-rule:evenodd;fill:#EBCDCD;}	.st48{fill-rule:evenodd;clip-rule:evenodd;fill:#D1E7FF;}	.st49{fill-rule:evenodd;clip-rule:evenodd;fill:#222124;}	.st50{fill-rule:evenodd;clip-rule:evenodd;fill:#FAD1A2;}	.st51{fill-rule:evenodd;clip-rule:evenodd;fill:#E6E6E6;}	.st52{fill:url(#SVGID_00000006680970768607135300000011551101686771322545_);}	.st53{fill:none;stroke:#211E1F;stroke-width:0.25;stroke-miterlimit:10;}	.st54{fill:url(#SVGID_00000076605242755844968300000000512371418302035862_);}	.st55{fill:url(#SVGID_00000153704510484565435070000010723110939292507052_);}	.st56{fill:url(#SVGID_00000049216282105074563520000007473603225635653007_);}	.st57{fill:url(#SVGID_00000013882169867149436710000013836689983703236781_);}	.st58{fill:#112A4D;}	.st59{fill:url(#SVGID_00000083056615884875899600000008432159722284884101_);}	.st60{fill:url(#SVGID_00000075129118876570774040000017400146256231101852_);}	.st61{fill:url(#SVGID_00000046339915075180577520000004970438403922959025_);}	.st62{fill:url(#SVGID_00000167359173468817946170000007667519103069628308_);}	.st63{fill:url(#SVGID_00000002349361347308000810000004743589585910115213_);}	.st64{fill:url(#SVGID_00000170966842419865963580000002438421013338853509_);}	.st65{fill:url(#SVGID_00000124148837596841573310000017029796944364481698_);}	.st66{fill:url(#SVGID_00000054988603502688169970000001733853040287960960_);}	.st67{fill:url(#SVGID_00000156545395026937797190000005898355343282100612_);}	.st68{fill:url(#SVGID_00000161619301423898166810000012940971864574067595_);}	.st69{fill:url(#SVGID_00000080175591109313435900000001265158005408865466_);}	.st70{fill:url(#SVGID_00000111164530908643207720000003572599915143220666_);}	.st71{fill:url(#SVGID_00000164494519065103094210000001534573088948920473_);}	.st72{fill:url(#SVGID_00000045602043908469448600000001553920634413244061_);}	.st73{fill:url(#SVGID_00000012446980464048752170000015892059248085910455_);}	.st74{fill:url(#SVGID_00000163045110924113699090000003177097738139623861_);}	.st75{fill:url(#SVGID_00000057143436380316028880000016096540879727836584_);}	.st76{fill:url(#SVGID_00000031193536418783766980000006848484515867241643_);}	.st77{fill:url(#SVGID_00000089554408187193634440000017554282130177056935_);}	.st78{fill:url(#SVGID_00000051384478435822765540000013101650079251226803_);}	.st79{fill:url(#SVGID_00000056405828540770210000000013039025799122165898_);}	.st80{fill:url(#SVGID_00000111153930227833503590000016761750928045819322_);}	.st81{fill:url(#SVGID_00000118356815141524592990000017624417258843788720_);}	.st82{fill:url(#SVGID_00000183947398014315863760000006959158895270502329_);}	.st83{fill:url(#SVGID_00000114053169839737497530000013471236148966977153_);}	.st84{fill:#082649;}	.st85{fill:#EFEFEF;}	.st86{fill:#DDDDDD;}	.st87{fill:#629FDD;}	.st88{fill:#FFC943;}	.st89{fill-rule:evenodd;clip-rule:evenodd;fill:#837683;}	.st90{fill-rule:evenodd;clip-rule:evenodd;fill:#685E68;}	.st91{fill-rule:evenodd;clip-rule:evenodd;fill:#E3A76F;}	.st92{fill-rule:evenodd;clip-rule:evenodd;fill:#FFD064;}	.st93{fill-rule:evenodd;clip-rule:evenodd;fill:#ECEFF1;}	.st94{fill-rule:evenodd;clip-rule:evenodd;fill:#D1D1D6;}	.st95{fill-rule:evenodd;clip-rule:evenodd;fill:#F6DCCD;}	.st96{fill-rule:evenodd;clip-rule:evenodd;fill:#F1CBBC;}	.st97{fill-rule:evenodd;clip-rule:evenodd;fill:#B1B1B5;}	.st98{fill-rule:evenodd;clip-rule:evenodd;fill:#242222;}	.st99{fill:#CCD1D9;}	.st100{fill:#DFF6FD;}	.st101{fill:#D5E3F4;}	.st102{fill:#FFEEE6;}	.st103{fill:#FFDFCF;}</style><g>	<path class="st16" d="M230.58,105.38H81.83l-14.88,24.79h178.5L230.58,105.38z"></path>	<path class="st16" d="M71.92,130.17v158.67c0,2.74,2.22,4.96,4.96,4.96h158.67c2.74,0,4.96-2.22,4.96-4.96V130.17H71.92z"></path>	<g>		<path class="st9" d="M96.71,154.96c0,8.22,6.66,14.88,14.88,14.88s14.88-6.66,14.88-14.88v-24.79H96.71V154.96z"></path>		<path class="st9" d="M156.21,154.96c0,8.22,6.66,14.88,14.88,14.88s14.88-6.66,14.88-14.88v-24.79h-29.75V154.96z"></path>		<path class="st9" d="M215.71,130.17v24.79c0,8.22,6.66,14.88,14.88,14.88c8.22,0,14.88-6.66,14.88-14.88v-24.79H215.71z"></path>	</g>	<path class="st14" d="M66.96,154.96c0,8.22,6.66,14.88,14.88,14.88s14.88-6.66,14.88-14.88v-24.79H66.96V154.96z"></path>	<path class="st14" d="M126.46,154.96c0,8.22,6.66,14.88,14.88,14.88s14.88-6.66,14.88-14.88v-24.79h-29.75V154.96z"></path>	<path class="st14" d="M185.96,130.17v24.79c0,8.22,6.66,14.88,14.88,14.88c8.22,0,14.88-6.66,14.88-14.88v-24.79H185.96z"></path>	<path class="st14" d="M156.21,208.99c-10.1-21.43-44.63-18.88-44.63,7.7c0,25.45,35.13,50.9,44.63,57.27  c9.49-6.38,44.63-31.83,44.63-57.27C200.83,190.11,166.31,187.56,156.21,208.99z"></path>	<path class="st14" d="M255.38,6.21l19.83,39.67l19.83-34.71L255.38,6.21z"></path>	<path d="M205.79,216.69c0-13.43-7.75-23.52-20.24-26.31c-9.57-2.14-21.59,0.69-29.34,9.6c-7.74-8.91-19.76-11.74-29.34-9.6  c-12.49,2.8-20.24,12.88-20.24,26.31c0,4.28,0.93,8.51,2.4,12.65H91.75v9.92h22.02c11.02,18.41,31.76,33.51,39.67,38.82  c0.84,0.56,1.8,0.84,2.77,0.84s1.93-0.28,2.77-0.84c7.91-5.31,28.65-20.42,39.67-38.82h22.02v-9.92h-17.28  C204.86,225.2,205.79,220.97,205.79,216.69z M116.54,216.69c0-12.49,8.74-15.79,12.49-16.64c1.35-0.3,2.79-0.46,4.24-0.46  c7,0,14.72,3.58,18.46,11.51c0.82,1.74,2.57,2.85,4.48,2.85s3.66-1.11,4.48-2.85c4.52-9.58,14.84-12.8,22.69-11.05  c3.75,0.84,12.49,4.15,12.49,16.64c0,4.21-1.17,8.47-3.08,12.65h-21.71c-1.32,0-2.58,0.52-3.51,1.45l-9.56,9.56l-7.13-17.81  c-0.62-1.55-1.97-2.68-3.61-3.01c-1.67-0.34-3.33,0.17-4.5,1.35l-8.46,8.46h-14.7C117.71,225.16,116.54,220.9,116.54,216.69  L116.54,216.69z M156.21,267.94c-6.91-4.88-21.23-15.86-30.64-28.68h10.81c1.32,0,2.58-0.52,3.51-1.45l4.6-4.6l7.13,17.81  c0.62,1.55,1.97,2.68,3.61,3.01c0.33,0.07,0.66,0.1,0.99,0.1c1.3,0,2.57-0.52,3.51-1.45l13.42-13.42h13.71  C177.43,252.08,163.12,263.05,156.21,267.94z"></path>	<path d="M249.64,127.66l0.07-0.04l-14.88-24.79c-0.9-1.49-2.51-2.4-4.25-2.4H81.83c-1.75,0-3.36,0.91-4.25,2.4l-14.88,24.79  l0.07,0.04c-0.46,0.75-0.78,1.57-0.78,2.51v24.79c0,4.98,1.91,9.49,4.96,12.98v120.89c0,5.47,4.45,9.92,9.92,9.92h158.67  c5.47,0,9.92-4.45,9.92-9.92V167.94c3.05-3.49,4.96-7.99,4.96-12.98v-24.79C250.42,129.23,250.09,128.41,249.64,127.66  L249.64,127.66z M84.64,110.34h143.13l8.93,14.88H75.71L84.64,110.34z M210.75,135.13v19.83c0,5.47-4.45,9.92-9.92,9.92  c-5.47,0-9.92-4.45-9.92-9.92v-19.83H210.75z M181,135.13v19.83c0,5.47-4.45,9.92-9.92,9.92s-9.92-4.45-9.92-9.92v-19.83H181z   M151.25,135.13v19.83c0,5.47-4.45,9.92-9.92,9.92s-9.92-4.45-9.92-9.92v-19.83H151.25z M121.5,135.13v19.83  c0,5.47-4.45,9.92-9.92,9.92s-9.92-4.45-9.92-9.92v-19.83H121.5z M71.92,154.96v-19.83h19.83v19.83c0,5.47-4.45,9.92-9.92,9.92  C76.36,164.88,71.92,160.43,71.92,154.96z M235.54,288.84H76.87V174.09c1.6,0.42,3.24,0.7,4.96,0.7c5.95,0,11.24-2.69,14.88-6.85  c3.64,4.17,8.92,6.85,14.88,6.85s11.24-2.69,14.88-6.85c3.64,4.17,8.92,6.85,14.88,6.85s11.24-2.69,14.88-6.85  c3.64,4.17,8.92,6.85,14.88,6.85s11.24-2.69,14.88-6.85c3.64,4.17,8.92,6.85,14.88,6.85c5.96,0,11.24-2.69,14.88-6.85  c3.64,4.17,8.92,6.85,14.88,6.85c1.72,0,3.36-0.29,4.96-0.7V288.84z M240.5,154.96c0,5.47-4.45,9.92-9.92,9.92  c-5.47,0-9.92-4.45-9.92-9.92v-19.83h19.83V154.96z"></path>	<path d="M120.7,52.09l32.01,32.01c1.52,1.51,3.82,1.88,5.72,0.93L263.08,32.7l7.7,15.4c0.82,1.64,2.47,2.69,4.3,2.74h0.13  c1.78,0,3.42-0.95,4.3-2.5l19.83-34.71c0.82-1.44,0.87-3.19,0.13-4.68c-0.74-1.48-2.17-2.49-3.82-2.7l-39.67-4.96  c-1.84-0.24-3.61,0.57-4.66,2.06c-1.06,1.49-1.2,3.45-0.39,5.08l7.7,15.4L157.18,74.55l-32.18-32.18c-1.59-1.6-4.06-1.91-6-0.78  L0,111.01l5,8.57L120.7,52.09z M287.05,15.17L275.5,35.37l-11.55-23.09L287.05,15.17z"></path></g></svg>