<svg xmlns="http://www.w3.org/2000/svg" xmlns:xlink="http://www.w3.org/1999/xlink" id="Layer_1" x="0px" y="0px" viewBox="0 0 300 300" style="enable-background:new 0 0 300 300;" xml:space="preserve"><style type="text/css">	.st0{fill-rule:evenodd;clip-rule:evenodd;fill:#FFBD1B;}	.st1{fill-rule:evenodd;clip-rule:evenodd;fill:#CCE6FF;}	.st2{fill-rule:evenodd;clip-rule:evenodd;fill:#AEDAFF;}	.st3{fill-rule:evenodd;clip-rule:evenodd;fill:#E7896E;}	.st4{fill-rule:evenodd;clip-rule:evenodd;fill:#3A7AD6;}	.st5{fill-rule:evenodd;clip-rule:evenodd;fill:#FFD16C;}	.st6{fill-rule:evenodd;clip-rule:evenodd;fill:#FFFFFF;}	.st7{fill-rule:evenodd;clip-rule:evenodd;fill:#BA8715;}	.st8{fill-rule:evenodd;clip-rule:evenodd;fill:#99C7FF;}	.st9{fill:#3A7AD6;}	.st10{fill:#FFD16C;}	.st11{fill:#BA8715;}	.st12{fill:#2E5972;}	.st13{fill:#B0475D;}	.st14{fill:#FFBD1B;}	.st15{fill-rule:evenodd;clip-rule:evenodd;fill:#EDEFF1;}	.st16{fill:#99C7FF;}	.st17{fill:#CCE6FF;}	.st18{clip-path:url(#SVGID_00000144296255753420581320000004901000876487358643_);}	.st19{fill:#FEF2E2;}	.st20{fill:#FFE1BA;}	.st21{fill:#0E3D6B;}	.st22{fill:#AEDAFF;}	.st23{fill:#FFFFFF;}	.st24{fill-rule:evenodd;clip-rule:evenodd;fill:#F6B4A8;}	.st25{fill-rule:evenodd;clip-rule:evenodd;fill:#F9C9C0;}	.st26{fill-rule:evenodd;clip-rule:evenodd;fill:#FFC738;}	.st27{fill:#86A0AF;}	.st28{fill:#738B95;}	.st29{fill:none;stroke:#000000;stroke-width:15;stroke-miterlimit:10;}	.st30{fill-rule:evenodd;clip-rule:evenodd;fill:#EB5463;}	.st31{fill-rule:evenodd;clip-rule:evenodd;}	.st32{fill:#FFF6BB;}	.st33{fill:#FFC472;}	.st34{fill:#FDB614;}	.st35{fill:#474747;}	.st36{opacity:0.1;enable-background:new    ;}	.st37{fill:#EBD8AE;}	.st38{fill-rule:evenodd;clip-rule:evenodd;fill:#DACFE6;}	.st39{fill-rule:evenodd;clip-rule:evenodd;fill:#9E4623;}	.st40{opacity:0.7;fill-rule:evenodd;clip-rule:evenodd;fill:#FFFFFF;}	.st41{fill-rule:evenodd;clip-rule:evenodd;fill:#E2F0FA;}	.st42{fill-rule:evenodd;clip-rule:evenodd;fill:#D0E4F2;}	.st43{fill-rule:evenodd;clip-rule:evenodd;fill:#FFC943;}	.st44{fill-rule:evenodd;clip-rule:evenodd;fill:#6BA4E8;}	.st45{fill-rule:evenodd;clip-rule:evenodd;fill:#FFAA16;}	.st46{fill-rule:evenodd;clip-rule:evenodd;fill:#2567B7;}	.st47{fill-rule:evenodd;clip-rule:evenodd;fill:#EBCDCD;}	.st48{fill-rule:evenodd;clip-rule:evenodd;fill:#D1E7FF;}	.st49{fill-rule:evenodd;clip-rule:evenodd;fill:#222124;}	.st50{fill-rule:evenodd;clip-rule:evenodd;fill:#FAD1A2;}	.st51{fill-rule:evenodd;clip-rule:evenodd;fill:#E6E6E6;}	.st52{fill:url(#SVGID_00000114031243564815867880000014964174292086879887_);}	.st53{fill:none;stroke:#211E1F;stroke-width:0.25;stroke-miterlimit:10;}	.st54{fill:url(#SVGID_00000072972686411171888930000000749495110399265195_);}	.st55{fill:url(#SVGID_00000143589728641453394300000017665737276327077535_);}	.st56{fill:url(#SVGID_00000090981412786455218290000003670156089316751010_);}	.st57{fill:url(#SVGID_00000164476681120851074850000012486523994181110426_);}	.st58{fill:#112A4D;}	.st59{fill:url(#SVGID_00000026126444274584981090000014966431684009187245_);}	.st60{fill:url(#SVGID_00000161631707219106763320000010952336638435020177_);}	.st61{fill:url(#SVGID_00000121261319777915483080000001171740666468443787_);}	.st62{fill:url(#SVGID_00000031894362117562745660000011214570446566185875_);}	.st63{fill:url(#SVGID_00000086688937608425268380000005636148291713539221_);}	.st64{fill:url(#SVGID_00000088814096375380086720000016977617806757087679_);}	.st65{fill:url(#SVGID_00000001646014914834364010000010521303896992628363_);}	.st66{fill:url(#SVGID_00000122682984168517135480000002590247479127210382_);}	.st67{fill:url(#SVGID_00000168795271443015088940000014396305627493742487_);}	.st68{fill:url(#SVGID_00000062879324223699427900000014148429825260986800_);}	.st69{fill:url(#SVGID_00000147911009062849795390000017063360618400123786_);}	.st70{fill:url(#SVGID_00000068671943366166436380000016650121438160713912_);}	.st71{fill:url(#SVGID_00000119083191202881981520000014308268188456326278_);}	.st72{fill:url(#SVGID_00000076580904536642895720000016567606498619701666_);}	.st73{fill:url(#SVGID_00000107556272622835347520000014252101681925434516_);}	.st74{fill:url(#SVGID_00000152955761941569475530000008254142819102032027_);}	.st75{fill:url(#SVGID_00000043444577944256170520000016640637164102756533_);}	.st76{fill:url(#SVGID_00000102532260513830929470000002382426822484866981_);}	.st77{fill:url(#SVGID_00000132800623790639755250000009066484561743870869_);}	.st78{fill:url(#SVGID_00000050622941028521623550000004413823040473579150_);}	.st79{fill:url(#SVGID_00000036938798663833545350000000439389114234854319_);}	.st80{fill:url(#SVGID_00000071556140873907221610000001575127976573547432_);}	.st81{fill:url(#SVGID_00000174588842576336575060000001151191587843146667_);}	.st82{fill:url(#SVGID_00000013907496675726181110000001746135332829361822_);}	.st83{fill:url(#SVGID_00000093145161652914207730000006641000509845216144_);}	.st84{fill:#082649;}	.st85{fill:#EFEFEF;}	.st86{fill:#DDDDDD;}	.st87{fill:#629FDD;}	.st88{fill:#FFC943;}	.st89{fill-rule:evenodd;clip-rule:evenodd;fill:#837683;}	.st90{fill-rule:evenodd;clip-rule:evenodd;fill:#685E68;}	.st91{fill-rule:evenodd;clip-rule:evenodd;fill:#E3A76F;}	.st92{fill-rule:evenodd;clip-rule:evenodd;fill:#FFD064;}	.st93{fill-rule:evenodd;clip-rule:evenodd;fill:#ECEFF1;}	.st94{fill-rule:evenodd;clip-rule:evenodd;fill:#D1D1D6;}	.st95{fill-rule:evenodd;clip-rule:evenodd;fill:#F6DCCD;}	.st96{fill-rule:evenodd;clip-rule:evenodd;fill:#F1CBBC;}	.st97{fill-rule:evenodd;clip-rule:evenodd;fill:#B1B1B5;}	.st98{fill-rule:evenodd;clip-rule:evenodd;fill:#242222;}	.st99{fill:#CCD1D9;}	.st100{fill:#DFF6FD;}	.st101{fill:#D5E3F4;}	.st102{fill:#FFEEE6;}	.st103{fill:#FFDFCF;}</style><g id="g3906" transform="matrix(1.3333333,0,0,-1.3333333,0,682.66667)">	<g id="g3908" transform="translate(466,323.5116)">		<g id="path3910">			<path class="st17" d="M-261.21,105.66l-99.38,1.91l-85.19-1.91V-33.2h184.57V105.66z"></path>		</g>	</g>	<g id="g3912" transform="translate(211,286.1875)">		<g id="path3914">			<path class="st14" d="M-118.28,126.58V113.4h25.42l-21.02-52.9h14.26l20.9,52.9v13.18H-118.28z"></path>		</g>	</g>	<g id="g3916" transform="translate(230.4438,159.4854)">		<g id="path3918">			<path class="st11" d="M-129.17,197.6l-4.15-10.4h14.26l4.11,10.4H-129.17z"></path>		</g>	</g>	<g id="path3920">		<path class="st11" d="M102.37,412.77h-9.65v-13.18h9.65V412.77z"></path>	</g>	<g id="g3922">		<g>			<defs>				<rect id="SVGID_1_" x="-37.5" y="249.5" width="300" height="300"></rect>			</defs>			<clipPath id="SVGID_00000001663346459404593070000006718044067034777505_">				<use xlink:href="#SVGID_1_" style="overflow:visible;"></use>			</clipPath>			<g id="g3924" style="clip-path:url(#SVGID_00000001663346459404593070000006718044067034777505_);">				<g id="g3930" transform="translate(158.5,504.2991)">					<g id="path3932">						<path class="st19" d="M-88.85,4.32c-5.46,0-9.89-4.43-9.89-9.89v-23.57h19.78v23.57C-78.96-0.11-83.39,4.32-88.85,4.32"></path>					</g>				</g>				<g id="g3934" transform="translate(158.4897,450.6591)">					<g id="path3936">						<path class="st20" d="M-88.84,34.38v23.57c0,0,0,0,0,0c-5.46,0-9.88-4.43-9.88-9.89V24.5h19.78v9.88H-88.84z"></path>					</g>				</g>				<g id="g3938" transform="translate(353.5,504.2991)">					<g id="path3940">						<path class="st19" d="M-198.15,4.32c-5.46,0-9.89-4.43-9.89-9.89v-23.57h19.78v23.57C-188.27-0.11-192.69,4.32-198.15,4.32"></path>					</g>				</g>				<g id="g3942" transform="translate(353.4897,450.6591)">					<g id="path3944">						<path class="st20" d="M-198.15,34.38v23.57c0,0,0,0,0,0c-5.46,0-9.88-4.43-9.88-9.89V24.5h19.78v9.88H-198.15z"></path>					</g>				</g>				<g id="path3946">					<path class="st9" d="M204.79,429.17H20.21v45.99h184.57V429.17z"></path>				</g>				<g id="g3948" transform="translate(68.5798,346.0914)">					<g id="path3950">						<path class="st21" d="M-38.44,93v36.07h-9.92V83.08h184.57V93H-38.44z"></path>					</g>				</g>				<g id="g3952" transform="translate(68.7394,30.2766)">					<g id="path3954">						<path class="st22" d="M-38.53,270.03v128.86h-9.99V260.04h184.57v9.99H-38.53z"></path>					</g>				</g>				<g id="g3956" transform="translate(181,376)">					<g id="path3958">						<path class="st19" d="M-101.46,76.23c0-5.46-4.43-9.89-9.89-9.89s-9.89,4.43-9.89,9.89s4.43,9.89,9.89,9.89       S-101.46,81.7-101.46,76.23"></path>					</g>				</g>				<g id="g3960" transform="translate(174.0107,369.0107)">					<g id="path3962">						<path class="st20" d="M-97.54,80.15c-5.46,0-9.89,4.43-9.89,9.89c0,0.94,0.13,1.84,0.38,2.7c-4.15-1.17-7.19-4.99-7.19-9.51       c0-5.46,4.43-9.89,9.89-9.89c4.53,0,8.34,3.04,9.51,7.19C-95.7,80.29-96.61,80.15-97.54,80.15"></path>					</g>				</g>				<g id="g3964" transform="translate(376,376)">					<g id="path3966">						<path class="st19" d="M-210.77,76.23c0-5.46-4.43-9.89-9.89-9.89s-9.89,4.43-9.89,9.89s4.43,9.89,9.89,9.89       S-210.77,81.7-210.77,76.23"></path>					</g>				</g>				<g id="g3968" transform="translate(369.0107,369.0107)">					<g id="path3970">						<path class="st20" d="M-206.85,80.15c-5.46,0-9.89,4.43-9.89,9.89c0,0.94,0.13,1.84,0.38,2.7c-4.15-1.17-7.19-4.99-7.19-9.51       c0-5.46,4.43-9.89,9.89-9.89c4.53,0,8.34,3.04,9.51,7.19C-205.01,80.29-205.91,80.15-206.85,80.15"></path>					</g>				</g>				<g id="g3972" transform="translate(218.9787,376)">					<g id="path3974">						<rect x="-123.85" y="71.84" class="st23" width="8.79" height="8.79"></rect>					</g>				</g>				<g id="g3976" transform="translate(278.5,376)">					<g id="path3978">						<rect x="-157.21" y="71.84" class="st23" width="8.79" height="8.79"></rect>					</g>				</g>				<g id="g3980" transform="translate(248.5,376)">					<g id="path3982">						<rect x="-140.39" y="71.84" class="st23" width="8.79" height="8.79"></rect>					</g>				</g>				<g id="g3984" transform="translate(383.5,7.5372)">					<g id="path3986">						<polygon points="-175.42,279.48 -195.19,279.48 -195.19,286.07 -182.01,286.07 -182.01,464.33 -359.99,464.33 -359.99,286.07        -214.97,286.07 -214.97,279.48 -366.58,279.48 -366.58,470.92 -175.42,470.92       "></polygon>					</g>				</g>				<g id="g3988" transform="translate(413.5,7.5372)">					<g id="path3990">						<rect x="-239.48" y="278.38" width="8.79" height="8.79"></rect>					</g>				</g>				<g id="g3992" transform="translate(248.5,323.5116)">					<g id="path3994">						<rect x="-155.23" y="101.26" width="127.44" height="8.79"></rect>					</g>				</g>				<g id="g3996" transform="translate(46,323.5116)">					<g id="path3998">						<rect x="-39.52" y="101.26" width="109.86" height="8.79"></rect>					</g>				</g>				<g id="g4000" transform="translate(181,376)">					<g id="path4002">						<path d="M-111.35,63.05c-7.27,0-13.18,5.91-13.18,13.18s5.91,13.18,13.18,13.18s13.18-5.91,13.18-13.18       S-104.08,63.05-111.35,63.05z M-111.35,82.83c-3.63,0-6.59-2.96-6.59-6.59c0-3.63,2.96-6.59,6.59-6.59       c3.63,0,6.59,2.96,6.59,6.59C-104.75,79.87-107.71,82.83-111.35,82.83z"></path>					</g>				</g>				<g id="g4004" transform="translate(376,376)">					<g id="path4006">						<path d="M-220.65,63.05c-7.27,0-13.18,5.91-13.18,13.18s5.91,13.18,13.18,13.18c7.27,0,13.18-5.91,13.18-13.18       S-213.38,63.05-220.65,63.05z M-220.65,82.83c-3.63,0-6.59-2.96-6.59-6.59c0-3.63,2.96-6.59,6.59-6.59s6.59,2.96,6.59,6.59       C-214.06,79.87-217.02,82.83-220.65,82.83z"></path>					</g>				</g>				<g id="g4008" transform="translate(136,428.1693)">					<g id="path4010">						<path d="M-53.16,46.99h-6.59v23.57c0,3.63-2.96,6.59-6.59,6.59c-3.63,0-6.59-2.96-6.59-6.59V46.99h-6.59v23.57       c0,7.27,5.91,13.18,13.18,13.18s13.18-5.91,13.18-13.18V46.99z"></path>					</g>				</g>				<g id="g4012" transform="translate(331,428.1693)">					<g id="path4014">						<path d="M-162.47,46.99h-6.59v23.57c0,3.63-2.96,6.59-6.59,6.59s-6.59-2.96-6.59-6.59V46.99h-6.59v23.57       c0,7.27,5.91,13.18,13.18,13.18c7.27,0,13.18-5.91,13.18-13.18V46.99z"></path>					</g>				</g>				<g id="g4016" transform="translate(106,301)">					<g id="path4018">						<rect x="-63.81" y="110.59" width="8.79" height="8.79"></rect>					</g>				</g>				<g id="g4020" transform="translate(76,301)">					<g id="path4022">						<rect x="-47" y="110.59" width="8.79" height="8.79"></rect>					</g>				</g>				<g id="g4024" transform="translate(274.9973,113.6276)">					<g id="path4026">						<polygon points="-144.26,204.63 -156.79,221.33 -151.51,225.28 -144.26,215.62 -137.01,225.28 -131.74,221.33       "></polygon>					</g>				</g>				<g id="g4028" transform="translate(297.4961,83.6276)">					<g id="path4030">						<rect x="-171.16" y="217.09" width="8.79" height="26.32"></rect>					</g>				</g>				<g id="g4032" transform="translate(387.5087,105.794)">					<g id="path4034">						<path d="M-240.29,198.04l-0.03,6.59l13.28,0.06c1.78,0.01,3.23,1.47,3.23,3.26v0.1c0,1.79-1.45,3.25-3.24,3.26l-3.36,0       c-5.42,0.01-9.83,4.42-9.83,9.85c0,5.43,4.41,9.85,9.83,9.85h13.18v-6.59h-13.18c-1.79,0-3.24-1.46-3.24-3.26       c0-1.79,1.45-3.25,3.24-3.26l3.36,0c5.42-0.01,9.82-4.42,9.82-9.85v-0.1c0-5.41-4.39-9.82-9.79-9.85L-240.29,198.04z"></path>					</g>				</g>				<g id="g4036" transform="translate(207.4951,38.6563)">					<g id="path4038">						<path d="M-93.24,265.33h-6.59v19.72c0,3.63-2.96,6.59-6.59,6.59c-3.63,0-6.59-2.96-6.59-6.59v-19.72h-6.59v19.72       c0,7.27,5.91,13.18,13.18,13.18s13.18-5.91,13.18-13.18V265.33z"></path>					</g>				</g>				<g id="g4040" transform="translate(207.4951,61)">					<g id="path4042">						<rect x="-119.61" y="248.41" width="26.37" height="8.79"></rect>					</g>				</g>				<g id="g4044" transform="translate(147.4765,46)">					<g id="path4046">						<path d="M-82.67,257.92h-9.88v32.98h9.88c9.09,0,16.49-7.4,16.49-16.49C-66.18,265.32-73.58,257.92-82.67,257.92z        M-85.95,264.51h3.29c5.46,0,9.9,4.44,9.9,9.9c0,5.46-4.44,9.9-9.9,9.9h-3.29V264.51z"></path>					</g>				</g>				<g id="g4048" transform="translate(244.9183,196)">					<g id="path4050">						<polygon points="-131.3,147.39 -152.66,147.39 -140.35,178.35 -134.23,175.92 -142.94,153.98 -135.78,153.98 -115.94,204.21        -115.94,213.47 -148.9,213.47 -148.9,206.88 -121.92,206.88 -131.61,182.51 -137.73,184.94 -131.63,200.29 -155.49,200.29        -155.49,220.06 -109.35,220.06 -109.35,202.95       "></polygon>					</g>				</g>			</g>		</g>	</g></g></svg>