<svg xmlns="http://www.w3.org/2000/svg" xmlns:xlink="http://www.w3.org/1999/xlink" id="Layer_1" x="0px" y="0px" viewBox="0 0 300 300" style="enable-background:new 0 0 300 300;" xml:space="preserve"><style type="text/css">	.st0{fill-rule:evenodd;clip-rule:evenodd;fill:#FFBD1B;}	.st1{fill-rule:evenodd;clip-rule:evenodd;fill:#CCE6FF;}	.st2{fill-rule:evenodd;clip-rule:evenodd;fill:#AEDAFF;}	.st3{fill-rule:evenodd;clip-rule:evenodd;fill:#E7896E;}	.st4{fill-rule:evenodd;clip-rule:evenodd;fill:#3A7AD6;}	.st5{fill-rule:evenodd;clip-rule:evenodd;fill:#FFD16C;}	.st6{fill-rule:evenodd;clip-rule:evenodd;fill:#FFFFFF;}	.st7{fill-rule:evenodd;clip-rule:evenodd;fill:#BA8715;}	.st8{fill-rule:evenodd;clip-rule:evenodd;fill:#99C7FF;}	.st9{fill:#3A7AD6;}	.st10{fill:#FFD16C;}	.st11{fill:#BA8715;}	.st12{fill:#2E5972;}	.st13{fill:#B0475D;}	.st14{fill:#FFBD1B;}	.st15{fill-rule:evenodd;clip-rule:evenodd;fill:#EDEFF1;}	.st16{fill:#99C7FF;}	.st17{fill:#CCE6FF;}	.st18{clip-path:url(#SVGID_00000016066872418854968200000016809813683927151028_);}	.st19{fill:#FEF2E2;}	.st20{fill:#FFE1BA;}	.st21{fill:#0E3D6B;}	.st22{fill:#AEDAFF;}	.st23{fill:#FFFFFF;}	.st24{fill-rule:evenodd;clip-rule:evenodd;fill:#F6B4A8;}	.st25{fill-rule:evenodd;clip-rule:evenodd;fill:#F9C9C0;}	.st26{fill-rule:evenodd;clip-rule:evenodd;fill:#FFC738;}	.st27{fill:#86A0AF;}	.st28{fill:#738B95;}	.st29{fill:none;stroke:#000000;stroke-width:15;stroke-miterlimit:10;}	.st30{fill-rule:evenodd;clip-rule:evenodd;fill:#EB5463;}	.st31{fill-rule:evenodd;clip-rule:evenodd;}	.st32{fill:#FFF6BB;}	.st33{fill:#FFC472;}	.st34{fill:#FDB614;}	.st35{fill:#474747;}	.st36{opacity:0.1;enable-background:new    ;}	.st37{fill:#EBD8AE;}	.st38{fill-rule:evenodd;clip-rule:evenodd;fill:#DACFE6;}	.st39{fill-rule:evenodd;clip-rule:evenodd;fill:#9E4623;}	.st40{opacity:0.7;fill-rule:evenodd;clip-rule:evenodd;fill:#FFFFFF;}	.st41{fill-rule:evenodd;clip-rule:evenodd;fill:#E2F0FA;}	.st42{fill-rule:evenodd;clip-rule:evenodd;fill:#D0E4F2;}	.st43{fill-rule:evenodd;clip-rule:evenodd;fill:#FFC943;}	.st44{fill-rule:evenodd;clip-rule:evenodd;fill:#6BA4E8;}	.st45{fill-rule:evenodd;clip-rule:evenodd;fill:#FFAA16;}	.st46{fill-rule:evenodd;clip-rule:evenodd;fill:#2567B7;}	.st47{fill-rule:evenodd;clip-rule:evenodd;fill:#EBCDCD;}	.st48{fill-rule:evenodd;clip-rule:evenodd;fill:#D1E7FF;}	.st49{fill-rule:evenodd;clip-rule:evenodd;fill:#222124;}	.st50{fill-rule:evenodd;clip-rule:evenodd;fill:#FAD1A2;}	.st51{fill-rule:evenodd;clip-rule:evenodd;fill:#E6E6E6;}	.st52{fill:url(#SVGID_00000031915119786769414210000003381648166014431665_);}	.st53{fill:none;stroke:#211E1F;stroke-width:0.25;stroke-miterlimit:10;}	.st54{fill:url(#SVGID_00000068663992310424696810000000248276808177517456_);}	.st55{fill:url(#SVGID_00000001626884621798760200000011663517259243372931_);}	.st56{fill:url(#SVGID_00000078038715268248674070000014261964770593340597_);}	.st57{fill:url(#SVGID_00000181071508642154896080000007217288551219995568_);}	.st58{fill:#112A4D;}	.st59{fill:url(#SVGID_00000155848841115533226170000016645132408746118328_);}	.st60{fill:url(#SVGID_00000079468244189947398590000009808908243631998365_);}	.st61{fill:url(#SVGID_00000004531894275812600500000015229885395243260331_);}	.st62{fill:url(#SVGID_00000070809086320008531740000011357381180252080051_);}	.st63{fill:url(#SVGID_00000029742075757606102750000003386527678752903849_);}	.st64{fill:url(#SVGID_00000107581922961979387410000010037554087353570206_);}	.st65{fill:url(#SVGID_00000067216924106516246350000014156316691929663649_);}	.st66{fill:url(#SVGID_00000124870944518593638250000009427779707555788195_);}	.st67{fill:url(#SVGID_00000147213932812000691090000007599793276041699228_);}	.st68{fill:url(#SVGID_00000041281188748753905250000005126243157216849818_);}	.st69{fill:url(#SVGID_00000017506109709690514500000014259933769970199740_);}	.st70{fill:url(#SVGID_00000170986352458859401500000017818676704539973793_);}	.st71{fill:url(#SVGID_00000011023632441156827040000009176654358608785821_);}	.st72{fill:url(#SVGID_00000001656861841146845230000010307292303591795352_);}	.st73{fill:url(#SVGID_00000181786489947045698820000003945492162748157579_);}	.st74{fill:url(#SVGID_00000119807545199275254440000012009668482216698523_);}	.st75{fill:url(#SVGID_00000011005706133533670380000013179241334590057371_);}	.st76{fill:url(#SVGID_00000155869102337631441370000003487949715610856068_);}	.st77{fill:url(#SVGID_00000044867426245673871040000010464694651661174711_);}	.st78{fill:url(#SVGID_00000102537220796869979560000001291904040276902320_);}	.st79{fill:url(#SVGID_00000039123519486700966640000011622615381595224991_);}	.st80{fill:url(#SVGID_00000158001704038635811530000002847868515518351253_);}	.st81{fill:url(#SVGID_00000161609407814025733540000007586754301392251813_);}	.st82{fill:url(#SVGID_00000055701507600250237320000010661475854703447475_);}	.st83{fill:url(#SVGID_00000132781976147469210830000017979589808632128413_);}	.st84{fill:#082649;}	.st85{fill:#EFEFEF;}	.st86{fill:#DDDDDD;}	.st87{fill:#629FDD;}	.st88{fill:#FFC943;}	.st89{fill-rule:evenodd;clip-rule:evenodd;fill:#837683;}	.st90{fill-rule:evenodd;clip-rule:evenodd;fill:#685E68;}	.st91{fill-rule:evenodd;clip-rule:evenodd;fill:#E3A76F;}	.st92{fill-rule:evenodd;clip-rule:evenodd;fill:#FFD064;}	.st93{fill-rule:evenodd;clip-rule:evenodd;fill:#ECEFF1;}	.st94{fill-rule:evenodd;clip-rule:evenodd;fill:#D1D1D6;}	.st95{fill-rule:evenodd;clip-rule:evenodd;fill:#F6DCCD;}	.st96{fill-rule:evenodd;clip-rule:evenodd;fill:#F1CBBC;}	.st97{fill-rule:evenodd;clip-rule:evenodd;fill:#B1B1B5;}	.st98{fill-rule:evenodd;clip-rule:evenodd;fill:#242222;}	.st99{fill:#CCD1D9;}	.st100{fill:#DFF6FD;}	.st101{fill:#D5E3F4;}	.st102{fill:#FFEEE6;}	.st103{fill:#FFDFCF;}</style><g>	<g>		<path class="st50" d="M165.2,223.85c10.39-0.91,18.57-2.14,21.11-3.77l48.38-30.13c17.34-10.78,36.3-0.52,20.78,12.73   c-10.65,9.09-31.69,28.05-51.56,44.68l-35.39,4.22L165.2,223.85z"></path>		<path class="st50" d="M70.72,210.21c3.51-2.99,6.95-6.04,10.07-8.9c10.39-9.61,17.79-14.55,25.59-16.88   c9.42-2.79,17.4-12.01,30.78-18.38c33.44-15.98,43.51,15.46,17.86,27.14c-18.7,9.87-34.16,18.9-34.16,22.08   c0,2.4,81.89,11.04,91.82,6.36l51.63-24.09c18.51-8.7,36.11,3.83,19.09,15.13c-21.24,14.09-81.5,57.34-100.07,62.41   c-11.62,1.1-97.6-0.78-113.71-0.52L70.72,210.21z"></path>		<path class="st43" d="M40,197.68l25,0.19c3.25,0,5.84,2.92,5.78,6.17l-1.17,70.46c-0.06,3.25-2.79,5.65-5.97,5.65l-25-0.19   c-3.25,0-5.84-2.92-5.78-6.17l1.17-70.46C34.09,200.08,36.75,197.68,40,197.68z"></path>		<path class="st4" d="M224.69,50.66c19.87,0,35.98,16.1,35.98,35.98c0,20.07-24.22,55.39-35.98,69.48   c-11.75-14.09-35.98-49.48-35.98-69.48C188.71,66.76,204.81,50.66,224.69,50.66L224.69,50.66z"></path>		<path class="st51" d="M224.69,69.36c9.55,0,17.27,7.73,17.27,17.27s-7.73,17.27-17.27,17.27c-9.55,0-17.27-7.73-17.27-17.27   S215.2,69.36,224.69,69.36z"></path>		<path class="st7" d="M70.84,42.87h14.87v9.68c5.45,1.04,10.46,3.18,14.87,6.17l6.88-6.82l10.52,10.52l-6.88,6.82   c2.99,4.42,5.13,9.42,6.17,14.87h9.68v14.87h-9.68c-1.04,5.45-3.18,10.46-6.17,14.87l6.88,6.88l-10.52,10.52l-6.82-6.82   c-4.42,2.99-9.42,5.13-14.87,6.17v9.68H70.91v-9.68c-5.45-1.04-10.46-3.18-14.87-6.17l-6.82,6.88L38.7,120.79l6.75-6.88   c-2.99-4.42-5.13-9.42-6.17-14.87h-9.68V84.17h9.68c1.04-5.45,3.12-10.46,6.17-14.87l-6.82-6.88l10.52-10.52l6.82,6.82   c4.42-2.99,9.42-5.13,14.87-6.17V42.87z"></path>		<path class="st43" d="M78.31,65.59c14.35,0,25.98,11.62,25.98,25.98s-11.62,25.98-25.98,25.98s-25.98-11.62-25.98-25.98   S63.96,65.59,78.31,65.59z"></path>	</g>	<path d="M64.03,93.84c-1.3-1.75-0.91-4.16,0.78-5.45c1.75-1.3,4.16-0.91,5.45,0.78l3.38,4.55l13.05-13.05  c1.56-1.56,4.03-1.56,5.52,0c1.56,1.49,1.56,3.96,0,5.52l-16.23,16.23c-1.69,1.69-4.48,1.49-5.84-0.45L64.03,93.84z M78.31,61.7  c16.49,0,29.87,13.38,29.87,29.87s-13.38,29.87-29.87,29.87s-29.87-13.38-29.87-29.87S61.82,61.7,78.31,61.7z M93.9,75.98  c-8.64-8.64-22.6-8.64-31.24,0s-8.64,22.6,0,31.24s22.6,8.64,31.24,0S102.54,84.62,93.9,75.98z M70.84,38.97h14.87  c2.14,0,3.9,1.75,3.9,3.9v6.62c3.64,0.97,7.14,2.4,10.39,4.29l4.68-4.68c1.56-1.56,4.03-1.56,5.52,0l10.52,10.52  c1.56,1.49,1.56,3.96,0,5.52l-4.68,4.68c1.88,3.25,3.31,6.75,4.35,10.39h6.62c2.14,0,3.9,1.75,3.9,3.9v14.87  c0,2.14-1.75,3.9-3.9,3.9h-6.62c-0.97,3.64-2.47,7.14-4.35,10.39l4.68,4.68c1.56,1.56,1.56,4.03,0,5.52l-10.52,10.52  c-1.49,1.49-3.96,1.49-5.52,0L100,129.3c-3.25,1.88-6.75,3.31-10.39,4.29v6.62c0,2.14-1.75,3.9-3.9,3.9H70.84  c-2.14,0-3.9-1.75-3.9-3.9v-6.62c-3.64-0.97-7.14-2.4-10.39-4.29l-4.68,4.68c-1.49,1.49-3.96,1.49-5.52,0l-10.52-10.52  c-1.49-1.56-1.49-4.03,0-5.52l4.68-4.68c-1.88-3.25-3.31-6.75-4.29-10.39h-6.62c-2.14,0-3.9-1.75-3.9-3.9V84.1  c0-2.14,1.75-3.9,3.9-3.9h6.62c0.97-3.64,2.4-7.14,4.29-10.39l-4.68-4.68c-1.49-1.56-1.49-4.03,0-5.52L46.36,49.1  c1.56-1.56,4.03-1.56,5.52,0l4.68,4.68c3.25-1.88,6.75-3.31,10.39-4.29v-6.62C66.95,40.72,68.7,38.97,70.84,38.97z M81.82,46.76  h-7.08v5.58c0.13,1.88-1.23,3.64-3.18,4.03c-4.35,0.78-9.68,2.86-13.18,5.39c-1.56,1.17-3.77,1.1-5.13-0.32l-4.09-4.09l-5,5  l4.09,4.09c1.3,1.3,1.56,3.38,0.45,4.94c-2.47,3.57-4.81,8.83-5.52,13.12c-0.26,1.95-1.88,3.44-3.9,3.44H33.5v7.08h5.78  c1.82,0,3.44,1.3,3.83,3.18c0.84,4.35,2.86,9.68,5.45,13.18c1.17,1.56,1.04,3.77-0.32,5.13l-4.09,4.09l5,5l4.09-4.09  c1.3-1.3,3.38-1.56,4.94-0.45c3.64,2.47,8.83,4.81,13.18,5.52c1.95,0.19,3.44,1.88,3.44,3.9v5.78h7.08v-5.65  c0-1.82,1.3-3.44,3.18-3.83c4.35-0.84,9.68-2.86,13.18-5.45c1.56-1.17,3.77-1.04,5.13,0.32l4.09,4.09l5-5l-4.09-4.09  c-1.3-1.3-1.56-3.38-0.45-4.94c2.47-3.57,4.81-8.83,5.52-13.12c0.19-1.95,1.88-3.44,3.9-3.44h5.78v-7.08h-5.78  c-1.82,0-3.51-1.3-3.83-3.18c-0.78-4.35-2.86-9.68-5.39-13.18c-1.17-1.56-1.1-3.77,0.32-5.13l4.09-4.09l-5-5l-4.09,4.09  c-1.3,1.3-3.38,1.56-4.94,0.45c-3.64-2.47-8.83-4.81-13.12-5.52c-1.95-0.19-3.44-1.88-3.44-3.9v-5.84L81.82,46.76z M224.69,65.46  c11.69,0,21.17,9.48,21.17,21.17s-9.48,21.17-21.17,21.17c-11.69,0-21.17-9.48-21.17-21.17S213,65.46,224.69,65.46z M234.17,77.22  c-8.38-8.38-22.86-2.4-22.86,9.48s14.48,17.86,22.86,9.48C239.43,90.92,239.43,82.41,234.17,77.22L234.17,77.22z M224.69,46.76  c22.01,0,39.87,17.86,39.87,39.87c0,21.69-25.33,58.19-36.89,72.02c-1.56,1.88-4.48,1.82-5.97-0.06  c-11.62-14.16-36.89-50-36.89-71.95C184.81,64.62,202.67,46.76,224.69,46.76z M247.41,63.97c-12.53-12.53-32.86-12.53-45.39,0  c-5.78,5.78-9.42,13.83-9.42,22.73c0,18.12,21.95,50.33,32.08,63.32c10.2-12.99,32.08-45.13,32.08-63.32  C256.83,77.8,253.19,69.75,247.41,63.97z M32.08,40.4c-1.62,1.43-4.09,1.23-5.45-0.45c-1.43-1.62-1.17-4.09,0.45-5.45  C62.99,3.77,117.99,12.54,142.67,53c2.6-1.36,5.71,0.58,5.65,3.51l-0.19,7.79c-0.06,3.05-3.51,4.81-5.97,3.18L135.33,63  c-2.53-1.62-2.27-5.33,0.32-6.69C113.06,20.46,64.03,13.12,32.08,40.4L32.08,40.4z M217.02,18.97c2.14-0.19,4.03,1.43,4.16,3.57  c0.19,2.14-1.43,4.03-3.57,4.22C182.54,29.55,155.4,58,153.9,93.39c-0.13,21.11-8.77,40.2-22.66,54.09  c-13.51,13.44-31.89,21.88-52.28,22.47c-0.13,2.86-3.25,4.61-5.78,3.12l-6.95-4.03c-2.66-1.56-2.53-5.45,0.19-6.82l7.34-3.7  c2.66-1.3,5.71,0.65,5.65,3.64c18.12-0.65,34.48-8.18,46.43-20.13c12.53-12.47,20.26-29.68,20.39-48.64c0-0.06,0-0.19,0-0.26  C147.54,54.04,178.06,22.08,217.02,18.97L217.02,18.97z M282.35,149.63c-0.78,2.79-4.22,3.77-6.36,1.88  c-34.03,32.27-88.84,26.75-115.85-11.69c-1.23-1.75-0.78-4.22,0.97-5.45c1.75-1.23,4.16-0.78,5.39,0.97  c24.16,34.29,73.06,39.55,103.77,10.91c-2.14-2.01-1.36-5.58,1.43-6.56l7.66-2.47c3.12-1.1,5.84,1.69,5.13,4.68L282.35,149.63z   M240.66,17.21c2.92-0.78,5.58,1.95,4.74,4.81c44.16,13.38,66.82,62.67,47.86,105.01c-0.84,1.95-3.18,2.86-5.13,1.95  c-1.95-0.91-2.86-3.18-1.95-5.13c17.08-38.12-3.44-82.41-42.86-94.42c-0.65,2.86-4.16,4.03-6.36,2.01l-5.91-5.26  c-2.73-2.27-1.49-6.1,1.36-6.82L240.66,17.21z M9.09,56.76c-2.6-1.43-2.66-5.26-0.06-6.75l7.4-4.29c2.66-1.56,5.97,0.52,5.84,3.57  l-0.45,8.18c-0.19,2.99-3.51,4.61-5.97,3.05c-19.42,36.43-2.53,82.21,36.43,97.08c2.01,0.78,2.99,2.99,2.27,5  c-0.78,2.01-2.99,2.99-5,2.27C11.49,150.4-8.84,108.45,3.7,69.43C5.13,65.01,6.94,60.79,9.09,56.76z M40,193.78  c8.31,0.06,16.75,0.06,25.07,0.19c4.61,0.06,8.38,3.51,9.35,7.86c9.74-8.7,18.57-17.47,30.78-21.11c4.35-1.3,8.7-4.35,13.57-7.86  c4.74-3.38,10-7.14,16.69-10.26c13.44-6.43,23.77-5.78,30.2-1.75c5.45,3.44,8.25,9.42,7.6,15.78c-0.78,7.34-6.04,15.26-16.56,20.07  c-9.29,4.87-17.73,9.55-23.77,13.31c-2.66,1.69-4.81,2.99-6.23,3.9c4.22,0.39,13.83,1.04,25.26,2.21  c8.44,0.84,17.73,1.69,26.37,2.21c1.04-0.06,5.07-1.04,5.84-1.56l48.38-30.13c9.48-5.91,22.27-7.21,28.96-1.04  c2.14,1.95,3.38,4.48,3.51,7.34c9.81-3.77,21.82-2.92,27.08,4.03c1.49,2.01,2.27,4.35,2.08,6.88c-0.32,3.96-2.92,8.18-8.64,11.95  c-4.09,2.73-9.81,6.62-16.36,11.1c-27.08,18.57-69.29,47.54-84.88,51.82c-4.74,1.3-91.37-0.45-111.7-0.45  c-1.56,3.51-5.13,5.71-9.03,5.65c-8.38-0.06-16.75-0.06-25.13-0.19c-5.39-0.06-9.68-4.81-9.55-10c0.45-23.51,0.78-47.08,1.17-70.59  C30.19,197.81,34.67,193.78,40,193.78L40,193.78z M74.55,212.1c-0.32,19.48-0.65,39.03-0.97,58.58c20.33,0,103.9,1.56,109.1,0.58  c14.55-4.22,55.72-32.47,82.21-50.65c6.56-4.48,12.21-8.38,16.43-11.17c5.2-3.44,7.47-7.21,2.01-9.68  c-4.09-1.88-10.52-1.88-17.27,1.23l-51.63,24.09c-8.7,4.03-52.47-0.19-63.19-1.3c-12.47-1.3-23.57-3.05-29.42-4.81  c-1.75,0.45-3.64-0.45-4.42-2.14c-1.95-4.09,4.09-8.9,11.49-13.51c6.36-3.96,14.94-8.7,24.22-13.64c0.13-0.06,0.19-0.13,0.32-0.19  c7.73-3.51,11.62-8.9,12.08-13.83c0.32-3.44-1.04-6.56-4.03-8.44c-4.42-2.79-12.08-2.92-22.73,2.14  c-12.27,5.84-21.43,15.65-31.37,18.64c-11.1,3.31-19.61,12.21-29.03,20.52C77.08,209.89,75.78,211.06,74.55,212.1L74.55,212.1z   M65,201.77l-25-0.19c-1.1,0-2.08,0.71-2.08,1.82l-1.17,70.52c0,1.04,0.84,2.21,1.95,2.21l25,0.19c1.1,0,2.08-0.71,2.14-1.82  l1.17-70.52C66.95,202.94,66.1,201.77,65,201.77z M195.33,219.05c4.68,0.06,13.57,0.06,15.78-0.97l44.16-20.65  c1.56-1.82,2.14-3.31,2.01-4.48c-0.19-1.69-2.4-2.79-4.09-3.18c-4.22-1.1-10.39-0.26-16.43,3.51L195.33,219.05z"></path></g></svg>