<svg xmlns="http://www.w3.org/2000/svg" xmlns:xlink="http://www.w3.org/1999/xlink" id="Layer_1" x="0px" y="0px" viewBox="0 0 300 300" style="enable-background:new 0 0 300 300;" xml:space="preserve"><style type="text/css">	.st0{fill-rule:evenodd;clip-rule:evenodd;fill:#FFBD1B;}	.st1{fill-rule:evenodd;clip-rule:evenodd;fill:#CCE6FF;}	.st2{fill-rule:evenodd;clip-rule:evenodd;fill:#AEDAFF;}	.st3{fill-rule:evenodd;clip-rule:evenodd;fill:#E7896E;}	.st4{fill-rule:evenodd;clip-rule:evenodd;fill:#3A7AD6;}	.st5{fill-rule:evenodd;clip-rule:evenodd;fill:#FFD16C;}	.st6{fill-rule:evenodd;clip-rule:evenodd;fill:#FFFFFF;}	.st7{fill-rule:evenodd;clip-rule:evenodd;fill:#BA8715;}	.st8{fill-rule:evenodd;clip-rule:evenodd;fill:#99C7FF;}	.st9{fill:#3A7AD6;}	.st10{fill:#FFD16C;}	.st11{fill:#BA8715;}	.st12{fill:#2E5972;}	.st13{fill:#B0475D;}	.st14{fill:#FFBD1B;}	.st15{fill-rule:evenodd;clip-rule:evenodd;fill:#EDEFF1;}	.st16{fill:#99C7FF;}	.st17{fill:#CCE6FF;}	.st18{clip-path:url(#SVGID_00000147918779725751094630000002899584799742788520_);}	.st19{fill:#FEF2E2;}	.st20{fill:#FFE1BA;}	.st21{fill:#0E3D6B;}	.st22{fill:#AEDAFF;}	.st23{fill:#FFFFFF;}	.st24{fill-rule:evenodd;clip-rule:evenodd;fill:#F6B4A8;}	.st25{fill-rule:evenodd;clip-rule:evenodd;fill:#F9C9C0;}	.st26{fill-rule:evenodd;clip-rule:evenodd;fill:#FFC738;}	.st27{fill:#86A0AF;}	.st28{fill:#738B95;}	.st29{fill:none;stroke:#000000;stroke-width:15;stroke-miterlimit:10;}	.st30{fill-rule:evenodd;clip-rule:evenodd;fill:#EB5463;}	.st31{fill-rule:evenodd;clip-rule:evenodd;}	.st32{fill:#FFF6BB;}	.st33{fill:#FFC472;}	.st34{fill:#FDB614;}	.st35{fill:#474747;}	.st36{opacity:0.1;enable-background:new    ;}	.st37{fill:#EBD8AE;}	.st38{fill-rule:evenodd;clip-rule:evenodd;fill:#DACFE6;}	.st39{fill-rule:evenodd;clip-rule:evenodd;fill:#9E4623;}	.st40{opacity:0.7;fill-rule:evenodd;clip-rule:evenodd;fill:#FFFFFF;}	.st41{fill-rule:evenodd;clip-rule:evenodd;fill:#E2F0FA;}	.st42{fill-rule:evenodd;clip-rule:evenodd;fill:#D0E4F2;}	.st43{fill-rule:evenodd;clip-rule:evenodd;fill:#FFC943;}	.st44{fill-rule:evenodd;clip-rule:evenodd;fill:#6BA4E8;}	.st45{fill-rule:evenodd;clip-rule:evenodd;fill:#FFAA16;}	.st46{fill-rule:evenodd;clip-rule:evenodd;fill:#2567B7;}	.st47{fill-rule:evenodd;clip-rule:evenodd;fill:#EBCDCD;}	.st48{fill-rule:evenodd;clip-rule:evenodd;fill:#D1E7FF;}	.st49{fill-rule:evenodd;clip-rule:evenodd;fill:#222124;}	.st50{fill-rule:evenodd;clip-rule:evenodd;fill:#FAD1A2;}	.st51{fill-rule:evenodd;clip-rule:evenodd;fill:#E6E6E6;}	.st52{fill:url(#SVGID_00000164506135445108967650000012405460737407704205_);}	.st53{fill:none;stroke:#211E1F;stroke-width:0.25;stroke-miterlimit:10;}	.st54{fill:url(#SVGID_00000088108846467793034240000015587971875748791231_);}	.st55{fill:url(#SVGID_00000146471976898431233270000017678548051266038960_);}	.st56{fill:url(#SVGID_00000101065131445850979930000010148980163049817786_);}	.st57{fill:url(#SVGID_00000055708322537386279600000015640750849123706778_);}	.st58{fill:#112A4D;}	.st59{fill:url(#SVGID_00000067941120774473496790000001202633658022674324_);}	.st60{fill:url(#SVGID_00000054987562646401681480000003676310686004243128_);}	.st61{fill:url(#SVGID_00000082365156437258457340000012947972752527705482_);}	.st62{fill:url(#SVGID_00000047771016979596591310000017315607436452466831_);}	.st63{fill:url(#SVGID_00000124132319915000733850000017198578848737762701_);}	.st64{fill:url(#SVGID_00000170958147288609709910000018352806314855668373_);}	.st65{fill:url(#SVGID_00000013187406964835942430000017069061349263588786_);}	.st66{fill:url(#SVGID_00000093137277558853038840000001161988012478268577_);}	.st67{fill:url(#SVGID_00000152238621929906692790000008958222868691031974_);}	.st68{fill:url(#SVGID_00000168115562327797983630000009798456598468031165_);}	.st69{fill:url(#SVGID_00000050634716809966147560000000511470539867643293_);}	.st70{fill:url(#SVGID_00000060732983171531634260000009116985073612950673_);}	.st71{fill:url(#SVGID_00000090998909042207936980000014791103354754011790_);}	.st72{fill:url(#SVGID_00000118369650900614091320000008425320434811557278_);}	.st73{fill:url(#SVGID_00000074416582987192294130000012781034998840762762_);}	.st74{fill:url(#SVGID_00000000203748351630517780000018241761552856220333_);}	.st75{fill:url(#SVGID_00000034781148088820428310000007948717993420417950_);}	.st76{fill:url(#SVGID_00000021097072443635711380000007324122621452527755_);}	.st77{fill:url(#SVGID_00000171716957077009080220000012234053273909642125_);}	.st78{fill:url(#SVGID_00000131349929171155102160000002259402911100449449_);}	.st79{fill:url(#SVGID_00000157297347313386391960000011689706592820626364_);}	.st80{fill:url(#SVGID_00000116221591739510336290000004879508495449401514_);}	.st81{fill:url(#SVGID_00000003792168733189676280000013997370867240020137_);}	.st82{fill:url(#SVGID_00000070115988323049670210000001488256827172743319_);}	.st83{fill:url(#SVGID_00000008107501114806300830000013094019864136200586_);}	.st84{fill:#082649;}	.st85{fill:#EFEFEF;}	.st86{fill:#DDDDDD;}	.st87{fill:#629FDD;}	.st88{fill:#FFC943;}	.st89{fill-rule:evenodd;clip-rule:evenodd;fill:#837683;}	.st90{fill-rule:evenodd;clip-rule:evenodd;fill:#685E68;}	.st91{fill-rule:evenodd;clip-rule:evenodd;fill:#E3A76F;}	.st92{fill-rule:evenodd;clip-rule:evenodd;fill:#FFD064;}	.st93{fill-rule:evenodd;clip-rule:evenodd;fill:#ECEFF1;}	.st94{fill-rule:evenodd;clip-rule:evenodd;fill:#D1D1D6;}	.st95{fill-rule:evenodd;clip-rule:evenodd;fill:#F6DCCD;}	.st96{fill-rule:evenodd;clip-rule:evenodd;fill:#F1CBBC;}	.st97{fill-rule:evenodd;clip-rule:evenodd;fill:#B1B1B5;}	.st98{fill-rule:evenodd;clip-rule:evenodd;fill:#242222;}	.st99{fill:#CCD1D9;}	.st100{fill:#DFF6FD;}	.st101{fill:#D5E3F4;}	.st102{fill:#FFEEE6;}	.st103{fill:#FFDFCF;}</style><g>	<g>		<path class="st16" d="M231.25,268.75c-6.76,0-181.82,0-200,0c0-13.13,0-251.75,0-262.5H187.5l13.54,30L231.25,50V268.75z"></path>		<circle class="st34" cx="231.25" cy="168.75" r="62.5"></circle>		<path class="st9" d="M231.25,50H187.5V6.25L231.25,50z"></path>		<path class="st14" d="M206.25,268.75v25h-200V31.25h25v237.5H206.25z"></path>		<g>			<path d="M133.73,101.82h-17.32c-3.45,0-6.25-2.8-6.25-6.25s2.8-6.25,6.25-6.25h17.32c1.63,0,3.17-0.64,4.32-1.79    c1.16-1.16,1.79-2.69,1.79-4.32c0-3.38-2.74-6.13-6.12-6.13h-4.95c-4.98,0-9.66-1.94-13.17-5.46c-3.51-3.5-5.45-8.18-5.45-13.16    c0-10.27,8.35-18.62,18.62-18.62h17.32c3.45,0,6.25,2.8,6.25,6.25c0,3.45-2.8,6.25-6.25,6.25h-17.32c-3.37,0-6.12,2.74-6.12,6.12    c0,1.63,0.64,3.17,1.79,4.32c1.16,1.17,2.7,1.8,4.33,1.8h4.95c10.27,0,18.62,8.36,18.62,18.62c0,4.98-1.94,9.66-5.46,13.17    C143.37,99.89,138.7,101.82,133.73,101.82L133.73,101.82z"></path>		</g>		<g>			<path d="M131.25,52.34c-3.45,0-6.25-2.8-6.25-6.25V31.25c0-3.45,2.8-6.25,6.25-6.25s6.25,2.8,6.25,6.25v14.84    C137.5,49.55,134.7,52.34,131.25,52.34z"></path>		</g>		<g>			<path d="M131.25,116.67c-3.45,0-6.25-2.8-6.25-6.25V95.57c0-3.45,2.8-6.25,6.25-6.25s6.25,2.8,6.25,6.25v14.84    C137.5,113.87,134.7,116.67,131.25,116.67z"></path>		</g>		<g>			<path d="M231.25,275h-200c-3.45,0-6.25-2.8-6.25-6.25V6.25C25,2.8,27.8,0,31.25,0H187.5c1.66,0,3.25,0.66,4.42,1.83l43.75,43.75    c1.17,1.17,1.83,2.76,1.83,4.42v56.25c0,3.45-2.8,6.25-6.25,6.25s-6.25-2.8-6.25-6.25V52.59L184.91,12.5H37.5v250H225v-31.25    c0-3.45,2.8-6.25,6.25-6.25s6.25,2.8,6.25,6.25v37.5C237.5,272.2,234.7,275,231.25,275z"></path>		</g>		<g>			<path d="M206.25,300h-200C2.8,300,0,297.2,0,293.75V31.25C0,27.8,2.8,25,6.25,25h25c3.45,0,6.25,2.8,6.25,6.25    s-2.8,6.25-6.25,6.25H12.5v250H200v-18.75c0-3.45,2.8-6.25,6.25-6.25s6.25,2.8,6.25,6.25v25C212.5,297.2,209.7,300,206.25,300z"></path>		</g>		<g>			<path d="M231.25,56.25H187.5c-3.45,0-6.25-2.8-6.25-6.25V6.25c0-3.45,2.8-6.25,6.25-6.25s6.25,2.8,6.25,6.25v37.5h37.5    c3.45,0,6.25,2.8,6.25,6.25S234.7,56.25,231.25,56.25z"></path>		</g>		<g>			<path d="M231.25,237.5c-37.91,0-68.75-30.84-68.75-68.75S193.34,100,231.25,100S300,130.84,300,168.75S269.16,237.5,231.25,237.5    z M231.25,112.5c-31.02,0-56.25,25.23-56.25,56.25S200.23,225,231.25,225s56.25-25.23,56.25-56.25S262.27,112.5,231.25,112.5z"></path>		</g>		<g>			<path d="M231.25,175h-25c-3.45,0-6.25-2.8-6.25-6.25s2.8-6.25,6.25-6.25h20.77l10.93-27.32c1.28-3.21,4.92-4.76,8.12-3.48    c3.21,1.28,4.76,4.92,3.48,8.12l-12.5,31.25C236.1,173.44,233.81,175,231.25,175z"></path>		</g>		<g>			<path d="M137.5,156.25h-75c-3.45,0-6.25-2.8-6.25-6.25s2.8-6.25,6.25-6.25h75c3.45,0,6.25,2.8,6.25,6.25    S140.95,156.25,137.5,156.25z"></path>		</g>		<g>			<path d="M137.5,181.25h-75c-3.45,0-6.25-2.8-6.25-6.25s2.8-6.25,6.25-6.25h75c3.45,0,6.25,2.8,6.25,6.25    S140.95,181.25,137.5,181.25z"></path>		</g>		<g>			<path d="M137.5,206.25h-75c-3.45,0-6.25-2.8-6.25-6.25s2.8-6.25,6.25-6.25h75c3.45,0,6.25,2.8,6.25,6.25    S140.95,206.25,137.5,206.25z"></path>		</g>		<g>			<path d="M137.5,231.25h-75c-3.45,0-6.25-2.8-6.25-6.25s2.8-6.25,6.25-6.25h75c3.45,0,6.25,2.8,6.25,6.25    S140.95,231.25,137.5,231.25z"></path>		</g>	</g></g></svg>