<svg xmlns="http://www.w3.org/2000/svg" xmlns:xlink="http://www.w3.org/1999/xlink" id="Layer_1" x="0px" y="0px" viewBox="0 0 300 300" style="enable-background:new 0 0 300 300;" xml:space="preserve"><style type="text/css">	.st0{fill-rule:evenodd;clip-rule:evenodd;fill:#FFBD1B;}	.st1{fill-rule:evenodd;clip-rule:evenodd;fill:#CCE6FF;}	.st2{fill-rule:evenodd;clip-rule:evenodd;fill:#AEDAFF;}	.st3{fill-rule:evenodd;clip-rule:evenodd;fill:#E7896E;}	.st4{fill-rule:evenodd;clip-rule:evenodd;fill:#3A7AD6;}	.st5{fill-rule:evenodd;clip-rule:evenodd;fill:#FFD16C;}	.st6{fill-rule:evenodd;clip-rule:evenodd;fill:#FFFFFF;}	.st7{fill-rule:evenodd;clip-rule:evenodd;fill:#BA8715;}	.st8{fill-rule:evenodd;clip-rule:evenodd;fill:#99C7FF;}	.st9{fill:#3A7AD6;}	.st10{fill:#FFD16C;}	.st11{fill:#BA8715;}	.st12{fill:#2E5972;}	.st13{fill:#B0475D;}	.st14{fill:#FFBD1B;}	.st15{fill-rule:evenodd;clip-rule:evenodd;fill:#EDEFF1;}	.st16{fill:#99C7FF;}	.st17{fill:#CCE6FF;}	.st18{clip-path:url(#SVGID_00000162323932171083422270000007157357502621606799_);}	.st19{fill:#FEF2E2;}	.st20{fill:#FFE1BA;}	.st21{fill:#0E3D6B;}	.st22{fill:#AEDAFF;}	.st23{fill:#FFFFFF;}	.st24{fill-rule:evenodd;clip-rule:evenodd;fill:#F6B4A8;}	.st25{fill-rule:evenodd;clip-rule:evenodd;fill:#F9C9C0;}	.st26{fill-rule:evenodd;clip-rule:evenodd;fill:#FFC738;}	.st27{fill:#86A0AF;}	.st28{fill:#738B95;}	.st29{fill:none;stroke:#000000;stroke-width:15;stroke-miterlimit:10;}	.st30{fill-rule:evenodd;clip-rule:evenodd;fill:#EB5463;}	.st31{fill-rule:evenodd;clip-rule:evenodd;}	.st32{fill:#FFF6BB;}	.st33{fill:#FFC472;}	.st34{fill:#FDB614;}	.st35{fill:#474747;}	.st36{opacity:0.1;enable-background:new    ;}	.st37{fill:#EBD8AE;}	.st38{fill-rule:evenodd;clip-rule:evenodd;fill:#DACFE6;}	.st39{fill-rule:evenodd;clip-rule:evenodd;fill:#9E4623;}	.st40{opacity:0.7;fill-rule:evenodd;clip-rule:evenodd;fill:#FFFFFF;}	.st41{fill-rule:evenodd;clip-rule:evenodd;fill:#E2F0FA;}	.st42{fill-rule:evenodd;clip-rule:evenodd;fill:#D0E4F2;}	.st43{fill-rule:evenodd;clip-rule:evenodd;fill:#FFC943;}	.st44{fill-rule:evenodd;clip-rule:evenodd;fill:#6BA4E8;}	.st45{fill-rule:evenodd;clip-rule:evenodd;fill:#FFAA16;}	.st46{fill-rule:evenodd;clip-rule:evenodd;fill:#2567B7;}	.st47{fill-rule:evenodd;clip-rule:evenodd;fill:#EBCDCD;}	.st48{fill-rule:evenodd;clip-rule:evenodd;fill:#D1E7FF;}	.st49{fill-rule:evenodd;clip-rule:evenodd;fill:#222124;}	.st50{fill-rule:evenodd;clip-rule:evenodd;fill:#FAD1A2;}	.st51{fill-rule:evenodd;clip-rule:evenodd;fill:#E6E6E6;}	.st52{fill:url(#SVGID_00000085236781487569504810000000470058714438054831_);}	.st53{fill:none;stroke:#211E1F;stroke-width:0.25;stroke-miterlimit:10;}	.st54{fill:url(#SVGID_00000155113512584351611480000002340766063652810118_);}	.st55{fill:url(#SVGID_00000067213389014604710370000000833610569139040676_);}	.st56{fill:url(#SVGID_00000163074106025394785820000010674387825712219546_);}	.st57{fill:url(#SVGID_00000139986225223418244950000009681556967580465562_);}	.st58{fill:#112A4D;}	.st59{fill:url(#SVGID_00000142856267229810494180000015623567788542943632_);}	.st60{fill:url(#SVGID_00000083051180326846932410000001981401109095059584_);}	.st61{fill:url(#SVGID_00000164509985531339111010000006395292009539761048_);}	.st62{fill:url(#SVGID_00000116211463030242895800000008846276804734626484_);}	.st63{fill:url(#SVGID_00000108994284376343160010000016117956562541769115_);}	.st64{fill:url(#SVGID_00000151523436470948799990000001355488850858811534_);}	.st65{fill:url(#SVGID_00000158026868356820129020000008332795329109600946_);}	.st66{fill:url(#SVGID_00000177486106563929508100000000728117630750084504_);}	.st67{fill:url(#SVGID_00000023246042895347253040000016711375108567190932_);}	.st68{fill:url(#SVGID_00000046323322805962455440000016884565800391214236_);}	.st69{fill:url(#SVGID_00000036968998788515446450000012364041157225633932_);}	.st70{fill:url(#SVGID_00000054239481576573890070000008119465087467530134_);}	.st71{fill:url(#SVGID_00000045613422057242715340000005065243529762136733_);}	.st72{fill:url(#SVGID_00000132768395286556267380000014392975885166681251_);}	.st73{fill:url(#SVGID_00000047752888037118563400000018293736065756900028_);}	.st74{fill:url(#SVGID_00000121961575639325298440000011077783079605198484_);}	.st75{fill:url(#SVGID_00000152227557736058450090000015230928379410834335_);}	.st76{fill:url(#SVGID_00000173131955772289716130000013738105031213776785_);}	.st77{fill:url(#SVGID_00000023959816725883784980000017605219997674904728_);}	.st78{fill:url(#SVGID_00000073716723800376295900000005111623913348280722_);}	.st79{fill:url(#SVGID_00000026123748938514257710000012708721040122369949_);}	.st80{fill:url(#SVGID_00000047042996413169651280000001937150220578665887_);}	.st81{fill:url(#SVGID_00000022540533557402001970000006916335118071514016_);}	.st82{fill:url(#SVGID_00000038401505692183421380000008310350917053410493_);}	.st83{fill:url(#SVGID_00000003794147479078903910000003375546920156397440_);}	.st84{fill:#082649;}	.st85{fill:#EFEFEF;}	.st86{fill:#DDDDDD;}	.st87{fill:#629FDD;}	.st88{fill:#FFC943;}	.st89{fill-rule:evenodd;clip-rule:evenodd;fill:#837683;}	.st90{fill-rule:evenodd;clip-rule:evenodd;fill:#685E68;}	.st91{fill-rule:evenodd;clip-rule:evenodd;fill:#E3A76F;}	.st92{fill-rule:evenodd;clip-rule:evenodd;fill:#FFD064;}	.st93{fill-rule:evenodd;clip-rule:evenodd;fill:#ECEFF1;}	.st94{fill-rule:evenodd;clip-rule:evenodd;fill:#D1D1D6;}	.st95{fill-rule:evenodd;clip-rule:evenodd;fill:#F6DCCD;}	.st96{fill-rule:evenodd;clip-rule:evenodd;fill:#F1CBBC;}	.st97{fill-rule:evenodd;clip-rule:evenodd;fill:#B1B1B5;}	.st98{fill-rule:evenodd;clip-rule:evenodd;fill:#242222;}	.st99{fill:#CCD1D9;}	.st100{fill:#DFF6FD;}	.st101{fill:#D5E3F4;}	.st102{fill:#FFEEE6;}	.st103{fill:#FFDFCF;}</style><g>	<path class="st9" d="M210,295H35c-6.9,0-12.5-5.6-12.5-12.5v-245C22.5,30.6,28.1,25,35,25h175c6.9,0,12.5,5.6,12.5,12.5v245  C222.5,289.4,216.9,295,210,295z"></path>	<path class="st10" d="M42.5,40h160v235h-160V40z"></path>	<path class="st11" d="M147.5,16.17V9.46c0-2.46-2-4.46-4.46-4.46h-41.08C99.5,5,97.5,7,97.5,9.46v6.71c0,2.11-1.71,3.83-3.83,3.83  h-8.05c-1.73,0-3.12,1.4-3.12,3.12v23.75c0,1.73,1.4,3.12,3.12,3.12h73.75c1.73,0,3.12-1.4,3.12-3.12V23.13  c0-1.73-1.4-3.12-3.12-3.12h-8.05C149.21,20,147.5,18.29,147.5,16.17z"></path>	<path class="st10" d="M82.5,70h80v70h-80V70z"></path>	<path class="st9" d="M132.5,95l-10-5l-10,5V70h20V95z"></path>	<g>		<path class="st12" d="M182.5,165h-90c-2.76,0-5-2.24-5-5c0-2.76,2.24-5,5-5h90c2.76,0,5,2.24,5,5   C187.5,162.76,185.26,165,182.5,165z"></path>	</g>	<g>		<path class="st12" d="M172.5,180h-80c-2.76,0-5-2.24-5-5c0-2.76,2.24-5,5-5h80c2.76,0,5,2.24,5,5   C177.5,177.76,175.26,180,172.5,180z"></path>	</g>	<g>		<path class="st12" d="M157.5,195h-65c-2.76,0-5-2.24-5-5s2.24-5,5-5h65c2.76,0,5,2.24,5,5S160.26,195,157.5,195z"></path>	</g>	<g>		<path class="st12" d="M147.5,210h-55c-2.76,0-5-2.24-5-5s2.24-5,5-5h55c2.76,0,5,2.24,5,5S150.26,210,147.5,210z"></path>	</g>	<g>		<path class="st12" d="M142.5,225h-50c-2.76,0-5-2.24-5-5s2.24-5,5-5h50c2.76,0,5,2.24,5,5S145.26,225,142.5,225z"></path>	</g>	<g>		<path class="st12" d="M142.5,240h-50c-2.76,0-5-2.24-5-5s2.24-5,5-5h50c2.76,0,5,2.24,5,5S145.26,240,142.5,240z"></path>	</g>	<g>		<path class="st13" d="M62.5,180c-1.28,0-2.56-0.49-3.54-1.46l-5-5c-1.95-1.95-1.95-5.12,0-7.07c1.95-1.95,5.12-1.95,7.07,0   l1.46,1.46l11.46-11.46c1.95-1.95,5.12-1.95,7.07,0c1.95,1.95,1.95,5.12,0,7.07l-15,15C65.06,179.51,63.78,180,62.5,180L62.5,180z   "></path>	</g>	<g>		<path class="st13" d="M62.5,210c-1.28,0-2.56-0.49-3.54-1.46l-5-5c-1.95-1.95-1.95-5.12,0-7.07c1.95-1.95,5.12-1.95,7.07,0   l1.46,1.46l11.46-11.46c1.95-1.95,5.12-1.95,7.07,0c1.95,1.95,1.95,5.12,0,7.07l-15,15C65.06,209.51,63.78,210,62.5,210L62.5,210z   "></path>	</g>	<g>		<path class="st13" d="M62.5,240c-1.28,0-2.56-0.49-3.54-1.46l-5-5c-1.95-1.95-1.95-5.12,0-7.07c1.95-1.95,5.12-1.95,7.07,0   l1.46,1.46l11.46-11.46c1.95-1.95,5.12-1.95,7.07,0c1.95,1.95,1.95,5.12,0,7.07l-15,15C65.06,239.51,63.78,240,62.5,240L62.5,240z   "></path>	</g>	<g>		<path class="st13" d="M147.5,115h-10c-2.76,0-5-2.24-5-5c0-2.76,2.24-5,5-5h10c2.76,0,5,2.24,5,5   C152.5,112.76,150.26,115,147.5,115z"></path>	</g>	<g>		<path class="st13" d="M147.5,130h-10c-2.76,0-5-2.24-5-5c0-2.76,2.24-5,5-5h10c2.76,0,5,2.24,5,5   C152.5,127.76,150.26,130,147.5,130z"></path>	</g>	<g>		<path class="st13" d="M102.5,130h-5c-2.76,0-5-2.24-5-5c0-2.76,2.24-5,5-5h5c2.76,0,5,2.24,5,5C107.5,127.76,105.26,130,102.5,130   z"></path>	</g>	<circle class="st14" cx="217.5" cy="235" r="60"></circle>	<g>		<path class="st9" d="M193.01,267.08l-7.59-7.59c-1.81-1.81-1.81-4.74,0-6.55l50.02-50.02c1.81-1.81,4.74-1.81,6.55,0l7.59,7.59   c1.81,1.81,1.81,4.74,0,6.55l-50.02,50.02C197.75,268.89,194.82,268.89,193.01,267.08z"></path>		<circle class="st9" cx="187.5" cy="215" r="10"></circle>		<circle class="st9" cx="247.5" cy="255" r="10"></circle>	</g>	<g>		<g>			<path d="M163.65,65.5h-80c-2.48,0-4.5,2.02-4.5,4.5v70c0,2.48,2.02,4.5,4.5,4.5h80c2.48,0,4.5-2.02,4.5-4.5V70    C168.15,67.52,166.13,65.5,163.65,65.5z M118.15,74.5h11v13.22l-3.48-1.74c-1.25-0.63-2.79-0.63-4.03,0l-3.49,1.74V74.5z     M159.15,135.5h-71v-61h21V95c0,1.57,0.8,3,2.14,3.83c1.33,0.82,2.97,0.9,4.38,0.2l7.98-4l7.99,3.99    c1.37,0.69,3.08,0.61,4.38-0.19c1.34-0.83,2.13-2.26,2.13-3.83V74.5h21V135.5z"></path>		</g>		<path d="M87.5,160c0,2.76,2.24,5,5,5h90c2.76,0,5-2.24,5-5c0-2.76-2.24-5-5-5h-90C89.74,155,87.5,157.24,87.5,160z"></path>		<path d="M172.5,170h-80c-2.76,0-5,2.24-5,5c0,2.76,2.24,5,5,5h80c2.76,0,5-2.24,5-5C177.5,172.24,175.26,170,172.5,170z"></path>		<path d="M157.5,185h-65c-2.76,0-5,2.24-5,5s2.24,5,5,5h65c2.76,0,5-2.24,5-5S160.26,185,157.5,185z"></path>		<path d="M147.5,200h-55c-2.76,0-5,2.24-5,5s2.24,5,5,5h55c2.76,0,5-2.24,5-5S150.26,200,147.5,200z"></path>		<path d="M142.5,215h-50c-2.76,0-5,2.24-5,5s2.24,5,5,5h50c2.76,0,5-2.24,5-5S145.26,215,142.5,215z"></path>		<path d="M142.5,230h-50c-2.76,0-5,2.24-5,5s2.24,5,5,5h50c2.76,0,5-2.24,5-5S145.26,230,142.5,230z"></path>		<path d="M73.96,156.46L62.5,167.93l-1.46-1.46c-1.95-1.95-5.12-1.95-7.07,0c-1.95,1.95-1.95,5.12,0,7.07l5,5   c0.98,0.98,2.26,1.46,3.54,1.46c1.28,0,2.56-0.49,3.54-1.46l15-15c1.95-1.95,1.95-5.12,0-7.07   C79.08,154.51,75.92,154.51,73.96,156.46L73.96,156.46z"></path>		<path d="M73.96,186.46L62.5,197.93l-1.46-1.46c-1.95-1.95-5.12-1.95-7.07,0c-1.95,1.95-1.95,5.12,0,7.07l5,5   c0.98,0.98,2.26,1.46,3.54,1.46c1.28,0,2.56-0.49,3.54-1.46l15-15c1.95-1.95,1.95-5.12,0-7.07   C79.08,184.51,75.92,184.51,73.96,186.46L73.96,186.46z"></path>		<path d="M73.96,216.46L62.5,227.93l-1.46-1.46c-1.95-1.95-5.12-1.95-7.07,0c-1.95,1.95-1.95,5.12,0,7.07l5,5   c0.98,0.98,2.26,1.46,3.54,1.46c1.28,0,2.56-0.49,3.54-1.46l15-15c1.95-1.95,1.95-5.12,0-7.07   C79.08,214.51,75.92,214.51,73.96,216.46L73.96,216.46z"></path>		<path d="M147.5,105h-10c-2.76,0-5,2.24-5,5c0,2.76,2.24,5,5,5h10c2.76,0,5-2.24,5-5C152.5,107.24,150.26,105,147.5,105z"></path>		<path d="M147.5,120h-10c-2.76,0-5,2.24-5,5c0,2.76,2.24,5,5,5h10c2.76,0,5-2.24,5-5C152.5,122.24,150.26,120,147.5,120z"></path>		<path d="M102.5,120h-5c-2.76,0-5,2.24-5,5c0,2.76,2.24,5,5,5h5c2.76,0,5-2.24,5-5C107.5,122.24,105.26,120,102.5,120z"></path>		<g>			<path d="M227.42,171.26L227,171.2V37.5c0-9.37-7.63-17-17-17h-43.46l-0.13-0.31c-1.19-2.85-3.95-4.69-7.04-4.69H152V9.46    c0-4.94-4.02-8.96-8.96-8.96h-41.08C97.02,0.5,93,4.52,93,9.46v6.04h-7.38c-3.08,0-5.84,1.84-7.03,4.69l-0.13,0.31H35    c-9.37,0-17,7.63-17,17v245c0,9.37,7.63,17,17,17h175c0.79,0,1.6-0.06,2.45-0.18l0.06-0.01h0.05c1.63,0.13,3.29,0.19,4.94,0.19    c35.56,0,64.5-28.93,64.5-64.5C282,203.49,258.54,176.09,227.42,171.26z M167,29.5h43c4.41,0,8,3.59,8,8v133h-0.5    c-3.32,0-6.66,0.26-9.93,0.76l-0.57,0.09V40c0-2.48-2.02-4.5-4.5-4.5H167V29.5z M87,24.5h6.67c4.59,0,8.33-3.74,8.33-8.33V9.5h41    v6.67c0,4.59,3.74,8.33,8.33,8.33H158v21H87V24.5z M85.62,54.5h73.75c4.21,0,7.63-3.42,7.63-7.62V44.5h31v129.02l-0.35,0.11    C170.94,182.29,153,206.95,153,235c0,12.35,3.52,24.36,10.17,34.73l0.49,0.77H47v-226h31v2.38C78,51.08,81.42,54.5,85.62,54.5z     M35,290.5c-4.41,0-8-3.59-8-8v-245c0-4.41,3.59-8,8-8h43v6H42.5c-2.48,0-4.5,2.02-4.5,4.5v235c0,2.48,2.02,4.5,4.5,4.5h128.35    l0.15,0.15c3.64,3.79,7.73,7.13,12.16,9.93l1.47,0.92H35z M217.5,290.5c-30.6,0-55.5-24.9-55.5-55.5c0-30.6,24.9-55.5,55.5-55.5    S273,204.4,273,235C273,265.6,248.1,290.5,217.5,290.5z"></path>		</g>		<g>			<path d="M253.92,207.33l-7.6-7.59c-1.72-1.73-4.01-2.68-6.45-2.68s-4.73,0.95-6.46,2.68l-50.02,50.02    c-1.72,1.72-2.67,4.02-2.67,6.45c0,2.44,0.95,4.74,2.67,6.46l7.59,7.59c1.73,1.73,4.02,2.68,6.46,2.68s4.73-0.95,6.46-2.68    l50.02-50.02c1.72-1.72,2.67-4.01,2.67-6.45S255.64,209.06,253.92,207.33z M197.44,263.99l-7.78-7.78l50.21-50.2l7.77,7.78    L197.44,263.99z"></path>		</g>		<g>			<path d="M188.65,200.5c-7.99,0-14.5,6.5-14.5,14.5s6.51,14.5,14.5,14.5c8,0,14.5-6.5,14.5-14.5S196.65,200.5,188.65,200.5z     M188.65,220.5c-3.03,0-5.5-2.47-5.5-5.5c0-3.03,2.47-5.5,5.5-5.5c3.04,0,5.5,2.47,5.5,5.5    C194.15,218.03,191.69,220.5,188.65,220.5z"></path>		</g>		<g>			<path d="M248.65,240.5c-7.99,0-14.5,6.5-14.5,14.5s6.51,14.5,14.5,14.5c8,0,14.5-6.5,14.5-14.5S256.65,240.5,248.65,240.5z     M248.65,260.5c-3.03,0-5.5-2.47-5.5-5.5c0-3.03,2.47-5.5,5.5-5.5c3.04,0,5.5,2.47,5.5,5.5    C254.15,258.03,251.69,260.5,248.65,260.5z"></path>		</g>	</g></g></svg>