<svg xmlns="http://www.w3.org/2000/svg" xmlns:xlink="http://www.w3.org/1999/xlink" id="Layer_1" x="0px" y="0px" viewBox="0 0 300 300" style="enable-background:new 0 0 300 300;" xml:space="preserve"><style type="text/css">	.st0{fill-rule:evenodd;clip-rule:evenodd;fill:#FFBD1B;}	.st1{fill-rule:evenodd;clip-rule:evenodd;fill:#CCE6FF;}	.st2{fill-rule:evenodd;clip-rule:evenodd;fill:#AEDAFF;}	.st3{fill-rule:evenodd;clip-rule:evenodd;fill:#E7896E;}	.st4{fill-rule:evenodd;clip-rule:evenodd;fill:#3A7AD6;}	.st5{fill-rule:evenodd;clip-rule:evenodd;fill:#FFD16C;}	.st6{fill-rule:evenodd;clip-rule:evenodd;fill:#FFFFFF;}	.st7{fill-rule:evenodd;clip-rule:evenodd;fill:#BA8715;}	.st8{fill-rule:evenodd;clip-rule:evenodd;fill:#99C7FF;}	.st9{fill:#3A7AD6;}	.st10{fill:#FFD16C;}	.st11{fill:#BA8715;}	.st12{fill:#2E5972;}	.st13{fill:#B0475D;}	.st14{fill:#FFBD1B;}	.st15{fill-rule:evenodd;clip-rule:evenodd;fill:#EDEFF1;}	.st16{fill:#99C7FF;}	.st17{fill:#CCE6FF;}	.st18{clip-path:url(#SVGID_00000102508867702773905280000010980308229369213570_);}	.st19{fill:#FEF2E2;}	.st20{fill:#FFE1BA;}	.st21{fill:#0E3D6B;}	.st22{fill:#AEDAFF;}	.st23{fill:#FFFFFF;}	.st24{fill-rule:evenodd;clip-rule:evenodd;fill:#F6B4A8;}	.st25{fill-rule:evenodd;clip-rule:evenodd;fill:#F9C9C0;}	.st26{fill-rule:evenodd;clip-rule:evenodd;fill:#FFC738;}	.st27{fill:#86A0AF;}	.st28{fill:#738B95;}	.st29{fill:none;stroke:#000000;stroke-width:15;stroke-miterlimit:10;}	.st30{fill-rule:evenodd;clip-rule:evenodd;fill:#EB5463;}	.st31{fill-rule:evenodd;clip-rule:evenodd;}	.st32{fill:#FFF6BB;}	.st33{fill:#FFC472;}	.st34{fill:#FDB614;}	.st35{fill:#474747;}	.st36{opacity:0.1;enable-background:new    ;}	.st37{fill:#EBD8AE;}	.st38{fill-rule:evenodd;clip-rule:evenodd;fill:#DACFE6;}	.st39{fill-rule:evenodd;clip-rule:evenodd;fill:#9E4623;}	.st40{opacity:0.7;fill-rule:evenodd;clip-rule:evenodd;fill:#FFFFFF;}	.st41{fill-rule:evenodd;clip-rule:evenodd;fill:#E2F0FA;}	.st42{fill-rule:evenodd;clip-rule:evenodd;fill:#D0E4F2;}	.st43{fill-rule:evenodd;clip-rule:evenodd;fill:#FFC943;}	.st44{fill-rule:evenodd;clip-rule:evenodd;fill:#6BA4E8;}	.st45{fill-rule:evenodd;clip-rule:evenodd;fill:#FFAA16;}	.st46{fill-rule:evenodd;clip-rule:evenodd;fill:#2567B7;}	.st47{fill-rule:evenodd;clip-rule:evenodd;fill:#EBCDCD;}	.st48{fill-rule:evenodd;clip-rule:evenodd;fill:#D1E7FF;}	.st49{fill-rule:evenodd;clip-rule:evenodd;fill:#222124;}	.st50{fill-rule:evenodd;clip-rule:evenodd;fill:#FAD1A2;}	.st51{fill-rule:evenodd;clip-rule:evenodd;fill:#E6E6E6;}	.st52{fill:url(#SVGID_00000093146803937985996430000016900153193490090128_);}	.st53{fill:none;stroke:#211E1F;stroke-width:0.25;stroke-miterlimit:10;}	.st54{fill:url(#SVGID_00000031178118276625044890000017644704124235201439_);}	.st55{fill:url(#SVGID_00000019663076679398874590000000903928186355612846_);}	.st56{fill:url(#SVGID_00000010289578471731912720000017765420388226883224_);}	.st57{fill:url(#SVGID_00000072279642641016218690000000535775026107100594_);}	.st58{fill:#112A4D;}	.st59{fill:url(#SVGID_00000174604120177834333240000001098508098599484569_);}	.st60{fill:url(#SVGID_00000065075126355929557290000004257251353323057283_);}	.st61{fill:url(#SVGID_00000141422120649098266300000005728003830361122692_);}	.st62{fill:url(#SVGID_00000029762140251562925310000017692168513628049326_);}	.st63{fill:url(#SVGID_00000007427245123141620920000017938077428267315131_);}	.st64{fill:url(#SVGID_00000049181962984286964560000008380242426041036440_);}	.st65{fill:url(#SVGID_00000136369677653678075140000007644631222583690903_);}	.st66{fill:url(#SVGID_00000152960719559905705520000003058823660892661427_);}	.st67{fill:url(#SVGID_00000088112133093955651800000005998904167753912460_);}	.st68{fill:url(#SVGID_00000147178800256668964230000009017770776339713195_);}	.st69{fill:url(#SVGID_00000121262329691988193150000018444286227219351709_);}	.st70{fill:url(#SVGID_00000179630018340266600060000003445562790852130999_);}	.st71{fill:url(#SVGID_00000169559117747681054850000016960576346276332704_);}	.st72{fill:url(#SVGID_00000172413578825924992960000004889288983085463725_);}	.st73{fill:url(#SVGID_00000049222927534042038910000001401916150988126612_);}	.st74{fill:url(#SVGID_00000086650228539166782760000016917042784594948994_);}	.st75{fill:url(#SVGID_00000114049808858941754810000011182935457288719805_);}	.st76{fill:url(#SVGID_00000080917721995719116620000012269255564947248557_);}	.st77{fill:url(#SVGID_00000113329252946039715610000003351587838829456573_);}	.st78{fill:url(#SVGID_00000037665170876093771810000014520323724447006081_);}	.st79{fill:url(#SVGID_00000111912884595710331360000012411492679859663292_);}	.st80{fill:url(#SVGID_00000181782259321607680840000009523922442352121504_);}	.st81{fill:url(#SVGID_00000048470115057283435230000013089777368652941448_);}	.st82{fill:url(#SVGID_00000016037933723015753430000012515543930258036379_);}	.st83{fill:url(#SVGID_00000098901177020100561190000016130667378865079713_);}	.st84{fill:#082649;}	.st85{fill:#EFEFEF;}	.st86{fill:#DDDDDD;}	.st87{fill:#629FDD;}	.st88{fill:#FFC943;}	.st89{fill-rule:evenodd;clip-rule:evenodd;fill:#837683;}	.st90{fill-rule:evenodd;clip-rule:evenodd;fill:#685E68;}	.st91{fill-rule:evenodd;clip-rule:evenodd;fill:#E3A76F;}	.st92{fill-rule:evenodd;clip-rule:evenodd;fill:#FFD064;}	.st93{fill-rule:evenodd;clip-rule:evenodd;fill:#ECEFF1;}	.st94{fill-rule:evenodd;clip-rule:evenodd;fill:#D1D1D6;}	.st95{fill-rule:evenodd;clip-rule:evenodd;fill:#F6DCCD;}	.st96{fill-rule:evenodd;clip-rule:evenodd;fill:#F1CBBC;}	.st97{fill-rule:evenodd;clip-rule:evenodd;fill:#B1B1B5;}	.st98{fill-rule:evenodd;clip-rule:evenodd;fill:#242222;}	.st99{fill:#CCD1D9;}	.st100{fill:#DFF6FD;}	.st101{fill:#D5E3F4;}	.st102{fill:#FFEEE6;}	.st103{fill:#FFDFCF;}</style><g id="_x30_9_Team_Update_00000002383396644050602560000005930541336794734469_">	<g>		<path class="st35" d="M192.99,175.22c0,23.76-19.26,43.06-43.02,43.06c-23.8,0-43.06-19.3-43.06-43.06s19.26-43.06,43.06-43.06   C173.73,132.17,192.99,151.46,192.99,175.22z"></path>		<path class="st36" d="M192.99,175.22c0,23.77-19.25,43.06-43.02,43.06c-17.51,0-32.55-10.43-39.26-25.43   c5.38,2.47,11.36,3.8,17.63,3.8c23.78,0,43.02-19.29,43.02-43.06c0-6.31-1.38-12.29-3.84-17.67   C182.52,142.63,192.99,157.71,192.99,175.22L192.99,175.22z"></path>		<path class="st9" d="M96.94,296.8c-11.25,0.17-19.45-10.7-16.13-21.46c9.21-29.86,36.68-52.74,68.94-52.82   c20.11-0.05,38.28,8.06,51.42,21.21c8.26,8.26,14.54,18.51,18.05,29.98c3.24,10.59-4.55,21.36-15.63,21.52L96.94,296.8z"></path>		<path class="st36" d="M203.59,295.23L96.92,296.8c-11.24,0.16-19.45-10.71-16.13-21.47c0.36-1.21,0.77-2.43,1.21-3.6   c12.05,7.68,26.32,12.13,41.69,12.13c31.58,0,58.79-18.84,70.96-45.93c2.3,1.82,4.45,3.72,6.51,5.78   c8.25,8.29,14.56,18.52,18.03,30C222.47,284.31,214.66,295.06,203.59,295.23L203.59,295.23z"></path>		<path class="st37" d="M183.65,181.44v15.67c0,18.87-15.44,35.21-34.31,34.86c-9.09-0.17-17.26-3.93-23.22-9.86   c-6.11-6.15-9.87-14.56-9.87-23.86v-16.82c0-6.7,5.43-12.13,12.13-12.13h43.14C178.22,169.31,183.65,174.74,183.65,181.44   L183.65,181.44z"></path>		<path class="st35" d="M276.9,144.47c0,15.53-12.59,28.14-28.12,28.14c-15.56,0-28.14-12.61-28.14-28.14s12.59-28.14,28.14-28.14   C264.31,116.32,276.9,128.94,276.9,144.47L276.9,144.47z"></path>		<path class="st36" d="M276.9,144.46c0,15.54-12.58,28.15-28.12,28.15c-11.44,0-21.28-6.82-25.66-16.62   c3.52,1.61,7.43,2.48,11.52,2.48c15.54,0,28.12-12.61,28.12-28.15c0-4.12-0.9-8.03-2.51-11.55   C270.05,123.16,276.9,133.02,276.9,144.46L276.9,144.46z"></path>		<path class="st14" d="M214.11,223.93c-7.36,0.11-12.71-7-10.55-14.03c6.02-19.52,23.98-34.47,45.06-34.53   c13.14-0.04,25.02,5.27,33.61,13.86c5.4,5.4,9.5,12.1,11.8,19.6c2.12,6.92-2.98,13.96-10.21,14.07L214.11,223.93z"></path>		<path class="st36" d="M283.82,222.9l-69.72,1.03c-7.35,0.11-12.71-7-10.55-14.03c0.24-0.79,0.5-1.59,0.79-2.35   c7.88,5.02,17.21,7.93,27.25,7.93c20.64,0,38.43-12.32,46.38-30.02c1.51,1.19,2.91,2.43,4.26,3.78   c5.39,5.42,9.51,12.1,11.79,19.61C296.16,215.77,291.06,222.8,283.82,222.9L283.82,222.9z"></path>		<path class="st37" d="M270.79,148.53v10.24c0,12.34-10.09,23.02-22.43,22.79c-5.94-0.11-11.28-2.57-15.18-6.44   c-3.99-4.02-6.45-9.51-6.45-15.59v-10.99c0-4.38,3.55-7.93,7.93-7.93h28.2C267.24,140.6,270.79,144.15,270.79,148.53z"></path>		<path class="st35" d="M79.3,144.47c0,15.53-12.59,28.14-28.12,28.14c-15.56,0-28.14-12.61-28.14-28.14s12.59-28.14,28.14-28.14   C66.71,116.32,79.3,128.94,79.3,144.47L79.3,144.47z"></path>		<path class="st36" d="M79.3,144.46c0,15.54-12.58,28.15-28.12,28.15c-11.44,0-21.28-6.82-25.66-16.62   c3.52,1.61,7.43,2.48,11.52,2.48c15.54,0,28.12-12.61,28.12-28.15c0-4.12-0.9-8.03-2.51-11.55   C72.46,123.16,79.3,133.02,79.3,144.46L79.3,144.46z"></path>		<path class="st14" d="M16.52,223.93c-7.36,0.11-12.71-7-10.55-14.03c6.02-19.52,23.98-34.47,45.06-34.53   c13.14-0.04,25.02,5.27,33.61,13.86c5.4,5.4,9.5,12.1,11.8,19.6c2.12,6.92-2.98,13.96-10.21,14.07L16.52,223.93z"></path>		<path class="st36" d="M86.23,222.9l-69.72,1.03c-7.35,0.11-12.71-7-10.55-14.03c0.24-0.79,0.5-1.59,0.79-2.35   c7.88,5.02,17.21,7.93,27.25,7.93c20.64,0,38.43-12.32,46.38-30.02c1.51,1.19,2.91,2.43,4.26,3.78   c5.39,5.42,9.51,12.1,11.79,19.61C98.57,215.77,93.47,222.8,86.23,222.9z"></path>		<path class="st37" d="M73.2,148.53v10.24c0,12.34-10.09,23.02-22.43,22.79c-5.94-0.11-11.28-2.57-15.18-6.44   c-3.99-4.02-6.45-9.51-6.45-15.59v-10.99c0-4.38,3.55-7.93,7.93-7.93h28.2C69.65,140.6,73.2,144.15,73.2,148.53z"></path>		<path class="st14" d="M186.01,47.02c0,0.52-0.01,1.04-0.04,1.55c-0.19,4-5.08,5.64-7.71,2.62c-5.79-6.65-14.32-10.86-23.84-10.86   v7.91c0,3.63-4.18,5.67-7.04,3.43l-25.97-20.34c-2.22-1.74-2.23-5.11,0-6.85l25.97-20.36c2.86-2.24,7.04-0.2,7.04,3.43v7.9   C171.88,15.45,186.01,29.58,186.01,47.02L186.01,47.02z"></path>		<path class="st9" d="M114.17,64.25c0-0.52,0.01-1.04,0.04-1.55c0.19-4,5.08-5.64,7.71-2.62c5.79,6.65,14.32,10.86,23.84,10.86   v-7.91c0-3.63,4.18-5.67,7.04-3.43l25.97,20.34c2.22,1.74,2.23,5.11,0,6.85l-25.97,20.36c-2.86,2.24-7.04,0.2-7.04-3.43v-7.9   C128.3,95.82,114.17,81.69,114.17,64.25L114.17,64.25z"></path>		<path d="M77.77,274.42C73.84,287.15,83.42,300,96.7,300c0.1,0,0.2,0,0.29,0l106.64-1.59c13.2-0.19,22.5-13,18.62-25.63   c-6.87-22.51-24.05-40.74-46.41-48.84c5.37-5.53,8.96-12.55,10.33-20.02c6.44-8.16,9.99-18.31,9.99-28.7   c0-25.49-20.72-46.22-46.19-46.22c-25.5,0-46.25,20.73-46.25,46.22c0,10.26,3.48,20.3,9.76,28.39   c1.13,7.78,4.66,14.99,10.32,20.71C102.2,232.81,84.82,251.55,77.77,274.42L77.77,274.42z M113.07,181.44v8.77   c-1.92-4.74-2.97-9.83-2.97-15c0-21.98,17.89-39.86,39.88-39.86c21.96,0,39.83,17.88,39.83,39.86c0,5.17-1.05,10.26-2.97,15v-8.77   c0-8.44-6.87-15.31-15.31-15.31h-43.14C119.94,166.13,113.07,173,113.07,181.44L113.07,181.44z M119.43,198.26v-16.82   c0-4.93,4.01-8.95,8.95-8.95h43.14c4.93,0,8.95,4.01,8.95,8.95v15.67c0,17.15-14.04,31.99-31.07,31.68   C132.81,228.49,119.43,214.99,119.43,198.26L119.43,198.26z M129.56,229.01c6.28,4.17,13.4,6.16,20.37,6.16   c7.25,0,14.23-2.25,20.24-6.41c22.15,6.69,39.35,24.09,46,45.88c2.63,8.59-3.68,17.28-12.63,17.4L96.9,293.63   c-0.07,0-0.13,0-0.2,0c-9.01,0-15.51-8.72-12.85-17.34C90.7,254.06,108.15,236.09,129.56,229.01L129.56,229.01z"></path>		<path d="M16.36,227.14c1.77,0,0.86,0.03,0.36,0.04c1.75-0.03,13.58-0.25,69.53-1.09c9.37-0.12,15.98-9.19,13.22-18.19   c-4.34-14.17-14.95-26.18-29.48-32.03c3-3.51,5.04-7.75,5.9-12.23c4.25-5.48,6.6-12.25,6.6-19.17c0-17.27-14.05-31.32-31.32-31.32   s-31.32,14.05-31.32,31.32c0,6.86,2.29,13.54,6.44,18.97c0.73,4.7,2.76,9.07,5.93,12.7c-13.74,5.91-24.73,18.08-29.29,32.85   C0.14,218.02,6.93,227.14,16.36,227.14L16.36,227.14z M70.01,158.78c0,10.88-9.11,19.96-19.19,19.6   c-10.26-0.19-18.5-8.54-18.5-18.85v-10.99c0-2.62,2.13-4.75,4.74-4.75h28.2c2.61,0,4.74,2.13,4.74,4.75L70.01,158.78L70.01,158.78   z M26.28,145.98c-0.03-0.51-0.07-1.01-0.07-1.52c0-13.76,11.19-24.96,24.96-24.96s24.96,11.2,24.96,24.96   c0,0.51-0.04,1.02-0.07,1.53c-1.15-4.9-5.54-8.58-10.79-8.58h-28.2C31.82,137.42,27.44,141.09,26.28,145.98z M9.01,210.85   c4.34-14.06,15.3-25.39,28.75-29.99c3.86,2.43,8.31,3.8,12.95,3.89c5.08,0.05,9.72-1.34,13.82-4.04   c14.18,4.51,24.72,15.52,28.87,29.06c1.51,4.9-2.07,9.88-7.22,9.95l-69.71,1.05C10.97,220.67,7.54,215.65,9.01,210.85L9.01,210.85   z"></path>		<path d="M213.98,227.14c1.77,0,0.86,0.03,0.36,0.04c1.75-0.03,13.58-0.25,69.51-1.09c9.37-0.12,15.98-9.19,13.22-18.19   c-4.36-14.2-14.95-26.22-29.47-32.04c3-3.51,5.03-7.75,5.9-12.24c4.24-5.48,6.59-12.24,6.59-19.16   c0-17.27-14.04-31.32-31.29-31.32c-17.29,0-31.36,14.05-31.36,31.32c0,6.86,2.3,13.55,6.45,18.97c0.73,4.69,2.76,9.06,5.93,12.7   c-13.77,5.92-24.76,18.09-29.3,32.84C197.73,218.04,204.57,227.14,213.98,227.14z M267.61,158.78c0,10.75-8.98,19.96-19.19,19.6   c-10.26-0.19-18.5-8.54-18.5-18.85v-10.99c0-2.62,2.13-4.75,4.74-4.75h28.2c2.62,0,4.75,2.13,4.75,4.75V158.78z M223.87,146.01   c-0.03-0.51-0.07-1.03-0.07-1.55c0-13.76,11.21-24.96,24.99-24.96c13.74,0,24.93,11.2,24.93,24.96c0,0.51-0.04,1.01-0.07,1.52   c-1.16-4.9-5.54-8.56-10.79-8.56h-28.2C229.41,137.42,225.02,141.1,223.87,146.01L223.87,146.01z M206.6,210.85   c4.32-14.04,15.28-25.37,28.76-29.98c3.92,2.47,8.52,3.89,13.4,3.89c4.77,0,9.37-1.41,13.37-4.04   c14.32,4.5,24.75,15.64,28.86,29.06c1.51,4.92-2.08,9.88-7.22,9.95c-53.15,0.8-66.56,1.04-69.23,1.09   c0.56-0.01,1.11-0.04-0.55-0.04C208.83,220.77,205.08,215.78,206.6,210.85L206.6,210.85z"></path>		<path d="M142.57,98.86v4.87c0,6.29,7.25,9.8,12.19,5.93l25.97-20.36c3.85-3.02,3.85-8.85-0.01-11.86L154.76,57.1   c-1-0.78-2.15-1.23-3.34-1.44c3.65-0.68,6.19-3.77,6.19-7.41V43.7c7.03,0.79,13.56,4.19,18.26,9.59   c4.5,5.18,12.96,2.28,13.29-4.56c0.92-18.6-13.09-34.63-31.55-36.31V7.55c0-6.28-7.23-9.81-12.19-5.93l-25.96,20.35   c-3.85,3.02-3.85,8.85,0,11.87l25.96,20.34c1,0.78,2.15,1.23,3.34,1.44c-3.66,0.68-6.19,3.78-6.19,7.41v4.55   c-7.03-0.79-13.56-4.19-18.26-9.59c-4.5-5.18-12.95-2.29-13.29,4.56C110.11,81.18,124.15,97.18,142.57,98.86L142.57,98.86z    M123.38,28.82c-0.6-0.47-0.6-1.37,0-1.84l25.96-20.35c0.77-0.6,1.89-0.06,1.89,0.92v7.9c0,1.76,1.42,3.18,3.18,3.18   c16.06,0,29.14,13.41,28.37,29.78c-0.06,1.14-1.38,1.56-2.13,0.69c-6.61-7.6-16.17-11.95-26.24-11.95c-1.76,0-3.18,1.43-3.18,3.18   v7.91c0,0.97-1.11,1.53-1.89,0.92L123.38,28.82z M119.51,62.17c6.61,7.6,16.17,11.95,26.24,11.95c1.76,0,3.18-1.43,3.18-3.18   v-7.91c0-0.97,1.11-1.53,1.89-0.92l25.97,20.34c0.6,0.47,0.6,1.37,0,1.84l-25.97,20.36c-0.77,0.6-1.89,0.06-1.89-0.92v-7.91   c0-1.76-1.42-3.18-3.18-3.18c-16.06,0-29.14-13.41-28.37-29.78C117.44,61.72,118.76,61.3,119.51,62.17L119.51,62.17z"></path>	</g></g></svg>