<svg xmlns="http://www.w3.org/2000/svg" xmlns:xlink="http://www.w3.org/1999/xlink" id="Layer_1" x="0px" y="0px" viewBox="0 0 300 300" style="enable-background:new 0 0 300 300;" xml:space="preserve"><style type="text/css">	.st0{fill-rule:evenodd;clip-rule:evenodd;fill:#FFBD1B;}	.st1{fill-rule:evenodd;clip-rule:evenodd;fill:#CCE6FF;}	.st2{fill-rule:evenodd;clip-rule:evenodd;fill:#AEDAFF;}	.st3{fill-rule:evenodd;clip-rule:evenodd;fill:#E7896E;}	.st4{fill-rule:evenodd;clip-rule:evenodd;fill:#3A7AD6;}	.st5{fill-rule:evenodd;clip-rule:evenodd;fill:#FFD16C;}	.st6{fill-rule:evenodd;clip-rule:evenodd;fill:#FFFFFF;}	.st7{fill-rule:evenodd;clip-rule:evenodd;fill:#BA8715;}	.st8{fill-rule:evenodd;clip-rule:evenodd;fill:#99C7FF;}	.st9{fill:#3A7AD6;}	.st10{fill:#FFD16C;}	.st11{fill:#BA8715;}	.st12{fill:#2E5972;}	.st13{fill:#B0475D;}	.st14{fill:#FFBD1B;}	.st15{fill-rule:evenodd;clip-rule:evenodd;fill:#EDEFF1;}	.st16{fill:#99C7FF;}	.st17{fill:#CCE6FF;}	.st18{clip-path:url(#SVGID_00000133510552119244642950000014778472502905375123_);}	.st19{fill:#FEF2E2;}	.st20{fill:#FFE1BA;}	.st21{fill:#0E3D6B;}	.st22{fill:#AEDAFF;}	.st23{fill:#FFFFFF;}	.st24{fill-rule:evenodd;clip-rule:evenodd;fill:#F6B4A8;}	.st25{fill-rule:evenodd;clip-rule:evenodd;fill:#F9C9C0;}	.st26{fill-rule:evenodd;clip-rule:evenodd;fill:#FFC738;}	.st27{fill:#86A0AF;}	.st28{fill:#738B95;}	.st29{fill:none;stroke:#000000;stroke-width:15;stroke-miterlimit:10;}	.st30{fill-rule:evenodd;clip-rule:evenodd;fill:#EB5463;}	.st31{fill-rule:evenodd;clip-rule:evenodd;}	.st32{fill:#FFF6BB;}	.st33{fill:#FFC472;}	.st34{fill:#FDB614;}	.st35{fill:#474747;}	.st36{opacity:0.1;enable-background:new    ;}	.st37{fill:#EBD8AE;}	.st38{fill-rule:evenodd;clip-rule:evenodd;fill:#DACFE6;}	.st39{fill-rule:evenodd;clip-rule:evenodd;fill:#9E4623;}	.st40{opacity:0.7;fill-rule:evenodd;clip-rule:evenodd;fill:#FFFFFF;}	.st41{fill-rule:evenodd;clip-rule:evenodd;fill:#E2F0FA;}	.st42{fill-rule:evenodd;clip-rule:evenodd;fill:#D0E4F2;}	.st43{fill-rule:evenodd;clip-rule:evenodd;fill:#FFC943;}	.st44{fill-rule:evenodd;clip-rule:evenodd;fill:#6BA4E8;}	.st45{fill-rule:evenodd;clip-rule:evenodd;fill:#FFAA16;}	.st46{fill-rule:evenodd;clip-rule:evenodd;fill:#2567B7;}	.st47{fill-rule:evenodd;clip-rule:evenodd;fill:#EBCDCD;}	.st48{fill-rule:evenodd;clip-rule:evenodd;fill:#D1E7FF;}	.st49{fill-rule:evenodd;clip-rule:evenodd;fill:#222124;}	.st50{fill-rule:evenodd;clip-rule:evenodd;fill:#FAD1A2;}	.st51{fill-rule:evenodd;clip-rule:evenodd;fill:#E6E6E6;}	.st52{fill:url(#SVGID_00000152984527789040495360000008913314569387957951_);}	.st53{fill:none;stroke:#211E1F;stroke-width:0.25;stroke-miterlimit:10;}	.st54{fill:url(#SVGID_00000178915623802420066060000010152167404297077438_);}	.st55{fill:url(#SVGID_00000016061235288572283990000016087716897411091866_);}	.st56{fill:url(#SVGID_00000046321391395321566860000016251971914098035115_);}	.st57{fill:url(#SVGID_00000172420406915784826970000010071360590723368606_);}	.st58{fill:#112A4D;}	.st59{fill:url(#SVGID_00000157310524407927990270000002989707149545134777_);}	.st60{fill:url(#SVGID_00000021090623173305504820000000562179719440405391_);}	.st61{fill:url(#SVGID_00000069365471992755937030000007670148175947147425_);}	.st62{fill:url(#SVGID_00000073688017918661887260000000967149765860786311_);}	.st63{fill:url(#SVGID_00000076598867451158384430000014567803661249314477_);}	.st64{fill:url(#SVGID_00000076601999163408358790000004110072900851349911_);}	.st65{fill:url(#SVGID_00000127741919673468125630000008331896782403549630_);}	.st66{fill:url(#SVGID_00000083047098502629997530000012834771829478184347_);}	.st67{fill:url(#SVGID_00000125567281341593787880000003199171875019400326_);}	.st68{fill:url(#SVGID_00000002359615969742220880000004283885107309932206_);}	.st69{fill:url(#SVGID_00000078029785238159114870000013496577690173669281_);}	.st70{fill:url(#SVGID_00000052084558904925002700000002042281623374638734_);}	.st71{fill:url(#SVGID_00000120528033740892489660000013250537097052155044_);}	.st72{fill:url(#SVGID_00000061472350552234003730000012331262705721395601_);}	.st73{fill:url(#SVGID_00000107563536172022092460000006529390370532713109_);}	.st74{fill:url(#SVGID_00000085241713822761458850000014428491209777531778_);}	.st75{fill:url(#SVGID_00000090270661077363788880000003300995226053922236_);}	.st76{fill:url(#SVGID_00000010311850286341983450000001162771879355860134_);}	.st77{fill:url(#SVGID_00000005246311371211092180000006987689804627817403_);}	.st78{fill:url(#SVGID_00000107557528580686548160000002997753870084482719_);}	.st79{fill:url(#SVGID_00000023281728456593671140000013046269864137595306_);}	.st80{fill:url(#SVGID_00000070103884383743809510000000146277669761544833_);}	.st81{fill:url(#SVGID_00000151519251077644397680000000763952164645143487_);}	.st82{fill:url(#SVGID_00000110456077961949072460000004733732537074747570_);}	.st83{fill:url(#SVGID_00000158026366959476299460000013853194542538604188_);}	.st84{fill:#082649;}	.st85{fill:#EFEFEF;}	.st86{fill:#DDDDDD;}	.st87{fill:#629FDD;}	.st88{fill:#FFC943;}	.st89{fill-rule:evenodd;clip-rule:evenodd;fill:#837683;}	.st90{fill-rule:evenodd;clip-rule:evenodd;fill:#685E68;}	.st91{fill-rule:evenodd;clip-rule:evenodd;fill:#E3A76F;}	.st92{fill-rule:evenodd;clip-rule:evenodd;fill:#FFD064;}	.st93{fill-rule:evenodd;clip-rule:evenodd;fill:#ECEFF1;}	.st94{fill-rule:evenodd;clip-rule:evenodd;fill:#D1D1D6;}	.st95{fill-rule:evenodd;clip-rule:evenodd;fill:#F6DCCD;}	.st96{fill-rule:evenodd;clip-rule:evenodd;fill:#F1CBBC;}	.st97{fill-rule:evenodd;clip-rule:evenodd;fill:#B1B1B5;}	.st98{fill-rule:evenodd;clip-rule:evenodd;fill:#242222;}	.st99{fill:#CCD1D9;}	.st100{fill:#DFF6FD;}	.st101{fill:#D5E3F4;}	.st102{fill:#FFEEE6;}	.st103{fill:#FFDFCF;}</style><g>	<g>		<g>			<path class="st0" d="M192.03,70.13v64.65c0,6.66-5.45,12.11-12.11,12.11H53.46c-6.66,0-12.11-5.45-12.11-12.11V70.13    L192.03,70.13z"></path>			<path class="st89" d="M95.87,33.62l-11.47,0V17.79c0-7.13,5.83-12.95,12.95-12.95h38.67c7.13,0,12.96,5.83,12.96,12.95v15.82    l-11.47,0V17.79c0-0.79-0.69-1.49-1.49-1.49H97.35c-0.79,0-1.49,0.69-1.49,1.49L95.87,33.62z"></path>			<path class="st90" d="M95.87,33.62l-11.47,0v0l6.66,0V17.79c0-0.79,0.69-1.49,1.49-1.49h4.8c-0.79,0-1.49,0.69-1.49,1.49V33.62z     M131.22,4.84h4.8c7.13,0,12.96,5.83,12.96,12.95v15.82l-4.8,0V17.79C144.18,10.67,138.35,4.84,131.22,4.84z"></path>			<path class="st91" d="M192.03,70.13v64.65c0,6.66-5.45,12.11-12.11,12.11h-9.61c6.66,0,12.11-5.45,12.11-12.11V70.13    L192.03,70.13z"></path>			<path class="st0" d="M45.12,83.06c-1.33-0.84-2.6-1.74-3.77-2.7c-4.35-3.57-7.37-8.04-7.37-13.9V36.95c0-3.42,2.79-6.2,6.2-6.2    H193.2c3.42,0,6.2,2.79,6.2,6.2v29.51c0,5.86-3.02,10.32-7.37,13.9c-1.17,0.96-2.44,1.86-3.77,2.7    C163.07,98.99,70.13,98.88,45.12,83.06L45.12,83.06z"></path>			<path class="st4" d="M159.88,30.75H73.5v20.17c0,4.28,3.5,7.78,7.78,7.78h70.83c4.28,0,7.78-3.5,7.78-7.78V30.75z"></path>			<path class="st7" d="M182.42,30.75h10.78c3.42,0,6.2,2.79,6.2,6.2v29.51c0,5.86-3.02,10.32-7.37,13.9    c-1.17,0.96-2.44,1.86-3.77,2.7c-1.66,1.05-3.63,2.03-5.84,2.94L182.42,30.75L182.42,30.75z"></path>			<path class="st4" d="M131.94,96.92c0,8.42-6.83,15.24-15.25,15.24c-8.42,0-15.24-6.83-15.24-15.24c0-8.39,6.8-15.24,15.24-15.24    S131.94,88.53,131.94,96.92z"></path>			<path class="st90" d="M131.94,96.92c0,8.42-6.83,15.24-15.25,15.24c-0.82,0-1.62-0.06-2.4-0.19c7.28-1.15,12.84-7.45,12.84-15.06    c0-7.58-5.55-13.9-12.84-15.06c0.78-0.12,1.58-0.19,2.4-0.19C125.14,81.68,131.94,88.53,131.94,96.92z"></path>		</g>		<g>			<path class="st0" d="M216.7,80c5.44,1.29,10.63,3.45,15.39,6.38l10-4.44l11.79,11.79l-4.44,10c2.93,4.76,5.09,9.96,6.38,15.39    l10.2,3.93v16.67l-10.2,3.93c-1.29,5.44-3.45,10.63-6.38,15.39l4.44,10l-11.79,11.79l-10-4.44c-4.76,2.93-9.96,5.09-15.39,6.38    l-3.93,10.2H196.1l-3.93-10.2c-5.44-1.29-10.63-3.45-15.39-6.38l-10,4.44L155,169.03l4.44-10c-2.93-4.76-5.09-9.96-6.38-15.39    l-10.2-3.93v-16.67l10.2-3.93c1.29-5.44,3.45-10.63,6.38-15.39l-4.44-10l11.79-11.79l10,4.44c4.76-2.93,9.95-5.09,15.39-6.38    l3.93-10.2h16.67L216.7,80z"></path>			<path class="st92" d="M176.79,176.38l-10,4.44l-1.55-1.55l9.37-4.16C175.33,175.55,176.05,175.97,176.79,176.38z M216.7,80    c5.36,1.28,10.49,3.39,15.2,6.26c0.06,0.04,0.13,0.08,0.19,0.12l-2.86,1.27c-4.76-2.93-12.13-6.36-17.57-7.65l-3.93-10.2h5.03    L216.7,80z M165.24,83.49l1.55-1.55l10,4.44c-0.73,0.41-1.46,0.83-2.18,1.27L165.24,83.49z M238.61,83.49l3.48-1.55l11.79,11.79    l-4.44,10c2.93,4.76,5.09,9.96,6.38,15.39l10.2,3.93v16.67l-10.2,3.93c-1.29,5.44-3.45,10.63-6.38,15.39l4.44,10l-11.79,11.79    l-3.49-1.55l10.24-10.24l-4.44-10c2.93-4.76,5.09-9.95,6.38-15.39l10.2-3.93v-16.67l-10.2-3.93c-1.29-5.44-3.45-10.63-6.38-15.39    l4.44-10L238.61,83.49z M231.9,176.5c-4.71,2.87-9.83,4.99-15.2,6.26l-3.93,10.2h-5.03l3.93-10.2    c5.44-1.29,12.81-4.72,17.57-7.65l2.86,1.27C232.03,176.41,231.96,176.45,231.9,176.5L231.9,176.5z"></path>			<ellipse class="st93" cx="204.54" cy="131.34" rx="32.5" ry="32.5"></ellipse>			<path class="st94" d="M204.44,98.89c0.77,0,1.53,0.03,2.28,0.08c-16.88,1.17-30.2,15.23-30.2,32.41s13.33,31.23,30.2,32.41    c-0.75,0.05-1.52,0.08-2.28,0.08c-17.94,0-32.49-14.55-32.49-32.49C171.95,113.44,186.5,98.89,204.44,98.89L204.44,98.89z"></path>		</g>		<g>			<path class="st95" d="M52.37,227.57l45.77-26.51c8.59-4.98,17.32-8.5,26.76-5.44c10.53,3.41,27.71,10.74,45.24,13.9    c6.51,2.11,10.56,8.62,8.79,15.23c-1.77,6.61-7.35,10.01-15.23,8.79l6.13,0.98c7.02,1.12,13.47,0.16,19.62-3.42l44-25.63    c34.2-19.92,39.23,10.73,27.85,17.73l-79.85,49.17c-7.34,4.52-15.38,5.58-23.71,3.34L99.82,260.2l-21.45,12.38    c-4.12,2.38-9.43,0.96-11.81-3.16l-17.34-30.04C46.84,235.25,48.26,229.95,52.37,227.57L52.37,227.57z"></path>			<path class="st96" d="M177.89,227.49c-2.45,4.78-7.48,7.09-14.19,6.05c-9.49-2.51-18.96-5.08-28.44-7.62    c-2.54-0.68-4.05-3.29-3.37-5.83c0.68-2.54,3.29-4.05,5.83-3.37L177.89,227.49z"></path>			<path class="st96" d="M52.37,227.57l45.77-26.51c8.59-4.98,17.32-8.5,26.76-5.44c5.63,1.83,13.17,4.77,21.65,7.6L57.89,254.4    l-8.68-15.03C46.84,235.25,48.26,229.95,52.37,227.57z"></path>			<path class="st4" d="M57.69,214.38l36.3,64.13c1.76,3.1,0.65,7.07-2.45,8.83l-12.35,6.99c-3.1,1.76-7.07,0.65-8.83-2.45    l-36.3-64.13c-1.75-3.1-0.65-7.07,2.45-8.83l12.35-6.99C51.96,210.18,55.93,211.28,57.69,214.38L57.69,214.38z"></path>			<path class="st97" d="M76.78,258.44l6.42,11.35l6.35,11.22c1.75,3.09,0.66,7.06-2.43,8.82l4.41-2.5c3.1-1.76,4.2-5.73,2.45-8.83    l-6.37-11.26l-12.8-22.62l-12.81-22.64l-4.31-7.61c-1.52-2.69-4.71-3.87-7.55-3l7.46,13.18l12.8,22.62L76.78,258.44L76.78,258.44    z"></path>		</g>	</g>	<path class="st98" d="M52.78,226.85c0.37,2.44-1.34,4.71-3.76,5.06c-2.45,0.36-4.73-1.33-5.07-3.77c-0.37-2.44,1.31-4.71,3.76-5.06  C50.16,222.72,52.43,224.4,52.78,226.85z M260.57,219.45l-80.88,49.8c-6.18,3.82-12.98,4.77-20.21,2.84l-58.68-15.72  c-1.22-0.33-2.56-0.16-3.67,0.48l-8.14,4.7l-21.18-37.43l32.48-18.8c7.23-4.2,15.06-7.72,23.17-5.1c2.7,0.87,5.81,2,9.42,3.31  c10.39,3.75,23.26,8.41,36.67,10.87c4.18,1.49,6.52,5.52,5.47,9.48c-1.14,4.21-4.27,6.04-9.34,5.47  c-6.49-1.34-12.7-3.11-19.27-4.99c-3.13-0.9-6.38-1.82-9.71-2.72c-2.56-0.69-5.24,0.84-5.92,3.43c-0.68,2.58,0.83,5.23,3.42,5.92  c3.27,0.88,6.46,1.79,9.57,2.67c6.83,1.95,13.27,3.79,20.21,5.21c0.03,0.01,0.06,0.01,0.09,0.01c0.03,0.01,0.06,0.02,0.09,0.03  l5.55,0.9c8.51,1.36,16.06,0.03,23.09-4.06l44.55-25.96c12.36-7.2,21.78-8.07,25.22-2.34C264.9,211.36,263.9,217.41,260.57,219.45  L260.57,219.45z M88.85,281.98c0.09-0.26,0.14-0.78-0.14-1.31l-36.78-64.96c-0.28-0.53-0.77-0.73-1.03-0.81  c-0.11-0.03-0.28-0.06-0.48-0.06c-0.23,0-0.54,0.05-0.83,0.22l-12.5,7.07c-0.54,0.3-0.74,0.78-0.83,1.04  c-0.06,0.26-0.14,0.77,0.17,1.3l36.75,64.96c0.31,0.53,0.8,0.73,1.05,0.81c0.26,0.07,0.77,0.15,1.31-0.16l12.5-7.08  C88.59,282.73,88.79,282.24,88.85,281.98L88.85,281.98z M270.85,202.48c-2.42-4.07-12.41-16.18-38.38-1.05l-44.55,25.96  c-1.54,0.89-3.1,1.59-4.67,2.12c0.43-0.98,0.83-2.02,1.11-3.13c2.39-8.96-2.9-18.3-12.07-21.28c-0.23-0.07-0.43-0.12-0.66-0.16  c-12.73-2.3-25.34-6.85-35.44-10.51c-3.56-1.28-6.89-2.49-9.74-3.41c-11.73-3.8-22.26,0.86-31.03,5.93L63.05,215.7l-2.7-4.75  c-1.48-2.64-3.93-4.55-6.86-5.36c-2.96-0.81-6.04-0.44-8.65,1.05l-12.53,7.08c-2.65,1.5-4.56,3.94-5.35,6.88  c-0.83,2.94-0.46,6.01,1.05,8.66l36.75,64.96c1.51,2.64,3.96,4.55,6.89,5.37c1.03,0.28,2.05,0.42,3.08,0.42  c1.94,0,3.84-0.5,5.58-1.47l12.5-7.08c2.65-1.5,4.56-3.94,5.38-6.88c0.8-2.94,0.43-6.02-1.05-8.66l-3.36-5.93l6.46-3.74l56.74,15.2  c3.22,0.87,6.43,1.3,9.59,1.3c6.41,0,12.56-1.76,18.22-5.23l80.88-49.8C273.41,222.91,275.89,210.9,270.85,202.48L270.85,202.48z   M204.46,105.75c14.12,0,25.62,11.5,25.62,25.63S218.58,157,204.46,157s-25.62-11.5-25.62-25.63S190.34,105.75,204.46,105.75z   M169.16,131.38c0,19.46,15.83,35.3,35.3,35.3s35.3-15.84,35.3-35.3s-15.83-35.3-35.3-35.3S169.16,111.91,169.16,131.38z   M38.83,36.95c0-0.74,0.63-1.37,1.37-1.37h28.47v15.33c0,6.96,5.67,12.62,12.64,12.62h70.8c6.98,0,12.64-5.66,12.64-12.62V35.58  h28.47c0.74,0,1.37,0.63,1.37,1.37v28.27c-1.34,0.45-2.45,1.47-2.99,2.84l-3.02,7.89c-4.21,1.2-8.26,2.88-12.07,5l-7.74-3.44  c-1.82-0.81-3.96-0.41-5.38,1.01l-9.25,9.26c-5.84,0.79-12.13,1.4-18.73,1.79c-2.93-7.45-10.22-12.73-18.68-12.73  c-8.51,0-15.77,5.29-18.7,12.75c-26.96-1.56-44.98-5.92-53.58-12.96c-3.81-3.14-5.61-6.37-5.61-10.16L38.83,36.95L38.83,36.95z   M89.25,17.79c0-4.48,3.64-8.12,8.11-8.12h38.69c4.47,0,8.11,3.64,8.11,8.12v8.11h-1.79v-8.11c0-3.49-2.85-6.33-6.32-6.33H97.36  c-3.47,0-6.32,2.84-6.32,6.33v8.11h-1.79L89.25,17.79L89.25,17.79z M132.69,25.9v-4.76h-31.97v4.76H132.69z M78.34,35.58v15.33  c0,1.6,1.37,2.94,2.96,2.94h70.8c1.62,0,2.96-1.34,2.96-2.94V35.58H78.34z M212.2,81.74c0.57,1.49,1.85,2.6,3.39,2.97  c4.95,1.17,9.65,3.13,13.98,5.8c1.37,0.83,3.05,0.95,4.5,0.3l6.98-3.1l7.09,7.09l-3.1,6.96c-0.65,1.46-0.54,3.15,0.31,4.5  c2.68,4.34,4.61,9.04,5.78,13.98c0.37,1.55,1.48,2.82,2.96,3.39l7.12,2.74v10.03l-7.12,2.74c-1.48,0.57-2.59,1.84-2.96,3.39  c-1.17,4.93-3.13,9.63-5.78,13.97c-0.85,1.36-0.97,3.04-0.31,4.5l3.1,6.97l-7.09,7.08l-6.98-3.09c-1.45-0.65-3.13-0.53-4.5,0.3  c-4.33,2.67-9.02,4.62-13.98,5.79c-1.54,0.37-2.82,1.48-3.39,2.97l-2.73,7.1h-10.02l-2.73-7.1c-0.57-1.49-1.85-2.6-3.39-2.97  c-4.95-1.17-9.65-3.12-13.98-5.79c-1.37-0.83-3.05-0.95-4.53-0.3l-6.95,3.09l-7.09-7.08l3.1-6.96c0.63-1.46,0.51-3.15-0.31-4.5  c-2.68-4.34-4.61-9.04-5.78-13.98c-0.37-1.55-1.48-2.83-2.99-3.39l-7.09-2.74v-10.03l7.09-2.74c1.51-0.57,2.62-1.84,2.99-3.39  c1.17-4.94,3.1-9.64,5.78-13.97c0.83-1.36,0.94-3.04,0.31-4.51l-3.1-6.96l7.09-7.09l6.95,3.1c1.48,0.65,3.16,0.53,4.53-0.3  c4.33-2.67,9.02-4.62,13.98-5.8c1.54-0.37,2.82-1.48,3.39-2.97l2.73-7.1h10.02L212.2,81.74z M106.3,96.93  c0,5.73,4.67,10.4,10.42,10.4c5.72,0,10.39-4.67,10.39-10.4c0-5.74-4.67-10.41-10.39-10.41C110.97,86.52,106.3,91.18,106.3,96.93z   M46.2,134.77c0,4.01,3.27,7.27,7.29,7.27h85.15c-0.37-0.7-0.6-1.49-0.6-2.33v-16.67c0-2,1.22-3.8,3.1-4.52l7.89-3.04  c1.2-4.2,2.88-8.24,5.01-12.07l-2.48-5.56c-4.75,0.56-9.74,1-14.92,1.32c-1.11,10.01-9.62,17.82-19.93,17.82  s-18.82-7.79-19.96-17.8C73.99,97.84,57.3,94.5,46.2,89.07L46.2,134.77L46.2,134.77z M36.52,82.53v52.24  c0,9.35,7.6,16.95,16.97,16.95h97.02c0.97,2.62,2.16,5.16,3.53,7.62l-3.44,7.73c-0.83,1.83-0.4,3.97,1,5.39l11.79,11.78  c1.42,1.42,3.56,1.82,5.38,1l7.74-3.44c3.81,2.12,7.86,3.8,12.07,5.01l3.02,7.89c0.74,1.86,2.53,3.1,4.53,3.1h16.68  c1.99,0,3.79-1.24,4.5-3.1l3.05-7.89c4.18-1.2,8.23-2.87,12.07-5.01l7.72,3.44c1.85,0.81,3.99,0.41,5.41-1l11.79-11.78  c1.39-1.41,1.79-3.56,1-5.39l-3.44-7.73c2.14-3.83,3.81-7.87,5.01-12.07l7.89-3.04c1.85-0.71,3.1-2.51,3.1-4.51v-16.67  c0-2-1.25-3.8-3.1-4.52l-7.89-3.04c-1.2-4.2-2.88-8.24-5.01-12.07l3.44-7.73c0.8-1.83,0.4-3.97-1-5.39l-11.79-11.78  c-1.42-1.41-3.56-1.82-5.41-1.01l-7.72,3.44c-3.84-2.12-7.89-3.8-12.07-5l-3.05-7.89c-0.71-1.87-2.51-3.09-4.5-3.09h-8.54V36.95  c0-6.09-4.95-11.05-11.05-11.05h-39.37v-8.11c0-9.82-8-17.79-17.79-17.79H97.36c-9.79,0-17.79,7.98-17.79,17.79v8.11H40.19  c-6.09,0-11.05,4.95-11.05,11.05v29.51C29.15,72.5,31.65,77.89,36.52,82.53L36.52,82.53z"></path></g></svg>