<svg xmlns="http://www.w3.org/2000/svg" xmlns:xlink="http://www.w3.org/1999/xlink" id="Layer_1" x="0px" y="0px" viewBox="0 0 300 300" style="enable-background:new 0 0 300 300;" xml:space="preserve"><style type="text/css">	.st0{fill-rule:evenodd;clip-rule:evenodd;fill:#FFBD1B;}	.st1{fill-rule:evenodd;clip-rule:evenodd;fill:#CCE6FF;}	.st2{fill-rule:evenodd;clip-rule:evenodd;fill:#AEDAFF;}	.st3{fill-rule:evenodd;clip-rule:evenodd;fill:#E7896E;}	.st4{fill-rule:evenodd;clip-rule:evenodd;fill:#3A7AD6;}	.st5{fill-rule:evenodd;clip-rule:evenodd;fill:#FFD16C;}	.st6{fill-rule:evenodd;clip-rule:evenodd;fill:#FFFFFF;}	.st7{fill-rule:evenodd;clip-rule:evenodd;fill:#BA8715;}	.st8{fill-rule:evenodd;clip-rule:evenodd;fill:#99C7FF;}	.st9{fill:#3A7AD6;}	.st10{fill:#FFD16C;}	.st11{fill:#BA8715;}	.st12{fill:#2E5972;}	.st13{fill:#B0475D;}	.st14{fill:#FFBD1B;}	.st15{fill-rule:evenodd;clip-rule:evenodd;fill:#EDEFF1;}	.st16{fill:#99C7FF;}	.st17{fill:#CCE6FF;}	.st18{clip-path:url(#SVGID_00000011733908463544923850000013901238089821960612_);}	.st19{fill:#FEF2E2;}	.st20{fill:#FFE1BA;}	.st21{fill:#0E3D6B;}	.st22{fill:#AEDAFF;}	.st23{fill:#FFFFFF;}	.st24{fill-rule:evenodd;clip-rule:evenodd;fill:#F6B4A8;}	.st25{fill-rule:evenodd;clip-rule:evenodd;fill:#F9C9C0;}	.st26{fill-rule:evenodd;clip-rule:evenodd;fill:#FFC738;}	.st27{fill:#86A0AF;}	.st28{fill:#738B95;}	.st29{fill:none;stroke:#000000;stroke-width:15;stroke-miterlimit:10;}	.st30{fill-rule:evenodd;clip-rule:evenodd;fill:#EB5463;}	.st31{fill-rule:evenodd;clip-rule:evenodd;}	.st32{fill:#FFF6BB;}	.st33{fill:#FFC472;}	.st34{fill:#FDB614;}	.st35{fill:#474747;}	.st36{opacity:0.1;enable-background:new    ;}	.st37{fill:#EBD8AE;}	.st38{fill-rule:evenodd;clip-rule:evenodd;fill:#DACFE6;}	.st39{fill-rule:evenodd;clip-rule:evenodd;fill:#9E4623;}	.st40{opacity:0.7;fill-rule:evenodd;clip-rule:evenodd;fill:#FFFFFF;}	.st41{fill-rule:evenodd;clip-rule:evenodd;fill:#E2F0FA;}	.st42{fill-rule:evenodd;clip-rule:evenodd;fill:#D0E4F2;}	.st43{fill-rule:evenodd;clip-rule:evenodd;fill:#FFC943;}	.st44{fill-rule:evenodd;clip-rule:evenodd;fill:#6BA4E8;}	.st45{fill-rule:evenodd;clip-rule:evenodd;fill:#FFAA16;}	.st46{fill-rule:evenodd;clip-rule:evenodd;fill:#2567B7;}	.st47{fill-rule:evenodd;clip-rule:evenodd;fill:#EBCDCD;}	.st48{fill-rule:evenodd;clip-rule:evenodd;fill:#D1E7FF;}	.st49{fill-rule:evenodd;clip-rule:evenodd;fill:#222124;}	.st50{fill-rule:evenodd;clip-rule:evenodd;fill:#FAD1A2;}	.st51{fill-rule:evenodd;clip-rule:evenodd;fill:#E6E6E6;}	.st52{fill:url(#SVGID_00000000187720075253217170000010391348173747115408_);}	.st53{fill:none;stroke:#211E1F;stroke-width:0.25;stroke-miterlimit:10;}	.st54{fill:url(#SVGID_00000159459381732503747260000004809815198757927817_);}	.st55{fill:url(#SVGID_00000072979055263296728850000000067010222155591824_);}	.st56{fill:url(#SVGID_00000167373159074266732220000000835293761816494728_);}	.st57{fill:url(#SVGID_00000037654612324460635340000017177646654714262972_);}	.st58{fill:#112A4D;}	.st59{fill:url(#SVGID_00000051344746924236490580000003671611345510278331_);}	.st60{fill:url(#SVGID_00000085966356680942474540000017125494642369994368_);}	.st61{fill:url(#SVGID_00000005986466192815551940000008628847876336360064_);}	.st62{fill:url(#SVGID_00000078011424499313854580000014806219550203290798_);}	.st63{fill:url(#SVGID_00000074435119994691488980000007107749533615934118_);}	.st64{fill:url(#SVGID_00000125570338093372438800000006243047827962244783_);}	.st65{fill:url(#SVGID_00000060751190049696726660000008040141796468640647_);}	.st66{fill:url(#SVGID_00000116947246455494834800000011716295951913422731_);}	.st67{fill:url(#SVGID_00000080165870877392753480000003189677694196674433_);}	.st68{fill:url(#SVGID_00000038372407915506415990000017087866147986014382_);}	.st69{fill:url(#SVGID_00000029023438231780307980000009353806194168301226_);}	.st70{fill:url(#SVGID_00000111877156454328162380000016596979773442374838_);}	.st71{fill:url(#SVGID_00000151533538821685384350000008472367967102212517_);}	.st72{fill:url(#SVGID_00000069358330683630959770000018243058128407730314_);}	.st73{fill:url(#SVGID_00000082334272204900344130000013896972869377578373_);}	.st74{fill:url(#SVGID_00000104682406885809070970000017610662911913740966_);}	.st75{fill:url(#SVGID_00000094617988874642893130000009834826818028805052_);}	.st76{fill:url(#SVGID_00000076591271558387126130000008959963775164029599_);}	.st77{fill:url(#SVGID_00000151537383962489181160000004755674682764382600_);}	.st78{fill:url(#SVGID_00000101811325390182956510000017208650651688412294_);}	.st79{fill:url(#SVGID_00000165206037727947607250000016495869438065969075_);}	.st80{fill:url(#SVGID_00000056410884872030549050000012229899180932293008_);}	.st81{fill:url(#SVGID_00000093876186990078608110000002741086127817342871_);}	.st82{fill:url(#SVGID_00000179623205464096682690000015913487474964233365_);}	.st83{fill:url(#SVGID_00000169530127436995441830000011400706684594745227_);}	.st84{fill:#082649;}	.st85{fill:#EFEFEF;}	.st86{fill:#DDDDDD;}	.st87{fill:#629FDD;}	.st88{fill:#FFC943;}	.st89{fill-rule:evenodd;clip-rule:evenodd;fill:#837683;}	.st90{fill-rule:evenodd;clip-rule:evenodd;fill:#685E68;}	.st91{fill-rule:evenodd;clip-rule:evenodd;fill:#E3A76F;}	.st92{fill-rule:evenodd;clip-rule:evenodd;fill:#FFD064;}	.st93{fill-rule:evenodd;clip-rule:evenodd;fill:#ECEFF1;}	.st94{fill-rule:evenodd;clip-rule:evenodd;fill:#D1D1D6;}	.st95{fill-rule:evenodd;clip-rule:evenodd;fill:#F6DCCD;}	.st96{fill-rule:evenodd;clip-rule:evenodd;fill:#F1CBBC;}	.st97{fill-rule:evenodd;clip-rule:evenodd;fill:#B1B1B5;}	.st98{fill-rule:evenodd;clip-rule:evenodd;fill:#242222;}	.st99{fill:#CCD1D9;}	.st100{fill:#DFF6FD;}	.st101{fill:#D5E3F4;}	.st102{fill:#FFEEE6;}	.st103{fill:#FFDFCF;}</style><g>	<g>		<polygon class="st100" points="238.18,79.65 208.79,65.79 208.79,24.21 238.18,24.21   "></polygon>	</g>	<g>		<polygon class="st101" points="223.62,24.21 223.62,72.78 238.18,79.65 238.18,24.21   "></polygon>	</g>	<g>		<polygon class="st16" points="240.47,241.29 59.54,241.29 59.54,84.16 150.01,13.52 240.47,84.16   "></polygon>	</g>	<g>		<path class="st9" d="M150.01,13.52l-16.99,17.47l87.11,68.01c2.12,1.66,3.36,4.2,3.36,6.89v135.4h16.99V84.16L150.01,13.52z"></path>	</g>	<g>		<rect x="14.32" y="205.14" class="st14" width="27.19" height="90.47"></rect>	</g>	<g>		<rect x="26.95" y="205.14" class="st11" width="14.56" height="90.47"></rect>	</g>	<g>		<rect x="122.87" y="141.81" class="st14" width="54.28" height="99.48"></rect>	</g>	<g>		<path d="M177.15,219.94c-2.43,0-4.39-1.97-4.39-4.39v-69.34h-45.49v59.64c0,2.43-1.97,4.39-4.39,4.39s-4.39-1.97-4.39-4.39v-64.04   c0-2.43,1.97-4.39,4.39-4.39h54.28c2.43,0,4.39,1.97,4.39,4.39v73.73C181.54,217.97,179.57,219.94,177.15,219.94z"></path>	</g>	<g>		<path d="M59.54,219.76c-2.43,0-4.39-1.97-4.39-4.39V95.94c0-2.43,1.97-4.39,4.39-4.39s4.39,1.97,4.39,4.39v119.43   C63.94,217.8,61.97,219.76,59.54,219.76z"></path>	</g>	<g>		<path d="M240.47,136.69c-2.43,0-4.39-1.97-4.39-4.39V95.96c0-2.43,1.97-4.39,4.39-4.39c2.43,0,4.39,1.97,4.39,4.39v36.34   C244.87,134.72,242.9,136.69,240.47,136.69z"></path>	</g>	<g>		<path d="M240.47,215.42c-2.43,0-4.39-1.97-4.39-4.39v-59.7c0-2.43,1.97-4.39,4.39-4.39c2.43,0,4.39,1.97,4.39,4.39v59.7   C244.87,213.46,242.9,215.42,240.47,215.42z"></path>	</g>	<g>		<path class="st102" d="M41.51,283.26h23.02l32.72,9.84c5.53,1.67,11.29,2.51,17.07,2.51h71.38c7.14,0,14.03-2.59,19.4-7.29   l74.88-65.58c6.65-5.82,7.73-16.76,1.96-23.79c-6.05-7.39-16.97-8.41-24.29-2.28l-49.01,40.99c0.5-1.66,0.74-3.42,0.71-5.25   c-0.19-9.42-8.11-16.86-17.54-16.86h-44.16c-7.32,0-14.5-2.27-20.32-6.69c-7.74-5.88-17.38-9.37-27.85-9.37   c-11.67,0-22.33,4.35-30.45,11.51c-3.31,2.92-7.57,4.56-11.99,4.56H41.51V283.26z"></path>	</g>	<g>		<path class="st103" d="M209.36,232.4c-0.19-9.42-8.11-16.86-17.54-16.86h-17.47c9.42,0,17.35,7.44,17.54,16.86   c0.04,1.83-0.21,3.59-0.71,5.25c-2.08,7.06-9.28,12.43-16.59,12.43h17.47c7.31,0,14.51-5.37,16.59-12.43   C209.15,235.99,209.39,234.23,209.36,232.4z"></path>	</g>	<g>		<path class="st103" d="M281.95,198.94c-5.45-6.65-14.85-8.14-22.01-3.9c1.68,1,3.22,2.3,4.54,3.9c5.77,7.03,4.69,17.97-1.96,23.79   l-74.88,65.58c-5.36,4.7-12.26,7.29-19.4,7.29h17.47c7.14,0,14.03-2.59,19.4-7.29l74.88-65.58   C286.64,216.91,287.72,205.97,281.95,198.94z"></path>	</g>	<g>		<path d="M192.06,254.47h-56.23c-2.43,0-4.39-1.97-4.39-4.39c0-2.43,1.97-4.39,4.39-4.39h56.23c5.4,0,10.84-4.08,12.37-9.28   c0.69-2.33,3.13-3.66,5.46-2.97c2.33,0.69,3.66,3.13,2.97,5.46C210.24,247.77,201.3,254.47,192.06,254.47z"></path>	</g>	<g>		<path d="M185.71,300h-71.38c-6.22,0-12.39-0.91-18.33-2.7l-32.1-9.65H41.51c-2.43,0-4.39-1.97-4.39-4.39s1.97-4.39,4.39-4.39   h23.02c0.43,0,0.85,0.06,1.27,0.19l32.72,9.84c5.13,1.54,10.44,2.32,15.8,2.32h71.38c6.07,0,11.93-2.2,16.5-6.2l74.88-65.58   c4.96-4.34,5.64-12.61,1.46-17.7c-2.18-2.66-5.26-4.3-8.68-4.62c-3.42-0.32-6.76,0.72-9.39,2.92l-49.01,41   c-1.49,1.25-3.62,1.37-5.24,0.3c-1.62-1.07-2.35-3.07-1.79-4.93c0.37-1.24,0.55-2.55,0.52-3.9c-0.14-6.92-6.03-12.55-13.14-12.55   h-44.16c-8.38,0-16.54-2.7-22.98-7.59c-7.3-5.55-16.01-8.48-25.19-8.48c-10.15,0-19.93,3.7-27.55,10.41   c-4.14,3.65-9.43,5.66-14.89,5.66H41.51c-2.43,0-4.39-1.97-4.39-4.39c0-2.43,1.97-4.39,4.39-4.39h15.54   c3.32,0,6.55-1.23,9.08-3.46c9.22-8.13,21.06-12.6,33.36-12.6c11.12,0,21.67,3.55,30.51,10.27c4.92,3.74,11.19,5.8,17.66,5.8   h44.16c10.39,0,19.23,7.29,21.41,16.94l41.6-34.8c4.45-3.72,10.08-5.47,15.85-4.93c5.77,0.54,10.98,3.31,14.66,7.8   c7.18,8.75,6.05,22.43-2.47,29.89L208,291.62C201.83,297.02,193.91,300,185.71,300z"></path>	</g>	<g>		<path d="M41.51,300H14.32c-2.43,0-4.39-1.97-4.39-4.39v-36c0-2.43,1.97-4.39,4.39-4.39s4.39,1.97,4.39,4.39v31.61h18.4v-81.68   h-18.4v31.03c0,2.43-1.97,4.39-4.39,4.39s-4.39-1.97-4.39-4.39v-35.42c0-2.43,1.97-4.39,4.39-4.39h27.19   c2.43,0,4.39,1.97,4.39,4.39v90.47C45.9,298.03,43.94,300,41.51,300z"></path>	</g>	<g>		<path d="M238.18,75.39c-2.43,0-4.39-1.97-4.39-4.39V28.6h-20.6v19.38c0,2.43-1.97,4.39-4.39,4.39c-2.43,0-4.39-1.97-4.39-4.39   V24.21c0-2.43,1.97-4.39,4.39-4.39h29.39c2.43,0,4.39,1.97,4.39,4.39V71C242.57,73.42,240.6,75.39,238.18,75.39z"></path>	</g>	<g>		<rect x="195.24" y="141.81" class="st9" width="28.24" height="36.19"></rect>	</g>	<g>		<path d="M223.48,182.39h-28.24c-2.43,0-4.39-1.97-4.39-4.39v-36.19c0-2.43,1.97-4.39,4.39-4.39h28.24c2.43,0,4.39,1.97,4.39,4.39   V178C227.88,180.43,225.91,182.39,223.48,182.39z M199.63,173.6h19.45v-27.4h-19.45V173.6z"></path>	</g>	<g>		<rect x="77.63" y="141.81" class="st9" width="28.24" height="36.19"></rect>	</g>	<g>		<path d="M105.88,182.39H77.63c-2.43,0-4.39-1.97-4.39-4.39v-36.19c0-2.43,1.97-4.39,4.39-4.39h28.24c2.43,0,4.39,1.97,4.39,4.39   V178C110.27,180.43,108.3,182.39,105.88,182.39z M82.03,173.6h19.45v-27.4H82.03V173.6z"></path>	</g>	<g>		<rect x="201.44" y="6.11" class="st11" width="44.09" height="18.09"></rect>	</g>	<g>		<rect x="230.96" y="6.11" class="st11" width="14.56" height="18.09"></rect>	</g>	<g>		<path d="M245.53,28.6h-44.09c-2.43,0-4.39-1.97-4.39-4.39V6.11c0-2.43,1.97-4.39,4.39-4.39h44.09c2.43,0,4.39,1.97,4.39,4.39   v18.09C249.92,26.64,247.95,28.6,245.53,28.6z M205.83,19.81h35.3v-9.3h-35.3V19.81z"></path>	</g>	<g>		<rect x="122.87" y="69.44" class="st14" width="54.28" height="44.14"></rect>	</g>	<g>		<path d="M177.15,117.98h-54.28c-2.43,0-4.39-1.97-4.39-4.39V69.44c0-2.43,1.97-4.39,4.39-4.39h54.28c2.43,0,4.39,1.97,4.39,4.39   v44.14C181.54,116.01,179.57,117.98,177.15,117.98z M127.26,109.19h45.49V73.83h-45.49V109.19z"></path>	</g>	<g>		<path d="M150.01,117.98c-2.43,0-4.39-1.97-4.39-4.39V69.44c0-2.43,1.97-4.39,4.39-4.39c2.43,0,4.39,1.97,4.39,4.39v44.14   C154.4,116.01,152.43,117.98,150.01,117.98z"></path>	</g>	<g>		<path d="M177.15,95.91h-54.28c-2.43,0-4.39-1.97-4.39-4.39s1.97-4.39,4.39-4.39h54.28c2.43,0,4.39,1.97,4.39,4.39   S179.57,95.91,177.15,95.91z"></path>	</g>	<g>		<g>			<path class="st14" d="M261.99,112.8L150.01,25.1l-112,87.71c-3.96,3.1-9.69,2.41-12.8-1.56c-3.1-3.96-2.41-9.69,1.56-12.8    L144.39,6.34c3.3-2.59,7.94-2.59,11.24,0l117.61,92.11c3.96,3.1,4.66,8.83,1.56,12.8C272.99,113.54,267.61,116.57,261.99,112.8z"></path>		</g>	</g>	<g>		<g>			<path d="M32.42,119.14c-0.55,0-1.11-0.03-1.66-0.1c-3.58-0.44-6.78-2.24-9.01-5.09c-2.22-2.84-3.21-6.37-2.77-9.96    c0.44-3.58,2.24-6.78,5.08-9.01L78.5,52.35c1.91-1.5,4.67-1.16,6.17,0.75c1.5,1.91,1.16,4.67-0.75,6.17l-54.44,42.64    c-0.99,0.78-1.62,1.9-1.77,3.15c-0.15,1.25,0.19,2.49,0.97,3.48c0.78,1,1.9,1.63,3.15,1.78c1.25,0.16,2.49-0.19,3.48-0.97    l112-87.71c1.59-1.25,3.83-1.25,5.42,0l111.84,87.6c3.91,2.51,6.75-0.66,6.78-0.7c1.6-2.05,1.24-5.02-0.81-6.63L152.92,9.8    c-1.71-1.34-4.11-1.34-5.82,0L98.91,47.53c-1.91,1.5-4.67,1.16-6.17-0.75c-1.5-1.91-1.16-4.67,0.75-6.17l48.18-37.73    c4.9-3.84,11.76-3.84,16.66,0l117.6,92.11c5.86,4.59,6.9,13.1,2.31,18.96c-3.2,4.09-11.12,7.57-18.71,2.51    c-0.09-0.06-0.18-0.13-0.27-0.19L150.01,30.68L40.72,116.27C38.32,118.15,35.42,119.14,32.42,119.14z"></path>		</g>	</g></g></svg>