<svg xmlns="http://www.w3.org/2000/svg" xmlns:xlink="http://www.w3.org/1999/xlink" id="Layer_1" x="0px" y="0px" viewBox="0 0 300 300" style="enable-background:new 0 0 300 300;" xml:space="preserve"><style type="text/css">	.st0{fill-rule:evenodd;clip-rule:evenodd;fill:#FFBD1B;}	.st1{fill-rule:evenodd;clip-rule:evenodd;fill:#CCE6FF;}	.st2{fill-rule:evenodd;clip-rule:evenodd;fill:#AEDAFF;}	.st3{fill-rule:evenodd;clip-rule:evenodd;fill:#E7896E;}	.st4{fill-rule:evenodd;clip-rule:evenodd;fill:#3A7AD6;}	.st5{fill-rule:evenodd;clip-rule:evenodd;fill:#FFD16C;}	.st6{fill-rule:evenodd;clip-rule:evenodd;fill:#FFFFFF;}	.st7{fill-rule:evenodd;clip-rule:evenodd;fill:#BA8715;}	.st8{fill-rule:evenodd;clip-rule:evenodd;fill:#99C7FF;}	.st9{fill:#3A7AD6;}	.st10{fill:#FFD16C;}	.st11{fill:#BA8715;}	.st12{fill:#2E5972;}	.st13{fill:#B0475D;}	.st14{fill:#FFBD1B;}	.st15{fill-rule:evenodd;clip-rule:evenodd;fill:#EDEFF1;}	.st16{fill:#99C7FF;}	.st17{fill:#CCE6FF;}	.st18{clip-path:url(#SVGID_00000104691326890281043040000011411109393659100821_);}	.st19{fill:#FEF2E2;}	.st20{fill:#FFE1BA;}	.st21{fill:#0E3D6B;}	.st22{fill:#AEDAFF;}	.st23{fill:#FFFFFF;}	.st24{fill-rule:evenodd;clip-rule:evenodd;fill:#F6B4A8;}	.st25{fill-rule:evenodd;clip-rule:evenodd;fill:#F9C9C0;}	.st26{fill-rule:evenodd;clip-rule:evenodd;fill:#FFC738;}	.st27{fill:#86A0AF;}	.st28{fill:#738B95;}	.st29{fill:none;stroke:#000000;stroke-width:15;stroke-miterlimit:10;}	.st30{fill-rule:evenodd;clip-rule:evenodd;fill:#EB5463;}	.st31{fill-rule:evenodd;clip-rule:evenodd;}	.st32{fill:#FFF6BB;}	.st33{fill:#FFC472;}	.st34{fill:#FDB614;}	.st35{fill:#474747;}	.st36{opacity:0.1;enable-background:new    ;}	.st37{fill:#EBD8AE;}	.st38{fill-rule:evenodd;clip-rule:evenodd;fill:#DACFE6;}	.st39{fill-rule:evenodd;clip-rule:evenodd;fill:#9E4623;}	.st40{opacity:0.7;fill-rule:evenodd;clip-rule:evenodd;fill:#FFFFFF;}	.st41{fill-rule:evenodd;clip-rule:evenodd;fill:#E2F0FA;}	.st42{fill-rule:evenodd;clip-rule:evenodd;fill:#D0E4F2;}	.st43{fill-rule:evenodd;clip-rule:evenodd;fill:#FFC943;}	.st44{fill-rule:evenodd;clip-rule:evenodd;fill:#6BA4E8;}	.st45{fill-rule:evenodd;clip-rule:evenodd;fill:#FFAA16;}	.st46{fill-rule:evenodd;clip-rule:evenodd;fill:#2567B7;}	.st47{fill-rule:evenodd;clip-rule:evenodd;fill:#EBCDCD;}	.st48{fill-rule:evenodd;clip-rule:evenodd;fill:#D1E7FF;}	.st49{fill-rule:evenodd;clip-rule:evenodd;fill:#222124;}	.st50{fill-rule:evenodd;clip-rule:evenodd;fill:#FAD1A2;}	.st51{fill-rule:evenodd;clip-rule:evenodd;fill:#E6E6E6;}	.st52{fill:url(#SVGID_00000125561856311066321160000009281943094136039312_);}	.st53{fill:none;stroke:#211E1F;stroke-width:0.25;stroke-miterlimit:10;}	.st54{fill:url(#SVGID_00000091699315037913497590000003807529608480907950_);}	.st55{fill:url(#SVGID_00000049942779290044449460000015951524549150608546_);}	.st56{fill:url(#SVGID_00000158022572775387154900000006376210062124577184_);}	.st57{fill:url(#SVGID_00000152971415499363897700000007372217331711623857_);}	.st58{fill:#112A4D;}	.st59{fill:url(#SVGID_00000183965305834033155110000008376218489080720771_);}	.st60{fill:url(#SVGID_00000138549259650755806900000007843207172859603897_);}	.st61{fill:url(#SVGID_00000146500626719623795410000016991226429675194502_);}	.st62{fill:url(#SVGID_00000045579085680586290450000015768496157050373006_);}	.st63{fill:url(#SVGID_00000134933974640345968340000002250119672506111391_);}	.st64{fill:url(#SVGID_00000115498066493666817070000004624115681219203230_);}	.st65{fill:url(#SVGID_00000109738987683563798200000012010717914381070243_);}	.st66{fill:url(#SVGID_00000075858228493751191760000003742940685920590480_);}	.st67{fill:url(#SVGID_00000109742280206721032480000003062289833737531056_);}	.st68{fill:url(#SVGID_00000165951507422184696900000010531464735118436748_);}	.st69{fill:url(#SVGID_00000060717400206801730360000004442159335955815571_);}	.st70{fill:url(#SVGID_00000039093923001165440870000000009070319345448116_);}	.st71{fill:url(#SVGID_00000019647885104426240010000013330678147893873544_);}	.st72{fill:url(#SVGID_00000010286077276842521720000001916538289231537569_);}	.st73{fill:url(#SVGID_00000036211310285099655540000002821055870633922222_);}	.st74{fill:url(#SVGID_00000164510035534904554310000012010429960734094484_);}	.st75{fill:url(#SVGID_00000060727533223216517000000016916613931973652647_);}	.st76{fill:url(#SVGID_00000065066287208762260860000007478716718886271123_);}	.st77{fill:url(#SVGID_00000109011709945432947690000008658342828524872852_);}	.st78{fill:url(#SVGID_00000137853521462445361920000010189482609315268527_);}	.st79{fill:url(#SVGID_00000117648478242760511120000004209275487426876342_);}	.st80{fill:url(#SVGID_00000023977231773585016120000002994165007091353986_);}	.st81{fill:url(#SVGID_00000097485942715420967140000009763576960043729322_);}	.st82{fill:url(#SVGID_00000128474933934243423250000005750650275230387377_);}	.st83{fill:url(#SVGID_00000158745377528821569780000001706703165005981361_);}	.st84{fill:#082649;}	.st85{fill:#EFEFEF;}	.st86{fill:#DDDDDD;}	.st87{fill:#629FDD;}	.st88{fill:#FFC943;}	.st89{fill-rule:evenodd;clip-rule:evenodd;fill:#837683;}	.st90{fill-rule:evenodd;clip-rule:evenodd;fill:#685E68;}	.st91{fill-rule:evenodd;clip-rule:evenodd;fill:#E3A76F;}	.st92{fill-rule:evenodd;clip-rule:evenodd;fill:#FFD064;}	.st93{fill-rule:evenodd;clip-rule:evenodd;fill:#ECEFF1;}	.st94{fill-rule:evenodd;clip-rule:evenodd;fill:#D1D1D6;}	.st95{fill-rule:evenodd;clip-rule:evenodd;fill:#F6DCCD;}	.st96{fill-rule:evenodd;clip-rule:evenodd;fill:#F1CBBC;}	.st97{fill-rule:evenodd;clip-rule:evenodd;fill:#B1B1B5;}	.st98{fill-rule:evenodd;clip-rule:evenodd;fill:#242222;}	.st99{fill:#CCD1D9;}	.st100{fill:#DFF6FD;}	.st101{fill:#D5E3F4;}	.st102{fill:#FFEEE6;}	.st103{fill:#FFDFCF;}</style><g>	<path class="st47" d="M200.11,76.97c0-1.01-0.81-1.82-1.82-1.82h-4.53l-0.65-1.42c-1.68-3.7-5.36-6.1-9.44-6.1  c-4.08,0-7.76,2.4-9.44,6.1l-0.65,1.42h-6.77l-0.63-1.49c-1.62-3.85-5.39-6.38-9.58-6.38c-3.96,0-7.55,2.27-9.3,5.8l-1.66,3.35  l-2.39-2.87c-0.4-0.49-0.7-1.04-0.88-1.65l-3.49-11.91h49.81c0.81,0,1.52-0.53,1.75-1.31l8.13-27.77c0.16-0.55,0.05-1.15-0.29-1.61  c-0.34-0.46-0.89-0.73-1.46-0.73h-66.91l-2.23-7.83c-1.01-3.55-4.15-5.91-7.85-5.91h-4.35c-1.01,0-1.82,0.81-1.82,1.82  c0,1,0.82,1.82,1.82,1.82h4.35c2.05,0,3.78,1.3,4.34,3.27l10.85,38l3.85,13.17c0.83,2.82,3.04,4.96,5.91,5.64l1.41,0.33l0.38,1.4  c1.2,4.53,5.32,7.72,10.02,7.72c4.61,0,8.67-3.06,9.96-7.48l0.51-1.75h6.09l0.47,1.82c1.18,4.55,5.31,7.77,10.03,7.77  c4.72,0,8.84-3.21,10.03-7.77l0.47-1.82h4.12C199.29,78.79,200.11,77.97,200.11,76.97L200.11,76.97z"></path>	<path class="st4" d="M136.68,232.17c0,34.06-27.7,61.76-61.76,61.76s-61.76-27.7-61.76-61.76c0-34.05,27.7-61.76,61.76-61.76  S136.68,198.12,136.68,232.17z"></path>	<path class="st8" d="M280.61,244.18c3.44,0,6.23,2.8,6.23,6.24v6.24H135.66l1.11-3.22c0.83-2.4,1.51-4.86,2.05-7.34l0.41-1.91  H280.61z"></path>	<path class="st4" d="M48.05,111.38c-3.14,0-5.69-2.55-5.69-5.69c0-3.14,2.55-5.69,5.69-5.69h228.23c3.14,0,5.69,2.55,5.69,5.69  c0,3.14-2.55,5.69-5.69,5.69H48.05z"></path>	<path class="st43" d="M230.73,96.36H93.6V11.09c0-2.74,2.27-5.02,5.02-5.02h127.11c2.74,0,5.02,2.27,5.02,5.02L230.73,96.36  L230.73,96.36z"></path>	<path class="st47" d="M79.8,239.35v-7.46c0-1-0.82-1.82-1.82-1.82s-1.82,0.82-1.82,1.82v7.46c0,4.76-3.87,8.62-8.63,8.62  s-8.63-3.86-8.63-8.62v-7.46c0-1-0.82-1.82-1.82-1.82c-1.01,0-1.82,0.81-1.82,1.82v7.46c0,6.77,5.51,12.27,12.27,12.27  C74.29,251.62,79.8,246.12,79.8,239.35z"></path>	<path class="st43" d="M89.48,224.25l2.41,41.62c0.09,1.55-0.51,3.03-1.57,4.15c-1.21,1.29-2.96,2.04-4.74,2.04H49.45  c-1.77,0-3.52-0.75-4.74-2.04c-1.06-1.12-1.66-2.6-1.57-4.15l2.41-41.62H89.48z"></path>	<path class="st7" d="M93.02,222.32c-0.05-0.97-0.86-1.71-1.82-1.71H59.5l0.85-14.69h9.69v2.44c0,1.01,0.81,1.82,1.82,1.82  c1.01,0,1.82-0.81,1.82-1.82v-2.44h17.25v2.44c0,1.01,0.81,1.82,1.82,1.82c1.01,0,1.82-0.81,1.82-1.82v-2.44h9.69l2.41,41.63  c0.09,1.55-0.51,3.02-1.57,4.15c-1.21,1.29-2.96,2.04-4.74,2.04h-5.54L93.02,222.32z"></path>	<g>		<path class="st7" d="M73.82,199.43c0.72-4.12,4.3-7.15,8.5-7.15c4.19,0,7.78,3.03,8.5,7.15l0.49,2.84H73.32L73.82,199.43z"></path>		<path class="st43" d="M190.4,78c0,3.72-3.02,6.73-6.73,6.73s-6.73-3.01-6.73-6.73c0-3.72,3.02-6.73,6.73-6.73   S190.4,74.28,190.4,78z"></path>		<path class="st43" d="M163.34,77.64c0,3.72-3.02,6.73-6.73,6.73s-6.73-3.02-6.73-6.73c0-3.71,3.02-6.73,6.73-6.73   C160.32,70.91,163.34,73.93,163.34,77.64z"></path>		<path class="st43" d="M133.88,42.42l-2.91-10.2h29.91v10.2H133.88z"></path>		<path class="st43" d="M160.87,46.06v10.28h-23.02l-2.93-10.28H160.87z"></path>		<path class="st43" d="M164.51,46.06h25.83l-3.01,10.28h-22.83V46.06z"></path>		<path class="st43" d="M164.51,42.42v-10.2h29.88l-2.98,10.2H164.51z"></path>	</g>	<path class="st8" d="M140.32,232.17c0-36.06-29.34-65.4-65.4-65.4c-0.77,0-1.52,0.02-2.29,0.04l-2.5,0.08v-13.83l3.13,0.94  c1.73,0.52,3.52,0.78,5.33,0.78c5.83,0,11.27-2.73,14.78-7.37l1.94-2.55l1.94,2.55c3.52,4.63,8.95,7.37,14.78,7.37  c5.83,0,11.27-2.73,14.78-7.37l1.94-2.55l1.94,2.55c3.52,4.63,8.95,7.37,14.78,7.37s11.27-2.73,14.78-7.37l1.94-2.55l1.94,2.55  c3.52,4.63,8.95,7.37,14.78,7.37c5.83,0,11.27-2.73,14.78-7.37l1.94-2.55l1.94,2.55c3.52,4.63,8.95,7.37,14.78,7.37  c5.83,0,11.27-2.73,14.78-7.37l1.94-2.55l1.94,2.55c3.52,4.63,8.95,7.37,14.78,7.37c1.8,0,3.6-0.26,5.33-0.78l3.13-0.94v87.48  H139.83l0.23-2.64C140.23,235.99,140.32,234.08,140.32,232.17L140.32,232.17z"></path>	<path class="st4" d="M64.44,167.61c-4.7,0.76-9.32,2.03-13.74,3.8l-3.33,1.34v-57.72h12.66v21.21c0,5.06,2.06,9.84,5.7,13.35  l0.75,0.72v16.98L64.44,167.61z"></path>	<path class="st4" d="M63.67,136.23v-21.21h29.79v21.21c0,8.22-6.68,14.89-14.9,14.89C70.36,151.12,63.67,144.45,63.67,136.23z"></path>	<path class="st43" d="M97.11,136.23v-21.21h29.79v21.21c0,8.22-6.68,14.89-14.9,14.89C103.8,151.12,97.11,144.45,97.11,136.23z"></path>	<path class="st4" d="M130.55,136.23v-21.21h29.79v21.21c0,8.22-6.68,14.89-14.9,14.89C137.23,151.12,130.55,144.45,130.55,136.23z"></path>	<path class="st43" d="M163.99,136.23v-21.21h29.79v21.21c0,8.22-6.68,14.89-14.9,14.89C170.67,151.12,163.99,144.45,163.99,136.23z  "></path>	<path class="st4" d="M197.42,136.23v-21.21h29.79v21.21c0,8.22-6.68,14.89-14.9,14.89C204.11,151.12,197.42,144.45,197.42,136.23z"></path>	<path class="st43" d="M230.86,136.23v-21.21h29.79v21.21c0,8.22-6.68,14.89-14.9,14.89C237.55,151.12,230.86,144.45,230.86,136.23z  "></path>	<path class="st4" d="M258.6,149.59c3.64-3.51,5.7-8.29,5.7-13.35v-21.21h12.66v125.51h-19.11V150.3L258.6,149.59z"></path>	<path class="st8" d="M234.38,41.35h13.58c6.83,0,12.39,5.56,12.39,12.39v42.62h-25.97L234.38,41.35z"></path>	<path class="st8" d="M89.96,96.36H63.99V53.74c0-6.83,5.56-12.39,12.39-12.39h13.58V96.36z"></path>	<path class="st48" d="M183.04,193.81c0.26,0.73,0.95,1.21,1.72,1.21c0.21,0,0.41-0.04,0.6-0.1l38.09-13.37  c0.95-0.33,1.45-1.37,1.12-2.32c-0.33-0.95-1.37-1.45-2.33-1.12l-38.09,13.37C183.21,191.82,182.71,192.86,183.04,193.81  L183.04,193.81z"></path>	<path class="st48" d="M153.96,201.45v-31.41h40.67l-28,9.83c-0.95,0.33-1.45,1.37-1.12,2.33c0.26,0.73,0.95,1.22,1.72,1.22  c0.21,0,0.41-0.04,0.6-0.1l37.8-13.27h28.31v31.41L153.96,201.45z"></path>	<path class="st43" d="M235.76,205.09c1.01,0,1.82-0.81,1.82-1.82v-35.05c0-1.01-0.81-1.82-1.82-1.82h-83.62  c-1.01,0-1.82,0.81-1.82,1.82v35.05c0,1.01,0.81,1.82,1.82,1.82H235.76z"></path>	<path class="st49" d="M82.23,231.89v7.46c0,8.11-6.6,14.7-14.7,14.7s-14.7-6.59-14.7-14.7v-7.46c0-2.34,1.9-4.25,4.25-4.25  s4.25,1.91,4.25,4.25v7.46c0,3.42,2.78,6.19,6.2,6.19s6.2-2.78,6.2-6.19v-7.46c0-2.34,1.9-4.25,4.25-4.25  C80.32,227.64,82.23,229.54,82.23,231.89z M103.35,250.02c0.45-0.48,0.97-1.27,0.91-2.34l-2.28-39.34h-4.97v0.01  c0,2.35-1.9,4.25-4.25,4.25c-2.35,0-4.25-1.9-4.25-4.25v-0.01H76.11v0.01c0,2.35-1.9,4.25-4.25,4.25s-4.25-1.9-4.25-4.25v-0.01  h-4.97l-0.57,9.83H91.2c2.25,0,4.11,1.76,4.24,4l1.69,29.13h3.24C101.48,251.3,102.59,250.82,103.35,250.02z M88.56,268.35  c0.45-0.48,0.97-1.27,0.91-2.34l-2.28-39.33H47.85l-2.28,39.33c-0.06,1.07,0.46,1.86,0.91,2.34c0.76,0.8,1.87,1.28,2.97,1.28h36.14  C86.69,269.64,87.8,269.16,88.56,268.35z M82.31,194.7c3.05,0,5.59,2.22,6.1,5.14h-12.2C76.71,196.93,79.26,194.7,82.31,194.7z   M110.23,203.84c-0.13-2.25-1.99-4-4.24-4h-9.02c-0.55-7.62-6.91-13.64-14.66-13.64s-14.11,6.02-14.66,13.64h-9.02  c-2.25,0-4.12,1.76-4.24,4l-0.83,14.33h-9.71c-2.25,0-4.11,1.76-4.24,4l-2.51,43.34c-0.18,3.2,0.96,6.28,3.22,8.67  c2.37,2.51,5.7,3.95,9.15,3.95h36.14c3.44,0,6.78-1.44,9.15-3.95c2.26-2.39,3.4-5.47,3.22-8.67l-0.33-5.71h2.75  c3.44,0,6.78-1.44,9.15-3.95c2.26-2.39,3.4-5.47,3.21-8.67L110.23,203.84z M158.44,34.65v5.34h-22.73l-1.52-5.34H158.44z   M189.6,39.99h-22.65v-5.34h24.22L189.6,39.99z M166.94,53.91v-5.42h20.17l-1.59,5.42H166.94z M156.61,73.34  c2.37,0,4.31,1.93,4.31,4.3c0,2.37-1.93,4.31-4.31,4.31s-4.31-1.93-4.31-4.31C152.3,75.27,154.23,73.34,156.61,73.34z   M183.66,73.69c2.37,0,4.31,1.93,4.31,4.31s-1.93,4.3-4.31,4.3s-4.31-1.93-4.31-4.3S181.29,73.69,183.66,73.69z M138.13,48.49h20.3  v5.42h-18.76L138.13,48.49z M115.49,20.91h4.35c0.97,0,1.74,0.58,2,1.51l10.85,38.01l3.86,13.17c1.09,3.73,4.04,6.46,7.68,7.32  c1.46,5.47,6.44,9.52,12.36,9.52c5.82,0,10.74-3.9,12.29-9.23h2.39c1.43,5.5,6.43,9.58,12.38,9.58c5.95,0,10.95-4.08,12.38-9.58  h2.24c2.35,0,4.25-1.91,4.25-4.25c0-2.35-1.9-4.25-4.25-4.25h-2.97c-2.02-4.43-6.47-7.52-11.65-7.52c-5.17,0-9.63,3.09-11.65,7.52  h-3.59c-1.94-4.62-6.5-7.88-11.82-7.88c-5.03,0-9.38,2.92-11.48,7.15c-0.18-0.22-0.33-0.48-0.41-0.78l-2.57-8.81h46.57  c1.89,0,3.55-1.24,4.08-3.05l8.13-27.76c0.38-1.29,0.13-2.67-0.68-3.75c-0.8-1.07-2.06-1.7-3.4-1.7h-65.08l-1.73-6.07  c-1.31-4.59-5.4-7.68-10.18-7.68h-4.35c-2.35,0-4.25,1.9-4.25,4.25C111.24,19,113.15,20.91,115.49,20.91L115.49,20.91z   M226.86,178.43c0.78,2.21-0.39,4.64-2.61,5.42l-38.09,13.37c-0.47,0.16-0.94,0.24-1.41,0.24c-1.76,0-3.4-1.09-4.01-2.84  c-0.78-2.22,0.39-4.64,2.61-5.42l38.09-13.37C223.66,175.04,226.08,176.21,226.86,178.43L226.86,178.43z M156.39,172.47v26.55  h75.12v-26.55h-25.46l-37.4,13.13c-0.47,0.16-0.94,0.24-1.41,0.24c-1.76,0-3.39-1.09-4.01-2.84c-0.78-2.22,0.39-4.65,2.61-5.42  l14.55-5.11H156.39z M152.14,207.52h83.62c2.35,0,4.25-1.9,4.25-4.25v-35.05c0-2.34-1.9-4.25-4.25-4.25h-83.62  c-2.35,0-4.25,1.91-4.25,4.25v35.05C147.89,205.62,149.79,207.52,152.14,207.52z M284.41,254.22H139.07  c0.85-2.48,1.57-5.02,2.13-7.62h139.41c2.1,0,3.8,1.71,3.8,3.81L284.41,254.22L284.41,254.22z M74.91,291.5  c32.71,0,59.33-26.62,59.33-59.33c0-32.71-26.62-59.33-59.33-59.33s-59.33,26.62-59.33,59.33C15.59,264.88,42.2,291.5,74.91,291.5z   M49.8,117.46h7.8v18.78c0,5.93,2.48,11.28,6.45,15.1v13.88c-4.95,0.8-9.72,2.13-14.25,3.95V117.46z M48.05,102.43h228.23  c1.8,0,3.26,1.46,3.26,3.26c0,1.8-1.46,3.26-3.26,3.26H48.05c-1.8,0-3.26-1.46-3.26-3.26C44.79,103.89,46.25,102.43,48.05,102.43z   M66.42,53.74c0-5.49,4.47-9.96,9.96-9.96h11.15v50.15H66.42L66.42,53.74z M98.61,8.5c-1.4,0-2.59,1.18-2.59,2.59v82.84H228.3  V11.09c0-1.4-1.18-2.59-2.59-2.59L98.61,8.5z M247.96,43.78c5.49,0,9.96,4.47,9.96,9.96v40.19h-21.11V43.78H247.96z M260.28,151.34  c3.97-3.82,6.45-9.18,6.45-15.1v-18.78h7.8v120.65h-14.25V151.34z M124.48,136.23c0,6.87-5.59,12.46-12.47,12.46  s-12.47-5.59-12.47-12.46v-18.78h24.94V136.23z M157.91,136.23c0,6.87-5.59,12.46-12.47,12.46s-12.47-5.59-12.47-12.46v-18.78  h24.94V136.23z M191.35,136.23c0,6.87-5.59,12.46-12.47,12.46c-6.87,0-12.47-5.59-12.47-12.46v-18.78h24.94V136.23z M224.79,136.23  c0,6.87-5.59,12.46-12.47,12.46s-12.47-5.59-12.47-12.46v-18.78h24.94V136.23z M258.22,136.23c0,6.87-5.59,12.46-12.47,12.46  s-12.47-5.59-12.47-12.46v-18.78h24.94V136.23z M91.04,117.46v18.78c0,6.87-5.59,12.46-12.47,12.46s-12.47-5.59-12.47-12.46v-18.78  H91.04z M74.91,164.34c37.4,0,67.83,30.43,67.83,67.83c0,2-0.09,3.98-0.26,5.94h109.29v-81.79c-1.91,0.57-3.93,0.88-6.02,0.88  c-6.82,0-12.89-3.27-16.72-8.33c-3.83,5.05-9.9,8.33-16.72,8.33c-6.82,0-12.89-3.27-16.72-8.33c-3.83,5.05-9.9,8.33-16.72,8.33  s-12.89-3.27-16.72-8.33c-3.83,5.05-9.9,8.33-16.72,8.33c-6.82,0-12.89-3.27-16.72-8.33c-3.83,5.05-9.9,8.33-16.72,8.33  c-6.82,0-12.89-3.27-16.72-8.33c-3.83,5.05-9.9,8.33-16.72,8.33c-2.09,0-4.11-0.31-6.02-0.88v8.06  C73.34,164.36,74.13,164.34,74.91,164.34L74.91,164.34z M283.03,238.35V115.31c3.02-2.13,5.02-5.64,5.02-9.62  c0-6.49-5.28-11.76-11.76-11.76h-9.87V53.74c0-10.18-8.28-18.46-18.46-18.46h-11.15V11.09c0-6.12-4.97-11.09-11.09-11.09H98.61  C92.5,0,87.52,4.97,87.52,11.09v24.19H76.37c-10.18,0-18.46,8.28-18.46,18.46v40.19h-9.86c-6.49,0-11.76,5.28-11.76,11.76  c0,3.98,1.99,7.49,5.02,9.62v57.96c-20.42,11.7-34.21,33.72-34.21,58.89c0,37.4,30.43,67.83,67.83,67.83  c26.42,0,49.35-15.18,60.55-37.28h153.19c2.35,0,4.25-1.91,4.25-4.25v-8.06C292.91,244.46,288.66,239.48,283.03,238.35z"></path></g></svg>