<svg xmlns="http://www.w3.org/2000/svg" xmlns:xlink="http://www.w3.org/1999/xlink" id="Layer_1" x="0px" y="0px" viewBox="0 0 300 300" style="enable-background:new 0 0 300 300;" xml:space="preserve"><style type="text/css">	.st0{fill-rule:evenodd;clip-rule:evenodd;fill:#FFBD1B;}	.st1{fill-rule:evenodd;clip-rule:evenodd;fill:#CCE6FF;}	.st2{fill-rule:evenodd;clip-rule:evenodd;fill:#AEDAFF;}	.st3{fill-rule:evenodd;clip-rule:evenodd;fill:#E7896E;}	.st4{fill-rule:evenodd;clip-rule:evenodd;fill:#3A7AD6;}	.st5{fill-rule:evenodd;clip-rule:evenodd;fill:#FFD16C;}	.st6{fill-rule:evenodd;clip-rule:evenodd;fill:#FFFFFF;}	.st7{fill-rule:evenodd;clip-rule:evenodd;fill:#BA8715;}	.st8{fill-rule:evenodd;clip-rule:evenodd;fill:#99C7FF;}	.st9{fill:#3A7AD6;}	.st10{fill:#FFD16C;}	.st11{fill:#BA8715;}	.st12{fill:#2E5972;}	.st13{fill:#B0475D;}	.st14{fill:#FFBD1B;}	.st15{fill-rule:evenodd;clip-rule:evenodd;fill:#EDEFF1;}	.st16{fill:#99C7FF;}	.st17{fill:#CCE6FF;}	.st18{clip-path:url(#SVGID_00000044887912328623584060000015045528487267664524_);}	.st19{fill:#FEF2E2;}	.st20{fill:#FFE1BA;}	.st21{fill:#0E3D6B;}	.st22{fill:#AEDAFF;}	.st23{fill:#FFFFFF;}	.st24{fill-rule:evenodd;clip-rule:evenodd;fill:#F6B4A8;}	.st25{fill-rule:evenodd;clip-rule:evenodd;fill:#F9C9C0;}	.st26{fill-rule:evenodd;clip-rule:evenodd;fill:#FFC738;}	.st27{fill:#86A0AF;}	.st28{fill:#738B95;}	.st29{fill:none;stroke:#000000;stroke-width:15;stroke-miterlimit:10;}	.st30{fill-rule:evenodd;clip-rule:evenodd;fill:#EB5463;}	.st31{fill-rule:evenodd;clip-rule:evenodd;}	.st32{fill:#FFF6BB;}	.st33{fill:#FFC472;}	.st34{fill:#FDB614;}	.st35{fill:#474747;}	.st36{opacity:0.1;enable-background:new    ;}	.st37{fill:#EBD8AE;}	.st38{fill-rule:evenodd;clip-rule:evenodd;fill:#DACFE6;}	.st39{fill-rule:evenodd;clip-rule:evenodd;fill:#9E4623;}	.st40{opacity:0.7;fill-rule:evenodd;clip-rule:evenodd;fill:#FFFFFF;}	.st41{fill-rule:evenodd;clip-rule:evenodd;fill:#E2F0FA;}	.st42{fill-rule:evenodd;clip-rule:evenodd;fill:#D0E4F2;}	.st43{fill-rule:evenodd;clip-rule:evenodd;fill:#FFC943;}	.st44{fill-rule:evenodd;clip-rule:evenodd;fill:#6BA4E8;}	.st45{fill-rule:evenodd;clip-rule:evenodd;fill:#FFAA16;}	.st46{fill-rule:evenodd;clip-rule:evenodd;fill:#2567B7;}	.st47{fill-rule:evenodd;clip-rule:evenodd;fill:#EBCDCD;}	.st48{fill-rule:evenodd;clip-rule:evenodd;fill:#D1E7FF;}	.st49{fill-rule:evenodd;clip-rule:evenodd;fill:#222124;}	.st50{fill-rule:evenodd;clip-rule:evenodd;fill:#FAD1A2;}	.st51{fill-rule:evenodd;clip-rule:evenodd;fill:#E6E6E6;}	.st52{fill:url(#SVGID_00000041977294521156801470000007633830475739271075_);}	.st53{fill:none;stroke:#211E1F;stroke-width:0.25;stroke-miterlimit:10;}	.st54{fill:url(#SVGID_00000028291841547605587340000008122753852694304653_);}	.st55{fill:url(#SVGID_00000131336272966319232100000009500662739230973863_);}	.st56{fill:url(#SVGID_00000000202792142401695910000016411229685796184724_);}	.st57{fill:url(#SVGID_00000014619630477872415330000007504131690575877525_);}	.st58{fill:#112A4D;}	.st59{fill:url(#SVGID_00000016056634440093833390000009107226285999865001_);}	.st60{fill:url(#SVGID_00000174583214415783523360000012454189772780644277_);}	.st61{fill:url(#SVGID_00000101784914690182227990000010889908290307777434_);}	.st62{fill:url(#SVGID_00000126282350675397684590000017841239732426278561_);}	.st63{fill:url(#SVGID_00000005261745001733705690000004279827877883677845_);}	.st64{fill:url(#SVGID_00000073690105571788510320000008566458049676236426_);}	.st65{fill:url(#SVGID_00000045591782827135951360000014431350297517175738_);}	.st66{fill:url(#SVGID_00000147925132273367961420000012944080024355775887_);}	.st67{fill:url(#SVGID_00000007424446384976742580000000319493977246949776_);}	.st68{fill:url(#SVGID_00000044877120799662772990000003351052409043263139_);}	.st69{fill:url(#SVGID_00000072255687300266305110000007998968486389339548_);}	.st70{fill:url(#SVGID_00000008109140810922518040000010957156042016453810_);}	.st71{fill:url(#SVGID_00000042736066054323143650000011597158099778649016_);}	.st72{fill:url(#SVGID_00000182519964643647662540000010815831957835415432_);}	.st73{fill:url(#SVGID_00000040535967131251827350000015199125935973990589_);}	.st74{fill:url(#SVGID_00000152957990582384445290000000706262855983572147_);}	.st75{fill:url(#SVGID_00000067226475038127002390000003552656198846037394_);}	.st76{fill:url(#SVGID_00000055699208103075897170000005281523207370478217_);}	.st77{fill:url(#SVGID_00000060725991903370558500000015745708231044095890_);}	.st78{fill:url(#SVGID_00000025442669718319920500000003974375432042582934_);}	.st79{fill:url(#SVGID_00000138565277060266230960000001204826538807014035_);}	.st80{fill:url(#SVGID_00000004539311701787904590000004704475629032881331_);}	.st81{fill:url(#SVGID_00000139984822319273524490000010148151472610656682_);}	.st82{fill:url(#SVGID_00000044857966498742971010000004243685845045821838_);}	.st83{fill:url(#SVGID_00000176729840548218769370000017253363709294256542_);}	.st84{fill:#082649;}	.st85{fill:#EFEFEF;}	.st86{fill:#DDDDDD;}	.st87{fill:#629FDD;}	.st88{fill:#FFC943;}	.st89{fill-rule:evenodd;clip-rule:evenodd;fill:#837683;}	.st90{fill-rule:evenodd;clip-rule:evenodd;fill:#685E68;}	.st91{fill-rule:evenodd;clip-rule:evenodd;fill:#E3A76F;}	.st92{fill-rule:evenodd;clip-rule:evenodd;fill:#FFD064;}	.st93{fill-rule:evenodd;clip-rule:evenodd;fill:#ECEFF1;}	.st94{fill-rule:evenodd;clip-rule:evenodd;fill:#D1D1D6;}	.st95{fill-rule:evenodd;clip-rule:evenodd;fill:#F6DCCD;}	.st96{fill-rule:evenodd;clip-rule:evenodd;fill:#F1CBBC;}	.st97{fill-rule:evenodd;clip-rule:evenodd;fill:#B1B1B5;}	.st98{fill-rule:evenodd;clip-rule:evenodd;fill:#242222;}	.st99{fill:#CCD1D9;}	.st100{fill:#DFF6FD;}	.st101{fill:#D5E3F4;}	.st102{fill:#FFEEE6;}	.st103{fill:#FFDFCF;}</style><g>	<g>		<path class="st0" d="M177.77,177.05c41.35,15.64,18.23-10.95,20.46-25.21c3.45-22.62-11.24-48.77-27.16-61.45   c-0.14-7.13,1.15-18.8,5.04-25.86c-8.5-2.74-17.36-4.1-26.15-4.1c-8.79,0-17.65,1.37-26.15,4.1c3.89,7.06,5.18,18.73,5.04,25.86   c-15.92,12.68-30.61,38.83-27.15,61.45c2.23,14.26-20.89,40.85,20.53,25.21c7.71,2.59,17.72,3.82,27.74,3.82   C159.98,180.87,169.99,179.64,177.77,177.05L177.77,177.05z"></path>		<path class="st0" d="M60.5,118.34c8.21-41.93,45.17-73.55,89.47-73.55c50.35,0,91.2,40.84,91.2,91.2l-20.97-0.22L258.23,171   l38.11-35.23l-20.53,0.5c0-69.73-56.12-126.14-125.85-126.14c-62.6,0-114.54,45.67-124.19,105.53L60.5,118.34z"></path>		<path class="st8" d="M274.23,156.23c-9.72,59.86-61.66,105.61-124.26,105.61c-69.52,0-125.85-56.34-125.85-125.85l-20.53,0.22   l38.11-35.3l38.03,35.3l-20.89-0.22c0,50.36,40.78,91.12,91.13,91.12c44.3,0,81.26-31.62,89.47-73.55L274.23,156.23z"></path>		<path class="st4" d="M158.11,207.38c4.68,1.01,9,2.88,12.89,5.33l5.04-2.23c0.94-0.36,2.09-0.14,2.96,0.72l5.04,5.04   c0.79,0.86,1.08,2.01,0.72,2.95l-2.31,5.04c2.52,3.89,4.4,8.21,5.33,12.9l5.19,1.94c0.94,0.43,1.59,1.44,1.59,2.59v7.13   c0,1.22-0.65,2.23-1.59,2.59l-5.19,2.02c-0.94,4.61-2.81,9-5.33,12.82l2.31,5.11c0.36,0.94,0.07,2.09-0.72,2.88l-5.04,5.04   c-0.86,0.86-2.02,1.15-2.96,0.72l-5.04-2.23c-3.89,2.52-8.21,4.32-12.89,5.33l-2.02,5.19c-0.36,0.94-1.37,1.51-2.52,1.51h-7.13   c-1.22,0-2.23-0.58-2.59-1.51l-2.01-5.19c-4.61-1.01-9.01-2.81-12.83-5.33l-5.11,2.23c-0.94,0.43-2.09,0.14-2.88-0.72l-5.04-5.04   c-0.87-0.79-1.15-1.95-0.72-2.88l2.23-5.11c-2.52-3.82-4.32-8.21-5.33-12.82l-5.19-2.02c-0.94-0.36-1.58-1.37-1.58-2.59v-7.13   c0-1.15,0.65-2.16,1.58-2.59l5.19-1.94c1.01-4.69,2.81-9.01,5.33-12.9l-2.23-5.04c-0.43-0.94-0.14-2.09,0.72-2.95l5.04-5.04   c0.79-0.86,1.95-1.08,2.88-0.72l5.11,2.23c3.82-2.45,8.21-4.32,12.83-5.33l2.01-5.12c0.36-1.01,1.37-1.58,2.59-1.58h7.13   c1.15,0,2.16,0.58,2.52,1.58L158.11,207.38z"></path>		<path class="st15" d="M149.97,268.1c12.6,0,22.91-10.23,22.91-22.83c0-12.61-10.3-22.91-22.91-22.91   c-12.61,0-22.91,10.3-22.91,22.91C127.06,257.88,137.36,268.1,149.97,268.1z"></path>		<path class="st0" d="M149.97,44.79c50.35,0,91.2,40.84,91.2,91.2l-20.97-0.22L258.23,171l38.11-35.23l-20.53,0.5   c0-69.73-56.12-126.14-125.85-126.14L149.97,44.79L149.97,44.79z"></path>	</g>	<path d="M150.04,264.5c-10.66,0-19.31-8.65-19.31-19.23c0-10.59,8.64-19.24,19.31-19.24c10.59,0,19.16,8.64,19.16,19.24  C169.2,255.86,160.63,264.5,150.04,264.5z M150.04,218.76c-14.69,0-26.58,11.88-26.58,26.51c0,14.62,11.89,26.51,26.58,26.51  c14.55,0,26.44-11.89,26.44-26.51C176.47,230.65,164.59,218.76,150.04,218.76L150.04,218.76z M198.88,177.77  c-0.07,0.07-1.73,1.44-11.53-1.51c0.43-0.29,0.86-0.58,1.3-0.86c1.59-1.15,1.94-3.46,0.72-5.12c-1.16-1.59-3.46-1.94-5.04-0.72  c-6.27,4.61-19.45,7.49-34.29,7.49c-14.98,0-28.09-2.88-34.36-7.49c-1.66-1.22-3.89-0.87-5.11,0.72c-1.23,1.66-0.86,3.96,0.79,5.12  c0.36,0.29,0.79,0.58,1.22,0.86c-9.72,2.95-11.45,1.58-11.52,1.51c-0.94-0.94,1.08-7.49,1.94-10.3c1.66-5.26,3.53-11.24,2.81-16.35  c-3.09-20.31,9.8-44.52,24.42-56.91c6.41,1.8,13.04,2.67,19.74,2.67c5.69,0,11.31-0.65,16.78-1.87c0.22,4.18,1.37,9.08,4.32,12.68  c0.72,0.86,1.73,1.3,2.81,1.3c0.79,0,1.59-0.29,2.3-0.87c1.51-1.22,1.73-3.53,0.5-5.11c-0.94-1.08-1.58-2.52-2.02-4.04  c12.46,13.18,22.26,34.22,19.52,52.16c-0.79,5.11,1.08,11.09,2.74,16.35C197.8,170.28,199.89,176.83,198.88,177.77L198.88,177.77z   M170.86,66.91c-2.45,6.77-3.39,14.84-3.53,20.46c-11.24,2.95-23.41,2.95-34.65,0c-0.22-5.62-1.08-13.69-3.6-20.46  C142.69,63.31,157.17,63.23,170.86,66.91z M201.4,152.2c2.88-19.09-6.12-40.05-18.08-54.46c2.52,1.23,4.46,2.6,5.62,3.82  c1.37,1.51,3.67,1.51,5.19,0.14c1.44-1.37,1.44-3.67,0.07-5.12c-3.17-3.38-10.09-7.56-19.6-9.44c0.22-6.92,1.59-15.48,4.47-20.82  c0.5-0.93,0.57-2.02,0.14-3.02c-0.36-1.01-1.23-1.8-2.24-2.16c-17.5-5.69-36.59-5.62-54.03,0c-1.01,0.36-1.87,1.15-2.23,2.16  c-0.43,1.01-0.36,2.09,0.14,3.1c3.1,5.69,4.47,15.2,4.54,22.33c-15.85,13.54-30.4,39.84-26.8,63.46c0.5,3.46-1.08,8.57-2.52,13.11  c-2.23,7.06-4.32,13.69,0,17.72c3.96,3.82,11.6,3.1,26.22-2.45c7.57,2.45,17.22,3.75,27.73,3.75c10.45,0,20.1-1.3,27.66-3.75  c8.5,3.24,14.62,4.83,19.09,4.83c3.17,0,5.4-0.79,7.06-2.38c4.32-4.04,2.23-10.66,0-17.72C202.48,160.77,200.82,155.66,201.4,152.2  L201.4,152.2z M165.81,141.97c2.95,3.96,3.67,8.86,2.16,13.33c-1.66,4.97-6.05,8.79-12.25,10.66c-0.65,0.22-1.37,0.29-2.09,0.43  v2.31c0,2.02-1.59,3.68-3.6,3.68c-2.01,0-3.67-1.66-3.67-3.68v-1.94c-5.62-0.57-10.81-3.1-14.05-7.13  c-1.23-1.59-1.01-3.82,0.58-5.11c1.58-1.23,3.89-1.01,5.11,0.58c3.17,3.96,9.87,5.62,15.63,3.89c3.89-1.15,6.55-3.31,7.49-6.05  c0.72-2.16,0.29-4.61-1.15-6.7c-2.59-3.46-5.91-4.11-11.09-4.76c-5.48-0.72-12.24-1.59-16.21-9.37c-1.8-3.67-1.95-7.92-0.36-11.6  c1.87-4.32,5.91-7.64,11.31-9.22c0.94-0.29,1.8-0.43,2.74-0.58v-2.23c0-1.94,1.66-3.6,3.67-3.6c2.02,0,3.6,1.66,3.6,3.6v2.16  c4.9,0.79,9.36,3.1,12.24,6.7c1.23,1.52,1.01,3.82-0.58,5.12c-1.51,1.22-3.81,1.01-5.11-0.58c-2.95-3.67-9.08-5.19-14.48-3.6  c-3.31,1.01-5.76,2.81-6.7,5.12c-0.79,1.73-0.72,3.67,0.21,5.47c2.09,4.11,5.04,4.68,10.59,5.4  C154.93,134.91,161.27,135.7,165.81,141.97L165.81,141.97z M272.14,153.28c-0.29,0.21-0.5,0.43-0.72,0.65l-13.11,12.17  l-28.74-26.58l11.52,0.15c1.01,0,1.94-0.36,2.59-1.08c0.72-0.65,1.08-1.58,1.08-2.59c0-52.23-42.5-94.8-94.73-94.8  c-43.15,0-80.68,29.25-91.63,70.31L44.14,98.24c-1.37-1.23-3.53-1.23-4.97,0l-7.56,7.06c13.83-53.67,61.88-91.49,118.43-91.49  c67.35,0,122.17,54.97,122.17,122.54c0,0.94,0.43,1.87,1.08,2.59c0.72,0.65,1.66,1.01,2.67,1.01l10.88-0.29L272.14,153.28z   M198.16,248.37v-6.7c0-2.52-1.44-4.83-3.6-5.83c-0.07-0.07-0.21-0.07-0.29-0.15l-3.39-1.22c-0.93-3.75-2.37-7.21-4.25-10.45  l0.29-0.72c27.16-11.52,47.18-34.57,54.6-62.81l14.27,13.25c0.72,0.65,1.58,0.94,2.52,0.94c0.86,0,1.73-0.29,2.44-0.94l7.5-6.99  C258.74,203.13,232.59,233.53,198.16,248.37L198.16,248.37z M179.14,267.75l1.95,4.32l-4.32,4.32l-4.32-1.95  c-1.15-0.5-2.45-0.36-3.46,0.29c-3.53,2.31-7.49,3.96-11.67,4.83c-1.22,0.29-2.24,1.15-2.67,2.31l-1.58,4.32h-6.13l-1.66-4.32  c-0.43-1.15-1.44-2.02-2.66-2.31c-4.18-0.86-8.14-2.52-11.67-4.83c-1-0.65-2.3-0.79-3.46-0.29l-4.32,1.95l-4.25-4.32l1.87-4.32  c0.5-1.16,0.36-2.45-0.29-3.46c-2.23-3.53-3.96-7.56-4.83-11.6c-0.29-1.22-1.08-2.16-2.23-2.66l-4.4-1.73v-6.05l4.4-1.66  c1.15-0.43,1.94-1.44,2.23-2.66c0.86-4.03,2.52-7.99,4.83-11.74c0.65-1.01,0.79-2.31,0.29-3.39l-1.66-3.68c0,0,0,0,0-0.07  l-0.29-0.58l4.32-4.32l4.32,1.94c1.15,0.43,2.38,0.36,3.46-0.29c3.68-2.31,7.64-3.96,11.67-4.83c1.22-0.29,2.23-1.15,2.66-2.3  l1.66-4.32h6.05l1.66,4.32c0.43,1.15,1.44,2.01,2.67,2.3c4.04,0.86,8,2.52,11.74,4.83c1.01,0.65,2.3,0.72,3.38,0.29l4.32-1.94  l4.32,4.32l-0.29,0.58v0.07l-1.66,3.68c-0.43,1.15-0.36,2.45,0.29,3.46c2.3,3.53,3.96,7.49,4.82,11.67  c0.29,1.23,1.15,2.23,2.31,2.66l4.32,1.59v6.2l-4.39,1.66c-1.08,0.5-1.95,1.44-2.23,2.66c-0.94,4.18-2.59,8.21-4.82,11.6  C178.78,265.3,178.63,266.59,179.14,267.75L179.14,267.75z M217.68,138.51l17.72,16.35c-5.76,26.44-23.34,48.55-47.76,60.15  c-0.29-0.43-0.65-0.93-1.08-1.29l-5.04-5.04c-1.8-1.87-4.46-2.52-6.92-1.51l-3.38,1.51c-3.31-1.95-6.84-3.39-10.44-4.32l-1.23-3.31  c-0.86-2.38-3.24-3.96-5.98-3.96h-7.13c-2.66,0-4.97,1.44-6.05,3.96l-1.22,3.31c-3.6,0.94-7.06,2.38-10.45,4.32l-3.46-1.59  c-2.31-0.86-5.04-0.22-6.84,1.59l-5.04,5.04c-0.43,0.36-0.72,0.86-1.01,1.29c-29.39-13.9-48.48-42.72-49.85-75.28l17.22,0.14  c1.44-0.07,2.88-0.86,3.46-2.3c0.5-1.37,0.14-2.95-0.94-4.03l-17.72-16.35c8.79-39.98,44.37-68.72,85.51-68.72  c46.97,0,85.44,37.32,87.38,83.85l-17.22-0.15c-1.51,0-2.88,0.87-3.39,2.3C216.24,135.85,216.6,137.43,217.68,138.51L217.68,138.51  z M27.79,135.99c0-0.94-0.36-1.87-1.08-2.52c-0.65-0.72-1.58-1.08-2.59-1.08l-11.09,0.14l28.67-26.65l28.67,26.65l-11.53-0.14  c-0.94,0-1.87,0.36-2.59,1.08c-0.65,0.65-1.08,1.58-1.08,2.52c0,38.4,22.69,72.47,57.85,87.31l0.36,0.72  c-1.95,3.31-3.39,6.84-4.32,10.45l-3.46,1.3c-2.38,1.01-3.82,3.31-3.82,5.91v6.7C57.04,229.28,27.79,185.62,27.79,135.99  L27.79,135.99z M299.73,134.48c-0.57-1.44-1.94-2.3-3.46-2.3l-16.86,0.43C277.47,62.73,220.13,6.54,150.04,6.54  c-63.46,0-116.92,45.1-127.65,107.33L1.14,133.54c-1.08,1.08-1.44,2.66-0.86,4.03c0.5,1.44,1.87,2.38,3.39,2.3l16.93-0.14  c1.51,54.96,36.95,102.51,89.4,119.51c0.94,2.52,2.01,4.97,3.39,7.28l-1.44,3.32c-1.08,2.38-0.51,5.25,1.44,6.98l5.04,5.04  c1.94,1.95,4.82,2.45,6.99,1.51l3.31-1.51c3.24,1.95,6.77,3.38,10.45,4.32l1.22,3.39c0.07,0.07,0.07,0.22,0.14,0.29  c1.01,2.23,3.24,3.6,5.91,3.6h7.13c2.74,0,5.04-1.51,5.98-3.89l1.23-3.39c3.75-0.94,7.2-2.38,10.52-4.32l3.17,1.44  c2.23,1.08,5.12,0.51,7.06-1.44l4.97-4.9c2.02-1.87,2.66-4.75,1.58-7.06l-1.44-3.32c1.3-2.3,2.45-4.75,3.31-7.35  c45.31-14.77,79.46-54.1,87.6-101.07l21.32-19.66C299.94,137.43,300.3,135.85,299.73,134.48L299.73,134.48z"></path></g></svg>