<svg xmlns="http://www.w3.org/2000/svg" xmlns:xlink="http://www.w3.org/1999/xlink" id="Layer_1" x="0px" y="0px" viewBox="0 0 300 300" style="enable-background:new 0 0 300 300;" xml:space="preserve"><style type="text/css">	.st0{fill-rule:evenodd;clip-rule:evenodd;fill:#FFBD1B;}	.st1{fill-rule:evenodd;clip-rule:evenodd;fill:#CCE6FF;}	.st2{fill-rule:evenodd;clip-rule:evenodd;fill:#AEDAFF;}	.st3{fill-rule:evenodd;clip-rule:evenodd;fill:#E7896E;}	.st4{fill-rule:evenodd;clip-rule:evenodd;fill:#3A7AD6;}	.st5{fill-rule:evenodd;clip-rule:evenodd;fill:#FFD16C;}	.st6{fill-rule:evenodd;clip-rule:evenodd;fill:#FFFFFF;}	.st7{fill-rule:evenodd;clip-rule:evenodd;fill:#BA8715;}	.st8{fill-rule:evenodd;clip-rule:evenodd;fill:#99C7FF;}	.st9{fill:#3A7AD6;}	.st10{fill:#FFD16C;}	.st11{fill:#BA8715;}	.st12{fill:#2E5972;}	.st13{fill:#B0475D;}	.st14{fill:#FFBD1B;}	.st15{fill-rule:evenodd;clip-rule:evenodd;fill:#EDEFF1;}	.st16{fill:#99C7FF;}	.st17{fill:#CCE6FF;}	.st18{clip-path:url(#SVGID_00000124858615882355114000000011359565276887176617_);}	.st19{fill:#FEF2E2;}	.st20{fill:#FFE1BA;}	.st21{fill:#0E3D6B;}	.st22{fill:#AEDAFF;}	.st23{fill:#FFFFFF;}	.st24{fill-rule:evenodd;clip-rule:evenodd;fill:#F6B4A8;}	.st25{fill-rule:evenodd;clip-rule:evenodd;fill:#F9C9C0;}	.st26{fill-rule:evenodd;clip-rule:evenodd;fill:#FFC738;}	.st27{fill:#86A0AF;}	.st28{fill:#738B95;}	.st29{fill:none;stroke:#000000;stroke-width:15;stroke-miterlimit:10;}	.st30{fill-rule:evenodd;clip-rule:evenodd;fill:#EB5463;}	.st31{fill-rule:evenodd;clip-rule:evenodd;}	.st32{fill:#FFF6BB;}	.st33{fill:#FFC472;}	.st34{fill:#FDB614;}	.st35{fill:#474747;}	.st36{opacity:0.1;enable-background:new    ;}	.st37{fill:#EBD8AE;}	.st38{fill-rule:evenodd;clip-rule:evenodd;fill:#DACFE6;}	.st39{fill-rule:evenodd;clip-rule:evenodd;fill:#9E4623;}	.st40{opacity:0.7;fill-rule:evenodd;clip-rule:evenodd;fill:#FFFFFF;}	.st41{fill-rule:evenodd;clip-rule:evenodd;fill:#E2F0FA;}	.st42{fill-rule:evenodd;clip-rule:evenodd;fill:#D0E4F2;}	.st43{fill-rule:evenodd;clip-rule:evenodd;fill:#FFC943;}	.st44{fill-rule:evenodd;clip-rule:evenodd;fill:#6BA4E8;}	.st45{fill-rule:evenodd;clip-rule:evenodd;fill:#FFAA16;}	.st46{fill-rule:evenodd;clip-rule:evenodd;fill:#2567B7;}	.st47{fill-rule:evenodd;clip-rule:evenodd;fill:#EBCDCD;}	.st48{fill-rule:evenodd;clip-rule:evenodd;fill:#D1E7FF;}	.st49{fill-rule:evenodd;clip-rule:evenodd;fill:#222124;}	.st50{fill-rule:evenodd;clip-rule:evenodd;fill:#FAD1A2;}	.st51{fill-rule:evenodd;clip-rule:evenodd;fill:#E6E6E6;}	.st52{fill:url(#SVGID_00000039128901639679699640000014280250189720353214_);}	.st53{fill:none;stroke:#211E1F;stroke-width:0.25;stroke-miterlimit:10;}	.st54{fill:url(#SVGID_00000177460753916197050780000012312147765107190704_);}	.st55{fill:url(#SVGID_00000134955718871188884080000012285993561996669825_);}	.st56{fill:url(#SVGID_00000025404526558800862310000017664890048341379234_);}	.st57{fill:url(#SVGID_00000041273589009891239690000008063372731316361127_);}	.st58{fill:#112A4D;}	.st59{fill:url(#SVGID_00000020378999592452148380000012203476472688319125_);}	.st60{fill:url(#SVGID_00000010997941182685203050000014970579911122331552_);}	.st61{fill:url(#SVGID_00000056392168033584148080000002317056567907156875_);}	.st62{fill:url(#SVGID_00000011002736007809729370000014774153243121308049_);}	.st63{fill:url(#SVGID_00000015334882104787955440000002323236859910189478_);}	.st64{fill:url(#SVGID_00000093155722142399249700000009986972083649347493_);}	.st65{fill:url(#SVGID_00000153707416508886389790000015622109676224694152_);}	.st66{fill:url(#SVGID_00000013183757428730050370000000084342686026385549_);}	.st67{fill:url(#SVGID_00000169516306193475218890000012952632001141702840_);}	.st68{fill:url(#SVGID_00000102546002006564036290000008050739849771521977_);}	.st69{fill:url(#SVGID_00000101809947266043553600000002099182457933803665_);}	.st70{fill:url(#SVGID_00000067213496927495413960000012853547084466834568_);}	.st71{fill:url(#SVGID_00000127040044810999210270000002865098089265836436_);}	.st72{fill:url(#SVGID_00000096032354545368338820000015740731002620529582_);}	.st73{fill:url(#SVGID_00000081605597380531375570000010088502154226829988_);}	.st74{fill:url(#SVGID_00000182527765792787806350000013842125477089434555_);}	.st75{fill:url(#SVGID_00000086670438003940449540000000028133662677773974_);}	.st76{fill:url(#SVGID_00000000945595916197423750000004896881770295170694_);}	.st77{fill:url(#SVGID_00000021826301769123946590000011746870690565172647_);}	.st78{fill:url(#SVGID_00000034792534757646280690000002907835555438829476_);}	.st79{fill:url(#SVGID_00000158009530931279366140000001823089950229951375_);}	.st80{fill:url(#SVGID_00000020376654315231413610000007421237019499864740_);}	.st81{fill:url(#SVGID_00000078030561019077394470000017763042996230908827_);}	.st82{fill:url(#SVGID_00000051343747777724991000000004492588672196410814_);}	.st83{fill:url(#SVGID_00000103249618542401029640000007290545893181687479_);}	.st84{fill:#082649;}	.st85{fill:#EFEFEF;}	.st86{fill:#DDDDDD;}	.st87{fill:#629FDD;}	.st88{fill:#FFC943;}	.st89{fill-rule:evenodd;clip-rule:evenodd;fill:#837683;}	.st90{fill-rule:evenodd;clip-rule:evenodd;fill:#685E68;}	.st91{fill-rule:evenodd;clip-rule:evenodd;fill:#E3A76F;}	.st92{fill-rule:evenodd;clip-rule:evenodd;fill:#FFD064;}	.st93{fill-rule:evenodd;clip-rule:evenodd;fill:#ECEFF1;}	.st94{fill-rule:evenodd;clip-rule:evenodd;fill:#D1D1D6;}	.st95{fill-rule:evenodd;clip-rule:evenodd;fill:#F6DCCD;}	.st96{fill-rule:evenodd;clip-rule:evenodd;fill:#F1CBBC;}	.st97{fill-rule:evenodd;clip-rule:evenodd;fill:#B1B1B5;}	.st98{fill-rule:evenodd;clip-rule:evenodd;fill:#242222;}	.st99{fill:#CCD1D9;}	.st100{fill:#DFF6FD;}	.st101{fill:#D5E3F4;}	.st102{fill:#FFEEE6;}	.st103{fill:#FFDFCF;}</style><g>	<g>		<g>			<path class="st14" d="M251.61,4.84v38.71h-24.19h-24.19V4.84H251.61z"></path>		</g>		<g>			<path class="st14" d="M96.77,4.84v38.71H72.58H48.39V4.84H96.77z"></path>		</g>		<g>			<path class="st14" d="M174.19,4.84v38.71H150h-24.19V4.84H174.19z"></path>		</g>		<g>			<path class="st99" d="M275.81,256.45H24.19V91.94c0-10.69,8.67-19.35,19.35-19.35h212.9c10.69,0,19.35,8.67,19.35,19.35V256.45z"></path>		</g>		<g>			<path class="st9" d="M251.61,237.1H48.39c-2.67,0-4.84-2.17-4.84-4.84V96.77c0-2.67,2.17-4.84,4.84-4.84h203.23    c2.67,0,4.84,2.17,4.84,4.84v135.48C256.45,234.93,254.28,237.1,251.61,237.1z"></path>		</g>		<g>			<path class="st16" d="M285.48,256.45h-9.68H24.19h-9.68c-2.66,0-5.08,1.06-6.82,2.85c-1.79,1.74-2.85,4.16-2.85,6.82    c0,16.02,13.02,29.03,29.03,29.03h232.26c8.03,0,15.29-3.24,20.52-8.52c5.27-5.23,8.52-12.48,8.52-20.52    C295.16,260.81,290.81,256.45,285.48,256.45L285.48,256.45z"></path>		</g>		<g>			<path class="st11" d="M246.77,275.81h19.35v19.35h-19.35V275.81z"></path>		</g>		<g>			<path class="st11" d="M208.06,275.81h19.35v19.35h-19.35V275.81z"></path>		</g>		<g>			<path class="st14" d="M183.87,256.45v9.68c0,5.32-4.35,9.68-9.68,9.68h-48.39c-5.32,0-9.68-4.35-9.68-9.68v-9.68H183.87z"></path>		</g>		<g>			<path class="st14" d="M227.42,208.06v29.03h-31.21v-0.15c1.4-4.55,2.18-9.34,2.18-14.37c0-26.71-21.68-48.39-48.39-48.39    s-48.39,21.68-48.39,48.39c0,5.08,0.77,9.92,2.23,14.52H72.58v-29.03l12.29-3.92c1.45-5.13,3.48-10.02,6-14.61l-5.9-11.42    l20.56-20.56l11.42,5.9c4.6-2.52,9.48-4.55,14.61-6l3.92-12.29H150h14.52l3.92,12.29c5.13,1.45,10.02,3.48,14.61,6l11.42-5.9    l20.56,20.56l-5.9,11.42c2.52,4.6,4.55,9.48,6,14.61L227.42,208.06z"></path>		</g>		<g>			<path class="st11" d="M198.39,222.58c0,5.03-0.77,9.82-2.18,14.37v0.15h-33.44c4.06-3.53,6.58-8.71,6.58-14.52    c0-10.69-8.66-19.35-19.35-19.35s-19.35,8.66-19.35,19.35c0,5.81,2.52,10.98,6.58,14.52h-33.39c-1.45-4.6-2.23-9.44-2.23-14.52    c0-26.71,21.68-48.39,48.39-48.39S198.39,195.87,198.39,222.58z"></path>		</g>	</g>	<g>		<path d="M285.48,251.61h-4.84V91.94c0-13.34-10.85-24.19-24.19-24.19h-14.52v9.68h14.52c8,0,14.52,6.51,14.52,14.52v159.68H29.03   V91.94c0-8,6.51-14.52,14.52-14.52h14.52v-9.68H43.55c-13.34,0-24.19,10.85-24.19,24.19v159.68h-4.84c-8,0-14.52,6.51-14.52,14.52   C0,284.8,15.2,300,33.87,300h232.26c18.67,0,33.87-15.2,33.87-33.87C300,258.13,293.49,251.61,285.48,251.61z M120.97,261.29   h58.06v4.84c0,2.67-2.17,4.84-4.84,4.84h-48.39c-2.67,0-4.84-2.17-4.84-4.84V261.29z M222.58,290.32h-9.68v-9.68h9.68V290.32z    M261.29,290.32h-9.68v-9.68h9.68V290.32z M270.97,289.83v-18.87h-29.03v19.35h-9.68v-19.35h-29.03v19.35H33.87   c-13.34,0-24.19-10.85-24.19-24.19c0-2.67,2.17-4.84,4.84-4.84h96.77v4.84c0,8,6.51,14.52,14.52,14.52h48.39   c8,0,14.52-6.51,14.52-14.52v-4.84h96.77c2.67,0,4.84,2.17,4.84,4.84C290.32,277.81,282,287.58,270.97,289.83L270.97,289.83z"></path>		<path d="M106.45,96.77V87.1H48.39c-5.34,0-9.68,4.34-9.68,9.68v135.48c0,5.34,4.34,9.68,9.68,9.68h203.23   c5.34,0,9.68-4.34,9.68-9.68V96.77c0-5.34-4.34-9.68-9.68-9.68h-58.06v9.68h58.06v135.48h-19.35v-27.72l-13.23-4.24   c-1.2-3.74-2.7-7.35-4.45-10.79l6.35-12.33l-25.52-25.52l-12.33,6.35c-3.44-1.75-7.05-3.24-10.79-4.45l-4.25-13.24h-36.09   l-4.24,13.23c-3.74,1.2-7.35,2.7-10.79,4.45l-12.33-6.35l-25.52,25.52l6.35,12.33c-1.75,3.44-3.24,7.05-4.45,10.79l-13.23,4.25   v27.72H48.39V96.77L106.45,96.77z M106.45,222.58c0-24.01,19.53-43.55,43.55-43.55s43.55,19.53,43.55,43.55   c0,3.29-0.48,6.51-1.2,9.68h-20.19c1.32-3.02,2.04-6.31,2.04-9.68c0-13.34-10.85-24.19-24.19-24.19s-24.19,10.85-24.19,24.19   c0,3.37,0.72,6.65,2.04,9.68h-20.18C106.94,229.09,106.45,225.87,106.45,222.58z M135.48,222.58c0-8,6.51-14.52,14.52-14.52   s14.52,6.51,14.52,14.52c0,3.61-1.41,7.02-3.81,9.68h-21.41C136.9,229.6,135.48,226.19,135.48,222.58L135.48,222.58z    M77.42,211.59l11.4-3.65l0.71-2.5c1.35-4.78,3.23-9.34,5.58-13.53l1.27-2.27l-5.47-10.62l15.54-15.54l10.62,5.47l2.27-1.27   c4.2-2.35,8.75-4.23,13.53-5.58l2.5-0.71l3.64-11.4h21.97l3.65,11.4l2.5,0.71c4.78,1.35,9.34,3.23,13.53,5.58l2.27,1.27   l10.62-5.47l15.54,15.54l-5.47,10.62l1.27,2.27c2.35,4.2,4.23,8.75,5.58,13.53l0.71,2.5l11.4,3.64v20.67h-20.27   c0.59-3.18,0.91-6.41,0.91-9.68c0-29.35-23.88-53.23-53.23-53.23s-53.23,23.88-53.23,53.23c0,3.27,0.33,6.5,0.91,9.68H77.42   L77.42,211.59z"></path>		<path d="M62.9,19.35h19.35v9.68H62.9V19.35z"></path>		<path d="M140.32,19.35h19.35v9.68h-19.35V19.35z"></path>		<path d="M217.74,19.35h19.35v9.68h-19.35V19.35z"></path>		<path d="M145.16,130.65h9.68V48.39h24.19V0h-58.06v48.39h24.19V130.65z M130.65,9.68h38.71v29.03h-38.71V9.68z"></path>		<path d="M222.58,67.74h-48.39v62.9h9.68V77.42h48.39V48.39h24.19V0h-58.06v48.39h24.19V67.74z M208.06,9.68h38.71v29.03h-38.71   V9.68z"></path>		<path d="M67.74,77.42h48.39v53.23h9.68v-62.9H77.42V48.39h24.19V0H43.55v48.39h24.19V77.42z M53.23,9.68h38.71v29.03H53.23V9.68z"></path>	</g></g></svg>