<svg xmlns="http://www.w3.org/2000/svg" xmlns:xlink="http://www.w3.org/1999/xlink" id="Layer_1" x="0px" y="0px" viewBox="0 0 300 300" style="enable-background:new 0 0 300 300;" xml:space="preserve"><style type="text/css">	.st0{fill-rule:evenodd;clip-rule:evenodd;fill:#FFBD1B;}	.st1{fill-rule:evenodd;clip-rule:evenodd;fill:#CCE6FF;}	.st2{fill-rule:evenodd;clip-rule:evenodd;fill:#AEDAFF;}	.st3{fill-rule:evenodd;clip-rule:evenodd;fill:#E7896E;}	.st4{fill-rule:evenodd;clip-rule:evenodd;fill:#3A7AD6;}	.st5{fill-rule:evenodd;clip-rule:evenodd;fill:#FFD16C;}	.st6{fill-rule:evenodd;clip-rule:evenodd;fill:#FFFFFF;}	.st7{fill-rule:evenodd;clip-rule:evenodd;fill:#BA8715;}	.st8{fill-rule:evenodd;clip-rule:evenodd;fill:#99C7FF;}	.st9{fill:#3A7AD6;}	.st10{fill:#FFD16C;}	.st11{fill:#BA8715;}	.st12{fill:#2E5972;}	.st13{fill:#B0475D;}	.st14{fill:#FFBD1B;}	.st15{fill-rule:evenodd;clip-rule:evenodd;fill:#EDEFF1;}	.st16{fill:#99C7FF;}	.st17{fill:#CCE6FF;}	.st18{clip-path:url(#SVGID_00000070087706109159612220000015556094121686632321_);}	.st19{fill:#FEF2E2;}	.st20{fill:#FFE1BA;}	.st21{fill:#0E3D6B;}	.st22{fill:#AEDAFF;}	.st23{fill:#FFFFFF;}	.st24{fill-rule:evenodd;clip-rule:evenodd;fill:#F6B4A8;}	.st25{fill-rule:evenodd;clip-rule:evenodd;fill:#F9C9C0;}	.st26{fill-rule:evenodd;clip-rule:evenodd;fill:#FFC738;}	.st27{fill:#86A0AF;}	.st28{fill:#738B95;}	.st29{fill:none;stroke:#000000;stroke-width:15;stroke-miterlimit:10;}	.st30{fill-rule:evenodd;clip-rule:evenodd;fill:#EB5463;}	.st31{fill-rule:evenodd;clip-rule:evenodd;}	.st32{fill:#FFF6BB;}	.st33{fill:#FFC472;}	.st34{fill:#FDB614;}	.st35{fill:#474747;}	.st36{opacity:0.1;enable-background:new    ;}	.st37{fill:#EBD8AE;}	.st38{fill-rule:evenodd;clip-rule:evenodd;fill:#DACFE6;}	.st39{fill-rule:evenodd;clip-rule:evenodd;fill:#9E4623;}	.st40{opacity:0.7;fill-rule:evenodd;clip-rule:evenodd;fill:#FFFFFF;}	.st41{fill-rule:evenodd;clip-rule:evenodd;fill:#E2F0FA;}	.st42{fill-rule:evenodd;clip-rule:evenodd;fill:#D0E4F2;}	.st43{fill-rule:evenodd;clip-rule:evenodd;fill:#FFC943;}	.st44{fill-rule:evenodd;clip-rule:evenodd;fill:#6BA4E8;}	.st45{fill-rule:evenodd;clip-rule:evenodd;fill:#FFAA16;}	.st46{fill-rule:evenodd;clip-rule:evenodd;fill:#2567B7;}	.st47{fill-rule:evenodd;clip-rule:evenodd;fill:#EBCDCD;}	.st48{fill-rule:evenodd;clip-rule:evenodd;fill:#D1E7FF;}	.st49{fill-rule:evenodd;clip-rule:evenodd;fill:#222124;}	.st50{fill-rule:evenodd;clip-rule:evenodd;fill:#FAD1A2;}	.st51{fill-rule:evenodd;clip-rule:evenodd;fill:#E6E6E6;}	.st52{fill:url(#SVGID_00000086653233491056881630000013969184697575362475_);}	.st53{fill:none;stroke:#211E1F;stroke-width:0.25;stroke-miterlimit:10;}	.st54{fill:url(#SVGID_00000148622995593923914760000004672130162731014580_);}	.st55{fill:url(#SVGID_00000116956603903661663040000003566797608293525929_);}	.st56{fill:url(#SVGID_00000068672327950845069360000007514909563230476453_);}	.st57{fill:url(#SVGID_00000008128820087629914410000016931118207615770240_);}	.st58{fill:#112A4D;}	.st59{fill:url(#SVGID_00000089556222491203736000000007719487427605511609_);}	.st60{fill:url(#SVGID_00000038389743867764935700000014756366394562838694_);}	.st61{fill:url(#SVGID_00000026154989536768134430000004484484046660632221_);}	.st62{fill:url(#SVGID_00000096042679468325734370000011937179483393079701_);}	.st63{fill:url(#SVGID_00000180329173311402898070000017711145731931685047_);}	.st64{fill:url(#SVGID_00000111904703799075005260000005675579674074268848_);}	.st65{fill:url(#SVGID_00000097475320665374957380000000535977537420084669_);}	.st66{fill:url(#SVGID_00000146472643386490494550000005264308395105238970_);}	.st67{fill:url(#SVGID_00000160185700970509945590000017941401396156602297_);}	.st68{fill:url(#SVGID_00000035520564245866562540000009607595909081891993_);}	.st69{fill:url(#SVGID_00000175283320666729924010000002145154480341896594_);}	.st70{fill:url(#SVGID_00000044886340715497641700000000572656741123109801_);}	.st71{fill:url(#SVGID_00000156552903217366832160000004154991811780554148_);}	.st72{fill:url(#SVGID_00000116920880916308539010000008302563144647520447_);}	.st73{fill:url(#SVGID_00000047768145530976255280000004958374193512522159_);}	.st74{fill:url(#SVGID_00000155830695051507477530000016189501121340526234_);}	.st75{fill:url(#SVGID_00000029034908483086228040000012403014325330958515_);}	.st76{fill:url(#SVGID_00000035496792500693148160000017134684480703272625_);}	.st77{fill:url(#SVGID_00000041276801599194753040000012406414459422000568_);}	.st78{fill:url(#SVGID_00000073689337880953903910000016168598925823202696_);}	.st79{fill:url(#SVGID_00000046330745581364274170000010627256705374213530_);}	.st80{fill:url(#SVGID_00000167377153155954861160000013075480546562482314_);}	.st81{fill:url(#SVGID_00000057132051060470619240000008423001464809031309_);}	.st82{fill:url(#SVGID_00000018918586361000223180000001085501132339395991_);}	.st83{fill:url(#SVGID_00000116958051591794046570000009105197824339501973_);}	.st84{fill:#082649;}	.st85{fill:#EFEFEF;}	.st86{fill:#DDDDDD;}	.st87{fill:#629FDD;}	.st88{fill:#FFC943;}	.st89{fill-rule:evenodd;clip-rule:evenodd;fill:#837683;}	.st90{fill-rule:evenodd;clip-rule:evenodd;fill:#685E68;}	.st91{fill-rule:evenodd;clip-rule:evenodd;fill:#E3A76F;}	.st92{fill-rule:evenodd;clip-rule:evenodd;fill:#FFD064;}	.st93{fill-rule:evenodd;clip-rule:evenodd;fill:#ECEFF1;}	.st94{fill-rule:evenodd;clip-rule:evenodd;fill:#D1D1D6;}	.st95{fill-rule:evenodd;clip-rule:evenodd;fill:#F6DCCD;}	.st96{fill-rule:evenodd;clip-rule:evenodd;fill:#F1CBBC;}	.st97{fill-rule:evenodd;clip-rule:evenodd;fill:#B1B1B5;}	.st98{fill-rule:evenodd;clip-rule:evenodd;fill:#242222;}	.st99{fill:#CCD1D9;}	.st100{fill:#DFF6FD;}	.st101{fill:#D5E3F4;}	.st102{fill:#FFEEE6;}	.st103{fill:#FFDFCF;}</style><g>	<g>		<g>			<path class="st4" d="M178.54,42.65c0-2.75-1.09-5.39-3.04-7.34c-1.95-1.95-4.59-3.04-7.34-3.04h-42.31    c-2.75,0-5.39,1.09-7.34,3.04s-3.04,4.59-3.04,7.34v16.16h63.07V42.65z"></path>			<circle class="st4" cx="235.21" cy="84.35" r="18.25"></circle>			<circle class="st0" cx="147" cy="152" r="106.46"></circle>			<circle class="st8" cx="147" cy="152" r="90.27"></circle>			<circle class="st30" cx="147" cy="152" r="10.43"></circle>		</g>	</g>	<g>		<path class="st31" d="M89.69,152c0,2.35-1.9,4.25-4.25,4.25H70.36c-2.35,0-4.25-1.9-4.25-4.25s1.9-4.25,4.25-4.25h15.08   C87.79,147.75,89.69,149.65,89.69,152z"></path>		<path class="st31" d="M142.75,90.44V75.36c0-2.35,1.9-4.25,4.25-4.25c2.34,0,4.25,1.9,4.25,4.25v15.08c0,2.35-1.91,4.26-4.25,4.26   C144.65,94.7,142.75,92.79,142.75,90.44z"></path>		<path class="st31" d="M151.25,213.56v15.08c0,2.35-1.91,4.25-4.25,4.25c-2.35,0-4.25-1.9-4.25-4.25v-15.08   c0-2.35,1.9-4.25,4.25-4.25C149.34,209.31,151.25,211.21,151.25,213.56z"></path>		<path class="st31" d="M183.16,152c0,2.35-1.91,4.25-4.26,4.25h-21.48c-0.29,0-0.58-0.03-0.86-0.09c-1.61,3.69-5.29,6.27-9.56,6.27   c-5.76,0-10.43-4.67-10.43-10.43c0-4.28,2.58-7.95,6.26-9.56c-0.05-0.28-0.08-0.57-0.08-0.87v-31.39c0-2.34,1.9-4.25,4.25-4.25   c2.34,0,4.25,1.91,4.25,4.25v31.39c0,0.3-0.03,0.59-0.09,0.87c2.41,1.05,4.35,2.99,5.4,5.4c0.28-0.06,0.57-0.09,0.86-0.09h21.48   C181.25,147.75,183.16,149.65,183.16,152z"></path>		<path class="st31" d="M227.89,152c0,2.35-1.91,4.25-4.25,4.25h-15.09c-2.34,0-4.25-1.9-4.25-4.25s1.91-4.25,4.25-4.25h15.09   C225.98,147.75,227.89,149.65,227.89,152z"></path>		<path class="st31" d="M147,57.48c-52.17,0-94.52,42.35-94.52,94.52s42.35,94.52,94.52,94.52c52.16,0,94.51-42.35,94.51-94.52   S199.16,57.48,147,57.48z M147,238.02c-47.48,0-86.02-38.55-86.02-86.02c0-47.47,38.54-86.01,86.02-86.01   c47.47,0,86.01,38.54,86.01,86.01C233.01,199.47,194.47,238.02,147,238.02z M147,57.48c-52.17,0-94.52,42.35-94.52,94.52   s42.35,94.52,94.52,94.52c52.16,0,94.51-42.35,94.51-94.52S199.16,57.48,147,57.48z M147,238.02c-47.48,0-86.02-38.55-86.02-86.02   c0-47.47,38.54-86.01,86.02-86.01c47.47,0,86.01,38.54,86.01,86.01C233.01,199.47,194.47,238.02,147,238.02z M257.71,84.35   c0-12.42-10.09-22.51-22.5-22.51c-6.14,0-11.71,2.47-15.78,6.46c-10.63-9.22-23.05-16.44-36.65-21.09v-4.56   c0-3.88-1.54-7.6-4.28-10.35c-2.74-2.74-6.47-4.28-10.35-4.28h-42.31c-3.88,0-7.6,1.54-10.35,4.28   c-2.74,2.75-4.28,6.47-4.28,10.35v4.56C67.65,62.1,36.29,103.42,36.29,152c0,61.1,49.6,110.71,110.71,110.71   c61.1,0,110.71-49.61,110.71-110.71c0-17.3-3.98-33.68-11.07-48.27C253.26,99.81,257.71,92.59,257.71,84.35z M235.21,70.35   c7.72,0,14,6.27,14,14c0,5-2.63,9.39-6.58,11.87c-4.72-8.07-10.44-15.5-16.98-22.1C228.15,71.78,231.51,70.35,235.21,70.35z    M119.71,42.65c0-1.63,0.65-3.19,1.8-4.34c1.15-1.14,2.7-1.79,4.33-1.79h42.31c1.63,0,3.19,0.65,4.34,1.79   c1.15,1.15,1.79,2.71,1.79,4.34v2.03c-8.73-2.21-17.87-3.39-27.28-3.39c-9.42,0-18.56,1.18-27.29,3.39V42.65z M249.21,152   c0,56.41-45.8,102.21-102.21,102.21c-56.41,0-102.21-45.8-102.21-102.21S90.59,49.79,147,49.79   C203.41,49.79,249.21,95.59,249.21,152z M147,57.48c-52.17,0-94.52,42.35-94.52,94.52s42.35,94.52,94.52,94.52   c52.16,0,94.51-42.35,94.51-94.52S199.16,57.48,147,57.48z M147,238.02c-47.48,0-86.02-38.55-86.02-86.02   c0-47.47,38.54-86.01,86.02-86.01c47.47,0,86.01,38.54,86.01,86.01C233.01,199.47,194.47,238.02,147,238.02z M147,57.48   c-52.17,0-94.52,42.35-94.52,94.52s42.35,94.52,94.52,94.52c52.16,0,94.51-42.35,94.51-94.52S199.16,57.48,147,57.48z M147,238.02   c-47.48,0-86.02-38.55-86.02-86.02c0-47.47,38.54-86.01,86.02-86.01c47.47,0,86.01,38.54,86.01,86.01   C233.01,199.47,194.47,238.02,147,238.02z M147,57.48c-52.17,0-94.52,42.35-94.52,94.52s42.35,94.52,94.52,94.52   c52.16,0,94.51-42.35,94.51-94.52S199.16,57.48,147,57.48z M147,238.02c-47.48,0-86.02-38.55-86.02-86.02   c0-47.47,38.54-86.01,86.02-86.01c47.47,0,86.01,38.54,86.01,86.01C233.01,199.47,194.47,238.02,147,238.02z"></path>		<path class="st31" d="M89.69,152c0,2.35-1.9,4.25-4.25,4.25H70.36c-2.35,0-4.25-1.9-4.25-4.25s1.9-4.25,4.25-4.25h15.08   C87.79,147.75,89.69,149.65,89.69,152z"></path>		<path class="st31" d="M142.75,90.44V75.36c0-2.35,1.9-4.25,4.25-4.25c2.34,0,4.25,1.9,4.25,4.25v15.08c0,2.35-1.91,4.26-4.25,4.26   C144.65,94.7,142.75,92.79,142.75,90.44z"></path>		<path class="st31" d="M151.25,213.56v15.08c0,2.35-1.91,4.25-4.25,4.25c-2.35,0-4.25-1.9-4.25-4.25v-15.08   c0-2.35,1.9-4.25,4.25-4.25C149.34,209.31,151.25,211.21,151.25,213.56z"></path>		<path class="st31" d="M183.16,152c0,2.35-1.91,4.25-4.26,4.25h-21.48c-0.29,0-0.58-0.03-0.86-0.09c-1.61,3.69-5.29,6.27-9.56,6.27   c-5.76,0-10.43-4.67-10.43-10.43c0-4.28,2.58-7.95,6.26-9.56c-0.05-0.28-0.08-0.57-0.08-0.87v-31.39c0-2.34,1.9-4.25,4.25-4.25   c2.34,0,4.25,1.91,4.25,4.25v31.39c0,0.3-0.03,0.59-0.09,0.87c2.41,1.05,4.35,2.99,5.4,5.4c0.28-0.06,0.57-0.09,0.86-0.09h21.48   C181.25,147.75,183.16,149.65,183.16,152z"></path>		<path class="st31" d="M147,57.48c-52.17,0-94.52,42.35-94.52,94.52s42.35,94.52,94.52,94.52c52.16,0,94.51-42.35,94.51-94.52   S199.16,57.48,147,57.48z M147,238.02c-47.48,0-86.02-38.55-86.02-86.02c0-47.47,38.54-86.01,86.02-86.01   c47.47,0,86.01,38.54,86.01,86.01C233.01,199.47,194.47,238.02,147,238.02z"></path>		<path class="st31" d="M227.89,152c0,2.35-1.91,4.25-4.25,4.25h-15.09c-2.34,0-4.25-1.9-4.25-4.25s1.91-4.25,4.25-4.25h15.09   C225.98,147.75,227.89,149.65,227.89,152z"></path>		<path class="st31" d="M89.69,152c0,2.35-1.9,4.25-4.25,4.25H70.36c-2.35,0-4.25-1.9-4.25-4.25s1.9-4.25,4.25-4.25h15.08   C87.79,147.75,89.69,149.65,89.69,152z"></path>		<path class="st31" d="M142.75,90.44V75.36c0-2.35,1.9-4.25,4.25-4.25c2.34,0,4.25,1.9,4.25,4.25v15.08c0,2.35-1.91,4.26-4.25,4.26   C144.65,94.7,142.75,92.79,142.75,90.44z"></path>		<path class="st31" d="M151.25,213.56v15.08c0,2.35-1.91,4.25-4.25,4.25c-2.35,0-4.25-1.9-4.25-4.25v-15.08   c0-2.35,1.9-4.25,4.25-4.25C149.34,209.31,151.25,211.21,151.25,213.56z"></path>		<path class="st31" d="M183.16,152c0,2.35-1.91,4.25-4.26,4.25h-21.48c-0.29,0-0.58-0.03-0.86-0.09c-1.61,3.69-5.29,6.27-9.56,6.27   c-5.76,0-10.43-4.67-10.43-10.43c0-4.28,2.58-7.95,6.26-9.56c-0.05-0.28-0.08-0.57-0.08-0.87v-31.39c0-2.34,1.9-4.25,4.25-4.25   c2.34,0,4.25,1.91,4.25,4.25v31.39c0,0.3-0.03,0.59-0.09,0.87c2.41,1.05,4.35,2.99,5.4,5.4c0.28-0.06,0.57-0.09,0.86-0.09h21.48   C181.25,147.75,183.16,149.65,183.16,152z"></path>		<path class="st31" d="M147,57.48c-52.17,0-94.52,42.35-94.52,94.52s42.35,94.52,94.52,94.52c52.16,0,94.51-42.35,94.51-94.52   S199.16,57.48,147,57.48z M147,238.02c-47.48,0-86.02-38.55-86.02-86.02c0-47.47,38.54-86.01,86.02-86.01   c47.47,0,86.01,38.54,86.01,86.01C233.01,199.47,194.47,238.02,147,238.02z"></path>		<path class="st31" d="M227.89,152c0,2.35-1.91,4.25-4.25,4.25h-15.09c-2.34,0-4.25-1.9-4.25-4.25s1.91-4.25,4.25-4.25h15.09   C225.98,147.75,227.89,149.65,227.89,152z"></path>		<path class="st31" d="M89.69,152c0,2.35-1.9,4.25-4.25,4.25H70.36c-2.35,0-4.25-1.9-4.25-4.25s1.9-4.25,4.25-4.25h15.08   C87.79,147.75,89.69,149.65,89.69,152z"></path>		<path class="st31" d="M142.75,90.44V75.36c0-2.35,1.9-4.25,4.25-4.25c2.34,0,4.25,1.9,4.25,4.25v15.08c0,2.35-1.91,4.26-4.25,4.26   C144.65,94.7,142.75,92.79,142.75,90.44z"></path>		<path class="st31" d="M151.25,213.56v15.08c0,2.35-1.91,4.25-4.25,4.25c-2.35,0-4.25-1.9-4.25-4.25v-15.08   c0-2.35,1.9-4.25,4.25-4.25C149.34,209.31,151.25,211.21,151.25,213.56z"></path>		<path class="st31" d="M183.16,152c0,2.35-1.91,4.25-4.26,4.25h-21.48c-0.29,0-0.58-0.03-0.86-0.09c-1.61,3.69-5.29,6.27-9.56,6.27   c-5.76,0-10.43-4.67-10.43-10.43c0-4.28,2.58-7.95,6.26-9.56c-0.05-0.28-0.08-0.57-0.08-0.87v-31.39c0-2.34,1.9-4.25,4.25-4.25   c2.34,0,4.25,1.91,4.25,4.25v31.39c0,0.3-0.03,0.59-0.09,0.87c2.41,1.05,4.35,2.99,5.4,5.4c0.28-0.06,0.57-0.09,0.86-0.09h21.48   C181.25,147.75,183.16,149.65,183.16,152z"></path>		<path class="st31" d="M227.89,152c0,2.35-1.91,4.25-4.25,4.25h-15.09c-2.34,0-4.25-1.9-4.25-4.25s1.91-4.25,4.25-4.25h15.09   C225.98,147.75,227.89,149.65,227.89,152z"></path>		<path class="st31" d="M227.89,152c0,2.35-1.91,4.25-4.25,4.25h-15.09c-2.34,0-4.25-1.9-4.25-4.25s1.91-4.25,4.25-4.25h15.09   C225.98,147.75,227.89,149.65,227.89,152z"></path>		<path class="st31" d="M151.25,75.36v15.08c0,2.35-1.91,4.26-4.25,4.26c-2.35,0-4.25-1.91-4.25-4.26V75.36   c0-2.35,1.9-4.25,4.25-4.25C149.34,71.11,151.25,73.01,151.25,75.36z"></path>		<path class="st31" d="M151.25,213.56v15.08c0,2.35-1.91,4.25-4.25,4.25c-2.35,0-4.25-1.9-4.25-4.25v-15.08   c0-2.35,1.9-4.25,4.25-4.25C149.34,209.31,151.25,211.21,151.25,213.56z"></path>		<path class="st31" d="M89.69,152c0,2.35-1.9,4.25-4.25,4.25H70.36c-2.35,0-4.25-1.9-4.25-4.25s1.9-4.25,4.25-4.25h15.08   C87.79,147.75,89.69,149.65,89.69,152z"></path>		<path class="st31" d="M183.16,152c0,2.35-1.91,4.25-4.26,4.25h-21.48c-0.29,0-0.58-0.03-0.86-0.09c-1.61,3.69-5.29,6.27-9.56,6.27   c-5.76,0-10.43-4.67-10.43-10.43c0-4.28,2.58-7.95,6.26-9.56c-0.05-0.28-0.08-0.57-0.08-0.87v-31.39c0-2.34,1.9-4.25,4.25-4.25   c2.34,0,4.25,1.91,4.25,4.25v31.39c0,0.3-0.03,0.59-0.09,0.87c2.41,1.05,4.35,2.99,5.4,5.4c0.28-0.06,0.57-0.09,0.86-0.09h21.48   C181.25,147.75,183.16,149.65,183.16,152z"></path>		<path d="M150,0C67.29,0,0,67.29,0,150c0,11.23,1.25,22.44,3.72,33.3c0.64,2.83,3.12,4.8,6.01,4.8c0.46,0,0.92-0.05,1.37-0.15   c1.61-0.36,2.97-1.33,3.85-2.73c0.88-1.39,1.16-3.05,0.8-4.65c-2.26-9.97-3.41-20.25-3.41-30.57   C12.34,74.09,74.09,12.34,150,12.34S287.66,74.09,287.66,150S225.91,287.66,150,287.66c-41.03,0-78.96-17.73-105.22-48.92   l11.27,4.69c0.76,0.31,1.55,0.47,2.37,0.47c2.5,0,4.74-1.49,5.7-3.8c0.63-1.52,0.64-3.2,0.01-4.72c-0.63-1.52-1.81-2.71-3.33-3.34   L29.46,219c-0.76-0.31-1.55-0.47-2.37-0.47c-1.35,0-2.68,0.45-3.75,1.27c-1.75,1.33-2.65,3.52-2.37,5.69l4.37,33.67   c0.4,3.06,3.03,5.38,6.11,5.38c0.27,0,0.53-0.02,0.8-0.05c3.37-0.44,5.76-3.54,5.32-6.91l-1.27-9.76   c13.05,15.13,29.17,27.69,46.98,36.56C104.12,294.74,126.57,300,150,300c82.71,0,150-67.29,150-150S232.71,0,150,0z"></path>	</g></g></svg>