<svg xmlns="http://www.w3.org/2000/svg" xmlns:xlink="http://www.w3.org/1999/xlink" id="Layer_1" x="0px" y="0px" viewBox="0 0 300 300" style="enable-background:new 0 0 300 300;" xml:space="preserve"><style type="text/css">	.st0{fill-rule:evenodd;clip-rule:evenodd;fill:#FFBD1B;}	.st1{fill-rule:evenodd;clip-rule:evenodd;fill:#CCE6FF;}	.st2{fill-rule:evenodd;clip-rule:evenodd;fill:#AEDAFF;}	.st3{fill-rule:evenodd;clip-rule:evenodd;fill:#E7896E;}	.st4{fill-rule:evenodd;clip-rule:evenodd;fill:#3A7AD6;}	.st5{fill-rule:evenodd;clip-rule:evenodd;fill:#FFD16C;}	.st6{fill-rule:evenodd;clip-rule:evenodd;fill:#FFFFFF;}	.st7{fill-rule:evenodd;clip-rule:evenodd;fill:#BA8715;}	.st8{fill-rule:evenodd;clip-rule:evenodd;fill:#99C7FF;}	.st9{fill:#3A7AD6;}	.st10{fill:#FFD16C;}	.st11{fill:#BA8715;}	.st12{fill:#2E5972;}	.st13{fill:#B0475D;}	.st14{fill:#FFBD1B;}	.st15{fill-rule:evenodd;clip-rule:evenodd;fill:#EDEFF1;}	.st16{fill:#99C7FF;}	.st17{fill:#CCE6FF;}	.st18{clip-path:url(#SVGID_00000096776734202498577940000002709148650003538821_);}	.st19{fill:#FEF2E2;}	.st20{fill:#FFE1BA;}	.st21{fill:#0E3D6B;}	.st22{fill:#AEDAFF;}	.st23{fill:#FFFFFF;}	.st24{fill-rule:evenodd;clip-rule:evenodd;fill:#F6B4A8;}	.st25{fill-rule:evenodd;clip-rule:evenodd;fill:#F9C9C0;}	.st26{fill-rule:evenodd;clip-rule:evenodd;fill:#FFC738;}	.st27{fill:#86A0AF;}	.st28{fill:#738B95;}	.st29{fill:none;stroke:#000000;stroke-width:15;stroke-miterlimit:10;}	.st30{fill-rule:evenodd;clip-rule:evenodd;fill:#EB5463;}	.st31{fill-rule:evenodd;clip-rule:evenodd;}	.st32{fill:#FFF6BB;}	.st33{fill:#FFC472;}	.st34{fill:#FDB614;}	.st35{fill:#474747;}	.st36{opacity:0.1;enable-background:new    ;}	.st37{fill:#EBD8AE;}	.st38{fill-rule:evenodd;clip-rule:evenodd;fill:#DACFE6;}	.st39{fill-rule:evenodd;clip-rule:evenodd;fill:#9E4623;}	.st40{opacity:0.7;fill-rule:evenodd;clip-rule:evenodd;fill:#FFFFFF;}	.st41{fill-rule:evenodd;clip-rule:evenodd;fill:#E2F0FA;}	.st42{fill-rule:evenodd;clip-rule:evenodd;fill:#D0E4F2;}	.st43{fill-rule:evenodd;clip-rule:evenodd;fill:#FFC943;}	.st44{fill-rule:evenodd;clip-rule:evenodd;fill:#6BA4E8;}	.st45{fill-rule:evenodd;clip-rule:evenodd;fill:#FFAA16;}	.st46{fill-rule:evenodd;clip-rule:evenodd;fill:#2567B7;}	.st47{fill-rule:evenodd;clip-rule:evenodd;fill:#EBCDCD;}	.st48{fill-rule:evenodd;clip-rule:evenodd;fill:#D1E7FF;}	.st49{fill-rule:evenodd;clip-rule:evenodd;fill:#222124;}	.st50{fill-rule:evenodd;clip-rule:evenodd;fill:#FAD1A2;}	.st51{fill-rule:evenodd;clip-rule:evenodd;fill:#E6E6E6;}	.st52{fill:url(#SVGID_00000038395667314185363050000011810168152565493943_);}	.st53{fill:none;stroke:#211E1F;stroke-width:0.25;stroke-miterlimit:10;}	.st54{fill:url(#SVGID_00000171716093139531929050000016811638990518283675_);}	.st55{fill:url(#SVGID_00000160904871846142447220000015819746288472636070_);}	.st56{fill:url(#SVGID_00000114055777754388804410000010600268996525308853_);}	.st57{fill:url(#SVGID_00000128485550885133797830000005186528185280698758_);}	.st58{fill:#112A4D;}	.st59{fill:url(#SVGID_00000078035939149095209290000017635724079536812710_);}	.st60{fill:url(#SVGID_00000053512397262363692940000006585739098675224981_);}	.st61{fill:url(#SVGID_00000157266671851252682620000011846134176065780376_);}	.st62{fill:url(#SVGID_00000049932953681980178890000011978660120526172337_);}	.st63{fill:url(#SVGID_00000051354291177315865580000012439991480326961545_);}	.st64{fill:url(#SVGID_00000090994335622884534070000000312348189515283333_);}	.st65{fill:url(#SVGID_00000083779870854976104870000017680776163668960698_);}	.st66{fill:url(#SVGID_00000022536068677924457390000013283504739356596110_);}	.st67{fill:url(#SVGID_00000027596282355271748210000014849890482030289821_);}	.st68{fill:url(#SVGID_00000060019569725671659000000016614750292906083730_);}	.st69{fill:url(#SVGID_00000145759158591629985520000002587375368129825467_);}	.st70{fill:url(#SVGID_00000056430002012306061560000000201987834029001887_);}	.st71{fill:url(#SVGID_00000127750927522075414140000007866956835701661571_);}	.st72{fill:url(#SVGID_00000159451569995291866170000017848103206500707228_);}	.st73{fill:url(#SVGID_00000158010416899185915870000007183940011373079728_);}	.st74{fill:url(#SVGID_00000183219824624033354720000015678703471035130248_);}	.st75{fill:url(#SVGID_00000043428118917005995470000007026404321135737996_);}	.st76{fill:url(#SVGID_00000014617142410514190130000013571047395307767221_);}	.st77{fill:url(#SVGID_00000105386686679689566280000011407666134769986457_);}	.st78{fill:url(#SVGID_00000106839610987531585640000017039593720774384826_);}	.st79{fill:url(#SVGID_00000139295790843964030490000007006221339836344752_);}	.st80{fill:url(#SVGID_00000047743060304687638600000002195632433201075391_);}	.st81{fill:url(#SVGID_00000047048959183480861040000000439650197558847367_);}	.st82{fill:url(#SVGID_00000005958222630937574300000000919973984441002424_);}	.st83{fill:url(#SVGID_00000177471057288271181360000008131080354476403900_);}	.st84{fill:#082649;}	.st85{fill:#EFEFEF;}	.st86{fill:#DDDDDD;}	.st87{fill:#629FDD;}	.st88{fill:#FFC943;}	.st89{fill-rule:evenodd;clip-rule:evenodd;fill:#837683;}	.st90{fill-rule:evenodd;clip-rule:evenodd;fill:#685E68;}	.st91{fill-rule:evenodd;clip-rule:evenodd;fill:#E3A76F;}	.st92{fill-rule:evenodd;clip-rule:evenodd;fill:#FFD064;}	.st93{fill-rule:evenodd;clip-rule:evenodd;fill:#ECEFF1;}	.st94{fill-rule:evenodd;clip-rule:evenodd;fill:#D1D1D6;}	.st95{fill-rule:evenodd;clip-rule:evenodd;fill:#F6DCCD;}	.st96{fill-rule:evenodd;clip-rule:evenodd;fill:#F1CBBC;}	.st97{fill-rule:evenodd;clip-rule:evenodd;fill:#B1B1B5;}	.st98{fill-rule:evenodd;clip-rule:evenodd;fill:#242222;}	.st99{fill:#CCD1D9;}	.st100{fill:#DFF6FD;}	.st101{fill:#D5E3F4;}	.st102{fill:#FFEEE6;}	.st103{fill:#FFDFCF;}</style><g>	<g>		<g>			<g>				<g>					<g>						<polygon class="st22" points="295.6,4.39 295.6,190.2 254.6,230.8 128.77,230.8 128.77,4.39       "></polygon>					</g>					<g>						<polygon class="st9" points="295.6,190.2 254.6,230.8 254.6,190.2       "></polygon>					</g>					<g>						<polygon class="st9" points="263.83,221.67 254.6,230.8 128.77,230.8 128.77,4.39 138.94,4.39 138.94,221.67       "></polygon>					</g>					<g>						<circle class="st14" cx="211.4" cy="64.08" r="41.93"></circle>					</g>					<g>						<path class="st11" d="M217.09,105.62c-1.86,0.25-3.76,0.39-5.69,0.39c-23.16,0-41.93-18.77-41.93-41.93       c0-23.16,18.77-41.93,41.93-41.93c1.93,0,3.84,0.13,5.69,0.39c-20.46,2.77-36.23,20.32-36.23,41.54       C180.86,85.3,196.63,102.85,217.09,105.62z"></path>					</g>				</g>			</g>		</g>		<g>			<g>				<g>					<rect x="4.4" y="147.77" class="st14" width="165.97" height="47.73"></rect>				</g>				<g>					<rect x="4.4" y="195.5" class="st16" width="165.97" height="100.11"></rect>				</g>				<g>					<rect x="46.02" y="129.63" class="st9" width="20.93" height="36.27"></rect>				</g>				<g>					<rect x="107.8" y="129.63" class="st9" width="20.93" height="36.27"></rect>				</g>				<g>					<polygon class="st11" points="170.36,182.31 170.36,195.5 4.4,195.5 4.4,147.77 17.58,147.77 17.58,182.31      "></polygon>				</g>				<g>					<polygon class="st9" points="170.36,282.42 170.36,295.61 4.4,295.61 4.4,195.5 17.58,195.5 17.58,282.42      "></polygon>				</g>			</g>		</g>	</g>	<g>		<g>			<g>				<g>					<polygon points="257.7,233.92 251.51,227.68 291.21,188.37 291.21,4.39 300,4.39 300,192.04      "></polygon>				</g>			</g>			<g>				<polygon points="133.17,147.77 124.38,147.77 124.38,0 251.22,0 251.22,8.79 133.17,8.79     "></polygon>			</g>			<g>				<polygon points="257.7,233.92 251.51,227.67 291.21,188.37 291.21,8.79 259.86,8.79 259.86,0 300,0 300,192.03     "></polygon>			</g>			<g>				<polygon points="256.5,235.2 170.36,235.2 170.36,226.41 254.66,226.41 254.66,228.31 259.03,232.63     "></polygon>			</g>			<g>				<g>					<g>						<path d="M210.79,85.3c-4.27,0-6.79-0.48-10.76-3.08l4.81-7.36c2.34,1.53,3.17,1.66,6.32,1.64c2.8-0.02,4.42-2.1,4.75-4.03       c0.23-1.37-0.03-3.18-2.55-4.07c-3.87-1.37-7.84-2.94-10.64-5.13c-2.92-2.29-4.27-6.23-3.5-10.28       c0.82-4.37,3.88-7.85,7.97-9.08c6.46-1.95,11.7,0.78,13.78,2.7l0.84,0.77l-5.96,6.46l-0.79-0.73       c-0.3-0.24-2.27-1.71-5.34-0.79c-1.41,0.42-1.78,1.86-1.87,2.29c-0.16,0.82,0.03,1.53,0.29,1.74c1.8,1.42,5.13,2.7,8.14,3.76       c5.99,2.12,9.32,7.67,8.28,13.82c-0.94,5.61-5.83,11.32-13.36,11.37C211.08,85.3,210.93,85.3,210.79,85.3z"></path>					</g>					<g>						<rect x="206.8" y="43.15" width="8.79" height="4.48"></rect>					</g>					<g>						<rect x="206.8" y="81.72" width="8.79" height="4.02"></rect>					</g>				</g>			</g>			<g>				<g>					<g>						<polygon points="259,228.37 250.21,228.37 250.21,185.81 295.6,185.81 295.6,194.6 259,194.6       "></polygon>					</g>				</g>				<g>					<g>						<g>							<rect x="170.36" y="154.85" width="92.93" height="8.79"></rect>						</g>					</g>					<g>						<g>							<rect x="170.36" y="191.11" width="64.38" height="8.79"></rect>						</g>					</g>				</g>				<g>					<g>						<g>							<rect x="253.27" y="121.59" width="10.02" height="8.79"></rect>						</g>						<g>							<rect x="159.51" y="121.59" width="84.97" height="8.79"></rect>						</g>					</g>				</g>				<g>					<g>						<path d="M211.4,110.4c-25.54,0-46.32-20.78-46.32-46.32s20.78-46.32,46.32-46.32c10.37,0,20.17,3.35,28.35,9.69       c11.42,8.85,17.97,22.2,17.97,36.64C257.73,89.62,236.94,110.4,211.4,110.4z M211.4,26.54c-20.7,0-37.54,16.84-37.54,37.54       s16.84,37.54,37.54,37.54s37.54-16.84,37.54-37.54c0-11.7-5.31-22.52-14.57-29.69C227.75,29.25,219.8,26.54,211.4,26.54z"></path>					</g>				</g>			</g>			<g>				<g>					<g>						<rect x="273.21" y="36.74" class="st11" width="8.79" height="8.65"></rect>					</g>				</g>				<g>					<g>						<rect x="273.21" y="19.17" class="st11" width="8.79" height="8.65"></rect>					</g>				</g>			</g>		</g>		<g>			<g>				<rect x="66.96" y="143.37" width="40.84" height="8.79"></rect>			</g>			<g>				<polygon points="174.76,199.89 0,199.89 0,143.37 46.02,143.37 46.02,152.16 8.79,152.16 8.79,191.1 165.97,191.1      165.97,152.16 128.73,152.16 128.73,143.37 174.76,143.37     "></polygon>			</g>			<g>				<polygon points="174.76,300 0,300 0,191.11 174.76,191.11 174.76,250.2 165.97,250.2 165.97,199.89 8.79,199.89 8.79,291.21      165.97,291.21 165.97,258.4 174.76,258.4     "></polygon>			</g>			<g>				<path d="M71.35,170.29H41.63v-45.06h29.72V170.29z M50.42,161.51h12.14v-27.48H50.42V161.51z"></path>			</g>			<g>				<path d="M133.13,170.29h-29.72v-45.06h29.72V170.29z M112.2,161.51h12.14v-27.48H112.2V161.51z"></path>			</g>			<g>				<g>					<polygon points="96.48,268.7 87.69,268.7 87.69,229.02 82.67,229.02 82.67,220.23 96.48,220.23      "></polygon>				</g>			</g>		</g>	</g></g></svg>